<svg width="201" height="140" viewBox="0 0 201 140" fill="none" xmlns="http://www.w3.org/2000/svg">
<path d="M122.5 26C134.65 26 144.5 35.8497 144.5 48C144.5 60.1503 134.65 70 122.5 70C134.65 70 144.5 79.8497 144.5 92C144.5 104.15 134.65 114 122.5 114C110.35 114 100.5 104.15 100.5 92C100.5 104.15 90.6503 114 78.5 114C66.3497 114 56.5 104.15 56.5 92C56.5 79.8497 66.3497 70 78.5 70C66.3497 70 56.5 60.1503 56.5 48C56.5 35.8497 66.3497 26 78.5 26C90.6503 26 100.5 35.8497 100.5 48C100.5 35.8497 110.35 26 122.5 26Z" fill="#F0E6FA"/>
<mask id="mask0_872_3722" style="mask-type:alpha" maskUnits="userSpaceOnUse" x="80" y="50" width="41" height="40">
<rect x="80.5" y="50" width="40" height="40" fill="#D9D9D9"/>
</mask>
<g mask="url(#mask0_872_3722)">
<path d="M96.4169 80.0007L86.9169 70.5007L89.2919 68.1257L96.4169 75.2507L111.709 59.959L114.084 62.334L96.4169 80.0007Z" fill="#8333D7"/>
</g>
</svg>
