<svg width="173" height="176" viewBox="0 0 173 176" fill="none" xmlns="http://www.w3.org/2000/svg">
<g clip-path="url(#clip0_799_3797)">
<rect width="173" height="176" rx="12" fill="#4CAADD" fill-opacity="0.15"/>
<path d="M16.958 21.138H13.066L12.422 23H10.364L13.878 13.214H16.16L19.674 23H17.602L16.958 21.138ZM16.426 19.57L15.012 15.482L13.598 19.57H16.426ZM22.9475 13.228V23H20.9875V13.228H22.9475ZM30.1799 21.446H33.3999V23H28.2199V13.228H30.1799V21.446ZM35.6397 14.32C35.2944 14.32 35.005 14.2127 34.7717 13.998C34.5477 13.774 34.4357 13.4987 34.4357 13.172C34.4357 12.8453 34.5477 12.5747 34.7717 12.36C35.005 12.136 35.2944 12.024 35.6397 12.024C35.985 12.024 36.2697 12.136 36.4937 12.36C36.727 12.5747 36.8437 12.8453 36.8437 13.172C36.8437 13.4987 36.727 13.774 36.4937 13.998C36.2697 14.2127 35.985 14.32 35.6397 14.32ZM36.6057 15.244V23H34.6457V15.244H36.6057ZM41.5102 23.126C40.8755 23.126 40.3062 23.014 39.8022 22.79C39.2982 22.5567 38.8968 22.244 38.5982 21.852C38.3088 21.46 38.1502 21.026 38.1222 20.55H40.0962C40.1335 20.8487 40.2782 21.096 40.5302 21.292C40.7915 21.488 41.1135 21.586 41.4962 21.586C41.8695 21.586 42.1588 21.5113 42.3642 21.362C42.5788 21.2127 42.6862 21.0213 42.6862 20.788C42.6862 20.536 42.5555 20.3493 42.2942 20.228C42.0422 20.0973 41.6362 19.9573 41.0762 19.808C40.4975 19.668 40.0215 19.5233 39.6482 19.374C39.2842 19.2247 38.9668 18.996 38.6962 18.688C38.4348 18.38 38.3042 17.9647 38.3042 17.442C38.3042 17.0127 38.4255 16.6207 38.6682 16.266C38.9202 15.9113 39.2748 15.6313 39.7322 15.426C40.1988 15.2207 40.7448 15.118 41.3702 15.118C42.2942 15.118 43.0315 15.3513 43.5822 15.818C44.1328 16.2753 44.4362 16.896 44.4922 17.68H42.6162C42.5882 17.372 42.4575 17.1293 42.2242 16.952C42.0002 16.7653 41.6968 16.672 41.3142 16.672C40.9595 16.672 40.6842 16.7373 40.4882 16.868C40.3015 16.9987 40.2082 17.1807 40.2082 17.414C40.2082 17.6753 40.3388 17.876 40.6002 18.016C40.8615 18.1467 41.2675 18.282 41.8182 18.422C42.3782 18.562 42.8402 18.7067 43.2042 18.856C43.5682 19.0053 43.8808 19.2387 44.1422 19.556C44.4128 19.864 44.5528 20.2747 44.5622 20.788C44.5622 21.236 44.4362 21.6373 44.1842 21.992C43.9415 22.3467 43.5868 22.6267 43.1202 22.832C42.6628 23.028 42.1262 23.126 41.5102 23.126ZM48.4531 16.854V20.606C48.4531 20.8673 48.5137 21.0587 48.6351 21.18C48.7657 21.292 48.9804 21.348 49.2791 21.348H50.1891V23H48.9571C47.3051 23 46.4791 22.1973 46.4791 20.592V16.854H45.5551V15.244H46.4791V13.326H48.4531V15.244H50.1891V16.854H48.4531ZM58.8088 18.954C58.8088 19.234 58.7901 19.486 58.7528 19.71H53.0828C53.1295 20.27 53.3255 20.7087 53.6708 21.026C54.0161 21.3433 54.4408 21.502 54.9448 21.502C55.6728 21.502 56.1908 21.1893 56.4988 20.564H58.6128C58.3888 21.3107 57.9595 21.9267 57.3248 22.412C56.6901 22.888 55.9108 23.126 54.9868 23.126C54.2401 23.126 53.5681 22.9627 52.9708 22.636C52.3828 22.3 51.9208 21.8287 51.5848 21.222C51.2581 20.6153 51.0948 19.9153 51.0948 19.122C51.0948 18.3193 51.2581 17.6147 51.5848 17.008C51.9115 16.4013 52.3688 15.9347 52.9568 15.608C53.5448 15.2813 54.2215 15.118 54.9868 15.118C55.7241 15.118 56.3821 15.2767 56.9608 15.594C57.5488 15.9113 58.0015 16.364 58.3188 16.952C58.6455 17.5307 58.8088 18.198 58.8088 18.954ZM56.7788 18.394C56.7695 17.89 56.5875 17.4887 56.2328 17.19C55.8781 16.882 55.4441 16.728 54.9308 16.728C54.4455 16.728 54.0348 16.8773 53.6988 17.176C53.3721 17.4653 53.1715 17.8713 53.0968 18.394H56.7788ZM64.5374 15.132C65.4614 15.132 66.2081 15.426 66.7774 16.014C67.3468 16.5927 67.6314 17.4047 67.6314 18.45V23H65.6714V18.716C65.6714 18.1 65.5174 17.6287 65.2094 17.302C64.9014 16.966 64.4814 16.798 63.9494 16.798C63.4081 16.798 62.9788 16.966 62.6614 17.302C62.3534 17.6287 62.1994 18.1 62.1994 18.716V23H60.2394V15.244H62.1994V16.21C62.4608 15.874 62.7921 15.6127 63.1934 15.426C63.6041 15.23 64.0521 15.132 64.5374 15.132ZM70.4893 14.32C70.144 14.32 69.8546 14.2127 69.6213 13.998C69.3973 13.774 69.2853 13.4987 69.2853 13.172C69.2853 12.8453 69.3973 12.5747 69.6213 12.36C69.8546 12.136 70.144 12.024 70.4893 12.024C70.8346 12.024 71.1193 12.136 71.3433 12.36C71.5766 12.5747 71.6933 12.8453 71.6933 13.172C71.6933 13.4987 71.5766 13.774 71.3433 13.998C71.1193 14.2127 70.8346 14.32 70.4893 14.32ZM71.4553 15.244V23H69.4953V15.244H71.4553ZM77.6898 15.132C78.6138 15.132 79.3604 15.426 79.9298 16.014C80.4991 16.5927 80.7838 17.4047 80.7838 18.45V23H78.8238V18.716C78.8238 18.1 78.6698 17.6287 78.3618 17.302C78.0538 16.966 77.6338 16.798 77.1018 16.798C76.5604 16.798 76.1311 16.966 75.8138 17.302C75.5058 17.6287 75.3518 18.1 75.3518 18.716V23H73.3918V15.244H75.3518V16.21C75.6131 15.874 75.9444 15.6127 76.3458 15.426C76.7564 15.23 77.2044 15.132 77.6898 15.132ZM85.6856 15.118C86.2643 15.118 86.773 15.2347 87.2116 15.468C87.6503 15.692 87.9956 15.986 88.2476 16.35V15.244H90.2216V23.056C90.2216 23.7747 90.077 24.414 89.7876 24.974C89.4983 25.5433 89.0643 25.9913 88.4856 26.318C87.907 26.654 87.207 26.822 86.3856 26.822C85.2843 26.822 84.379 26.5653 83.6696 26.052C82.9696 25.5387 82.573 24.8387 82.4796 23.952H84.4256C84.5283 24.3067 84.7476 24.5867 85.0836 24.792C85.429 25.0067 85.8443 25.114 86.3296 25.114C86.899 25.114 87.361 24.9413 87.7156 24.596C88.0703 24.26 88.2476 23.7467 88.2476 23.056V21.852C87.9956 22.216 87.6456 22.5193 87.1976 22.762C86.759 23.0047 86.255 23.126 85.6856 23.126C85.0323 23.126 84.435 22.958 83.8936 22.622C83.3523 22.286 82.923 21.8147 82.6056 21.208C82.2976 20.592 82.1436 19.8873 82.1436 19.094C82.1436 18.31 82.2976 17.6147 82.6056 17.008C82.923 16.4013 83.3476 15.9347 83.8796 15.608C84.421 15.2813 85.023 15.118 85.6856 15.118ZM88.2476 19.122C88.2476 18.646 88.1543 18.24 87.9676 17.904C87.781 17.5587 87.529 17.2973 87.2116 17.12C86.8943 16.9333 86.5536 16.84 86.1896 16.84C85.8256 16.84 85.4896 16.9287 85.1816 17.106C84.8736 17.2833 84.6216 17.5447 84.4256 17.89C84.239 18.226 84.1456 18.6273 84.1456 19.094C84.1456 19.5607 84.239 19.9713 84.4256 20.326C84.6216 20.6713 84.8736 20.9373 85.1816 21.124C85.499 21.3107 85.835 21.404 86.1896 21.404C86.5536 21.404 86.8943 21.3153 87.2116 21.138C87.529 20.9513 87.781 20.69 87.9676 20.354C88.1543 20.0087 88.2476 19.598 88.2476 19.122ZM17 30.228V31.81H12.926V34.316H16.048V35.87H12.926V40H10.966V30.228H17ZM20.3498 33.448C20.6018 33.0373 20.9285 32.7153 21.3298 32.482C21.7405 32.2487 22.2072 32.132 22.7298 32.132V34.19H22.2118C21.5958 34.19 21.1292 34.3347 20.8118 34.624C20.5038 34.9133 20.3498 35.4173 20.3498 36.136V40H18.3898V32.244H20.3498V33.448ZM25.044 31.32C24.6987 31.32 24.4093 31.2127 24.176 30.998C23.952 30.774 23.84 30.4987 23.84 30.172C23.84 29.8453 23.952 29.5747 24.176 29.36C24.4093 29.136 24.6987 29.024 25.044 29.024C25.3893 29.024 25.674 29.136 25.898 29.36C26.1313 29.5747 26.248 29.8453 26.248 30.172C26.248 30.4987 26.1313 30.774 25.898 30.998C25.674 31.2127 25.3893 31.32 25.044 31.32ZM26.01 32.244V40H24.05V32.244H26.01ZM35.1565 35.954C35.1565 36.234 35.1378 36.486 35.1005 36.71H29.4305C29.4771 37.27 29.6731 37.7087 30.0185 38.026C30.3638 38.3433 30.7885 38.502 31.2925 38.502C32.0205 38.502 32.5385 38.1893 32.8465 37.564H34.9605C34.7365 38.3107 34.3071 38.9267 33.6725 39.412C33.0378 39.888 32.2585 40.126 31.3345 40.126C30.5878 40.126 29.9158 39.9627 29.3185 39.636C28.7305 39.3 28.2685 38.8287 27.9325 38.222C27.6058 37.6153 27.4425 36.9153 27.4425 36.122C27.4425 35.3193 27.6058 34.6147 27.9325 34.008C28.2591 33.4013 28.7165 32.9347 29.3045 32.608C29.8925 32.2813 30.5691 32.118 31.3345 32.118C32.0718 32.118 32.7298 32.2767 33.3085 32.594C33.8965 32.9113 34.3491 33.364 34.6665 33.952C34.9931 34.5307 35.1565 35.198 35.1565 35.954ZM33.1265 35.394C33.1171 34.89 32.9351 34.4887 32.5805 34.19C32.2258 33.882 31.7918 33.728 31.2785 33.728C30.7931 33.728 30.3825 33.8773 30.0465 34.176C29.7198 34.4653 29.5191 34.8713 29.4445 35.394H33.1265ZM40.8851 32.132C41.8091 32.132 42.5558 32.426 43.1251 33.014C43.6944 33.5927 43.9791 34.4047 43.9791 35.45V40H42.0191V35.716C42.0191 35.1 41.8651 34.6287 41.5571 34.302C41.2491 33.966 40.8291 33.798 40.2971 33.798C39.7558 33.798 39.3264 33.966 39.0091 34.302C38.7011 34.6287 38.5471 35.1 38.5471 35.716V40H36.5871V32.244H38.5471V33.21C38.8084 32.874 39.1398 32.6127 39.5411 32.426C39.9518 32.23 40.3998 32.132 40.8851 32.132ZM45.339 36.094C45.339 35.31 45.493 34.6147 45.801 34.008C46.1183 33.4013 46.5476 32.9347 47.089 32.608C47.6303 32.2813 48.2323 32.118 48.895 32.118C49.399 32.118 49.8796 32.23 50.337 32.454C50.7943 32.6687 51.1583 32.958 51.429 33.322V29.64H53.417V40H51.429V38.852C51.1863 39.2347 50.8456 39.5427 50.407 39.776C49.9683 40.0093 49.4596 40.126 48.881 40.126C48.2276 40.126 47.6303 39.958 47.089 39.622C46.5476 39.286 46.1183 38.8147 45.801 38.208C45.493 37.592 45.339 36.8873 45.339 36.094ZM51.443 36.122C51.443 35.646 51.3496 35.24 51.163 34.904C50.9763 34.5587 50.7243 34.2973 50.407 34.12C50.0896 33.9333 49.749 33.84 49.385 33.84C49.021 33.84 48.685 33.9287 48.377 34.106C48.069 34.2833 47.817 34.5447 47.621 34.89C47.4343 35.226 47.341 35.6273 47.341 36.094C47.341 36.5607 47.4343 36.9713 47.621 37.326C47.817 37.6713 48.069 37.9373 48.377 38.124C48.6943 38.3107 49.0303 38.404 49.385 38.404C49.749 38.404 50.0896 38.3153 50.407 38.138C50.7243 37.9513 50.9763 37.69 51.163 37.354C51.3496 37.0087 51.443 36.598 51.443 36.122Z" fill="#4CAADD"/>
<path d="M119 0H177V17H132C124.82 17 119 11.1797 119 4V0Z" fill="#4CAADD"/>
<path d="M131.705 11V5.18182H133.739C134.144 5.18182 134.478 5.25189 134.741 5.39205C135.005 5.5303 135.201 5.71686 135.33 5.9517C135.458 6.18466 135.523 6.44318 135.523 6.72727C135.523 6.97727 135.478 7.18371 135.389 7.34659C135.302 7.50947 135.187 7.63826 135.043 7.73295C134.901 7.82765 134.746 7.89773 134.58 7.94318V8C134.758 8.01136 134.937 8.07386 135.116 8.1875C135.296 8.30114 135.447 8.46402 135.568 8.67614C135.689 8.88826 135.75 9.14773 135.75 9.45455C135.75 9.74621 135.684 10.0085 135.551 10.2415C135.419 10.4744 135.209 10.6591 134.923 10.7955C134.637 10.9318 134.265 11 133.807 11H131.705ZM132.409 10.375H133.807C134.267 10.375 134.594 10.286 134.787 10.108C134.982 9.92803 135.08 9.71023 135.08 9.45455C135.08 9.25758 135.029 9.07576 134.929 8.90909C134.829 8.74053 134.686 8.60606 134.5 8.50568C134.314 8.40341 134.095 8.35227 133.841 8.35227H132.409V10.375ZM132.409 7.73864H133.716C133.928 7.73864 134.119 7.69697 134.29 7.61364C134.462 7.5303 134.598 7.41288 134.699 7.26136C134.801 7.10985 134.852 6.93182 134.852 6.72727C134.852 6.47159 134.763 6.25473 134.585 6.0767C134.407 5.89678 134.125 5.80682 133.739 5.80682H132.409V7.73864ZM138.646 11.0909C138.226 11.0909 137.863 10.9981 137.558 10.8125C137.255 10.625 137.021 10.3636 136.857 10.0284C136.694 9.69129 136.612 9.29924 136.612 8.85227C136.612 8.4053 136.694 8.01136 136.857 7.67045C137.021 7.32765 137.25 7.06061 137.544 6.86932C137.839 6.67614 138.184 6.57955 138.578 6.57955C138.805 6.57955 139.03 6.61742 139.251 6.69318C139.473 6.76894 139.675 6.89205 139.857 7.0625C140.038 7.23106 140.183 7.45455 140.291 7.73295C140.399 8.01136 140.453 8.35417 140.453 8.76136V9.04545H137.089V8.46591H139.771C139.771 8.2197 139.722 8 139.624 7.80682C139.527 7.61364 139.389 7.46117 139.209 7.34943C139.031 7.23769 138.821 7.18182 138.578 7.18182C138.311 7.18182 138.08 7.24811 137.885 7.38068C137.692 7.51136 137.543 7.68182 137.439 7.89205C137.335 8.10227 137.283 8.32765 137.283 8.56818V8.95455C137.283 9.28409 137.339 9.56345 137.453 9.79261C137.569 10.0199 137.729 10.1932 137.933 10.3125C138.138 10.4299 138.375 10.4886 138.646 10.4886C138.822 10.4886 138.982 10.464 139.124 10.4148C139.268 10.3636 139.392 10.2879 139.496 10.1875C139.6 10.0852 139.68 9.95833 139.737 9.80682L140.385 9.98864C140.317 10.2083 140.202 10.4015 140.041 10.5682C139.88 10.733 139.681 10.8617 139.445 10.9545C139.208 11.0455 138.942 11.0909 138.646 11.0909ZM143.234 12.7273C142.911 12.7273 142.632 12.6856 142.399 12.6023C142.166 12.5208 141.972 12.4129 141.817 12.2784C141.663 12.1458 141.541 12.0038 141.45 11.8523L141.984 11.4773C142.045 11.5568 142.122 11.6477 142.214 11.75C142.307 11.8542 142.434 11.9441 142.595 12.0199C142.758 12.0975 142.971 12.1364 143.234 12.1364C143.587 12.1364 143.877 12.0511 144.107 11.8807C144.336 11.7102 144.45 11.4432 144.45 11.0795V10.1932H144.393C144.344 10.2727 144.274 10.3712 144.183 10.4886C144.094 10.6042 143.965 10.7074 143.797 10.7983C143.63 10.8873 143.405 10.9318 143.121 10.9318C142.768 10.9318 142.452 10.8485 142.172 10.6818C141.893 10.5152 141.673 10.2727 141.51 9.95455C141.349 9.63636 141.268 9.25 141.268 8.79545C141.268 8.34848 141.347 7.95928 141.504 7.62784C141.661 7.29451 141.88 7.03693 142.161 6.85511C142.441 6.6714 142.765 6.57955 143.132 6.57955C143.416 6.57955 143.642 6.62689 143.808 6.72159C143.977 6.81439 144.106 6.92045 144.195 7.03977C144.286 7.1572 144.356 7.25379 144.405 7.32955H144.473V6.63636H145.121V11.125C145.121 11.5 145.036 11.8049 144.865 12.0398C144.696 12.2765 144.469 12.4498 144.183 12.5597C143.899 12.6714 143.583 12.7273 143.234 12.7273ZM143.212 10.3295C143.481 10.3295 143.708 10.268 143.893 10.1449C144.079 10.0218 144.22 9.8447 144.317 9.61364C144.413 9.38258 144.462 9.10606 144.462 8.78409C144.462 8.4697 144.414 8.19223 144.32 7.9517C144.225 7.71117 144.085 7.52273 143.899 7.38636C143.714 7.25 143.484 7.18182 143.212 7.18182C142.928 7.18182 142.691 7.25379 142.501 7.39773C142.314 7.54167 142.173 7.73485 142.078 7.97727C141.985 8.2197 141.939 8.48864 141.939 8.78409C141.939 9.08712 141.986 9.35511 142.081 9.58807C142.178 9.81913 142.32 10.0009 142.507 10.1335C142.696 10.2642 142.931 10.3295 143.212 10.3295ZM146.348 11V6.63636H147.018V11H146.348ZM146.689 5.90909C146.558 5.90909 146.446 5.86458 146.351 5.77557C146.258 5.68655 146.212 5.57955 146.212 5.45455C146.212 5.32955 146.258 5.22254 146.351 5.13352C146.446 5.04451 146.558 5 146.689 5C146.82 5 146.931 5.04451 147.024 5.13352C147.119 5.22254 147.166 5.32955 147.166 5.45455C147.166 5.57955 147.119 5.68655 147.024 5.77557C146.931 5.86458 146.82 5.90909 146.689 5.90909ZM148.917 8.375V11H148.246V6.63636H148.894V7.31818H148.951C149.053 7.09659 149.209 6.91856 149.417 6.78409C149.625 6.64773 149.894 6.57955 150.224 6.57955C150.519 6.57955 150.778 6.64015 150.999 6.76136C151.221 6.88068 151.393 7.0625 151.516 7.30682C151.639 7.54924 151.701 7.85606 151.701 8.22727V11H151.031V8.27273C151.031 7.92992 150.942 7.66288 150.763 7.47159C150.585 7.27841 150.341 7.18182 150.031 7.18182C149.817 7.18182 149.625 7.22822 149.457 7.32102C149.29 7.41383 149.158 7.54924 149.062 7.72727C148.965 7.9053 148.917 8.12121 148.917 8.375ZM153.597 8.375V11H152.926V6.63636H153.574V7.31818H153.631C153.733 7.09659 153.888 6.91856 154.097 6.78409C154.305 6.64773 154.574 6.57955 154.903 6.57955C155.199 6.57955 155.457 6.64015 155.679 6.76136C155.901 6.88068 156.073 7.0625 156.196 7.30682C156.319 7.54924 156.381 7.85606 156.381 8.22727V11H155.71V8.27273C155.71 7.92992 155.621 7.66288 155.443 7.47159C155.265 7.27841 155.021 7.18182 154.71 7.18182C154.496 7.18182 154.305 7.22822 154.136 7.32102C153.97 7.41383 153.838 7.54924 153.741 7.72727C153.645 7.9053 153.597 8.12121 153.597 8.375ZM159.435 11.0909C159.015 11.0909 158.652 10.9981 158.347 10.8125C158.044 10.625 157.81 10.3636 157.646 10.0284C157.483 9.69129 157.401 9.29924 157.401 8.85227C157.401 8.4053 157.483 8.01136 157.646 7.67045C157.81 7.32765 158.04 7.06061 158.333 6.86932C158.629 6.67614 158.973 6.57955 159.367 6.57955C159.594 6.57955 159.819 6.61742 160.04 6.69318C160.262 6.76894 160.464 6.89205 160.646 7.0625C160.827 7.23106 160.972 7.45455 161.08 7.73295C161.188 8.01136 161.242 8.35417 161.242 8.76136V9.04545H157.879V8.46591H160.56C160.56 8.2197 160.511 8 160.413 7.80682C160.316 7.61364 160.178 7.46117 159.998 7.34943C159.82 7.23769 159.61 7.18182 159.367 7.18182C159.1 7.18182 158.869 7.24811 158.674 7.38068C158.481 7.51136 158.332 7.68182 158.228 7.89205C158.124 8.10227 158.072 8.32765 158.072 8.56818V8.95455C158.072 9.28409 158.129 9.56345 158.242 9.79261C158.358 10.0199 158.518 10.1932 158.722 10.3125C158.927 10.4299 159.165 10.4886 159.435 10.4886C159.612 10.4886 159.771 10.464 159.913 10.4148C160.057 10.3636 160.181 10.2879 160.285 10.1875C160.389 10.0852 160.469 9.95833 160.526 9.80682L161.174 9.98864C161.106 10.2083 160.991 10.4015 160.83 10.5682C160.669 10.733 160.47 10.8617 160.234 10.9545C159.997 11.0455 159.731 11.0909 159.435 11.0909ZM162.262 11V6.63636H162.91V7.29545H162.955C163.035 7.07955 163.179 6.90436 163.387 6.76989C163.595 6.63542 163.83 6.56818 164.092 6.56818C164.141 6.56818 164.202 6.56913 164.276 6.57102C164.35 6.57292 164.406 6.57576 164.444 6.57955V7.26136C164.421 7.25568 164.369 7.24716 164.288 7.2358C164.208 7.22254 164.124 7.21591 164.035 7.21591C163.823 7.21591 163.633 7.26042 163.467 7.34943C163.302 7.43655 163.171 7.55777 163.075 7.71307C162.98 7.86648 162.933 8.04167 162.933 8.23864V11H162.262Z" fill="white"/>
<mask id="mask0_799_3797" style="mask-type:luminance" maskUnits="userSpaceOnUse" x="10" y="73" width="99" height="102">
<path d="M10 73H109V174.428H10V73Z" fill="white"/>
</mask>
<g mask="url(#mask0_799_3797)">
<mask id="mask1_799_3797" style="mask-type:luminance" maskUnits="userSpaceOnUse" x="9" y="72" width="101" height="103">
<path d="M109.103 72.8418H9.83286V174.449H109.103V72.8418Z" fill="white"/>
</mask>
<g mask="url(#mask1_799_3797)">
<path d="M75.7401 141.038C75.856 141.841 84.0316 135.721 84.0316 135.721C86.6167 135.721 89.1927 135.721 91.7821 135.721C101.155 135.695 108.876 127.927 108.893 118.471C108.906 117.693 108.906 116.927 108.893 116.149C108.876 106.693 101.155 98.9378 91.7821 98.9118C87.5152 98.8992 83.2652 98.8992 78.9982 98.9118C69.625 98.9378 61.9004 106.693 61.8878 116.149C61.8878 116.927 61.8878 117.693 61.8878 118.471C61.9004 127.242 68.5431 134.547 76.9926 135.589C76.9926 135.589 75.5533 139.822 75.7401 141.038Z" fill="#EAA69B" fill-opacity="0.8"/>
<path d="M50.315 166.056C50.315 166.056 51.6484 172.061 51.4517 173.334C51.3259 174.18 42.4458 167.609 42.4458 167.609C31.069 167.609 21.8475 158.397 21.8475 147.037C21.8475 135.673 31.069 126.461 42.4458 126.461C53.8218 126.461 63.0434 135.673 63.0434 147.037C63.0434 155.615 57.7853 162.968 50.315 166.056Z" fill="#67C6E3"/>
<path d="M48.6375 119.845C48.4992 120.781 37.8923 112.541 37.8923 112.541L25.4379 112.402C19.4289 112.402 14.3091 108.031 13.3952 102.107L11.0826 87.2849C9.93335 79.9067 15.6523 73.2422 23.1253 73.2422H48.1929C55.3737 73.2422 60.9894 79.4142 60.3262 86.555L58.9479 101.363C58.3972 107.311 53.6062 111.93 47.7292 112.37C47.7292 112.37 48.8532 118.43 48.6375 119.845Z" fill="#FFB95C"/>
<path d="M88.6841 115.987C88.6841 117.232 89.6922 118.241 90.9384 118.241C92.1846 118.241 93.192 117.232 93.192 115.987C93.192 114.745 92.1846 113.735 90.9384 113.735C89.6922 113.735 88.6841 114.745 88.6841 115.987Z" fill="#F36084"/>
<path d="M73.254 115.987C73.254 117.232 74.2649 118.241 75.5083 118.241C76.7545 118.241 77.7654 117.232 77.7654 115.987C77.7654 114.745 76.7545 113.735 75.5083 113.735C74.2649 113.735 73.254 114.745 73.254 115.987Z" fill="#F36084"/>
<path d="M51.139 141.294C51.139 142.6 52.1984 143.662 53.5092 143.662C54.8166 143.662 55.8794 142.6 55.8794 141.294C55.8794 139.985 54.8166 138.927 53.5092 138.927C52.1984 138.927 51.139 139.985 51.139 141.294Z" fill="#00769A"/>
<path d="M36.9165 141.294C36.9165 142.6 37.9759 143.662 39.2867 143.662C40.5941 143.662 41.6569 142.6 41.6569 141.294C41.6569 139.985 40.5941 138.927 39.2867 138.927C37.9759 138.927 36.9165 139.985 36.9165 141.294Z" fill="#00769A"/>
<path d="M43.8915 92.7334C44.8701 92.7334 45.5944 93.6206 45.4335 94.5859C44.9052 97.7414 42.9158 100.424 38.6074 100.424C34.2991 100.424 32.3089 97.7414 31.7807 94.5859C31.6198 93.6206 32.3441 92.7334 33.3233 92.7334H43.8915Z" fill="white"/>
<path d="M82.8655 123.229C84.8205 123.229 86.2374 122.023 86.5591 120.08C86.6715 119.408 86.2177 118.771 85.5447 118.659C84.8781 118.546 84.2346 119 84.1215 119.672C83.9606 120.627 83.3972 120.759 82.8655 120.759C82.3344 120.759 81.771 120.627 81.6101 119.672C81.5005 119 80.8599 118.546 80.1869 118.659C79.5139 118.771 79.0601 119.408 79.1725 120.08C79.4977 122.023 80.9147 123.229 82.8655 123.229Z" fill="white"/>
<path d="M49.3329 147.903C49.8513 147.903 50.2342 148.373 50.1478 148.884C49.8675 150.55 48.818 151.969 46.5412 151.969C44.2645 151.969 43.2114 150.55 42.9318 148.884C42.8475 148.373 43.2311 147.903 43.7495 147.903H49.3329Z" fill="white"/>
<path d="M42.6545 87.2054C42.9832 87.2054 43.312 87.0769 43.5529 86.8191C44.3966 85.9255 46.3516 86.0379 46.915 86.472C47.456 86.89 48.2315 86.7874 48.6474 86.2465C49.0625 85.7035 48.9628 84.928 48.4219 84.5135C46.9986 83.4225 43.5726 83.1977 41.7567 85.124C41.286 85.6199 41.3085 86.4011 41.8044 86.871C42.0461 87.0958 42.3489 87.2054 42.6545 87.2054Z" fill="#F7844B"/>
<path d="M33.5776 87.2054C33.8803 87.2054 34.1859 87.0958 34.4248 86.871C34.9235 86.4011 34.946 85.6199 34.4761 85.124C32.6566 83.1977 29.2306 83.4225 27.8109 84.5135C27.27 84.928 27.1667 85.7035 27.5819 86.2465C27.9977 86.7874 28.7733 86.89 29.3177 86.472C29.8811 86.0407 31.8326 85.9255 32.6763 86.8191C32.9208 87.0769 33.2495 87.2054 33.5776 87.2054Z" fill="#F7844B"/>
</g>
</g>
</g>
<defs>
<clipPath id="clip0_799_3797">
<rect width="173" height="176" rx="12" fill="white"/>
</clipPath>
</defs>
</svg>
