<svg id="Layer_1" data-name="Layer 1" xmlns="http://www.w3.org/2000/svg" viewBox="0 0 366.13 366.13"><defs><style>.cls-1{fill:#ed1e2e;}.cls-2{fill:#e21f26;}.cls-3{fill:#fff;}.cls-4,.cls-7{fill:none;stroke-linecap:round;stroke-miterlimit:10;stroke-width:9px;}.cls-4{stroke:#000;}.cls-5{fill:#ef4477;}.cls-6{fill:#ee1e4f;}.cls-7{stroke:#190c0b;}</style></defs><circle class="cls-1" cx="183.06" cy="183.06" r="183.06"/><ellipse class="cls-2" cx="236.17" cy="87.06" rx="41.11" ry="10.98"/><ellipse class="cls-2" cx="142.21" cy="316.09" rx="41.11" ry="9.19"/><ellipse class="cls-2" cx="248.43" cy="254.04" rx="52.34" ry="9.45"/><ellipse class="cls-2" cx="214.47" cy="159.06" rx="104.68" ry="10.98"/><ellipse class="cls-2" cx="85.02" cy="226.21" rx="36.51" ry="12.26"/><g id="eye"><path d="M325.86,411.58a38.3,38.3,0,1,0,55.38-23.78" transform="translate(-114.97 -237.89)"/><path class="cls-3" d="M366.46,403.67a10.22,10.22,0,0,1-20.43,0c0-.21,0-.43,0-.64l16.74-7.19A10.23,10.23,0,0,1,366.46,403.67Z" transform="translate(-114.97 -237.89)"/><path d="M268.42,411.58A38.31,38.31,0,1,1,213,387.8" transform="translate(-114.97 -237.89)"/><path class="cls-3" d="M227.82,403.67a10.21,10.21,0,0,0,20.42,0c0-.21,0-.43,0-.64l-16.73-7.19A10.19,10.19,0,0,0,227.82,403.67Z" transform="translate(-114.97 -237.89)"/></g><path class="cls-4" d="M262.8,498.31c4.19-13.32,15.47-23,28.59-24.51,15.71-1.84,31.39,8.27,36.77,24.51" transform="translate(-114.97 -237.89)"/><ellipse class="cls-5" cx="196.92" cy="474.31" rx="14.81" ry="28.6" transform="translate(-430.92 209.85) rotate(-64.49)"/><ellipse class="cls-5" cx="402.71" cy="469.2" rx="28.6" ry="14.81" transform="translate(-277.79 -18.67) rotate(-25.51)"/><ellipse class="cls-6" cx="206.34" cy="317.55" rx="53.56" ry="30.57" transform="translate(-266.32 -44.72) rotate(-37.81)"/><path class="cls-7" d="M208.67,381.88c0-1.31,65.11,26.81,65.11,26.81" transform="translate(-114.97 -237.89)"/><path class="cls-7" d="M386.37,382.67c0-1.31-65.11,26.82-65.11,26.82" transform="translate(-114.97 -237.89)"/></svg>