<svg id="Layer_1" data-name="Layer 1" xmlns="http://www.w3.org/2000/svg" viewBox="0 0 467.92 467.92"><defs><style>.cls-1{fill:#f47721;}.cls-2{fill:#f68b20;}.cls-3{fill:#fbd506;}.cls-4{fill:#231f20;}.cls-5{fill:#fff;}.cls-6{fill:none;stroke:#231f20;stroke-linecap:round;stroke-miterlimit:10;stroke-width:9px;}.cls-7{fill:#ef4576;}</style></defs><circle class="cls-1" cx="233.96" cy="233.96" r="233.96"/><path class="cls-2" d="M232.82,185.27c-94.62,30-163.19,118.51-163.19,223.05A233.07,233.07,0,0,0,88.72,501,184.38,184.38,0,0,0,219.1,554.76c102.17,0,185-82.82,185-185C404.1,272.21,328.59,192.29,232.82,185.27Z" transform="translate(-69.63 -174.36)"/><ellipse class="cls-3" cx="171.02" cy="289.13" rx="71.16" ry="39.01" transform="translate(-227.06 44.29) rotate(-47.29)"/><path class="cls-4" d="M251.63,359.66a50.94,50.94,0,1,1-95.31,3.81" transform="translate(-69.63 -174.36)"/><path class="cls-5" d="M202,361.64a13.7,13.7,0,1,1-27.31,1.09" transform="translate(-69.63 -174.36)"/><circle class="cls-5" cx="159.82" cy="225.12" r="10"/><circle class="cls-5" cx="144.11" cy="243.68" r="5.71"/><path class="cls-4" d="M452.06,359.66a50.94,50.94,0,1,1-95.31,3.81" transform="translate(-69.63 -174.36)"/><path class="cls-5" d="M402.37,361.64a13.69,13.69,0,1,1-27.3,1.09" transform="translate(-69.63 -174.36)"/><circle class="cls-5" cx="360.25" cy="225.12" r="10"/><circle class="cls-5" cx="344.54" cy="243.68" r="5.71"/><path d="M269.38,476.85h71.05c-3.67-17.47-17.82-30.15-33.79-31.2-15.53-1-31,9.08-35.53,21.67a24.67,24.67,0,0,0-1.25,5.39" transform="translate(-69.63 -174.36)"/><path d="M304.91,307.23" transform="translate(-69.63 -174.36)"/><path class="cls-6" d="M157.31,315.19a148.35,148.35,0,0,0,94.74,24.26" transform="translate(-69.63 -174.36)"/><path class="cls-6" d="M452.5,315.19a148.35,148.35,0,0,1-94.74,24.26" transform="translate(-69.63 -174.36)"/><ellipse class="cls-7" cx="169.66" cy="457.94" rx="18.52" ry="34.43" transform="translate(-387.3 251.93) rotate(-65.96)"/><ellipse class="cls-7" cx="437.51" cy="457.94" rx="34.43" ry="18.52" transform="translate(-218.25 43.63) rotate(-24.04)"/></svg>