<svg xmlns="http://www.w3.org/2000/svg" viewBox="0 0 580.3 364.58"><defs><style>.cls-1{isolation:isolate;}.cls-2{fill:#f3ed66;}.cls-3{fill:#eece18;}.cls-4{fill:#3dbbec;}.cls-5{fill:#f3e305;}.cls-6{fill:#f6ee67;}.cls-7{fill:#fbaa1a;}.cls-8{fill:#f49c20;}.cls-9{fill:#00aad1;}.cls-10{fill:#ef4477;}.cls-11{fill:#f2ea23;mix-blend-mode:lighten;}.cls-12{stroke:#000;stroke-linecap:round;stroke-miterlimit:10;stroke-width:9px;}</style></defs><g class="cls-1"><g id="Layer_1" data-name="Layer 1"><path class="cls-2" d="M287.2,392.76c130-35.65,244.09-45.64,277.32-26.39,10.26-9.77,14.93-18.6,12.91-25.94-8.9-32.21-143.16-23.48-299.88,19.49S1,463.84,9.91,496.05c2.07,7.47,10.9,12.74,25.2,15.89C53.06,478.45,156.55,428.59,287.2,392.76Z" transform="translate(-8.13 -244.87)"/><ellipse class="cls-3" cx="294.4" cy="182.29" rx="187.6" ry="182.29"/><path class="cls-4" d="M372.1,439a164.26,164.26,0,0,0,8.93-37.4" transform="translate(-8.13 -244.87)"/><path class="cls-5" d="M381,401.63A165.71,165.71,0,0,0,309.5,245q-3.47-.13-7-.14c-103.61,0-187.6,81.61-187.6,182.29a178,178,0,0,0,35.3,106.45A165.61,165.61,0,0,0,372.1,439" transform="translate(-8.13 -244.87)"/><path class="cls-6" d="M587.49,354.38c-1.89-7.2-6.57-13.45-13.65-18.75-20.76,46.83-128.47,105.83-266,141.89-133.57,35-253.3,37.42-297.67,9.45-2.29,6.68-2.73,13.09-1.15,19.13,12.79,48.77,152.65,54.34,312.37,12.44S600.28,403.15,587.49,354.38Z" transform="translate(-8.13 -244.87)"/><path class="cls-7" d="M382.33,402c-6.15.38-12.41.88-18.73,1.53-26.14,2.69-88.57,9.27-149.33,33.18-13.82,5.44-48.84,20.16-87.09,9.07a100.63,100.63,0,0,1-12.24-4.42,37.07,37.07,0,0,0,3,17.55c0,.59.09,1.18.14,1.77,6.39-.78,9.3-1.23,9.29-1.4h0c12-3,40.67-.49,52.44,0,15.11.63,45.89-4.44,106.85-14.6,64.24-10.71,67.39-12.51,77.65-8.63h0a67,67,0,0,0,7.87,2.92" transform="translate(-8.13 -244.87)"/><path class="cls-8" d="M372.13,438.93c10.57,3.17,18,2.14,32.91,4.6a24.82,24.82,0,0,0,11.8-1.18c.5-.19,2.13-.83,4.13-1.77s3.81-1.9,5-2.58c14-6.45,15.93-7.3,15.93-7.3,13.7-6.11,22.19-8.94,37.83-16.59.69-.34,3-1.86,6.62-3.82,3-1.65,3.33-1.7,3.33-1.86,0-2.06-48.79-10.05-107.36-6.47" transform="translate(-8.13 -244.87)"/><path class="cls-7" d="M380.87,358.7q-6.71-.43-12.85-1c-21.73-2-38.94-5.12-57.08-8.41-39.77-7.21-73.13-13.27-101.32-22.57-14.44-4.76-28-10.52-42.47-9.29-2.73.23-12.65,1.32-13.28-.88-.23-.81.87-1.77,1.64-2.45a114.15,114.15,0,0,0,11.19-11.71c2.14.09,5.37.24,9.29.44,7.8.4,34.12,1.85,50.44,3.54,18.52,1.92,27.45,5,44.69,8.85,14.29,3.16,52.66,11.41,89.38,10.62q6-.13,11.95-.52" transform="translate(-8.13 -244.87)"/><path class="cls-8" d="M373.09,325.28c38.71-2.48,76.72-11.13,86.52,1,2.14,2.65,4.42,6.2,4.42,6.2a81.24,81.24,0,0,1,10.18,23,481,481,0,0,1-93.34,3.22" transform="translate(-8.13 -244.87)"/><path class="cls-9" d="M372.45,325.32l.64,0" transform="translate(-8.13 -244.87)"/><path class="cls-8" d="M272,530.55c-.25,1.28,19.09,6.5,37.33,9.9A325.3,325.3,0,0,0,343.68,545c27.68,3.22,58.6,6.78,92.33,10.62q11.21-13,22.42-26a89.85,89.85,0,0,0-15.34-5.31C421,518.9,404,524,390.88,525.83c-14.37,2-35,1.59-61.94-9.44a320.39,320.39,0,0,1-33.63,8.85c-10.3,2.11-22.21,4-22.12,4.72.05.46,5.31.27,5.31.29S272.14,529.83,272,530.55Z" transform="translate(-8.13 -244.87)"/><ellipse class="cls-10" cx="178.6" cy="421.41" rx="11.06" ry="25.66" transform="translate(-282.24 243.94) rotate(-75.5)"/><ellipse class="cls-10" cx="417.97" cy="421.41" rx="25.66" ry="11.06" transform="translate(-100.33 -126.79) rotate(-14.5)"/><ellipse class="cls-11" cx="210.17" cy="318.04" rx="59.29" ry="28.39" transform="translate(-165.89 -26.59) rotate(-41.37)"/><line class="cls-12" x1="193.4" y1="133.62" x2="256.23" y2="133.62"/><line class="cls-12" x1="344.72" y1="133.62" x2="407.55" y2="133.62"/><circle cx="300.48" cy="189.37" r="13.27"/></g></g></svg>