<svg width="132" height="209" viewBox="0 0 132 209" fill="none" xmlns="http://www.w3.org/2000/svg">
<path opacity="0.4" fill-rule="evenodd" clip-rule="evenodd" d="M308.3 92.7209C308.086 114.685 339.532 134.85 331.158 155.845C322.809 176.779 293.59 190.639 265.721 199.482C238.51 208.116 205.842 212.293 177.501 204.6C150.364 197.233 145.96 167.583 119.106 159.682C82.6672 148.962 23.475 177.982 3.97155 153.548C-15.2575 129.458 42.6581 108.33 58.3758 83.5996C67.2311 69.6665 62.9117 52.2289 76.0318 40.1671C88.7442 28.4801 110.673 25.1456 129.242 18.4496C147.652 11.811 164.334 2.84345 184.936 0.89573C207.82 -1.26778 230.624 1.94397 252.949 6.75417C281.23 12.8476 320.027 13.5053 332.36 32.6603C344.962 52.2331 308.508 71.4065 308.3 92.7209Z" fill="#E0D7F9"/>
</svg>
