<svg id="Layer_1" data-name="Layer 1" xmlns="http://www.w3.org/2000/svg" viewBox="0 0 482.54 466.72"><defs><style>.cls-1{fill:#e07b2c;}.cls-2{fill:#e78f39;}.cls-3{fill:#8d3a1e;}.cls-4{fill:#fff;}.cls-5{fill:#3dbbec;}.cls-6,.cls-7{fill:none;stroke:#000;stroke-linecap:round;stroke-width:9px;}.cls-6{stroke-miterlimit:10;}.cls-7{stroke-linejoin:round;}.cls-8{fill:#ef4478;}.cls-9{fill:#f3d65b;}</style></defs><circle class="cls-1" cx="233.36" cy="233.36" r="233.36"/><path class="cls-2" d="M263.58,189.1C147.2,202.28,56.76,301,56.76,421A232.18,232.18,0,0,0,88.69,538.81a194.68,194.68,0,0,0,93.17,23.59c108,0,195.58-87.57,195.58-195.58A195.59,195.59,0,0,0,263.58,189.1Z" transform="translate(-56.76 -187.59)"/><path class="cls-3" d="M300.84,326.48l96-15.32,33.71,43.92L512.5,349a89,89,0,0,1,7.15,29.87l-97.27,1.79-25.54-47Z" transform="translate(-56.76 -187.59)"/><path class="cls-3" d="M237,422,361.1,435.76l40.59,63.57,109.54-2.64a110.66,110.66,0,0,1-9.54,23.15c-1.38,2.52-2.81,4.87-4.25,7.07l-107.23-6.13-36-70.47Z" transform="translate(-56.76 -187.59)"/><path class="cls-3" d="M206.89,509.29l63.32,60.26,4.08,50,88.34,23.49a235.95,235.95,0,0,0,46.21-21.19L289.61,597.12l-3.06-32.68Z" transform="translate(-56.76 -187.59)"/><g id="eye"><circle cx="146.55" cy="205.28" r="40.21"/><circle class="cls-4" cx="131.39" cy="191.52" r="10.23"/><circle class="cls-4" cx="162.78" cy="220.8" r="6.88"/><circle class="cls-4" cx="148.67" cy="232.79" r="4.5"/></g><g id="eye-2" data-name="eye"><circle cx="321.19" cy="205.28" r="40.21"/><circle class="cls-4" cx="306.02" cy="191.52" r="10.23"/><circle class="cls-4" cx="337.42" cy="220.8" r="6.88"/><circle class="cls-4" cx="323.31" cy="232.79" r="4.5"/></g><path class="cls-5" d="M539.3,322.68a51.57,51.57,0,1,1-103.13,0c0-28.48,51.57-97.07,51.57-97.07S539.3,294.2,539.3,322.68Z" transform="translate(-56.76 -187.59)"/><path class="cls-6" d="M159.91,345.53c2.68.39,33.11,4.41,55.15-12.52,16.41-12.6,17.28-28.46,17.36-32.06" transform="translate(-56.76 -187.59)"/><path class="cls-6" d="M425.44,345.53c-2.69.39-33.11,4.41-55.15-12.52C353.88,320.41,353,304.55,352.93,301" transform="translate(-56.76 -187.59)"/><polyline class="cls-7" points="194.04 236.94 234.89 263.49 271.66 234.89"/><ellipse class="cls-8" cx="137.95" cy="440.86" rx="18.38" ry="33.19" transform="translate(-380.41 235.63) rotate(-70.43)"/><ellipse class="cls-8" cx="439.74" cy="440.86" rx="33.19" ry="18.38" transform="translate(-179 -14.88) rotate(-19.57)"/><ellipse class="cls-9" cx="165.36" cy="282.91" rx="52.72" ry="32.73" transform="translate(-208.37 12.2) rotate(-45)"/></svg>