<svg width="108" height="156" viewBox="0 0 108 156" fill="none" xmlns="http://www.w3.org/2000/svg">
<path d="M111.26 137.293L110.354 138.569L114.504 140.997L103.141 159.807C98.3355 154.497 100.3 142.326 100.3 142.326C100.3 142.326 97.351 140.724 93.2698 138.424C84.9468 133.726 71.9355 126.124 69.7322 123.304C66.4533 119.095 56.8249 93.9853 52.9692 95.5646C50.3713 96.6203 46.9579 125.513 48.4889 129.938C49.8074 133.748 64.4235 148.229 68.4527 152.175C69.1033 152.804 69.4763 153.169 69.4763 153.169C66.2061 159.785 60.4204 163.251 58.1174 164.417C57.6837 164.641 57.3757 164.782 57.2239 164.844C57.2022 164.848 57.1892 164.857 57.1762 164.866C57.1372 164.888 57.1155 164.892 57.1155 164.892C60.1775 167.659 62.5846 176.176 62.5846 176.176L56.131 179.774L54.0578 174.244L52.6352 174.847L54.6043 180.601L36.024 191C33.8338 185.466 41.0941 176.835 41.0941 176.835C41.1332 175.595 40.8643 174.086 40.3525 172.375C40.0055 171.205 39.5675 169.894 39.047 168.46C35.4646 158.522 28.3256 143.065 25.7494 133.919C23.1471 124.686 26.1961 93.6774 27.8876 74.388C28.4731 67.7895 28.8114 62.9771 28.5902 61.5694C27.7184 56.0355 17.2269 61.2043 4.32832 42.016C-1.50946 33.3281 -0.295064 23.4172 2.75394 15.3143C5.45597 8.12642 9.58925 2.35939 11.5106 0.129116C11.7665 -0.174412 12.2436 0.102721 12.1265 0.48983L10.8557 4.47089C10.7429 4.8316 11.1636 5.10874 11.4412 4.86239L14.5379 2.12184C14.8242 1.8711 15.2579 2.18343 15.1148 2.53974L13.6575 6.1117C13.5274 6.42843 13.8657 6.74075 14.1693 6.57799L17.5392 4.73922C17.8471 4.57206 18.1898 4.89759 18.038 5.21871C16.5373 8.43875 14.4772 13.9946 13.6445 19.3042C12.9635 23.6592 13.1067 27.8382 15.0454 30.4204C19.634 36.5217 45.119 39.8913 45.119 39.8913C64.0462 32.809 82.2014 51.8389 86.3607 51.6189C88.1303 51.5178 93.2394 47.4443 98.5134 42.8254C103.358 38.5848 108.337 33.8779 110.965 31.4101C111.321 31.0802 111.85 31.5025 111.62 31.9292L109.621 35.6507C109.413 36.0378 109.829 36.4469 110.198 36.227L115.298 33.1873C115.697 32.9542 116.126 33.4468 115.845 33.8164L112.275 38.4837C112.032 38.8092 112.336 39.2667 112.726 39.1523L116.964 37.1552C117.345 37.0408 117.657 37.4851 117.415 37.8194C115.797 40.0365 111.278 45.8915 106.312 51.7509C100.573 58.5297 94.263 65.2909 91.1619 66.439C84.6042 68.8761 63.7166 59.801 63.7166 59.801C65.0524 61.4154 66.5704 63.8173 68.1752 66.6898C75.1709 79.2092 83.8409 100.628 86.2436 104.27C89.1929 108.753 115.259 107.09 115.259 107.09C115.12 115.474 111.651 125.504 110.375 128.935C110.232 129.318 110.111 129.626 110.033 129.832L117.991 134.253L115.177 139.449L111.26 137.293Z" fill="#FCD3BF"/>
<path d="M105.266 38.5185C105.878 38.193 106.541 37.9291 107.218 37.7839C107.743 37.6651 108.45 37.5683 108.914 37.9203C109.356 38.2546 109.157 38.5801 108.827 38.9012C107.86 39.8382 106.351 40.3617 105.106 40.7972C104.859 40.8852 104.963 41.2855 105.214 41.1975C105.969 40.938 106.706 40.6256 107.422 40.2737C108.111 39.935 109.361 39.3851 109.569 38.5273C109.803 37.5683 108.541 37.234 107.847 37.2736C106.884 37.3308 105.904 37.7091 105.054 38.1622C104.824 38.2854 105.032 38.6461 105.266 38.5185Z" fill="#E45D5C"/>
<path d="M14.2906 11.5353C13.9436 10.6467 13.4578 9.72736 12.7812 9.05432C12.2955 8.57043 11.2025 7.95458 10.6734 8.7288C10.179 9.45902 10.7905 10.7523 11.0767 11.4386C11.402 12.2172 11.7837 12.9826 12.2087 13.7128C12.3432 13.9416 12.6988 13.7348 12.5644 13.5017C11.9008 12.3623 11.1245 11.0207 10.9553 9.69217C10.7558 8.09535 12.3345 9.09831 12.8593 9.78455C13.2843 10.3388 13.6313 10.9899 13.8915 11.6453C13.9913 11.8872 14.3903 11.7817 14.2906 11.5353Z" fill="#E45D5C"/>
<path d="M106.32 51.751C100.582 58.5298 94.2715 65.291 91.1704 66.4392C84.6127 68.8762 63.7251 59.8011 63.7251 59.8011C65.0609 61.4156 66.5789 63.8174 68.1837 66.6899C68.1837 66.6899 54.2962 79.0202 27.8917 74.3881C28.4773 67.7897 28.8155 62.9772 28.5944 61.5695C27.7226 56.0356 17.2311 61.2044 4.33246 42.0161C-1.50531 33.3282 -0.29091 23.4173 2.75809 15.3145C2.92724 15.5388 6.71789 20.58 13.6356 19.2955C12.959 23.6505 13.1065 27.8295 15.0452 30.4117C17.5694 33.7637 26.3998 36.2931 33.8423 37.8899C39.2073 39.0424 44.7328 39.3856 50.1585 38.5806C67.1731 36.0468 82.5699 51.8126 86.3605 51.6147C88.1301 51.5135 93.2392 47.4401 98.5132 42.8212C98.5132 42.8212 98.1359 50.3434 106.32 51.751Z" fill="#FF8E00"/>
<path d="M68.457 152.175C69.1076 152.804 69.4806 153.169 69.4806 153.169C66.2104 159.785 60.4247 163.251 58.1217 164.417C57.688 164.641 57.38 164.782 57.2282 164.844C57.2065 164.848 57.1935 164.857 57.1805 164.866C57.1415 164.888 57.1198 164.892 57.1198 164.892C60.1818 167.659 62.5889 176.176 62.5889 176.176L56.1353 179.774L54.0621 174.244L52.6395 174.847L54.6086 180.601L36.0283 191C33.8381 185.466 41.0984 176.835 41.0984 176.835C41.1375 175.595 40.8686 174.086 40.3568 172.375C40.0098 171.205 39.5718 169.894 39.0513 168.46L68.457 152.175Z" fill="#382D62"/>
<path d="M111.26 137.293L110.354 138.569L114.504 140.997L103.141 159.807C98.3354 154.497 100.3 142.326 100.3 142.326C100.3 142.326 97.3508 140.724 93.2696 138.424L110.384 128.939C110.241 129.322 110.119 129.63 110.041 129.837L118 134.258L115.185 139.453L111.26 137.293Z" fill="#382D62"/>
<path d="M115.272 107.094C115.272 124.409 106.962 136.911 100.3 142.326C100.3 142.326 73.0153 127.501 69.7364 123.3C66.4575 119.09 56.8291 93.9855 52.9734 95.5647C50.3755 96.6205 46.9622 125.513 48.4932 129.938C50.0198 134.359 69.4762 153.169 69.4762 153.169C66.631 164.452 48.5365 169.287 40.361 172.379C37.62 163.106 28.7072 144.38 25.7579 133.919C23.1557 124.686 26.2047 93.6776 27.8961 74.3925C27.8961 74.3925 47.9944 77.573 68.1881 66.6943C75.1838 79.2138 83.8538 100.632 86.2565 104.275C89.2058 108.753 115.272 107.094 115.272 107.094Z" fill="#FFEE93"/>
<path d="M91.743 48.2937C91.2746 53.6868 95.6942 57.4347 100.465 58.53C100.721 58.5872 100.829 58.1913 100.573 58.1297C95.9717 57.074 91.6997 53.4932 92.1551 48.2937C92.1767 48.0297 91.7647 48.0297 91.743 48.2937Z" fill="white"/>
<path d="M0.0387896 24.8824C3.34368 29.3826 9.10338 29.4881 13.6747 27.0863C13.9089 26.9631 13.7007 26.6068 13.4665 26.73C9.1164 29.0174 3.53885 28.9647 0.390094 24.6713C0.238295 24.4601 -0.117347 24.6669 0.0387896 24.8824Z" fill="white"/>
<path d="M46.8149 27.0029L47.2529 27.1437L46.4939 31.028L45.1234 30.5485L46.8149 27.0029Z" fill="#FCD3BF"/>
<path d="M46.8841 33.2837C46.8841 33.2837 47.4349 30.9655 45.1883 29.9009C42.9417 28.8364 39.8753 29.9009 39.9187 33.8424C39.9621 37.7839 42.2998 38.061 44.2688 38.017C46.2379 37.973 46.9405 35.558 46.9405 35.558C46.9405 35.558 47.5694 36.3938 48.1636 34.9069C48.7621 33.4245 47.2528 32.6371 46.8841 33.2837Z" fill="#FCD3BF"/>
<path d="M45.1364 41.9151H44.4641C43.5403 41.9151 42.7857 41.1496 42.7857 40.2171V35.8269C42.7857 34.8943 43.5403 34.1289 44.4641 34.1289H45.1364C46.0602 34.1289 46.8149 34.8943 46.8149 35.8269V40.2171C46.8149 41.1496 46.0602 41.9151 45.1364 41.9151Z" fill="#FCD3BF"/>
<path d="M46.8147 27.0025C46.8147 27.0025 45.8735 24.4995 42.7811 23.7341C39.6888 22.9686 35.8417 26.5142 37.286 30.0642C38.7303 33.6097 36.0499 34.8634 36.0499 34.8634C36.0499 34.8634 38.7606 36.9529 39.949 34.4455C41.1374 31.9381 42.7291 29.1624 45.8475 30.3061L46.8147 27.0025Z" fill="#557AC1"/>
<path d="M47.2528 27.1436L46.2292 30.6671C46.2292 30.6671 47.1834 31.3446 46.8841 33.2889C46.8841 33.2889 48.3934 32.6643 48.1679 34.9121C48.1679 34.9121 50.0676 34.3798 50.2064 31.4589C50.3452 28.5336 47.847 27.6142 47.2528 27.1436Z" fill="#557AC1"/>
<path d="M29.7525 37.0935C33.7644 43.6127 30.2036 53.4136 27.2023 59.4226C27.0852 59.6602 27.4365 59.8713 27.5579 59.6338C30.646 53.4576 34.2068 43.5512 30.1082 36.8867C29.9694 36.658 29.6137 36.8691 29.7525 37.0935Z" fill="white"/>
<path d="M57.0634 38.4567C55.6756 46.1021 58.2952 54.4161 63.5822 59.95C63.7643 60.1436 64.0549 59.8489 63.8727 59.6553C58.6942 54.2402 56.0963 46.0625 57.4581 38.5667C57.5058 38.3071 57.1112 38.1928 57.0634 38.4567Z" fill="white"/>
<path d="M44.6028 41.8571C42.6815 52.3047 43.4535 63.8827 47.0533 73.8464C47.1444 74.0927 47.5391 73.9872 47.448 73.7364C43.8742 63.8519 43.0892 52.3443 44.9975 41.9671C45.0452 41.7076 44.6505 41.5976 44.6028 41.8571Z" fill="white"/>
<path d="M28.1261 71.7702C28.1261 71.7702 48.4282 74.9375 67.0865 64.7715C67.0865 64.7715 69.7148 65.2466 69.6324 69.3508C69.6324 69.3508 51.7417 79.7895 27.7488 76.112C27.7488 76.112 26.5517 73.7938 28.1261 71.7702Z" fill="#5D3604"/>
<path d="M49.699 73.7987C49.5299 76.9703 44.8067 76.9967 44.8067 73.7987C44.8067 70.5962 49.5299 70.6226 49.699 73.7987C49.7424 74.5949 50.9698 74.5993 50.9264 73.7987C50.818 71.7795 49.3304 70.0771 47.2485 70.0771C45.2491 70.0771 43.575 71.7752 43.575 73.7987C43.575 75.7606 45.1537 77.4234 47.0837 77.5114C49.2306 77.6082 50.8136 75.8882 50.9264 73.7987C50.9698 72.9981 49.7424 72.9981 49.699 73.7987Z" fill="white"/>
<path d="M34.0635 72.4742C33.0182 73.8071 33.5083 75.9977 33.9594 77.4406C34.1155 77.9465 34.9092 77.7309 34.7487 77.2207C34.4234 76.1737 34.1545 75.0388 34.3497 73.939C34.3931 73.7015 34.4625 73.4771 34.5492 73.2528C34.5709 73.1956 34.7574 72.9141 34.6446 73.0636C34.9656 72.6457 34.3887 72.0563 34.0635 72.4742Z" fill="#76EDB6"/>
<path d="M58.2344 69.2938C59.2059 69.9625 59.3708 72.118 59.3664 73.2969C59.3621 73.8292 60.1818 73.8336 60.1861 73.2969C60.1948 71.8012 60.03 69.5314 58.6508 68.5812C58.2127 68.2777 57.8007 68.9947 58.2344 69.2938Z" fill="#76EDB6"/>
</svg>
