<svg xmlns="http://www.w3.org/2000/svg" viewBox="0 0 557.54 350.28"><defs><style>.cls-1{isolation:isolate;}.cls-2{fill:#8dd7f3;}.cls-3{fill:#498bca;}.cls-4{fill:#3dbbec;}.cls-5{fill:#00aad1;}.cls-6{fill:#1b84c7;}.cls-7{fill:none;stroke:#000;stroke-linecap:round;stroke-miterlimit:10;stroke-width:9px;}.cls-8{fill:#ef4477;}.cls-9{fill:#5cc9e3;mix-blend-mode:lighten;}</style></defs><g class="cls-1"><g id="Layer_1" data-name="Layer 1"><path class="cls-2" d="M284.81,381.34C409.75,347.08,519.33,337.48,551.26,356c9.85-9.39,14.34-17.88,12.39-24.93-8.55-30.94-137.54-22.56-288.11,18.73S9.85,449.62,18.4,480.57c2,7.18,10.47,12.24,24.21,15.27C59.85,463.66,159.28,415.76,284.81,381.34Z" transform="translate(-16.69 -239.24)"/><ellipse class="cls-3" cx="282.85" cy="175.14" rx="180.24" ry="175.14"/><path class="cls-4" d="M366.38,425.79A157.82,157.82,0,0,0,375,389.86" transform="translate(-16.69 -239.24)"/><path class="cls-4" d="M375,389.86a160.47,160.47,0,0,0,1.1-18.84,158.82,158.82,0,0,0-69.82-131.64c-2.23-.08-4.45-.14-6.69-.14-99.55,0-180.25,78.42-180.25,175.14a171,171,0,0,0,33.92,102.27,159.11,159.11,0,0,0,213.16-90.86" transform="translate(-16.69 -239.24)"/><path class="cls-2" d="M573.33,344.46c-1.82-6.92-6.32-12.92-13.12-18-19.94,45-123.43,101.69-255.52,136.33-128.33,33.66-243.37,36-286,9.07-2.19,6.43-2.62,12.59-1.1,18.39,12.29,46.85,146.66,52.21,300.12,11.95S585.62,391.32,573.33,344.46Z" transform="translate(-16.69 -239.24)"/><path class="cls-5" d="M376.21,390.17c-5.91.36-11.93.85-18,1.47-25.11,2.59-85.1,8.91-143.47,31.89-13.27,5.22-46.93,19.36-83.68,8.71A96.7,96.7,0,0,1,119.3,428a36.08,36.08,0,0,0,2.84,16.86c0,.57.09,1.13.14,1.7,6.13-.75,8.93-1.18,8.93-1.34h0c11.48-2.92,39.06-.47,50.37,0,14.52.6,44.1-4.27,102.66-14,61.73-10.29,64.75-12,74.61-8.29h0a67.14,67.14,0,0,0,7.56,2.81" transform="translate(-16.69 -239.24)"/><path class="cls-6" d="M366.41,425.7c10.16,3,17.33,2.05,31.62,4.41A23.91,23.91,0,0,0,409.36,429c.49-.18,2.05-.8,4-1.7s3.67-1.83,4.82-2.48c13.47-6.2,15.3-7,15.3-7,13.17-5.88,21.32-8.6,36.35-15.94.67-.33,2.92-1.79,6.36-3.67,2.91-1.59,3.2-1.63,3.2-1.79,0-2-46.88-9.65-103.15-6.22" transform="translate(-16.69 -239.24)"/><path class="cls-5" d="M374.81,348.61q-6.45-.42-12.35-1c-20.87-1.91-37.41-4.91-54.84-8.07-38.21-6.93-70.26-12.75-97.35-21.68-13.87-4.58-26.86-10.11-40.8-8.93-2.63.22-12.16,1.27-12.76-.85-.22-.78.84-1.7,1.57-2.35A110,110,0,0,0,169,294.51c2.06.09,5.16.23,8.93.42,7.48.38,32.78,1.78,48.46,3.4,17.79,1.85,26.37,4.84,42.93,8.51,13.73,3,50.6,11,85.87,10.2,3.82-.08,7.66-.26,11.49-.5" transform="translate(-16.69 -239.24)"/><path class="cls-6" d="M367.33,316.5c37.19-2.38,73.71-10.7,83.13,1,2.05,2.55,4.25,6,4.25,6a78.34,78.34,0,0,1,9.77,22.11,461.9,461.9,0,0,1-89.67,3.09" transform="translate(-16.69 -239.24)"/><path class="cls-5" d="M366.72,316.54l.61,0" transform="translate(-16.69 -239.24)"/><path class="cls-6" d="M270.21,513.72c-.23,1.22,18.35,6.24,35.87,9.51a310,310,0,0,0,33,4.37c26.59,3.1,56.29,6.52,88.7,10.21l21.54-24.94a84.63,84.63,0,0,0-14.73-5.1c-21.28-5.24-37.57-.34-50.17,1.41-13.8,1.92-33.63,1.53-59.51-9.07a309.26,309.26,0,0,1-32.31,8.51c-9.9,2-21.34,3.84-21.25,4.53,0,.44,5.1.26,5.1.28S270.35,513,270.21,513.72Z" transform="translate(-16.69 -239.24)"/><ellipse cx="214.28" cy="125.41" rx="12.36" ry="26.57"/><ellipse cx="343.26" cy="125.41" rx="12.36" ry="26.57"/><path class="cls-7" d="M237.65,449.67c26.93-11.29,62-20.59,102-17,4.67.42,9.2,1,13.6,1.71" transform="translate(-16.69 -239.24)"/><ellipse class="cls-8" cx="180.47" cy="408.86" rx="10.63" ry="24.66" transform="matrix(0.25, -0.97, 0.97, 0.25, -277.24, 241.97)"/><ellipse class="cls-8" cx="410.45" cy="408.86" rx="24.66" ry="10.63" transform="matrix(0.97, -0.25, 0.25, 0.97, -105.99, -123.45)"/><ellipse class="cls-9" cx="210.8" cy="309.54" rx="56.96" ry="27.27" transform="translate(-168.67 -22.67) rotate(-41.37)"/></g></g></svg>