<svg id="Layer_1" data-name="Layer 1" xmlns="http://www.w3.org/2000/svg" viewBox="0 0 487.07 489.4"><defs><style>.cls-1{fill:#f68b5e;}.cls-2{fill:#f8ab80;}.cls-3{fill:#f9ddcd;}.cls-4{fill:#c16d49;}.cls-5{fill:#ef4477;}.cls-6{fill:none;stroke:#231f20;stroke-linecap:round;stroke-miterlimit:10;stroke-width:9px;}</style></defs><path class="cls-1" d="M83.49,513.54a242.66,242.66,0,0,1-21.42-100c0-134.51,106.71-245.86,241.21-245.86S549.14,279,549.14,413.53s-109,243.53-243.53,243.53c-98.86,0-184-58.9-222.12-143.52" transform="translate(-62.07 -167.67)"/><path class="cls-2" d="M403.21,352.41A211.54,211.54,0,0,0,295.13,167.84C164.77,172.55,62.65,282,62.65,413.53A242.29,242.29,0,0,0,100,543.18,210.72,210.72,0,0,0,191.62,564C308.48,564,403.21,469.26,403.21,352.41Z" transform="translate(-62.07 -167.67)"/><ellipse class="cls-3" cx="188.87" cy="282.69" rx="76.54" ry="42.71" transform="translate(-200.07 21.55) rotate(-40.29)"/><circle class="cls-4" cx="274.68" cy="145.89" r="32.07"/><circle class="cls-4" cx="393.54" cy="195.04" r="20.57"/><circle class="cls-4" cx="74.6" cy="265.1" r="20.57"/><circle class="cls-4" cx="331.15" cy="51.77" r="13.25"/><circle class="cls-4" cx="353.11" cy="379.08" r="65.18"/><circle class="cls-4" cx="96.9" cy="385.01" r="13.25"/><circle class="cls-4" cx="217.51" cy="416.38" r="11.15"/><ellipse class="cls-5" cx="158.28" cy="459.61" rx="20.91" ry="32.07" transform="translate(-381.08 384.09) rotate(-81.93)"/><ellipse class="cls-5" cx="446.2" cy="459.61" rx="32.07" ry="20.91" transform="translate(-122.2 -100.43) rotate(-8.07)"/><polyline class="cls-6" points="357.56 246.92 291.57 246.92 324.01 221.84 336.81 211.94 346.88 204.16"/><polyline class="cls-6" points="112.94 246.92 178.94 246.92 146.5 221.84 133.69 211.94 123.63 204.16"/><path class="cls-6" d="M256.81,442.76c4.61,17.5,19.76,30.07,37.18,31.14,19.16,1.18,37.11-11.8,42.29-31.14" transform="translate(-62.07 -167.67)"/></svg>