<svg width="375" height="724" viewBox="0 0 375 724" fill="none" xmlns="http://www.w3.org/2000/svg">
<g filter="url(#filter0_ddddd_810_2578)">
<rect x="-293" y="384" width="960" height="960" rx="480" fill="white"/>
<rect x="97.5" y="454" width="180" height="8" rx="4" fill="#E8DDD9"/>
<rect width="118.688" height="8" rx="4" transform="matrix(1 0 0 -1 97.5 462)" fill="#B5A2E9"/>
<path d="M29.5371 516V495H37.2771C38.4271 495 39.4621 495.29 40.3821 495.87C41.3121 496.45 42.0521 497.225 42.6021 498.195C43.1521 499.155 43.4271 500.215 43.4271 501.375C43.4271 502.555 43.1471 503.63 42.5871 504.6C42.0271 505.56 41.2771 506.325 40.3371 506.895C39.4071 507.465 38.3871 507.75 37.2771 507.75H33.6771V516H29.5371ZM33.6771 503.61H36.8121C37.2721 503.61 37.6871 503.5 38.0571 503.28C38.4271 503.05 38.7221 502.745 38.9421 502.365C39.1721 501.975 39.2871 501.545 39.2871 501.075C39.2871 500.615 39.1721 500.195 38.9421 499.815C38.7221 499.425 38.4271 499.115 38.0571 498.885C37.6871 498.655 37.2721 498.54 36.8121 498.54H33.6771V503.61ZM51.423 516.39C50.043 516.39 48.783 516.035 47.643 515.325C46.513 514.615 45.608 513.66 44.928 512.46C44.258 511.26 43.923 509.935 43.923 508.485C43.923 507.395 44.118 506.375 44.508 505.425C44.898 504.465 45.433 503.625 46.113 502.905C46.803 502.175 47.603 501.605 48.513 501.195C49.423 500.785 50.393 500.58 51.423 500.58C52.613 500.58 53.698 500.835 54.678 501.345C55.668 501.855 56.503 502.55 57.183 503.43C57.873 504.31 58.363 505.305 58.653 506.415C58.953 507.525 59.003 508.68 58.803 509.88H48.393C48.523 510.32 48.723 510.72 48.993 511.08C49.273 511.43 49.613 511.71 50.013 511.92C50.423 512.13 50.893 512.24 51.423 512.25C51.943 512.26 52.423 512.14 52.863 511.89C53.303 511.64 53.678 511.305 53.988 510.885L58.218 511.86C57.608 513.19 56.698 514.28 55.488 515.13C54.278 515.97 52.923 516.39 51.423 516.39ZM48.243 506.82H54.618C54.488 506.32 54.268 505.87 53.958 505.47C53.648 505.07 53.273 504.755 52.833 504.525C52.403 504.295 51.933 504.18 51.423 504.18C50.923 504.18 50.453 504.295 50.013 504.525C49.583 504.755 49.213 505.07 48.903 505.47C48.603 505.86 48.383 506.31 48.243 506.82ZM60.915 516L60.9 501H65.04L65.055 502.11C65.555 501.63 66.14 501.255 66.81 500.985C67.49 500.715 68.205 500.58 68.955 500.58C69.505 500.58 70.055 500.66 70.605 500.82L68.97 505.005C68.61 504.855 68.245 504.78 67.875 504.78C67.355 504.78 66.88 504.905 66.45 505.155C66.02 505.405 65.68 505.745 65.43 506.175C65.18 506.595 65.055 507.07 65.055 507.6V516H60.915ZM76.215 516.27C75.445 516.21 74.705 516.05 73.995 515.79C73.285 515.52 72.65 515.16 72.09 514.71C71.54 514.25 71.11 513.7 70.8 513.06L74.28 511.56C74.39 511.72 74.555 511.895 74.775 512.085C74.995 512.265 75.26 512.425 75.57 512.565C75.89 512.705 76.26 512.775 76.68 512.775C76.99 512.775 77.29 512.74 77.58 512.67C77.87 512.59 78.105 512.465 78.285 512.295C78.465 512.115 78.555 511.88 78.555 511.59C78.555 511.27 78.44 511.025 78.21 510.855C77.98 510.685 77.7 510.56 77.37 510.48C77.05 510.39 76.74 510.315 76.44 510.255C75.52 510.095 74.65 509.81 73.83 509.4C73.02 508.98 72.36 508.44 71.85 507.78C71.34 507.12 71.085 506.33 71.085 505.41C71.085 504.4 71.35 503.53 71.88 502.8C72.41 502.06 73.1 501.49 73.95 501.09C74.8 500.69 75.72 500.49 76.71 500.49C77.88 500.49 78.965 500.735 79.965 501.225C80.965 501.715 81.77 502.405 82.38 503.295L79.11 505.23C78.98 505.04 78.81 504.86 78.6 504.69C78.4 504.51 78.165 504.36 77.895 504.24C77.635 504.11 77.355 504.035 77.055 504.015C76.665 503.985 76.31 504.01 75.99 504.09C75.67 504.16 75.415 504.295 75.225 504.495C75.045 504.695 74.955 504.965 74.955 505.305C74.955 505.635 75.1 505.88 75.39 506.04C75.68 506.19 76.015 506.305 76.395 506.385C76.775 506.455 77.11 506.54 77.4 506.64C78.27 506.92 79.085 507.28 79.845 507.72C80.615 508.15 81.235 508.68 81.705 509.31C82.175 509.94 82.395 510.68 82.365 511.53C82.365 512.52 82.07 513.39 81.48 514.14C80.89 514.88 80.125 515.445 79.185 515.835C78.255 516.215 77.265 516.36 76.215 516.27ZM90.9234 516.39C89.5434 516.39 88.2834 516.035 87.1434 515.325C86.0134 514.615 85.1084 513.665 84.4284 512.475C83.7584 511.275 83.4234 509.95 83.4234 508.5C83.4234 507.4 83.6184 506.375 84.0084 505.425C84.3984 504.465 84.9334 503.625 85.6134 502.905C86.3034 502.175 87.1034 501.605 88.0134 501.195C88.9234 500.785 89.8934 500.58 90.9234 500.58C92.3034 500.58 93.5584 500.935 94.6884 501.645C95.8284 502.355 96.7334 503.31 97.4034 504.51C98.0834 505.71 98.4234 507.04 98.4234 508.5C98.4234 509.59 98.2284 510.61 97.8384 511.56C97.4484 512.51 96.9084 513.35 96.2184 514.08C95.5384 514.8 94.7434 515.365 93.8334 515.775C92.9334 516.185 91.9634 516.39 90.9234 516.39ZM90.9234 512.25C91.5634 512.25 92.1384 512.08 92.6484 511.74C93.1584 511.39 93.5584 510.93 93.8484 510.36C94.1384 509.79 94.2834 509.17 94.2834 508.5C94.2834 507.81 94.1284 507.18 93.8184 506.61C93.5184 506.03 93.1134 505.57 92.6034 505.23C92.0934 504.89 91.5334 504.72 90.9234 504.72C90.2934 504.72 89.7234 504.895 89.2134 505.245C88.7034 505.595 88.2984 506.055 87.9984 506.625C87.7084 507.195 87.5634 507.82 87.5634 508.5C87.5634 509.21 87.7134 509.85 88.0134 510.42C88.3234 510.98 88.7334 511.425 89.2434 511.755C89.7534 512.085 90.3134 512.25 90.9234 512.25ZM114.335 506.46V516H110.195V507.6C110.195 507.07 110.065 506.595 109.805 506.175C109.555 505.745 109.215 505.405 108.785 505.155C108.365 504.905 107.895 504.78 107.375 504.78C106.855 504.78 106.38 504.905 105.95 505.155C105.52 505.405 105.18 505.745 104.93 506.175C104.68 506.595 104.555 507.07 104.555 507.6V516H100.415L100.4 501H104.54L104.555 502.11C105.055 501.63 105.64 501.255 106.31 500.985C106.99 500.715 107.705 500.58 108.455 500.58C109.545 500.58 110.53 500.845 111.41 501.375C112.3 501.905 113.01 502.615 113.54 503.505C114.07 504.385 114.335 505.37 114.335 506.46ZM127.751 501H131.891V516H127.736L127.541 514.44C127.151 515.02 126.651 515.49 126.041 515.85C125.431 516.21 124.716 516.39 123.896 516.39C122.776 516.39 121.731 516.18 120.761 515.76C119.791 515.34 118.936 514.76 118.196 514.02C117.456 513.28 116.876 512.425 116.456 511.455C116.046 510.475 115.841 509.425 115.841 508.305C115.841 507.235 116.036 506.235 116.426 505.305C116.816 504.375 117.366 503.555 118.076 502.845C118.786 502.135 119.601 501.58 120.521 501.18C121.451 500.78 122.451 500.58 123.521 500.58C124.441 500.58 125.266 500.775 125.996 501.165C126.736 501.555 127.381 502.05 127.931 502.65L127.751 501ZM123.791 512.415C124.471 512.415 125.086 512.24 125.636 511.89C126.186 511.54 126.621 511.07 126.941 510.48C127.261 509.88 127.421 509.22 127.421 508.5C127.421 507.77 127.261 507.11 126.941 506.52C126.621 505.93 126.186 505.46 125.636 505.11C125.086 504.76 124.471 504.585 123.791 504.585C123.101 504.585 122.476 504.76 121.916 505.11C121.356 505.46 120.911 505.935 120.581 506.535C120.251 507.125 120.086 507.78 120.086 508.5C120.086 509.22 120.251 509.88 120.581 510.48C120.921 511.07 121.371 511.54 121.931 511.89C122.491 512.24 123.111 512.415 123.791 512.415ZM134.634 516V493.5H138.774V516H134.634ZM142.069 501H146.209V516H142.069V501ZM144.169 499.275C143.569 499.275 143.064 499.075 142.654 498.675C142.244 498.275 142.039 497.78 142.039 497.19C142.039 496.6 142.244 496.105 142.654 495.705C143.064 495.305 143.564 495.105 144.154 495.105C144.744 495.105 145.239 495.305 145.639 495.705C146.049 496.105 146.254 496.6 146.254 497.19C146.254 497.78 146.054 498.275 145.654 498.675C145.264 499.075 144.769 499.275 144.169 499.275ZM161.713 505.14L154.888 511.86H161.713V516H148.903V511.86L155.728 505.14H148.903V501H161.713V505.14ZM170.598 516.39C169.218 516.39 167.958 516.035 166.818 515.325C165.688 514.615 164.783 513.66 164.103 512.46C163.433 511.26 163.098 509.935 163.098 508.485C163.098 507.395 163.293 506.375 163.683 505.425C164.073 504.465 164.608 503.625 165.288 502.905C165.978 502.175 166.778 501.605 167.688 501.195C168.598 500.785 169.568 500.58 170.598 500.58C171.788 500.58 172.873 500.835 173.853 501.345C174.843 501.855 175.678 502.55 176.358 503.43C177.048 504.31 177.538 505.305 177.828 506.415C178.128 507.525 178.178 508.68 177.978 509.88H167.568C167.698 510.32 167.898 510.72 168.168 511.08C168.448 511.43 168.788 511.71 169.188 511.92C169.598 512.13 170.068 512.24 170.598 512.25C171.118 512.26 171.598 512.14 172.038 511.89C172.478 511.64 172.853 511.305 173.163 510.885L177.393 511.86C176.783 513.19 175.873 514.28 174.663 515.13C173.453 515.97 172.098 516.39 170.598 516.39ZM167.418 506.82H173.793C173.663 506.32 173.443 505.87 173.133 505.47C172.823 505.07 172.448 504.755 172.008 504.525C171.578 504.295 171.108 504.18 170.598 504.18C170.098 504.18 169.628 504.295 169.188 504.525C168.758 504.755 168.388 505.07 168.078 505.47C167.778 505.86 167.558 506.31 167.418 506.82ZM200.262 495H205.152L197.892 506.535V516H193.752V506.535L186.492 495H191.382L195.822 502.035L200.262 495ZM210.714 516.39C209.334 516.39 208.074 516.035 206.934 515.325C205.804 514.615 204.899 513.665 204.219 512.475C203.549 511.275 203.214 509.95 203.214 508.5C203.214 507.4 203.409 506.375 203.799 505.425C204.189 504.465 204.724 503.625 205.404 502.905C206.094 502.175 206.894 501.605 207.804 501.195C208.714 500.785 209.684 500.58 210.714 500.58C212.094 500.58 213.349 500.935 214.479 501.645C215.619 502.355 216.524 503.31 217.194 504.51C217.874 505.71 218.214 507.04 218.214 508.5C218.214 509.59 218.019 510.61 217.629 511.56C217.239 512.51 216.699 513.35 216.009 514.08C215.329 514.8 214.534 515.365 213.624 515.775C212.724 516.185 211.754 516.39 210.714 516.39ZM210.714 512.25C211.354 512.25 211.929 512.08 212.439 511.74C212.949 511.39 213.349 510.93 213.639 510.36C213.929 509.79 214.074 509.17 214.074 508.5C214.074 507.81 213.919 507.18 213.609 506.61C213.309 506.03 212.904 505.57 212.394 505.23C211.884 504.89 211.324 504.72 210.714 504.72C210.084 504.72 209.514 504.895 209.004 505.245C208.494 505.595 208.089 506.055 207.789 506.625C207.499 507.195 207.354 507.82 207.354 508.5C207.354 509.21 207.504 509.85 207.804 510.42C208.114 510.98 208.524 511.425 209.034 511.755C209.544 512.085 210.104 512.25 210.714 512.25ZM219.21 510.51V501H223.35V509.37C223.35 509.9 223.475 510.38 223.725 510.81C223.985 511.23 224.33 511.565 224.76 511.815C225.19 512.065 225.66 512.19 226.17 512.19C226.69 512.19 227.165 512.065 227.595 511.815C228.025 511.565 228.365 511.23 228.615 510.81C228.865 510.38 228.99 509.9 228.99 509.37V501H233.13L233.145 516H229.005L228.99 514.86C228.49 515.34 227.9 515.715 227.22 515.985C226.55 516.255 225.84 516.39 225.09 516.39C224.01 516.39 223.025 516.125 222.135 515.595C221.245 515.065 220.535 514.36 220.005 513.48C219.475 512.59 219.21 511.6 219.21 510.51ZM235.872 516L235.857 501H239.997L240.012 502.11C240.512 501.63 241.097 501.255 241.767 500.985C242.447 500.715 243.162 500.58 243.912 500.58C244.462 500.58 245.012 500.66 245.562 500.82L243.927 505.005C243.567 504.855 243.202 504.78 242.832 504.78C242.312 504.78 241.837 504.905 241.407 505.155C240.977 505.405 240.637 505.745 240.387 506.175C240.137 506.595 240.012 507.07 240.012 507.6V516H235.872ZM254.271 516L258.351 495H261.846L266.721 507.855L271.611 495H275.106L279.186 516H274.956L272.631 503.955L268.146 515.79H265.296L260.826 503.955L258.486 516H254.271ZM287.378 516.39C285.998 516.39 284.738 516.035 283.598 515.325C282.468 514.615 281.563 513.66 280.883 512.46C280.213 511.26 279.878 509.935 279.878 508.485C279.878 507.395 280.073 506.375 280.463 505.425C280.853 504.465 281.388 503.625 282.068 502.905C282.758 502.175 283.558 501.605 284.468 501.195C285.378 500.785 286.348 500.58 287.378 500.58C288.568 500.58 289.653 500.835 290.633 501.345C291.623 501.855 292.458 502.55 293.138 503.43C293.828 504.31 294.318 505.305 294.608 506.415C294.908 507.525 294.958 508.68 294.758 509.88H284.348C284.478 510.32 284.678 510.72 284.948 511.08C285.228 511.43 285.568 511.71 285.968 511.92C286.378 512.13 286.848 512.24 287.378 512.25C287.898 512.26 288.378 512.14 288.818 511.89C289.258 511.64 289.633 511.305 289.943 510.885L294.173 511.86C293.563 513.19 292.653 514.28 291.443 515.13C290.233 515.97 288.878 516.39 287.378 516.39ZM284.198 506.82H290.573C290.443 506.32 290.223 505.87 289.913 505.47C289.603 505.07 289.228 504.755 288.788 504.525C288.358 504.295 287.888 504.18 287.378 504.18C286.878 504.18 286.408 504.295 285.968 504.525C285.538 504.755 285.168 505.07 284.858 505.47C284.558 505.86 284.338 506.31 284.198 506.82ZM310.79 506.46V516H306.65V507.6C306.65 507.07 306.52 506.595 306.26 506.175C306.01 505.745 305.67 505.405 305.24 505.155C304.82 504.905 304.35 504.78 303.83 504.78C303.31 504.78 302.835 504.905 302.405 505.155C301.975 505.405 301.635 505.745 301.385 506.175C301.135 506.595 301.01 507.07 301.01 507.6V516H296.87L296.855 501H300.995L301.01 502.11C301.51 501.63 302.095 501.255 302.765 500.985C303.445 500.715 304.16 500.58 304.91 500.58C306 500.58 306.985 500.845 307.865 501.375C308.755 501.905 309.465 502.615 309.995 503.505C310.525 504.385 310.79 505.37 310.79 506.46ZM321.648 505.14H318.948V516H314.808V505.14H312.738V501H314.808V496.29H318.948V501H321.648V505.14ZM334.745 501H338.885V516H334.73L334.535 514.44C334.145 515.02 333.645 515.49 333.035 515.85C332.425 516.21 331.71 516.39 330.89 516.39C329.77 516.39 328.725 516.18 327.755 515.76C326.785 515.34 325.93 514.76 325.19 514.02C324.45 513.28 323.87 512.425 323.45 511.455C323.04 510.475 322.835 509.425 322.835 508.305C322.835 507.235 323.03 506.235 323.42 505.305C323.81 504.375 324.36 503.555 325.07 502.845C325.78 502.135 326.595 501.58 327.515 501.18C328.445 500.78 329.445 500.58 330.515 500.58C331.435 500.58 332.26 500.775 332.99 501.165C333.73 501.555 334.375 502.05 334.925 502.65L334.745 501ZM330.785 512.415C331.465 512.415 332.08 512.24 332.63 511.89C333.18 511.54 333.615 511.07 333.935 510.48C334.255 509.88 334.415 509.22 334.415 508.5C334.415 507.77 334.255 507.11 333.935 506.52C333.615 505.93 333.18 505.46 332.63 505.11C332.08 504.76 331.465 504.585 330.785 504.585C330.095 504.585 329.47 504.76 328.91 505.11C328.35 505.46 327.905 505.935 327.575 506.535C327.245 507.125 327.08 507.78 327.08 508.5C327.08 509.22 327.245 509.88 327.575 510.48C327.915 511.07 328.365 511.54 328.925 511.89C329.485 512.24 330.105 512.415 330.785 512.415ZM341.628 516V493.5H345.768V516H341.628ZM232.223 554L226.853 533H231.128L234.548 546.425L237.968 533H241.763L245.183 546.425L248.603 533H252.878L247.538 554H242.858L239.873 542.33L236.903 554H232.223ZM254.454 539H258.594V554H254.454V539ZM256.554 537.275C255.954 537.275 255.449 537.075 255.039 536.675C254.629 536.275 254.424 535.78 254.424 535.19C254.424 534.6 254.629 534.105 255.039 533.705C255.449 533.305 255.949 533.105 256.539 533.105C257.129 533.105 257.624 533.305 258.024 533.705C258.434 534.105 258.639 534.6 258.639 535.19C258.639 535.78 258.439 536.275 258.039 536.675C257.649 537.075 257.154 537.275 256.554 537.275ZM270.048 543.14H267.348V554H263.208V543.14H261.138V539H263.208V534.29H267.348V539H270.048V543.14ZM286.392 544.46V554H282.252V545.6C282.252 545.07 282.122 544.595 281.862 544.175C281.612 543.745 281.272 543.405 280.842 543.155C280.422 542.905 279.952 542.78 279.432 542.78C278.912 542.78 278.437 542.905 278.007 543.155C277.577 543.405 277.237 543.745 276.987 544.175C276.737 544.595 276.612 545.07 276.612 545.6V554H272.472L272.457 531.5H276.597L276.612 540.11C277.112 539.63 277.697 539.255 278.367 538.985C279.047 538.715 279.762 538.58 280.512 538.58C281.602 538.58 282.587 538.845 283.467 539.375C284.357 539.905 285.067 540.615 285.597 541.505C286.127 542.385 286.392 543.37 286.392 544.46ZM303.018 533H307.728L315.348 554H310.953L309.693 550.52H301.053L299.793 554H295.398L303.018 533ZM302.568 546.38H308.178L305.358 538.685L302.568 546.38ZM317.945 554V533H322.085V554H317.945Z" fill="#4F3422"/>
<path d="M64.5825 533H68.7225V554H64.5825V544.82H56.6025V554H52.4625V533H56.6025V540.68H64.5825V533ZM78.3328 554.39C76.9528 554.39 75.6928 554.035 74.5528 553.325C73.4228 552.615 72.5178 551.66 71.8378 550.46C71.1678 549.26 70.8328 547.935 70.8328 546.485C70.8328 545.395 71.0278 544.375 71.4178 543.425C71.8078 542.465 72.3428 541.625 73.0228 540.905C73.7128 540.175 74.5128 539.605 75.4228 539.195C76.3328 538.785 77.3028 538.58 78.3328 538.58C79.5228 538.58 80.6078 538.835 81.5878 539.345C82.5778 539.855 83.4128 540.55 84.0928 541.43C84.7828 542.31 85.2728 543.305 85.5628 544.415C85.8628 545.525 85.9128 546.68 85.7128 547.88H75.3028C75.4328 548.32 75.6328 548.72 75.9028 549.08C76.1828 549.43 76.5228 549.71 76.9228 549.92C77.3328 550.13 77.8028 550.24 78.3328 550.25C78.8528 550.26 79.3328 550.14 79.7728 549.89C80.2128 549.64 80.5878 549.305 80.8978 548.885L85.1278 549.86C84.5178 551.19 83.6078 552.28 82.3978 553.13C81.1878 553.97 79.8328 554.39 78.3328 554.39ZM75.1528 544.82H81.5278C81.3978 544.32 81.1778 543.87 80.8678 543.47C80.5578 543.07 80.1828 542.755 79.7428 542.525C79.3128 542.295 78.8428 542.18 78.3328 542.18C77.8328 542.18 77.3628 542.295 76.9228 542.525C76.4928 542.755 76.1228 543.07 75.8128 543.47C75.5128 543.86 75.2928 544.31 75.1528 544.82ZM98.937 539H103.077V554H98.922L98.727 552.44C98.337 553.02 97.837 553.49 97.227 553.85C96.617 554.21 95.902 554.39 95.082 554.39C93.962 554.39 92.917 554.18 91.947 553.76C90.977 553.34 90.122 552.76 89.382 552.02C88.642 551.28 88.062 550.425 87.642 549.455C87.232 548.475 87.027 547.425 87.027 546.305C87.027 545.235 87.222 544.235 87.612 543.305C88.002 542.375 88.552 541.555 89.262 540.845C89.972 540.135 90.787 539.58 91.707 539.18C92.637 538.78 93.637 538.58 94.707 538.58C95.627 538.58 96.452 538.775 97.182 539.165C97.922 539.555 98.567 540.05 99.117 540.65L98.937 539ZM94.977 550.415C95.657 550.415 96.272 550.24 96.822 549.89C97.372 549.54 97.807 549.07 98.127 548.48C98.447 547.88 98.607 547.22 98.607 546.5C98.607 545.77 98.447 545.11 98.127 544.52C97.807 543.93 97.372 543.46 96.822 543.11C96.272 542.76 95.657 542.585 94.977 542.585C94.287 542.585 93.662 542.76 93.102 543.11C92.542 543.46 92.097 543.935 91.767 544.535C91.437 545.125 91.272 545.78 91.272 546.5C91.272 547.22 91.437 547.88 91.767 548.48C92.107 549.07 92.557 549.54 93.117 549.89C93.677 550.24 94.297 550.415 94.977 550.415ZM105.82 554V531.5H109.96V554H105.82ZM121.415 543.14H118.715V554H114.575V543.14H112.505V539H114.575V534.29H118.715V539H121.415V543.14ZM137.759 544.46V554H133.619V545.6C133.619 545.07 133.489 544.595 133.229 544.175C132.979 543.745 132.639 543.405 132.209 543.155C131.789 542.905 131.319 542.78 130.799 542.78C130.279 542.78 129.804 542.905 129.374 543.155C128.944 543.405 128.604 543.745 128.354 544.175C128.104 544.595 127.979 545.07 127.979 545.6V554H123.839L123.824 531.5H127.964L127.979 540.11C128.479 539.63 129.064 539.255 129.734 538.985C130.414 538.715 131.129 538.58 131.879 538.58C132.969 538.58 133.954 538.845 134.834 539.375C135.724 539.905 136.434 540.615 136.964 541.505C137.494 542.385 137.759 543.37 137.759 544.46ZM154.999 554.39C153.819 554.39 152.689 554.205 151.609 553.835C150.539 553.465 149.599 552.93 148.789 552.23C147.989 551.53 147.414 550.7 147.064 549.74L150.949 548.3C151.069 548.64 151.319 548.96 151.699 549.26C152.079 549.55 152.554 549.79 153.124 549.98C153.694 550.16 154.319 550.25 154.999 550.25C155.649 550.25 156.259 550.155 156.829 549.965C157.409 549.765 157.874 549.49 158.224 549.14C158.584 548.79 158.764 548.38 158.764 547.91C158.764 547.44 158.579 547.05 158.209 546.74C157.839 546.43 157.364 546.185 156.784 546.005C156.204 545.815 155.609 545.67 154.999 545.57C153.489 545.35 152.134 544.995 150.934 544.505C149.744 544.005 148.804 543.32 148.114 542.45C147.424 541.57 147.079 540.455 147.079 539.105C147.079 537.805 147.444 536.67 148.174 535.7C148.914 534.73 149.884 533.975 151.084 533.435C152.294 532.895 153.599 532.625 154.999 532.625C156.159 532.625 157.279 532.81 158.359 533.18C159.439 533.55 160.379 534.085 161.179 534.785C161.989 535.485 162.569 536.325 162.919 537.305L159.034 538.715C158.914 538.375 158.664 538.06 158.284 537.77C157.904 537.48 157.429 537.245 156.859 537.065C156.289 536.885 155.669 536.795 154.999 536.795C154.359 536.785 153.749 536.88 153.169 537.08C152.599 537.28 152.129 537.555 151.759 537.905C151.399 538.255 151.219 538.655 151.219 539.105C151.219 539.695 151.389 540.14 151.729 540.44C152.079 540.74 152.539 540.955 153.109 541.085C153.679 541.215 154.309 541.33 154.999 541.43C156.419 541.64 157.729 542.015 158.929 542.555C160.129 543.085 161.089 543.795 161.809 544.685C162.539 545.565 162.904 546.64 162.904 547.91C162.904 549.21 162.539 550.345 161.809 551.315C161.079 552.285 160.114 553.04 158.914 553.58C157.714 554.12 156.409 554.39 154.999 554.39ZM173.681 543.14H170.981V554H166.841V543.14H164.771V539H166.841V534.29H170.981V539H173.681V543.14ZM186.778 539H190.918V554H186.763L186.568 552.44C186.178 553.02 185.678 553.49 185.068 553.85C184.458 554.21 183.743 554.39 182.923 554.39C181.803 554.39 180.758 554.18 179.788 553.76C178.818 553.34 177.963 552.76 177.223 552.02C176.483 551.28 175.903 550.425 175.483 549.455C175.073 548.475 174.868 547.425 174.868 546.305C174.868 545.235 175.063 544.235 175.453 543.305C175.843 542.375 176.393 541.555 177.103 540.845C177.813 540.135 178.628 539.58 179.548 539.18C180.478 538.78 181.478 538.58 182.548 538.58C183.468 538.58 184.293 538.775 185.023 539.165C185.763 539.555 186.408 540.05 186.958 540.65L186.778 539ZM182.818 550.415C183.498 550.415 184.113 550.24 184.663 549.89C185.213 549.54 185.648 549.07 185.968 548.48C186.288 547.88 186.448 547.22 186.448 546.5C186.448 545.77 186.288 545.11 185.968 544.52C185.648 543.93 185.213 543.46 184.663 543.11C184.113 542.76 183.498 542.585 182.818 542.585C182.128 542.585 181.503 542.76 180.943 543.11C180.383 543.46 179.938 543.935 179.608 544.535C179.278 545.125 179.113 545.78 179.113 546.5C179.113 547.22 179.278 547.88 179.608 548.48C179.948 549.07 180.398 549.54 180.958 549.89C181.518 550.24 182.138 550.415 182.818 550.415ZM201.792 543.14H199.092V554H194.952V543.14H192.882V539H194.952V534.29H199.092V539H201.792V543.14ZM210.479 554.39C209.099 554.39 207.839 554.035 206.699 553.325C205.569 552.615 204.664 551.66 203.984 550.46C203.314 549.26 202.979 547.935 202.979 546.485C202.979 545.395 203.174 544.375 203.564 543.425C203.954 542.465 204.489 541.625 205.169 540.905C205.859 540.175 206.659 539.605 207.569 539.195C208.479 538.785 209.449 538.58 210.479 538.58C211.669 538.58 212.754 538.835 213.734 539.345C214.724 539.855 215.559 540.55 216.239 541.43C216.929 542.31 217.419 543.305 217.709 544.415C218.009 545.525 218.059 546.68 217.859 547.88H207.449C207.579 548.32 207.779 548.72 208.049 549.08C208.329 549.43 208.669 549.71 209.069 549.92C209.479 550.13 209.949 550.24 210.479 550.25C210.999 550.26 211.479 550.14 211.919 549.89C212.359 549.64 212.734 549.305 213.044 548.885L217.274 549.86C216.664 551.19 215.754 552.28 214.544 553.13C213.334 553.97 211.979 554.39 210.479 554.39ZM207.299 544.82H213.674C213.544 544.32 213.324 543.87 213.014 543.47C212.704 543.07 212.329 542.755 211.889 542.525C211.459 542.295 210.989 542.18 210.479 542.18C209.979 542.18 209.509 542.295 209.069 542.525C208.639 542.755 208.269 543.07 207.959 543.47C207.659 543.86 207.439 544.31 207.299 544.82Z" fill="#34D1BF"/>
<rect x="147.5" y="586" width="80" height="80" rx="40" fill="#7F56D9"/>
<path d="M195.434 619.912C194.093 618.166 192.215 616.911 190.088 616.341L189.571 618.273C191.272 618.728 192.775 619.733 193.847 621.13C194.715 622.261 195.261 623.598 195.437 625L177.5 625V627L195.437 627C195.261 628.402 194.715 629.739 193.847 630.87C192.775 632.267 191.272 633.272 189.571 633.727L190.088 635.659C192.215 635.09 194.093 633.834 195.434 632.088C196.774 630.341 197.5 628.201 197.5 626C197.5 623.799 196.774 621.659 195.434 619.912Z" fill="white"/>
</g>
<defs>
<filter id="filter0_ddddd_810_2578" x="-403" y="0" width="1180" height="1365" filterUnits="userSpaceOnUse" color-interpolation-filters="sRGB">
<feFlood flood-opacity="0" result="BackgroundImageFix"/>
<feColorMatrix in="SourceAlpha" type="matrix" values="0 0 0 0 0 0 0 0 0 0 0 0 0 0 0 0 0 0 127 0" result="hardAlpha"/>
<feOffset/>
<feColorMatrix type="matrix" values="0 0 0 0 0.294118 0 0 0 0 0.203922 0 0 0 0 0.145098 0 0 0 0.05 0"/>
<feBlend mode="normal" in2="BackgroundImageFix" result="effect1_dropShadow_810_2578"/>
<feColorMatrix in="SourceAlpha" type="matrix" values="0 0 0 0 0 0 0 0 0 0 0 0 0 0 0 0 0 0 127 0" result="hardAlpha"/>
<feOffset dy="-17"/>
<feGaussianBlur stdDeviation="19"/>
<feColorMatrix type="matrix" values="0 0 0 0 0.294118 0 0 0 0 0.203922 0 0 0 0 0.145098 0 0 0 0.05 0"/>
<feBlend mode="normal" in2="effect1_dropShadow_810_2578" result="effect2_dropShadow_810_2578"/>
<feColorMatrix in="SourceAlpha" type="matrix" values="0 0 0 0 0 0 0 0 0 0 0 0 0 0 0 0 0 0 127 0" result="hardAlpha"/>
<feOffset dy="-69"/>
<feGaussianBlur stdDeviation="34.5"/>
<feColorMatrix type="matrix" values="0 0 0 0 0.294118 0 0 0 0 0.203922 0 0 0 0 0.145098 0 0 0 0.04 0"/>
<feBlend mode="normal" in2="effect2_dropShadow_810_2578" result="effect3_dropShadow_810_2578"/>
<feColorMatrix in="SourceAlpha" type="matrix" values="0 0 0 0 0 0 0 0 0 0 0 0 0 0 0 0 0 0 127 0" result="hardAlpha"/>
<feOffset dy="-154"/>
<feGaussianBlur stdDeviation="46.5"/>
<feColorMatrix type="matrix" values="0 0 0 0 0.294118 0 0 0 0 0.203922 0 0 0 0 0.145098 0 0 0 0.03 0"/>
<feBlend mode="normal" in2="effect3_dropShadow_810_2578" result="effect4_dropShadow_810_2578"/>
<feColorMatrix in="SourceAlpha" type="matrix" values="0 0 0 0 0 0 0 0 0 0 0 0 0 0 0 0 0 0 127 0" result="hardAlpha"/>
<feOffset dy="-274"/>
<feGaussianBlur stdDeviation="55"/>
<feColorMatrix type="matrix" values="0 0 0 0 0.294118 0 0 0 0 0.203922 0 0 0 0 0.145098 0 0 0 0.01 0"/>
<feBlend mode="normal" in2="effect4_dropShadow_810_2578" result="effect5_dropShadow_810_2578"/>
<feBlend mode="normal" in="SourceGraphic" in2="effect5_dropShadow_810_2578" result="shape"/>
</filter>
</defs>
</svg>
