<svg width="95" height="95" viewBox="0 0 95 95" fill="none" xmlns="http://www.w3.org/2000/svg">
<path d="M12.5577 76.3512C-0.583865 66.0708 1.66764 47.5024 12.6789 32.9674C29.5619 10.6815 56.244 2.30399 76.2611 16.1846C93.7451 28.3085 94.0339 60.7799 89.4615 70.6758C85.0989 80.1179 74.0652 88.6582 51.3162 89.3655C31.2221 89.9902 19.623 81.8782 12.5577 76.3512Z" fill="#37474F"/>
<path d="M65.5382 16.3202C65.5382 16.4819 65.4056 16.6132 65.2422 16.6132C65.0788 16.6132 64.9462 16.4819 64.9462 16.3202C64.9462 16.1586 65.0786 16.0273 65.2422 16.0273C65.4056 16.0273 65.5382 16.1584 65.5382 16.3202Z" fill="white"/>
<path opacity="0.3" d="M26.2933 26.8036C26.4568 26.8036 26.5894 26.6724 26.5894 26.5107C26.5894 26.3489 26.4568 26.2178 26.2933 26.2178C26.1299 26.2178 25.9973 26.3489 25.9973 26.5107C25.9973 26.6724 26.1299 26.8036 26.2933 26.8036Z" fill="white"/>
<path d="M40.262 17.2499C40.262 17.4116 40.1293 17.5428 39.9659 17.5428C39.8025 17.5428 39.6699 17.4116 39.6699 17.2499C39.6699 17.0883 39.8024 16.957 39.9659 16.957C40.1295 16.957 40.262 17.0881 40.262 17.2499Z" fill="white"/>
<g opacity="0.3">
<path d="M73.5925 21.1819C73.6746 21.2139 73.7149 21.3054 73.6828 21.3866C73.6505 21.4678 73.5579 21.5079 73.4759 21.4759C73.3938 21.444 73.3535 21.3524 73.3856 21.2712C73.4179 21.19 73.5104 21.1499 73.5925 21.1819Z" fill="white"/>
<path d="M74.6132 22.1371C74.7772 22.2008 74.8577 22.3837 74.7933 22.546C74.7289 22.7082 74.544 22.7879 74.3801 22.7242C74.2161 22.6605 74.1355 22.4776 74.2 22.3153C74.2644 22.1533 74.4494 22.0735 74.6132 22.1371Z" fill="white"/>
<g opacity="0.5">
<path d="M79.6155 30.535C79.5916 30.695 79.4411 30.8055 79.2794 30.7818C79.1177 30.7581 79.006 30.6092 79.0299 30.4493C79.0539 30.2893 79.2044 30.1787 79.366 30.2024C79.5277 30.2261 79.6395 30.3748 79.6155 30.535Z" fill="white"/>
</g>
</g>
<g opacity="0.5">
<path d="M37.8892 24.9566C37.8892 25.1397 37.7393 25.2881 37.5543 25.2881C37.3692 25.2881 37.2191 25.1396 37.2191 24.9566C37.2191 24.7735 37.3692 24.625 37.5543 24.625C37.7393 24.6252 37.8892 24.7735 37.8892 24.9566Z" fill="white"/>
<path d="M36.8881 25.863C36.8881 25.9722 36.7986 26.0608 36.6882 26.0608C36.5779 26.0608 36.4882 25.9722 36.4882 25.863C36.4882 25.7538 36.5777 25.665 36.6882 25.665C36.7984 25.6652 36.8881 25.7538 36.8881 25.863Z" fill="white"/>
<path d="M36.321 24.6254C36.321 24.7136 36.2488 24.785 36.1597 24.785C36.0706 24.785 35.9984 24.7136 35.9984 24.6254C35.9984 24.5373 36.0706 24.4658 36.1597 24.4658C36.2488 24.4658 36.321 24.5373 36.321 24.6254Z" fill="white"/>
</g>
<g opacity="0.5">
<path d="M68.6531 27.0028C68.6291 27.1628 68.4787 27.2733 68.317 27.2496C68.1553 27.2259 68.0436 27.077 68.0675 26.917C68.0914 26.757 68.2419 26.6465 68.4036 26.6702C68.5653 26.6937 68.677 26.8426 68.6531 27.0028Z" fill="white"/>
</g>
<path d="M13.1733 9.19482C13.1666 9.64339 13.8787 9.64339 13.8721 9.19482C13.8787 8.74626 13.1666 8.74626 13.1733 9.19482Z" fill="white"/>
<path d="M7.88481 13.753L8.57014 13.988C8.81866 14.9407 8.76185 14.9248 9.34629 14.135C10.3521 14.1901 10.3084 14.2579 9.72762 13.4501C10.0915 12.5206 10.143 12.5827 9.18707 12.8797C8.40617 12.2501 8.48179 12.2206 8.47172 13.2121C8.43524 13.289 7.62166 13.624 7.88481 13.753Z" fill="white"/>
<path d="M23.4316 16.1747L23.4293 16.198C23.1705 18.8031 20.8272 20.7079 18.1944 20.4518C15.5616 20.1958 13.6367 17.8761 13.8953 15.2708C14.1447 12.7598 16.332 10.8998 18.8488 11C17.4656 11.4451 16.4093 12.6662 16.2579 14.1913C16.0537 16.248 17.5729 18.0789 19.6502 18.281C21.2764 18.4391 22.7628 17.5531 23.4316 16.1747Z" fill="white"/>
<path d="M30.9223 11.7073H29.8308C29.8361 11.6682 29.8399 11.6286 29.8399 11.5881V11.3172C29.8399 10.835 29.4449 10.444 28.9573 10.444C28.7599 10.444 28.5783 10.5088 28.4314 10.6171C28.3516 9.97135 27.7964 9.4707 27.1221 9.4707C26.3929 9.4707 25.8018 10.0556 25.8018 10.7771V11.1824C25.8018 11.3693 25.8421 11.5466 25.9135 11.7073H25.0069C24.7365 11.7073 24.5174 11.9241 24.5174 12.1916C24.5174 12.4592 24.7365 12.6759 25.0069 12.6759H30.9221C31.1925 12.6759 31.4116 12.4592 31.4116 12.1916C31.4118 11.9243 31.1925 11.7073 30.9223 11.7073Z" fill="white"/>
<path d="M7.67998 23.9031L8.28209 23.8036V22.667C8.28209 21.7659 9.12094 21.1348 10.0316 21.1348C10.9423 21.1348 11.6806 21.8653 11.6806 22.7664V22.9315C11.8873 22.7585 12.1541 22.654 12.4458 22.654C13.1011 22.654 13.6323 23.1796 13.6323 23.8281V23.9031H14.4719C14.9034 23.9031 15.2534 24.2492 15.2534 24.6763C15.2534 25.1033 14.9036 25.4496 14.4719 25.4496H7.67998C7.24849 25.4496 6.89851 25.1034 6.89851 24.6763C6.89851 24.2492 7.24849 23.9031 7.67998 23.9031Z" fill="white"/>
<path d="M53.7766 85.7211L83.4773 68.769C83.8842 68.5364 83.8842 68.1595 83.4773 67.9269L41.3985 43.8883C40.9915 43.6557 40.3317 43.6557 39.9247 43.8883L10.2254 60.8414C9.81844 61.0739 9.81844 61.4509 10.2254 61.6834L52.3028 85.7211C52.7098 85.9535 53.3697 85.9535 53.7766 85.7211Z" fill="#263238"/>
<path d="M59.7417 45.6654L58.4343 44.9185L59.7417 44.5449V45.6654Z" fill="#27DEBF"/>
<path opacity="0.6" d="M59.7417 45.6654L58.4343 44.9185L59.7417 44.5449V45.6654Z" fill="black"/>
<path d="M53.1915 48.2876V49.4787L45.6517 45.1619L45.6519 43.9707L53.1915 48.2876Z" fill="#27DEBF"/>
<path opacity="0.6" d="M53.1915 48.2876V49.4787L45.6517 45.1619L45.6519 43.9707L53.1915 48.2876Z" fill="black"/>
<path d="M44.9979 34.6318L52.5377 38.9489V48.6611L44.9979 44.3441V34.6318Z" fill="#27DEBF"/>
<path opacity="0.55" d="M44.9979 34.6318L52.5377 38.9489V48.6611L44.9979 44.3441V34.6318Z" fill="black"/>
<path d="M52.5377 38.9481L61.0497 34.085V43.7974L52.5377 48.6604V38.9481Z" fill="#27DEBF"/>
<path opacity="0.45" d="M52.5377 38.9481L61.0497 34.085V43.7974L52.5377 48.6604V38.9481Z" fill="black"/>
<path d="M61.0497 34.0854L53.5099 29.7686L44.9979 34.6315L52.5377 38.9486L61.0497 34.0854Z" fill="#27DEBF"/>
<path opacity="0.3" d="M61.0497 34.0854L53.5099 29.7686L44.9979 34.6315L52.5377 38.9486L61.0497 34.0854Z" fill="black"/>
<path d="M53.1914 39.3219L60.396 35.2061V37.4474L53.1914 41.5635V39.3219Z" fill="#27DEBF"/>
<path opacity="0.2" d="M53.1914 39.3219L60.396 35.2061V37.4474L53.1914 41.5635V39.3219Z" fill="black"/>
<path opacity="0.2" d="M53.1914 42.3104L60.396 38.1943V43.4241L53.1914 47.5402V42.3104Z" fill="black"/>
<path d="M53.1914 49.4788L53.8454 49.1052V47.9141L53.1914 48.2876V49.4788Z" fill="#27DEBF"/>
<path opacity="0.55" d="M53.1914 49.4788L53.8454 49.1052V47.9141L53.1914 48.2876V49.4788Z" fill="black"/>
<path d="M59.7417 45.6659L60.3959 45.2924V44.1719L59.7417 44.5454V45.6659Z" fill="#27DEBF"/>
<path opacity="0.55" d="M59.7417 45.6659L60.3959 45.2924V44.1719L59.7417 44.5454V45.6659Z" fill="black"/>
<path d="M55.4243 38.5186C55.4243 38.6218 55.7363 38.5271 56.1212 38.3073L57.3426 37.6094C57.7275 37.3895 58.0397 37.1276 58.0397 37.0246V36.8379L55.4241 38.3319C55.4241 38.3319 55.4243 38.4156 55.4243 38.5186Z" fill="#37474F"/>
<path opacity="0.2" d="M60.396 43.4246L55.8497 40.792L53.1914 42.3108V47.5406L60.396 43.4246Z" fill="black"/>
<path opacity="0.1" d="M58.9348 24.6065C59.6662 21.5416 57.7482 18.4704 54.6507 17.7467C51.5533 17.023 48.4494 18.9209 47.718 21.9857C46.9866 25.0506 48.9046 28.1218 52.0021 28.8455C55.0995 29.5692 58.2034 27.6713 58.9348 24.6065Z" fill="#27DEBF"/>
<path opacity="0.1" d="M60.759 25.0329C61.7282 20.9712 59.1863 16.9011 55.0814 15.942C50.9766 14.9829 46.8631 17.4981 45.8938 21.5597C44.9246 25.6214 47.4665 29.6915 51.5714 30.6506C55.6763 31.6097 59.7897 29.0945 60.759 25.0329Z" fill="#27DEBF"/>
<path opacity="0.1" d="M62.5872 25.46C63.7948 20.3993 60.6277 15.3281 55.5131 14.1331C50.3986 12.9381 45.2734 16.0719 44.0657 21.1326C42.858 26.1934 46.0251 31.2646 51.1397 32.4596C56.2543 33.6546 61.3795 30.5208 62.5872 25.46Z" fill="#27DEBF"/>
<path d="M55.2043 32.8362C55.2057 32.7868 55.2005 32.7374 55.1899 32.6881C55.1004 32.1333 54.6157 31.5338 54.2779 31.3428H52.3724C52.0346 31.5336 51.5502 32.1329 51.4606 32.6875C51.4499 32.737 51.4446 32.7866 51.4459 32.8362C51.4458 32.8445 51.448 32.8612 51.448 32.8612C51.4657 33.122 51.6468 33.3799 51.9954 33.5792C52.73 33.9988 53.9207 33.9988 54.655 33.5792C55.0037 33.3801 55.1846 33.1222 55.2022 32.8612C55.2022 32.8612 55.2045 32.8445 55.2043 32.8362Z" fill="#263238"/>
<path d="M52.4212 31.3125C51.9221 31.5977 51.9221 32.06 52.4212 32.3452C52.9204 32.6304 53.7298 32.6304 54.2289 32.3452C54.728 32.06 54.728 31.5977 54.2289 31.3125C53.7298 31.0273 52.9204 31.0273 52.4212 31.3125Z" fill="#37474F"/>
<path d="M53.5848 25.0186H53.0653V31.6303H53.0674C53.0611 31.6724 53.0849 31.7157 53.1413 31.748C53.2428 31.8059 53.4073 31.8059 53.5088 31.748C53.5652 31.7159 53.589 31.6724 53.5827 31.6303H53.5848V25.0186Z" fill="#263238"/>
<path d="M57.0327 24.7976H57.0342L55.2877 20.3916H51.3618L49.6153 24.7976H49.6174C49.3687 25.4868 49.7105 26.2316 50.6466 26.7663C52.1258 27.6114 54.5241 27.6114 56.0035 26.7663C56.9396 26.2316 57.2814 25.4868 57.0327 24.7976Z" fill="#27DEBF"/>
<path opacity="0.4" d="M57.0327 24.7976H57.0342L55.2877 20.3916H51.3618L49.6153 24.7976H49.6174C49.3687 25.4868 49.7105 26.2316 50.6466 26.7663C52.1258 27.6114 54.5241 27.6114 56.0035 26.7663C56.9396 26.2316 57.2814 25.4868 57.0327 24.7976Z" fill="white"/>
<path d="M53.325 21.7824C54.4345 21.7824 55.3339 21.2686 55.3339 20.6349C55.3339 20.0011 54.4345 19.4873 53.325 19.4873C52.2156 19.4873 51.3162 20.0011 51.3162 20.6349C51.3162 21.2686 52.2156 21.7824 53.325 21.7824Z" fill="#27DEBF"/>
<path opacity="0.7" d="M53.325 21.7824C54.4345 21.7824 55.3339 21.2686 55.3339 20.6349C55.3339 20.0011 54.4345 19.4873 53.325 19.4873C52.2156 19.4873 51.3162 20.0011 51.3162 20.6349C51.3162 21.2686 52.2156 21.7824 53.325 21.7824Z" fill="white"/>
<path d="M53.325 21.5C52.8567 21.5 52.4195 21.3976 52.0944 21.2116C51.8071 21.0477 51.6489 20.8428 51.6489 20.6343C51.6489 20.426 51.8071 20.2211 52.0944 20.0569C52.4195 19.8712 52.8567 19.7686 53.325 19.7686C53.7936 19.7686 54.2306 19.871 54.5557 20.0569C54.843 20.2209 55.0012 20.4258 55.0012 20.6343C55.0012 20.8426 54.8431 21.0477 54.5557 21.2116C54.2306 21.3976 53.7934 21.5 53.325 21.5Z" fill="#27DEBF"/>
<path d="M15.1181 62.2682L14.1586 61.7245C13.8844 61.5679 13.662 61.1866 13.662 60.8734V46.1821C13.662 45.8687 13.8843 45.4876 14.1586 45.331L41.8316 29.5266C42.1059 29.37 42.5505 29.37 42.8249 29.5266L43.7846 30.0703C44.0587 30.2269 44.2812 30.608 44.2812 30.9214V45.6127C44.2812 45.9261 44.0589 46.3071 43.7846 46.4637L16.1114 62.2682C15.8373 62.4248 15.3925 62.4248 15.1181 62.2682Z" fill="#27DEBF"/>
<path opacity="0.3" d="M15.1181 62.2682L14.1586 61.7245C13.8844 61.5679 13.662 61.1866 13.662 60.8734V46.1821C13.662 45.8687 13.8843 45.4876 14.1586 45.331L41.8316 29.5266C42.1059 29.37 42.5505 29.37 42.8249 29.5266L43.7846 30.0703C44.0587 30.2269 44.2812 30.608 44.2812 30.9214V45.6127C44.2812 45.9261 44.0589 46.3071 43.7846 46.4637L16.1114 62.2682C15.8373 62.4248 15.3925 62.4248 15.1181 62.2682Z" fill="black"/>
<path d="M44.2808 30.9212V45.6126C44.2808 45.926 44.0585 46.3071 43.7842 46.4637L16.1114 62.2679C15.8371 62.4247 15.6148 62.2976 15.6148 61.9842V47.2928C15.6148 46.9794 15.8371 46.5983 16.1114 46.4417L43.7842 30.6375C44.0585 30.4807 44.2808 30.6078 44.2808 30.9212Z" fill="#27DEBF"/>
<path opacity="0.45" d="M44.2808 30.9212V45.6126C44.2808 45.926 44.0585 46.3071 43.7842 46.4637L16.1114 62.2679C15.8371 62.4247 15.6148 62.2976 15.6148 61.9842V47.2928C15.6148 46.9794 15.8371 46.5983 16.1114 46.4417L43.7842 30.6375C44.0585 30.4807 44.2808 30.6078 44.2808 30.9212Z" fill="black"/>
<path d="M15.9965 62.3204C15.7259 62.4225 15.3566 62.4045 15.1179 62.2682L14.1579 61.7247C13.8848 61.5681 13.6623 61.1868 13.6623 60.8736V46.1818C13.6623 46.0252 13.7174 45.8526 13.8069 45.6982L15.7601 46.8091C15.6706 46.9635 15.6155 47.1359 15.6155 47.2925V61.9843C15.6157 62.2524 15.7786 62.384 15.9965 62.3204Z" fill="#27DEBF"/>
<path opacity="0.55" d="M15.9965 62.3204C15.7259 62.4225 15.3566 62.4045 15.1179 62.2682L14.1579 61.7247C13.8848 61.5681 13.6623 61.1868 13.6623 60.8736V46.1818C13.6623 46.0252 13.7174 45.8526 13.8069 45.6982L15.7601 46.8091C15.6706 46.9635 15.6155 47.1359 15.6155 47.2925V61.9843C15.6157 62.2524 15.7786 62.384 15.9965 62.3204Z" fill="black"/>
<path d="M55.4323 77.8462L53.1339 76.5334C52.9967 76.455 52.7744 76.455 52.6372 76.5334L50.3381 77.8462C50.2695 77.8853 50.2073 77.9526 50.1625 78.0295C50.1538 78.0444 50.1492 78.0607 50.142 78.0761C50.1114 78.1408 50.0897 78.2085 50.0897 78.2717L50.0899 81.9625V81.9627C50.0899 82.1119 50.1918 82.289 50.32 82.3734C50.3265 82.3776 50.3318 82.3845 50.3382 82.3881L52.6369 83.7013C52.6458 83.7064 52.6572 83.7082 52.6667 83.7126C52.694 83.7252 52.7216 83.7379 52.753 83.7453C52.7953 83.755 52.8402 83.7599 52.885 83.7599C52.9749 83.7599 53.0647 83.7404 53.1333 83.7011L55.432 82.3879C55.5691 82.3095 55.6803 82.1191 55.6803 81.9623L55.6805 78.2713C55.6807 78.1152 55.5695 77.9246 55.4323 77.8462Z" fill="#455A64"/>
<path d="M53.1335 83.7009L55.4321 82.3877C55.5693 82.3093 55.6805 82.1189 55.6805 81.9621L55.6807 78.2711C55.6807 78.1145 55.5695 78.051 55.4323 78.1292L53.1339 79.4422C52.9967 79.5206 52.8856 79.711 52.8856 79.8678L52.8852 83.559C52.8854 83.7156 52.9965 83.7791 53.1335 83.7009Z" fill="#37474F"/>
<path d="M80.3715 63.604L78.0731 62.2912C77.9359 62.2128 77.7136 62.2128 77.5764 62.2912L75.2773 63.604C75.2087 63.6431 75.1465 63.7104 75.1017 63.7873C75.093 63.8022 75.0884 63.8185 75.0812 63.8341C75.0506 63.8988 75.0291 63.9665 75.0291 64.0295L75.0293 67.7203V67.7205C75.0293 67.8697 75.1311 68.0468 75.2592 68.1313C75.2657 68.1354 75.271 68.1422 75.2774 68.1459L77.5761 69.4591C77.5848 69.4642 77.5964 69.4661 77.6059 69.4704C77.6333 69.483 77.6608 69.4958 77.6922 69.5031C77.7345 69.5129 77.7794 69.5178 77.8242 69.5178C77.9141 69.5178 78.0039 69.4982 78.0725 69.4589L80.3712 68.1457C80.5083 68.0673 80.6195 67.8769 80.6195 67.7201L80.6197 64.0291C80.6199 63.8729 80.5085 63.6822 80.3715 63.604Z" fill="#455A64"/>
<path d="M78.0727 69.4596L80.3714 68.1465C80.5085 68.0681 80.6197 67.8776 80.6197 67.7208L80.6199 64.0298C80.6199 63.8732 80.5087 63.8097 80.3715 63.8881L78.0731 65.2011C77.9359 65.2795 77.8248 65.4699 77.8248 65.6267L77.8244 69.3179C77.8244 69.4745 77.9356 69.5379 78.0727 69.4596Z" fill="#37474F"/>
<path d="M43.2875 41.4157L16.6081 56.6526C16.0596 56.9659 15.6148 57.7281 15.6148 58.3549V59.2877C15.6148 59.9145 16.0594 60.6767 16.6081 60.9901L51.892 81.1469C52.4406 81.4603 53.33 81.4603 53.8785 81.1469L80.5581 65.9099C81.1066 65.5965 81.5514 64.8343 81.5514 64.2075V63.2747C81.5514 62.6479 81.1066 61.8857 80.5581 61.5723L45.274 41.4157C44.7254 41.1023 43.836 41.1023 43.2875 41.4157Z" fill="#455A64"/>
<path d="M81.5516 63.2751V64.2076C81.5516 64.834 81.1066 65.5966 80.5583 65.91L53.8787 81.1468C53.6034 81.3034 53.2456 81.3805 52.8856 81.3805V78.1785C53.2456 78.1785 53.6036 78.1014 53.8787 77.9448L80.5583 62.7079C81.0698 62.413 81.1042 61.9522 80.6592 61.6367C81.1595 61.9815 81.5516 62.685 81.5516 63.2751Z" fill="#263238"/>
<path d="M16.609 57.7881C16.0869 57.4907 16.0617 57.0177 16.5329 56.7041C16.02 57.0417 15.6148 57.7575 15.6148 58.3547V59.2876C15.6148 59.9144 16.0594 60.6765 16.6081 60.9899L51.892 81.1467C52.1664 81.3035 52.5261 81.3817 52.8857 81.3817V78.179C52.5255 78.179 52.1677 78.1019 51.8924 77.9453L16.609 57.7881Z" fill="#37474F"/>
<path d="M43.2875 36.1022L16.6081 51.3389C16.0596 51.6523 15.6148 52.4144 15.6148 53.0412V55.0299C15.6148 55.6567 16.0594 56.4188 16.6081 56.7322L51.892 76.889C52.4406 77.2024 53.33 77.2024 53.8785 76.889L80.5581 61.6522C81.1066 61.3388 81.5514 60.5766 81.5514 59.9498V57.9612C81.5514 57.3344 81.1066 56.5722 80.5581 56.2588L45.274 36.1022C44.7254 35.7888 43.836 35.7888 43.2875 36.1022Z" fill="#27DEBF"/>
<path opacity="0.8" d="M16.6081 52.4738L51.8921 72.6306C52.4406 72.944 53.33 72.944 53.8785 72.6306L80.5583 57.3936C81.1068 57.0802 81.1068 56.5722 80.5583 56.2588L45.274 36.1022C44.7254 35.7888 43.8361 35.7888 43.2875 36.1022L16.6081 51.3389C16.0594 51.6523 16.0594 52.1604 16.6081 52.4738Z" fill="white"/>
<path opacity="0.5" d="M81.5516 57.9617V59.95C81.5516 60.5764 81.1066 61.3391 80.5583 61.6523L53.8787 76.8891C53.6034 77.0457 53.2456 77.1228 52.8856 77.1228V72.865C53.2456 72.865 53.6036 72.7879 53.8787 72.6313L80.5583 57.3945C81.0698 57.0995 81.1042 56.6387 80.6592 56.3232C81.1595 56.6678 81.5516 57.3715 81.5516 57.9617Z" fill="white"/>
<path opacity="0.6" d="M16.609 52.4746C16.0869 52.1772 16.0617 51.7042 16.5329 51.3906C16.02 51.7283 15.6148 52.444 15.6148 53.0413V55.0299C15.6148 55.6567 16.0594 56.4189 16.6081 56.7323L51.892 76.8891C52.1664 77.0459 52.5261 77.1241 52.8857 77.1241V72.8655C52.5255 72.8655 52.1677 72.7884 51.8924 72.6318L16.609 52.4746Z" fill="white"/>
<path d="M21.2861 55.1465L21.2859 62.5981L52.8856 80.6504V72.8653C52.5276 72.8843 52.2016 72.7773 51.8917 72.6307L21.2861 55.1465Z" fill="#27DEBF"/>
<path opacity="0.3" d="M21.2861 55.1465L21.2859 62.5981L52.8856 80.6504V72.8653C52.5276 72.8843 52.2016 72.7773 51.8917 72.6307L21.2861 55.1465Z" fill="black"/>
<path d="M80.5585 57.3945C81.07 57.0995 81.1044 56.6387 80.6594 56.3232C81.1595 56.6682 81.5518 57.3717 81.5518 57.9618V59.9501V64.2781L52.8857 80.6502V72.8652C53.2245 72.8652 53.558 72.8024 53.8789 72.6315L80.5585 57.3945Z" fill="#27DEBF"/>
<path opacity="0.45" d="M80.5585 57.3945C81.07 57.0995 81.1044 56.6387 80.6594 56.3232C81.1595 56.6682 81.5518 57.3717 81.5518 57.9618V59.9501V64.2781L52.8857 80.6502V72.8652C53.2245 72.8652 53.558 72.8024 53.8789 72.6315L80.5585 57.3945Z" fill="black"/>
<path d="M80.5585 56.259L49.9526 38.7744L21.2865 55.1464L51.8923 72.6308C52.4408 72.9442 53.3302 72.9442 53.8787 72.6308L80.5585 57.3937C81.107 57.0804 81.107 56.5722 80.5585 56.259Z" fill="#27DEBF"/>
<path opacity="0.2" d="M80.5585 56.259L49.9526 38.7744L21.2865 55.1464L51.8923 72.6308C52.4408 72.9442 53.3302 72.9442 53.8787 72.6308L80.5585 57.3937C81.107 57.0804 81.107 56.5722 80.5585 56.259Z" fill="black"/>
<path opacity="0.2" d="M25.0133 57.2754V64.7418L25.4802 64.9935L25.4788 57.5412L25.0133 57.2754Z" fill="black"/>
<path opacity="0.1" d="M25.0133 57.276L53.6819 40.9023L54.1675 41.183L25.4788 57.5418L25.0133 57.276Z" fill="black"/>
<path d="M49.9383 40.5926C50.2609 39.4253 49.7851 38.8158 49.1332 37.7316C48.4814 36.6474 46.9722 34.5501 46.3522 33.6526C45.7322 32.7551 45.0433 31.8709 44.6717 31.7474C44.3 31.6239 44.0507 31.4761 43.0694 31.8271C42.088 32.1781 40.0492 33.3751 37.5271 34.7512C35.005 36.1274 31.6418 38.082 31.4857 39.4296C31.3891 40.263 35.8317 47.598 36.9121 47.7074C39.3144 47.9509 41.8466 46.1779 43.1845 45.3794C45.4153 44.048 47.0121 43.0652 48.5575 42.0283C49.2569 41.5591 49.7887 41.134 49.9383 40.5926Z" fill="#F0F0F0"/>
<path d="M32.6538 42.3714C33.2416 43.3157 34.9541 45.8753 35.5486 46.6337C36.1431 47.3919 37.1777 48.2511 37.418 47.2808C37.6584 46.3105 36.7386 45.0823 36.1145 44.1196C35.4901 43.1568 33.7446 40.8835 33.179 40.1417C32.6133 39.3998 31.6705 38.6751 31.4482 39.5433C31.2259 40.4116 32.0661 41.4272 32.6538 42.3714Z" fill="#E0E0E0"/>
<path d="M36.4781 48.366C36.8007 47.1987 36.325 46.5892 35.6731 45.505C35.0212 44.4208 33.512 42.3235 32.892 41.426C32.2721 40.5285 31.5831 39.6443 31.2115 39.5208C30.8398 39.3973 30.5906 39.2495 29.6092 39.6005C28.6279 39.9515 26.589 41.1485 24.0669 42.5247C21.5449 43.9008 18.1817 45.8555 18.0255 47.2031C17.929 48.0365 22.3715 55.3715 23.4519 55.4809C25.8542 55.7243 28.3864 53.9513 29.7244 53.1529C31.9551 51.8215 33.5519 50.8386 35.0974 49.8018C35.7968 49.3325 36.3286 48.9075 36.4781 48.366Z" fill="#F0F0F0"/>
<path d="M19.1936 50.1448C19.7815 51.0891 21.4939 53.6487 22.0885 54.4071C22.683 55.1653 23.7175 56.0245 23.9581 55.0542C24.1984 54.084 23.2786 52.8558 22.6543 51.893C22.0299 50.9303 20.2844 48.657 19.7188 47.9151C19.1531 47.1733 18.2104 46.4485 17.9881 47.3167C17.7658 48.1849 18.6059 49.2005 19.1936 50.1448Z" fill="#E0E0E0"/>
<path opacity="0.2" d="M66.3356 56.8328C65.7121 56.5382 65.0341 56.3564 64.3568 56.2156C62.8965 55.9122 61.3842 55.783 59.948 55.4179C58.4208 55.0297 56.9255 54.6129 55.3715 54.357C53.7696 54.0933 52.2152 53.5975 50.7089 53.0049C50.6489 52.9812 50.5888 52.9574 50.5288 52.9335C48.2129 52.008 45.9846 50.5243 43.5296 50.0101C42.1316 49.7172 40.6718 49.7042 39.2717 49.9926C38.9601 50.0567 38.608 50.171 38.4912 50.4639C38.3314 50.8647 38.7129 51.2526 38.9945 51.5812C39.8639 52.5962 39.9828 54.0605 40.7421 55.1588C41.5234 56.2891 43.0244 57.271 44.2974 57.8081C46.234 58.6252 47.6199 59.0939 49.6103 59.7729C50.6094 60.1138 52.0222 60.3815 52.9469 60.8876C54.176 61.56 55.659 62.4561 56.8244 63.2317C58.1966 64.1449 59.8627 64.9681 61.5078 65.2349C62.4047 65.3802 63.3713 65.2981 64.1434 64.8235C64.2534 64.756 64.3718 64.6526 64.3511 64.5263C64.3291 64.3917 64.1689 64.3344 64.0347 64.3032C63.7648 64.2404 63.4948 64.1774 63.2248 64.1146C63.1438 64.0958 63.0439 64.0537 63.0475 63.9715C63.0509 63.8963 63.1395 63.8593 63.2132 63.8407C63.3274 63.8117 63.4459 63.7831 63.5385 63.7108C63.631 63.6386 63.6891 63.5087 63.6407 63.4023C63.5772 63.2635 63.3889 63.2458 63.235 63.2475C62.0437 63.2607 60.8154 63.212 59.729 62.7283C59.4493 62.6038 59.2031 62.4638 59.1812 62.1445C59.1576 61.8009 59.2409 61.4689 59.4696 61.2019C59.7046 60.9276 60.0318 60.7469 60.3645 60.6022C60.8789 60.3785 61.4107 60.2696 61.8988 59.9746C62.3724 59.6885 62.791 59.3118 63.1193 58.8686C63.2039 58.7545 63.2856 58.6333 63.4043 58.5545C63.6392 58.3986 63.8658 58.4663 64.1187 58.477C64.426 58.4902 64.7366 58.4862 65.044 58.4772C65.6549 58.4592 66.2707 58.3909 66.85 58.1896C67.0259 58.1283 67.2076 58.0475 67.3111 57.8939C67.647 57.3943 66.6605 56.9862 66.3356 56.8328Z" fill="black"/>
<path opacity="0.1" d="M70.3057 51.9774C72.5562 49.7505 72.5562 46.1401 70.3057 43.9133C68.0552 41.6864 64.4063 41.6864 62.1558 43.9133C59.9053 46.1401 59.9053 49.7505 62.1558 51.9774C64.4063 54.2042 68.0552 54.2042 70.3057 51.9774Z" fill="#27DEBF"/>
<path opacity="0.1" d="M71.6311 53.2888C74.6136 50.3377 74.6136 45.553 71.6311 42.6019C68.6486 39.6508 63.813 39.6508 60.8305 42.6019C57.848 45.553 57.848 50.3377 60.8305 53.2888C63.813 56.2399 68.6486 56.2399 71.6311 53.2888Z" fill="#27DEBF"/>
<path opacity="0.1" d="M75.6263 49.4541C76.4682 44.321 72.9453 39.4846 67.7577 38.6515C62.5701 37.8185 57.6822 41.3043 56.8403 46.4373C55.9984 51.5703 59.5213 56.4068 64.7089 57.2398C69.8965 58.0729 74.7844 54.5871 75.6263 49.4541Z" fill="#27DEBF"/>
<path d="M60.2448 46.1237C60.227 46.7901 60.1971 47.4555 60.1375 48.117C60.0888 48.6566 60.0265 49.2059 59.8006 49.6994C59.5551 50.2358 59.125 50.678 58.6219 50.9925C58.1187 51.307 57.5451 51.499 56.9611 51.6112C56.2571 51.7466 55.4853 51.6714 54.841 51.3313C54.3092 51.0506 53.8777 50.5238 53.8568 49.9277C53.8359 49.3315 54.3263 48.722 54.929 48.7307C54.5887 48.4445 54.4187 47.973 54.499 47.5384C54.5794 47.1037 54.9072 46.7224 55.3278 46.5741C55.6064 46.476 55.9087 46.4762 56.2022 46.441C56.57 46.397 56.9041 46.3288 57.1676 46.0479C57.3445 45.8593 57.4659 45.627 57.5755 45.3935C57.802 44.9116 57.9892 44.411 58.2525 43.9477C58.5156 43.4847 58.866 43.0527 59.3366 42.7968C59.5363 42.6883 59.9123 42.4682 60.6028 42.5633C60.8545 42.5981 61.029 42.6227 60.9068 42.9551C60.8517 43.1049 60.5129 43.4319 60.4799 43.5905C60.3991 43.9778 60.2997 44.3634 60.2684 44.7588C60.2327 45.209 60.257 45.6717 60.2448 46.1237Z" fill="#263238"/>
<path d="M65.9338 50.0281C66.0945 49.9516 66.2758 48.9266 66.1971 48.1731C66.1187 47.4196 66.4723 47.2771 66.6108 47.5247C66.7493 47.7725 66.766 47.9755 66.766 47.9755C66.766 47.9755 67.29 48.1329 67.6478 48.5856C68.0056 49.0383 68.4257 49.5874 68.1652 50.6639C68.1148 50.8718 67.8828 51.1398 67.7572 51.439C67.5615 51.9051 67.7156 53.9195 67.5461 56.0123C67.4967 56.622 67.3126 57.6186 66.7489 57.8096C66.1126 58.0252 65.3674 57.374 64.8979 56.8991C63.5168 55.5029 62.3789 54.0688 62.3789 54.0688L61.2915 48.933C62.6223 48.5128 63.115 49.1932 63.8368 50.4904C64.741 52.1153 65.542 53.7422 65.542 53.7422C65.7548 52.4266 65.9101 52.1736 65.6458 51.6274" fill="#FFA8A7"/>
<path d="M68.3971 48.1326L64.894 45.9646C64.812 45.9138 64.7312 45.9087 64.6687 45.9418C64.6136 45.971 64.3924 46.0796 64.3318 46.1062C64.2707 46.1328 64.2251 46.1941 64.2097 46.2832L63.843 48.3979C63.8122 48.5755 63.9123 48.7972 64.0668 48.8927L67.5698 51.0607C67.646 51.1079 67.7212 51.1156 67.7817 51.0898C67.8436 51.0635 68.0832 50.9466 68.1457 50.9124C68.2 50.8829 68.2399 50.8244 68.2544 50.7419C68.3463 50.2111 68.5289 49.1581 68.6211 48.6274C68.6517 48.4499 68.5515 48.2281 68.3971 48.1326Z" fill="#27DEBF"/>
<path opacity="0.35" d="M68.0479 48.302L64.5445 46.1353C64.4592 46.0819 64.3762 46.0783 64.3118 46.1163C64.3173 46.1127 64.3241 46.1092 64.331 46.1056C64.392 46.0791 64.6127 45.9704 64.6686 45.9424C64.7301 45.9082 64.8117 45.9142 64.8934 45.9648L68.3968 48.1328C68.4439 48.1631 68.4849 48.2061 68.5189 48.2539L68.1731 48.4204C68.1767 48.4259 68.1817 48.4313 68.184 48.4381C68.1477 48.3825 68.1002 48.3353 68.0479 48.302Z" fill="black"/>
<path opacity="0.45" d="M64.0663 48.8927L67.5693 51.0607C67.7238 51.1564 67.8741 51.0897 67.9049 50.912C67.9968 50.3813 68.1794 49.3283 68.2716 48.7976C68.3023 48.6199 68.2022 48.3983 68.0477 48.3026L64.5447 46.1346C64.3902 46.0389 64.24 46.1054 64.2092 46.2833L63.8425 48.3979C63.8117 48.5755 63.9118 48.7972 64.0663 48.8927Z" fill="black"/>
<path opacity="0.35" d="M67.9056 49.6068C67.9695 49.6497 68.0101 49.7467 67.9965 49.8236C67.9828 49.9005 67.9197 49.929 67.8553 49.8875C67.7911 49.8459 67.7504 49.7489 67.7645 49.6707C67.7787 49.5927 67.8418 49.5639 67.9056 49.6068Z" fill="black"/>
<path d="M64.3426 48.741C64.2783 48.7012 64.2259 48.5855 64.2388 48.5117L64.6209 46.4062L67.7561 48.3562C67.8201 48.396 67.8726 48.5119 67.8598 48.5857L67.4781 50.6881L64.3426 48.741Z" fill="#27DEBF"/>
<path opacity="0.7" d="M64.3426 48.741C64.2783 48.7012 64.2259 48.5855 64.2388 48.5117L64.6209 46.4062L67.7561 48.3562C67.8201 48.396 67.8726 48.5119 67.8598 48.5857L67.4781 50.6881L64.3426 48.741Z" fill="white"/>
<path d="M67.4941 50.6002L67.4781 50.6881L64.3422 48.7406C64.2785 48.7002 64.2261 48.5846 64.2384 48.5107L64.6207 46.4062L64.6971 46.454L64.3306 48.4716C64.3182 48.5455 64.3707 48.6611 64.4343 48.7014L67.4941 50.6002Z" fill="#27DEBF"/>
<path opacity="0.55" d="M68.6212 48.6278C68.5292 49.1582 68.3457 50.2121 68.2537 50.7424C68.2398 50.8251 68.1999 50.884 68.145 50.9129C68.0831 50.9466 67.8433 51.0633 67.7817 51.0906C67.7776 51.0929 67.7722 51.0938 67.7682 51.0949C67.8374 51.0722 67.8895 51.0092 67.9056 50.912C67.9976 50.3817 68.1798 49.3289 68.2718 48.7985C68.2938 48.6744 68.2512 48.53 68.173 48.4212L68.521 48.2529C68.5991 48.362 68.6419 48.505 68.6212 48.6278Z" fill="black"/>
<path d="M65.8721 50.0212C65.7626 49.9063 65.755 49.5726 65.5814 49.2641C65.3807 48.9077 64.824 48.9359 64.9652 49.2212C65.1064 49.5064 65.1375 49.7567 65.1858 50.4534C65.2344 51.1537 65.3883 51.2221 65.6458 51.6275L65.9315 50.058L65.8721 50.0212Z" fill="#FFA8A7"/>
<path d="M67.8619 46.6501C67.8576 46.6501 67.853 46.6499 67.8486 46.6495C67.7702 46.6424 67.7126 46.5736 67.7198 46.4961L67.8228 45.4014C67.83 45.3238 67.9009 45.2664 67.9778 45.2741C68.0561 45.2813 68.1139 45.3501 68.1067 45.4275L68.0037 46.5223C67.9968 46.5952 67.9347 46.6501 67.8619 46.6501Z" fill="#27DEBF"/>
<path d="M68.7618 47.0545C68.7316 47.0545 68.701 47.0449 68.6749 47.0252C68.6126 46.9776 68.601 46.8891 68.6491 46.8274L69.3911 45.8754C69.4387 45.8137 69.5282 45.8019 69.5909 45.8498C69.6533 45.8974 69.6648 45.9859 69.6168 46.0476L68.8748 46.9996C68.8467 47.0357 68.8043 47.0545 68.7618 47.0545Z" fill="#27DEBF"/>
<path d="M69.3088 47.8718C69.2499 47.8718 69.1948 47.8353 69.1743 47.777C69.1482 47.7033 69.1876 47.6232 69.262 47.5977L70.3701 47.2168C70.444 47.1914 70.5255 47.2299 70.5514 47.3036C70.5774 47.3773 70.5381 47.4574 70.4636 47.483L69.3555 47.8639C69.3401 47.8693 69.3244 47.8718 69.3088 47.8718Z" fill="#27DEBF"/>
<path d="M65.5422 53.7417C65.3663 54.3505 64.9749 55.3974 65.1632 55.9069C65.1632 55.9069 64.5972 55.1438 65.2975 53.2529L65.5422 53.7417Z" fill="#F28F8F"/>
<path d="M42.8591 39.3047C43.1482 39.4426 43.404 39.554 43.6014 39.8186C43.8129 40.1019 43.9084 40.4673 43.8625 40.8165C43.8248 41.102 43.6943 41.435 43.6932 41.7206C43.692 42.0279 43.8379 42.4938 43.9491 42.8692C44.3677 44.2826 44.9523 45.6007 45.5747 46.9336C46.1312 48.1253 46.7915 49.3643 47.0489 50.6633C48.5254 50.9258 50.0344 51.308 50.7089 51.4544C51.455 51.4627 52.018 51.5755 52.2935 51.6751C54.5739 52.4997 54.8211 54.356 55.4722 55.4825L53.7759 57.1315C51.4672 55.841 46.5192 53.5597 45.2989 52.9915C44.0785 52.4232 43.6517 52.3202 43.3419 51.8019C43.0589 51.3287 42.9106 50.7461 42.7848 50.2193C42.4327 48.744 42.3172 47.1088 42.036 45.6195C41.8855 44.8224 41.736 44.0251 41.5802 43.2291C41.5169 42.9061 41.4447 42.5827 41.341 42.2699C41.2007 41.8474 40.9663 41.4611 40.6953 41.1015C40.2416 40.4993 39.7704 39.9142 39.3515 39.2843C39.1885 39.0389 39.0264 38.784 38.9641 38.4969C38.8856 38.1354 38.9732 37.7581 39.1005 37.4105C39.22 37.0845 39.333 36.7652 39.4425 36.4359C39.4759 36.3353 39.5128 36.2296 39.5941 36.1608C39.8227 35.9674 40.1544 36.1932 40.2975 36.3859C40.398 36.5212 40.4706 36.6778 40.5888 36.7985C40.6668 36.8784 40.7617 36.9397 40.8517 37.0061C41.132 37.2127 41.3685 37.4763 41.5469 37.7735C41.728 38.0754 41.8431 38.402 42.0493 38.6906C42.2435 38.9626 42.5566 39.1606 42.8591 39.3047Z" fill="#FFA8A7"/>
<path d="M43.9099 42.7383L42.2986 47.3046L42.2984 47.3048C42.4337 48.2888 42.5617 49.2861 42.7846 50.2194C42.9104 50.7461 43.0587 51.3288 43.3417 51.8019C43.6515 52.3203 44.0783 52.4233 45.2987 52.9916C45.319 53.001 45.3429 53.0121 45.3652 53.0226C45.3916 53.0349 45.4166 53.0467 45.4459 53.0602C45.4875 53.0796 45.5308 53.0997 45.5778 53.1215C45.6112 53.1371 45.6435 53.1522 45.6794 53.1687C45.7151 53.1853 45.752 53.2024 45.7902 53.2202C45.8271 53.2373 45.8626 53.2539 45.9017 53.2721C46.0482 53.3402 46.2103 53.4157 46.3851 53.4971C46.4064 53.5071 46.4278 53.5171 46.4495 53.5272C46.523 53.5614 46.5986 53.5968 46.6765 53.6331C46.6965 53.6425 46.7162 53.6517 46.7366 53.6611C46.8282 53.7039 46.9218 53.7477 47.0185 53.7929C47.0254 53.7961 47.032 53.7991 47.0389 53.8025C47.1447 53.8521 47.253 53.9028 47.3642 53.9549C47.3681 53.9568 47.3719 53.9585 47.3759 53.9604L47.8561 52.1548C47.8108 52.1697 45.5217 51.7822 45.5217 51.7822C45.5217 51.7822 45.8531 51.2011 45.8983 50.1581C45.9241 49.5602 45.9154 48.4587 45.9032 47.627C45.7921 47.3943 45.6813 47.163 45.5744 46.9339C44.9519 45.601 44.3673 44.2829 43.9487 42.8695C43.9364 42.827 43.9232 42.7828 43.9099 42.7383Z" fill="#F28F8F"/>
<path d="M53.3106 52.1618C52.8037 51.755 52.4565 51.6089 51.8445 51.4954C51.2324 51.3818 51.0154 51.4144 50.5563 51.3196C50.0973 51.225 49.3609 51.0641 49.3609 51.0641C49.3609 51.0641 48.9596 51.0329 48.3115 51.4083C47.6554 51.7883 46.6925 52.7484 46.5588 53.9977C46.4248 55.2467 46.9893 55.8292 46.9893 55.8292L50.8721 57.0045L53.3106 52.1618Z" fill="#27DEBF"/>
<path opacity="0.3" d="M53.3106 52.1618C52.8037 51.755 52.4565 51.6089 51.8445 51.4954C51.2324 51.3818 51.0154 51.4144 50.5563 51.3196C50.0973 51.225 49.3609 51.0641 49.3609 51.0641C49.3609 51.0641 48.9596 51.0329 48.3115 51.4083C47.6554 51.7883 46.6925 52.7484 46.5588 53.9977C46.4248 55.2467 46.9893 55.8292 46.9893 55.8292L50.8721 57.0045L53.3106 52.1618Z" fill="white"/>
<path opacity="0.1" d="M51.8107 52.7537C50.8092 51.9468 49.1707 52.442 49.1707 52.442C49.1707 52.442 47.9115 52.1627 47.4709 52.1016C47.3281 52.2576 47.1911 52.4321 47.0676 52.6223L47.5619 53.4422L49.3772 53.7971C49.3772 53.7971 52.812 53.5606 51.8107 52.7537Z" fill="black"/>
<path d="M52.8014 53.2474L51.6076 56.0004L50.3529 58.8953C46.5456 57.6052 42.1492 55.3554 41.3049 54.2402C40.865 53.6593 41.6269 50.6187 42.4555 47.8384C43.127 45.5944 43.8417 43.5214 44.0067 43.0493V43.0474C44.0126 43.0339 44.0165 43.0202 44.0203 43.0085C44.0184 42.9542 43.9909 42.9075 43.9497 42.8686C43.8378 42.4936 43.6924 42.0273 43.6924 41.7203C43.6943 41.4348 43.8241 41.1026 43.8613 40.817C43.8712 40.7412 43.875 40.6636 43.8712 40.5857C43.9989 40.5566 44.1226 40.5333 44.2345 40.5216C44.5172 40.4944 44.7902 40.4284 45.0729 40.4051C45.5992 40.3603 46.257 40.5372 46.4573 41.0734C46.5416 41.2949 46.5496 41.5378 46.524 41.7767C46.5162 41.8448 46.5063 41.9127 46.4945 41.9807C46.3826 42.5947 45.9998 43.164 45.8975 43.7876C45.7778 44.689 45.7208 45.8877 45.6561 47.1078C45.5519 49.111 45.4263 51.1743 44.961 52.0834C44.961 52.0834 46.8107 52.2681 48.9961 52.8548C51.0462 52.2058 52.8014 53.2474 52.8014 53.2474Z" fill="#FFA8A7"/>
<path d="M43.8615 40.8202C43.8243 41.1058 43.6947 41.438 43.6926 41.7235C43.6926 42.0305 43.8379 42.4968 43.9499 42.8718C43.9911 42.9108 44.0186 42.9574 44.0205 43.0117C44.0462 42.826 44.0036 42.5116 43.9489 42.0948C43.8942 41.6784 44.1659 41.0418 44.1235 40.541C44.0424 40.5536 43.9586 40.569 43.8712 40.589C43.8754 40.6668 43.8714 40.7444 43.8615 40.8202Z" fill="#F28F8F"/>
<path opacity="0.05" d="M43.1425 52.3387C44.3169 52.4344 44.9618 52.0843 44.9618 52.0843C45.1341 51.7471 45.2291 51.3295 45.327 50.8232C44.9779 51.8407 43.1425 52.3387 43.1425 52.3387Z" fill="black"/>
<path d="M52.9163 53.165C52.0089 52.7625 51.2926 52.5735 50.5286 52.5498C49.7644 52.5261 49.2898 52.7346 48.9885 52.7542C48.6871 52.7737 48.2841 52.5262 47.2574 52.3549C47.2574 52.3549 46.9671 52.2675 46.3978 52.6322C45.844 52.9869 45.2953 53.9298 45.2487 54.3905C45.2487 54.3905 46.6367 55.232 46.5531 55.3085C46.4695 55.3851 45.065 54.9359 45.065 54.9359C45.065 54.9359 44.8666 55.4086 44.9173 55.9993C44.9561 56.449 45.2755 57.0047 45.2755 57.0047C45.2755 57.0047 49.0601 58.8933 50.4927 58.9644C51.9255 59.0353 52.9163 53.165 52.9163 53.165Z" fill="#27DEBF"/>
<path opacity="0.5" d="M52.9163 53.165C52.0089 52.7625 51.2926 52.5735 50.5286 52.5498C49.7644 52.5261 49.2898 52.7346 48.9885 52.7542C48.6871 52.7737 48.2841 52.5262 47.2574 52.3549C47.2574 52.3549 46.9671 52.2675 46.3978 52.6322C45.844 52.9869 45.2953 53.9298 45.2487 54.3905C45.2487 54.3905 46.6367 55.232 46.5531 55.3085C46.4695 55.3851 45.065 54.9359 45.065 54.9359C45.065 54.9359 44.8666 55.4086 44.9173 55.9993C44.9561 56.449 45.2755 57.0047 45.2755 57.0047C45.2755 57.0047 49.0601 58.8933 50.4927 58.9644C51.9255 59.0353 52.9163 53.165 52.9163 53.165Z" fill="white"/>
<path d="M59.0835 49.0703C58.1668 49.1863 56.6983 49.6217 56.0717 49.9394C55.3725 50.2938 55.039 52.625 54.5663 53.3074C54.2347 52.8914 53.7599 52.4154 53.2977 52.0986C52.8419 52.058 51.2945 52.7498 50.4279 54.4266C49.506 56.21 49.6892 58.0099 50.29 59.0044C51.6796 59.4313 53.3294 60.0015 56.1013 59.7983C57.3663 59.7056 59.1854 58.6701 60.0586 58.0302C60.6258 57.6147 60.8713 57.4131 61.3377 57.0413C63.2976 56.641 63.3673 54.9509 63.015 53.5193C62.5938 51.8074 62.4766 50.7867 61.7907 49.6739C61.4869 49.1814 60.428 48.9003 59.0835 49.0703Z" fill="#455A64"/>
<path d="M60.4856 56.9965C59.945 57.3243 59.1352 57.3365 58.3988 57.0692C57.6626 56.8021 57.233 55.9641 57.2575 55.3086C57.2575 55.3086 56.8408 56.806 58.1778 57.3783C59.5987 57.9865 60.4557 57.1777 60.4856 56.9965Z" fill="#37474F"/>
<path d="M63.8754 48.0678C65.3762 47.4526 66.089 45.7501 65.4673 44.265C64.8456 42.78 63.1249 42.0747 61.624 42.6899C60.1232 43.305 59.4105 45.0076 60.0322 46.4927C60.6539 47.9777 62.3745 48.6829 63.8754 48.0678Z" fill="#263238"/>
<path d="M59.6724 47.4512L58.9646 49.3973L57.7425 49.6739C57.8653 50.0258 58.9604 52.8118 59.5679 53.0402C60.0943 53.2382 61.5133 53.2745 61.7907 52.5954C61.8946 52.3409 61.4842 50.2543 61.4842 50.2543L61.5389 50.1121L59.6724 47.4512Z" fill="#FFA8A7"/>
<path d="M62.6497 48.0897C62.8463 47.9594 63.0361 47.8178 63.2753 47.9483C63.3835 48.0073 63.4671 48.1015 63.5412 48.1993C63.8814 48.6486 64.0625 49.2136 64.046 49.7747C64.0363 50.103 63.959 50.429 63.8231 50.7285C63.6958 51.0091 63.4794 51.2304 63.3897 51.5248C63.2681 51.924 63.3561 52.3513 63.4004 52.7656C63.4446 53.1802 63.3836 53.641 63.1066 53.9549C63.0206 53.5415 62.9601 53.2275 62.7963 52.9813C62.6033 52.6912 62.4563 52.5481 62.2195 52.2919C61.9305 51.9789 61.7381 51.7008 61.5389 51.3173C61.386 51.0225 61.3096 50.6886 61.3096 50.6886L61.5389 50.1118C61.7134 49.7138 61.7641 49.4226 61.9241 49.019C62.0054 48.8141 62.097 48.6114 62.214 48.4236C62.3086 48.2717 62.5013 48.1878 62.6497 48.0897Z" fill="#263238"/>
<path d="M64.0545 44.1447L63.8569 44.2354C63.8569 44.2354 61.7656 43.098 60.5956 43.7285C59.4195 44.3606 59.5029 45.6969 59.5831 46.2062C59.5698 46.1949 59.5565 46.1842 59.5434 46.1733C59.4795 45.996 59.4113 45.8525 59.2886 45.7095C59.1172 45.5057 58.422 45.375 58.0832 45.9823C57.7697 46.5385 58.159 47.3082 58.577 47.5825C58.6236 47.6143 58.6692 47.6383 58.7155 47.6564C58.9114 47.731 59.0678 47.7572 59.1934 47.751C59.5804 47.7421 59.671 47.4554 59.6724 47.4509L59.6726 47.4511L59.9063 48.2424C59.9648 48.647 60.1227 49.0164 60.2973 49.38C60.5201 49.6199 61.1586 50.0158 61.2917 50.0261L61.496 50.1045C62.1196 50.3117 62.764 50.5059 63.1296 50.4121C63.4952 50.3183 64.2588 49.9128 64.6431 47.8431C65.0969 45.4011 64.4799 44.4937 64.0545 44.1447Z" fill="#FFA8A7"/>
<path d="M58.8485 44.8831C58.8586 44.8363 58.8289 44.5229 58.8407 44.4819C59.2916 42.9153 60.3879 42.2099 62.2896 42.2031C62.7498 42.2014 63.4687 42.416 64.0359 42.7615C64.8227 43.2409 64.5764 44.3298 64.2466 45.1525C64.0551 45.6304 63.6378 46.0421 63.1245 46.1214C63.0443 46.1338 62.9472 46.1312 62.9014 46.0648C62.8721 46.0225 62.8739 45.9673 62.8767 45.9161C62.8915 45.6422 62.9065 45.3683 62.9214 45.0944C62.369 46.0075 61.3639 46.6375 60.2937 46.7415C60.1612 46.7542 60.0248 46.7593 59.8975 46.7208C59.6347 46.6416 59.6494 46.4705 59.5661 46.2583C59.511 46.1179 59.4495 45.9761 59.3636 45.8509C59.2549 45.6926 59.0362 45.6324 58.9217 45.4916C58.7917 45.3324 58.805 45.0874 58.8485 44.8831Z" fill="#263238"/>
<path d="M59.8557 47.9697C59.8557 47.9697 59.9076 49.1515 60.1654 49.5234C60.2505 49.6469 60.6594 50.1893 61.3858 50.4068L61.5387 50.1114C61.5387 50.1114 61.244 50.0007 61.028 49.8824C60.8122 49.7642 60.6089 49.6241 60.4717 49.4972C60.1654 49.2135 59.9197 48.1572 59.8557 47.9697Z" fill="#F28F8F"/>
<path d="M61.3848 50.0498C61.3848 50.0498 60.8422 51.5393 60.6389 51.7916C60.5129 51.9482 60.2374 51.8948 60.0586 51.8132C60.0586 51.8132 60.4278 52.1266 60.6972 51.8789C60.9666 51.6311 61.5387 50.1115 61.5387 50.1115L61.3848 50.0498Z" fill="#F28F8F"/>
<path d="M62.499 47.3665C62.4891 47.519 62.361 47.6346 62.2126 47.6248C62.0643 47.615 61.9522 47.4836 61.962 47.3312C61.9719 47.1787 62.1 47.0631 62.2484 47.0728C62.3964 47.0826 62.5087 47.2142 62.499 47.3665Z" fill="#263238"/>
<path d="M62.4368 46.4583L61.7984 46.6136C61.7595 46.4339 61.8708 46.2532 62.0472 46.2104C62.2233 46.1675 62.3979 46.2784 62.4368 46.4583Z" fill="#263238"/>
<path d="M62.1915 48.8018L62.9365 49.2688C62.8083 49.4814 62.5375 49.5494 62.3318 49.4205C62.1258 49.2913 62.0631 49.0144 62.1915 48.8018Z" fill="#F28F8F"/>
<path d="M64.5405 46.6842L63.9437 46.3996C64.0176 46.2323 64.2111 46.1603 64.3758 46.2388C64.5405 46.3176 64.6142 46.5169 64.5405 46.6842Z" fill="#263238"/>
<path d="M64.3574 47.3665C64.3475 47.519 64.2194 47.6346 64.071 47.6248C63.9228 47.615 63.8105 47.4836 63.8204 47.3312C63.8303 47.1787 63.9584 47.0631 64.1066 47.0728C64.255 47.0826 64.3672 47.214 64.3574 47.3665Z" fill="#263238"/>
<path d="M63.2692 47.2256L63.015 48.8206L63.8199 48.7192L63.2692 47.2256Z" fill="#F28F8F"/>
<path d="M56.7372 49.6738C54.9792 50.0959 54.375 50.8727 54.1563 53.6786C54.0495 55.0487 53.8262 58.4303 53.9271 59.1517C54.0637 60.1281 54.1299 60.6495 54.7033 61.0644C55.5923 61.7077 59.9102 64.1444 61.0263 64.5223C61.9444 64.8332 63.0895 64.9485 63.9968 64.552C64.1645 64.4786 64.3498 64.3367 64.3114 64.1594C64.2914 64.0673 64.2116 63.997 64.1235 63.9611C64.0353 63.9252 63.9384 63.9178 63.8436 63.9088C63.2098 63.8483 62.5852 63.6926 61.998 63.449C61.9389 63.4245 61.8682 63.3683 61.8992 63.3129C61.9163 63.2824 61.9558 63.2741 61.9905 63.2689C62.3757 63.2113 62.7882 63.1745 63.0796 62.8865C63.2639 62.7045 63.1144 62.5071 62.5161 62.5565C61.9178 62.6058 61.1735 62.2488 60.4075 62.3475L56.6521 59.2851L57.1001 54.2264C57.1001 54.2264 57.6958 50.5775 56.7372 49.6738Z" fill="#FFA8A7"/>
</svg>
