<svg id="Layer_1" data-name="Layer 1" xmlns="http://www.w3.org/2000/svg" viewBox="0 0 569.87 571.91"><defs><style>.cls-1{fill:#f68b1f;}.cls-2{fill:#eece17;}.cls-3{fill:#f5e202;}.cls-4{fill:#f6eb14;}.cls-5{fill:#fff;}.cls-6{fill:#ef4477;}.cls-7{fill:none;stroke:#231f20;stroke-linecap:round;stroke-miterlimit:10;stroke-width:10px;}</style></defs><g id="sun"><path class="cls-1" d="M94.37,217.72c0,3.06,73.53,11.23,73.53,11.23l19.41-71.49,65.36,36.77L295.56,135l47,60.26,63.32-37.79L425.27,229l73.53-10.21-12.26,75.57,74.56,17.36L523.31,375l59.23,46-61.27,46,39.83,63.32-71.49,18.38,8.17,74.55-70.47-11.23-20.43,72.51-62.3-38.81-49,61.28-43.91-59.24L186.29,682.4,168.93,615l-75.58,6.13,12.26-72.51L33.1,530.23l38.8-63.32L12.67,421,71.9,375,32.07,311.67l73.54-17.36Z" transform="translate(-12.67 -134.99)"/><path class="cls-2" d="M297.61,231a189.38,189.38,0,0,0-71.25,13.83c1,0,2,0,3.08,0A143.24,143.24,0,1,1,115.35,474.61a190,190,0,0,0,182.26,136.3c104.91,0,190-85,190-190S402.52,231,297.61,231Z" transform="translate(-12.67 -134.99)"/><path class="cls-3" d="M229.44,531.25a143.24,143.24,0,0,0,0-286.47c-1,0-2.06,0-3.08,0a190.16,190.16,0,0,0-111,229.79A143,143,0,0,0,229.44,531.25Z" transform="translate(-12.67 -134.99)"/><ellipse class="cls-4" cx="203.39" cy="329.03" rx="52.09" ry="28.34" transform="translate(-194.05 154.27) rotate(-52.38)"/></g><g id="eye"><circle cx="366.64" cy="304.72" r="43.66"/><circle class="cls-5" cx="350.17" cy="289.79" r="11.11"/><circle class="cls-5" cx="384.26" cy="321.57" r="7.47"/><circle class="cls-5" cx="368.94" cy="334.6" r="4.88"/></g><g id="eye-2" data-name="eye"><circle cx="208.85" cy="304.72" r="43.66"/><circle class="cls-5" cx="192.38" cy="289.79" r="11.11"/><circle class="cls-5" cx="226.47" cy="321.57" r="7.47"/><circle class="cls-5" cx="211.15" cy="334.6" r="4.88"/></g><ellipse class="cls-6" cx="167.27" cy="491.1" rx="19.91" ry="31.79" transform="translate(-361.85 405.5) rotate(-76.66)"/><ellipse class="cls-6" cx="432.67" cy="491.1" rx="31.79" ry="19.91" transform="translate(-114.34 -21.87) rotate(-13.34)"/><path class="cls-7" d="M261.86,490.12a36.79,36.79,0,0,0,71.49-1" transform="translate(-12.67 -134.99)"/></svg>