<svg width="268" height="229" viewBox="0 0 268 229" fill="none" xmlns="http://www.w3.org/2000/svg">
<path fill-rule="evenodd" clip-rule="evenodd" d="M262.902 170.449C250.879 184.78 219.515 178.264 192.857 155.897C166.199 133.515 166.774 114.206 178.812 99.8614C190.836 85.5311 209.749 81.6014 236.421 103.968C263.064 126.35 274.925 156.119 262.902 170.449Z" fill="#6F04D9"/>
<path d="M253.785 141.818C249.285 141.818 244.963 139.913 241.909 136.5L222.923 115.27C220.297 112.33 218.851 108.548 218.851 104.604V94.3362C218.851 93.2282 219.751 92.3418 220.842 92.3418C221.949 92.3418 222.834 93.243 222.834 94.3362V104.604C222.834 107.559 223.911 110.395 225.888 112.596L244.874 133.826C247.53 136.781 251.454 138.243 255.378 137.711L262.754 136.721C263.846 136.588 264.849 137.342 264.997 138.435C265.144 139.528 264.377 140.533 263.286 140.681L255.909 141.671C255.216 141.759 254.493 141.818 253.785 141.818Z" fill="white"/>
<path fill-rule="evenodd" clip-rule="evenodd" d="M121.02 227.704C209.992 227.704 229.451 171.786 217.782 113.062C206.112 54.337 165.794 0 121.02 0C76.2457 0 35.3959 50.6288 24.2725 113.062C13.1491 175.509 32.0471 227.704 121.02 227.704Z" fill="#B5A2E9"/>
<path fill-rule="evenodd" clip-rule="evenodd" d="M119.264 32.0146H141.614C164.909 32.0146 183.792 50.9247 183.792 74.2521C183.792 97.5795 164.909 116.49 141.614 116.49H119.264C95.9699 116.49 77.0866 97.5795 77.0866 74.2521C77.0866 50.91 95.9699 32.0146 119.264 32.0146Z" fill="#6F04D9"/>
<path fill-rule="evenodd" clip-rule="evenodd" d="M124.501 28.3359H146.851C170.146 28.3359 189.029 47.246 189.029 70.5734C189.029 93.9008 170.146 112.811 146.851 112.811H124.501C101.207 112.811 82.3238 93.9008 82.3238 70.5734C82.3238 47.246 101.207 28.3359 124.501 28.3359Z" fill="white"/>
<path d="M105.706 228.133C104.6 228.133 103.715 227.232 103.715 226.138V203.934C103.715 195.129 110.87 187.949 119.677 187.949H150.525C157.119 187.949 162.489 182.571 162.489 175.968V169.91C162.489 168.802 163.389 167.916 164.481 167.916C165.587 167.916 166.472 168.817 166.472 169.91V175.968C166.472 184.773 159.317 191.953 150.51 191.953H119.677C113.083 191.953 107.713 197.33 107.713 203.934V226.124C107.713 227.232 106.813 228.133 105.706 228.133Z" fill="#6F04D9"/>
<path d="M164.481 127.658C163.374 127.658 162.489 126.757 162.489 125.664V124.275C162.489 118.764 166.959 114.288 172.462 114.288H216.778C217.885 114.288 218.77 115.189 218.77 116.283C218.77 117.391 217.87 118.277 216.778 118.277H172.462C169.157 118.277 166.472 120.966 166.472 124.275V125.664C166.472 126.772 165.587 127.658 164.481 127.658Z" fill="#6F04D9"/>
<path fill-rule="evenodd" clip-rule="evenodd" d="M144.939 126.978L171.256 126.519C182.98 126.313 192.65 135.655 192.865 147.389C192.865 147.389 192.865 147.389 192.862 147.404C193.062 159.135 183.732 168.821 172.009 169.027L145.692 169.486C133.968 169.692 124.298 160.35 124.083 148.616C124.083 148.616 124.083 148.616 124.086 148.601C123.888 136.855 133.218 127.169 144.939 126.978Z" fill="#926247"/>
<path fill-rule="evenodd" clip-rule="evenodd" d="M151.211 126.495L177.016 126.05C188.876 125.838 198.673 135.308 198.879 147.175L198.877 147.19C199.08 159.072 189.626 168.871 177.754 169.066L151.949 169.51C140.09 169.722 130.304 160.269 130.083 148.399L130.086 148.385C129.882 136.503 139.337 126.704 151.211 126.495Z" fill="white"/>
<path d="M151.836 158.58C146.472 158.577 142.047 154.255 141.948 148.854C141.844 143.392 146.205 138.869 151.662 138.769L151.827 138.769C151.888 138.764 151.946 138.775 152.007 138.77C157.371 138.774 161.796 143.096 161.895 148.497C161.999 153.959 157.638 158.482 152.18 158.581L152.016 158.582C151.957 158.572 151.897 158.576 151.836 158.58ZM151.741 142.757C148.48 142.81 145.876 145.514 145.934 148.764C145.99 152.028 148.681 154.618 151.942 154.565L152.107 154.564C155.354 154.509 157.957 151.805 157.899 148.555C157.844 145.291 155.128 142.667 151.891 142.754L151.741 142.757Z" fill="#926247"/>
<path d="M168.304 145.346C167.242 145.338 166.354 144.506 166.318 143.435C166.272 142.333 167.124 141.404 168.226 141.359L183.367 140.708C184.469 140.663 185.398 141.517 185.443 142.619C185.489 143.722 184.637 144.651 183.535 144.696L168.394 145.347C168.365 145.341 168.336 145.336 168.304 145.346Z" fill="#926247"/>
<path d="M168.88 153.475C167.818 153.467 166.93 152.635 166.894 151.564C166.848 150.462 167.7 149.533 168.802 149.488L177.543 149.114C178.644 149.069 179.573 149.923 179.619 151.026C179.665 152.128 178.812 153.057 177.711 153.102L168.97 153.476C168.938 153.485 168.909 153.48 168.88 153.475Z" fill="#926247"/>
<path fill-rule="evenodd" clip-rule="evenodd" d="M134.096 54.0361C136.693 54.0361 138.802 56.1487 138.802 58.7489V60.3444C138.802 62.9446 136.693 65.0572 134.096 65.0572C131.5 65.0572 129.39 62.9446 129.39 60.3444V58.7489C129.39 56.1487 131.5 54.0361 134.096 54.0361Z" fill="#926247"/>
<path fill-rule="evenodd" clip-rule="evenodd" d="M167.467 54.0361C170.063 54.0361 172.173 56.1487 172.173 58.7489V60.3444C172.173 62.9446 170.063 65.0572 167.467 65.0572C164.87 65.0572 162.76 62.9446 162.76 60.3444V58.7489C162.76 56.1487 164.87 54.0361 167.467 54.0361Z" fill="#926247"/>
<path d="M146.946 85.9918C141.576 85.9918 137.209 81.6188 137.209 76.2413C137.209 75.1332 138.109 74.2468 139.201 74.2468C140.307 74.2468 141.192 75.148 141.192 76.2413C141.192 79.4176 143.774 82.0029 146.946 82.0029L155.871 81.9291C159.058 81.8995 161.625 79.3732 161.713 76.1822C161.743 75.0741 162.672 74.2173 163.764 74.2468C164.87 74.2764 165.726 75.1923 165.696 76.3004C165.549 81.6484 161.241 85.8736 155.901 85.9327L146.946 85.9918Z" fill="#4F3422"/>
<path fill-rule="evenodd" clip-rule="evenodd" d="M12.0358 189.737C28.2194 199.088 55.4083 182.246 72.7868 152.108C90.1653 121.971 83.0251 104.035 66.8415 94.6691C50.658 85.3322 31.5682 88.1096 14.1897 118.248C-3.1888 148.386 -4.14771 180.385 12.0358 189.737Z" fill="#6F04D9"/>
<path d="M50.5548 180.429C49.7581 180.429 48.991 179.942 48.6959 179.144L42.9572 164.223C41.7917 161.194 42.0573 157.855 43.6948 155.048L55.6296 134.469C57.5327 131.204 61.0586 129.165 64.8352 129.165H80.5762C81.6826 129.165 82.5678 130.066 82.5678 131.159C82.5678 132.253 81.6679 133.154 80.5762 133.154H64.8205C62.4601 133.154 60.2619 134.424 59.067 136.463L47.1322 157.043C46.1142 158.801 45.952 160.884 46.6748 162.775L52.4136 177.726C52.8119 178.76 52.2956 179.912 51.2629 180.311C51.0268 180.385 50.7908 180.429 50.5548 180.429Z" fill="white"/>
</svg>