<svg width="375" height="587" viewBox="0 0 375 587" fill="none" xmlns="http://www.w3.org/2000/svg">
<mask id="mask0_810_2647" style="mask-type:luminance" maskUnits="userSpaceOnUse" x="-106" y="44" width="729" height="498">
<path d="M307.087 73.4405C205.222 27.0911 64.6584 34.5856 29.7095 102.989C7.48609 146.42 35.98 203.12 5.24222 240.716C-14.6759 265.073 -25.096 268.022 -49.5018 287.864C-70.4035 304.85 -88.5695 321.466 -98.4056 347.667C-112.084 384.034 -106.336 425.96 -84.9424 457.965C-66.5305 485.517 -34.5325 499.769 -4.68608 511.195C37.7321 527.413 84.1461 534.293 129.361 532.296C191.79 529.563 253.665 508.123 315.602 516.417C345.663 520.44 374.403 531.375 404.157 537.303C461.514 548.698 532.426 539.33 566.76 485.271C581.207 462.511 586.371 435.605 583.143 408.913C579.578 379.488 571.125 349.202 577.149 319.501C583.85 286.512 607.887 259.698 618.092 227.662C635.551 172.897 604.291 107.135 550.93 86.3716C529.967 78.2013 507.067 76.4813 484.567 76.3584C424.444 75.9898 361.893 98.3813 307.087 73.4405Z" fill="white"/>
</mask>
<g mask="url(#mask0_810_2647)">
<path d="M678 0H-149V562.458H678V0Z" fill="#F5F5F5"/>
</g>
<mask id="mask1_810_2647" style="mask-type:luminance" maskUnits="userSpaceOnUse" x="-106" y="44" width="729" height="498">
<path d="M307.087 73.4405C205.222 27.0911 64.6584 34.5856 29.7095 102.989C7.48609 146.42 35.98 203.12 5.24222 240.716C-14.6759 265.073 -25.096 268.022 -49.5018 287.864C-70.4035 304.85 -88.5695 321.466 -98.4056 347.667C-112.084 384.034 -106.336 425.96 -84.9424 457.965C-66.5305 485.517 -34.5325 499.769 -4.68608 511.195C37.7321 527.413 84.1461 534.293 129.361 532.296C191.79 529.563 253.665 508.123 315.602 516.417C345.663 520.44 374.403 531.375 404.157 537.303C461.514 548.698 532.426 539.33 566.76 485.271C581.207 462.511 586.371 435.605 583.143 408.913C579.578 379.488 571.125 349.202 577.149 319.501C583.85 286.512 607.887 259.698 618.092 227.662C635.551 172.897 604.291 107.135 550.93 86.3716C529.967 78.2013 507.067 76.4813 484.567 76.3584C424.444 75.9898 361.893 98.3813 307.087 73.4405Z" fill="white"/>
</mask>
<g mask="url(#mask1_810_2647)">
<path d="M80.4576 439.751C65.2424 478.145 54.5764 525.631 45.2628 562.458L549.362 570.966C561.996 528.272 566.576 467.824 558.369 423.84C555.91 410.694 551.36 397.794 546.719 385.6C494.495 427.956 420.54 457.996 351.811 466.903C260.796 478.913 164.433 475.872 80.4576 439.751Z" fill="#FF6B6B"/>
</g>
<path d="M88.1727 128.544L78.3059 133.919C72.312 138.403 73.1112 139.847 71.728 147.219L68.2546 169.119C68.1316 169.856 67.0558 169.856 66.9329 169.119L63.521 147.341C62.1685 140.001 62.2915 138.403 56.3591 133.919L47.0148 128.544C46.6459 128.267 46.6459 127.745 47.0148 127.469L57.5886 122.431C63.4902 117.947 63.1521 114.968 64.5046 107.657L66.9329 86.9552C67.0558 86.2181 68.1316 86.2181 68.2546 86.9552L71.1132 108.394C72.4349 115.643 73.1727 118.684 79.0436 123.169L88.2034 127.438C88.5415 127.745 88.5415 128.298 88.1727 128.544Z" fill="#FFDFDF"/>
<path d="M127.333 180.913L120.478 184.661C116.298 187.763 116.882 188.777 115.898 193.906L113.501 209.11C113.408 209.632 112.671 209.601 112.578 209.11L110.212 193.998C109.259 188.899 109.382 187.794 105.232 184.661L98.7772 180.913C98.5313 180.729 98.5313 180.361 98.7772 180.176L106.124 176.675C110.212 173.542 109.996 171.484 110.919 166.416L112.609 152.041C112.701 151.519 113.439 151.519 113.531 152.041L115.499 166.938C116.421 171.975 116.943 174.064 121.001 177.197L127.363 180.176C127.579 180.361 127.579 180.729 127.333 180.913Z" fill="#FFDFDF"/>
<path d="M223.388 200.479C202.855 187.425 196.185 157.999 209.034 137.021C221.882 116.042 252.251 106.674 274.597 116.841C283.511 120.895 291.626 127.683 301.616 127.745C311.452 127.806 319.997 121.264 328.942 117.025C346.093 108.916 368.225 109.684 381.841 121.817C388.542 127.776 392.969 136.069 400.53 141.014C410.243 147.372 423.276 147.034 435.11 144.976C446.944 142.918 458.778 139.386 470.674 140.215C482.538 141.045 493.85 146.389 501.596 154.866C512.139 166.385 516.903 183.739 531.596 189.913C537.528 192.401 544.26 192.616 550.776 193.353C576.658 196.24 602.447 209.601 612.344 232.484C622.58 256.135 621.166 298.491 595.069 304.696C536.76 318.518 591.504 350.4 528.246 374.051C515.766 378.72 497.262 349.448 486.104 342.967C479.065 338.882 474.608 331.787 468.399 326.626C459.362 319.04 446.452 315.845 434.403 318.18C404.403 324.046 384.792 360.413 354.423 359.215C347.446 358.939 339.546 355.13 339.3 348.434C339.177 345.363 340.714 342.445 342.251 339.711C349.444 326.903 357.774 313.88 358.542 299.536C359.28 285.406 336.565 290.536 324.362 282.98C311.698 275.148 282.835 299.689 273.399 288.417C268.019 281.997 260.212 260.681 256.032 253.463C247.364 238.443 260.304 198.083 242.599 202.567L223.388 200.479Z" fill="#3F3C36"/>
<path d="M206.329 171.023C200.98 167.368 192.989 169.641 187.548 172.16C180.939 175.231 178.019 180.913 179.648 188.07C180.693 192.647 183.275 197.131 182.353 201.953C181.093 208.619 174.822 206.561 170.15 208.68C167.691 209.786 166.062 211.844 165.109 214.301C164.341 216.267 162.988 221.427 163.88 223.116C163.019 221.519 160.591 222.932 161.452 224.529C162.159 225.881 163.726 226.833 165.263 226.065C167.384 225.021 166.523 222.072 166.708 220.137C166.923 217.925 167.353 215.437 168.613 213.564C170.488 210.799 173.439 210.799 176.39 210.339C179.249 209.878 181.831 209.141 183.552 206.684C187.948 200.356 183.306 193.046 182.169 186.596C181.093 180.422 184.566 176.429 189.976 174.248C194.402 172.467 200.704 170.624 204.915 173.511C206.421 174.463 207.835 172.037 206.329 171.023Z" fill="#3F3C36"/>
<path d="M205.007 167.829C197.569 165.095 189.792 160.365 181.616 163.129C179.003 164.02 176.544 165.678 175.13 168.074C174.269 169.549 173.9 171.207 173.655 172.866C173.47 173.972 173.624 176.122 172.948 177.074C171.288 178.087 169.597 179.07 167.937 180.084C167.476 179.777 166.984 179.593 166.462 179.531C159.976 179.316 156.995 183.923 155.273 189.667C154.136 193.507 153.583 197.715 151.093 200.97C147.773 205.301 142.025 206.561 137.015 204.748C136.247 204.472 135.57 205.086 135.294 205.731C134.648 207.298 134.802 208.373 135.786 209.755C136.831 211.199 139.29 209.816 138.214 208.342C138.152 207.728 138.091 207.113 138.029 206.499C137.445 206.837 136.861 207.144 136.308 207.482C142.271 209.601 149.279 207.943 153.275 202.875C157.456 197.561 156.318 186.012 162.804 183.033C166.4 181.374 169.689 184.845 173.193 181.958C175.898 179.715 175.898 176.245 176.544 173.112C179.495 158.983 196.062 167.583 204.3 170.593C205.991 171.146 206.698 168.443 205.007 167.829Z" fill="#3F3C36"/>
<path d="M279.515 341.001C282.989 361.919 303.46 367.294 322.026 366.403C345.54 365.297 368.225 357.342 387.62 344.165C396.903 337.868 405.417 330.497 413.286 322.511C415.868 319.9 433.85 295.881 435.479 296.188C409.844 291.304 383.163 290.567 357.805 290.598C333.03 290.628 310.591 290.29 289.567 291.181C280.776 306.17 276.565 323.064 279.515 341.001Z" fill="#FFDFDF"/>
<path d="M481.34 310.87C466.831 303.836 451.34 299.229 435.479 296.219C433.819 295.911 414.331 321.559 411.503 324.323C402.559 333.169 392.784 341.186 382.057 347.79C361.155 360.659 332.2 367.417 308.409 365.113C273.214 361.673 274.72 316.521 289.567 291.212C252.681 292.778 220.222 298.154 187.579 316.091C148.419 337.623 117.712 374.051 95.7649 414.81C91.6461 422.489 87.8038 430.874 84.2075 439.751C169.904 475.872 268.204 478.913 361.063 466.903C431.206 457.996 493.42 427.956 546.719 385.6C534.393 353.84 513.86 326.596 481.34 310.87Z" fill="#FF6B6B"/>
<path d="M377.2 294.314L254.71 183.125C239.095 189.299 221.636 185.459 209.157 174.771C201.073 204.994 194.372 256.135 226.032 292.625L252.036 262.831C252.036 262.831 265.714 296.618 279.239 329.821C291.903 360.905 331.831 369.567 356.268 346.592C356.575 346.285 356.913 345.978 357.221 345.67C377.446 326.535 397.825 313.02 377.2 294.314Z" fill="#FFDFDF"/>
<path d="M254.71 183.125L217.702 149.522C217.702 149.522 213.276 159.474 209.187 174.77C221.636 185.459 239.095 189.299 254.71 183.125Z" fill="#FFDFDF"/>
<path d="M297.19 187.885C295.96 199.066 285.878 207.144 274.69 205.915C263.501 204.687 255.417 194.612 256.646 183.432C257.876 172.251 267.958 164.173 279.146 165.402C290.335 166.63 298.419 176.705 297.19 187.885Z" fill="#FFDFDF"/>
<path d="M273.706 194.797C276.903 188.039 280.13 181.282 283.45 174.617C284.249 172.989 281.821 171.576 281.022 173.204C277.702 179.9 274.474 186.657 271.278 193.384C270.478 195.012 272.907 196.425 273.706 194.797Z" fill="#3F3C36"/>
<path d="M252.036 262.862L280.161 331.081L269.649 239.58L252.036 262.862Z" fill="#3F3C36"/>
<path d="M204.362 196.886C200.581 209.51 197.599 223.025 196.37 236.171C196.278 237.277 197.63 237.86 198.491 237.369C203.071 234.881 207.65 232.423 212.23 229.936C213.829 229.076 212.415 226.649 210.816 227.509C206.237 229.997 201.657 232.454 197.077 234.942C197.784 235.341 198.491 235.741 199.198 236.171C200.396 223.301 203.378 210.001 207.097 197.654C207.589 195.903 204.884 195.135 204.362 196.886Z" fill="#3F3C36"/>
<path d="M227.507 207.728C231.964 202.629 238.142 199.957 244.935 200.264C246.749 200.356 246.749 197.53 244.935 197.469C237.466 197.131 230.458 200.141 225.54 205.762C224.341 207.083 226.308 209.079 227.507 207.728Z" fill="#3F3C36"/>
<path d="M220.898 247.412C227.907 251.62 236.544 244.586 233.347 236.876C232.671 235.218 229.935 235.955 230.642 237.613C232.825 242.927 227.384 248.026 222.312 244.954C220.776 244.033 219.362 246.46 220.898 247.412Z" fill="#3F3C36"/>
<path d="M225.724 199.527C226.401 201.124 227.077 202.722 227.784 204.319C228.091 205.025 229.105 205.179 229.72 204.81C230.458 204.411 230.519 203.582 230.212 202.875C229.536 201.278 228.86 199.681 228.153 198.084C227.845 197.377 226.831 197.224 226.216 197.592C225.478 197.992 225.417 198.821 225.724 199.527Z" fill="#3F3C36"/>
<path d="M237.435 198.698C236.821 196.794 236.175 194.889 235.56 192.985C235.007 191.265 232.271 192.002 232.855 193.722C233.47 195.626 234.116 197.531 234.73 199.435C235.284 201.155 237.989 200.418 237.435 198.698Z" fill="#3F3C36"/>
<path d="M243.952 198.298C243.706 197.008 244.044 195.626 244.905 194.612C246.073 193.23 244.075 191.234 242.907 192.616C241.37 194.459 240.786 196.67 241.247 199.035C241.585 200.817 244.29 200.08 243.952 198.298Z" fill="#3F3C36"/>
<path d="M223.942 174.678C228.306 172.989 233.009 174.125 236.052 177.688C237.22 179.071 239.218 177.074 238.05 175.692C234.392 171.453 228.429 169.917 223.204 171.945C221.544 172.62 222.251 175.323 223.942 174.678Z" fill="#3F3C36"/>
<path d="M245.673 400.343C230.151 413.919 203.163 429.676 185.181 440.211C191.052 440.672 203.562 444.604 200.888 449.518C198.214 454.432 192.527 457.197 187.241 459.623C178.019 463.831 168.798 468.07 159.577 472.278C155.488 474.152 151.216 476.056 146.667 476.148C142.118 476.24 137.199 473.937 136.001 469.851C135.232 467.302 143.531 457.873 141.257 456.306C139.074 454.801 128.285 462.203 125.888 463.432C101.083 476.363 76.2464 489.325 51.441 502.256C48.8898 503.577 46.1234 504.959 43.2648 504.591C40.191 504.191 37.8549 501.949 35.7648 499.799C-1.70458 461.313 -39.1739 422.796 -76.6125 384.309C-56.049 367.017 -31.9813 353.379 -6.10008 344.41C9.51471 338.974 26.0209 335.134 40.0373 326.688L245.673 400.343Z" fill="#E0D7F9"/>
<path d="M248.409 396.258C220.96 406.179 195.571 421.383 174.238 440.734C179.341 440.212 184.597 441.194 189.116 443.529C181.523 449.18 173.47 454.218 165.017 458.579C159.577 461.405 153.183 463.985 147.374 461.989C141.564 459.992 138.859 451.054 144.269 448.167C111.503 460.084 78.767 472.002 46.0005 483.95C44.0333 484.657 41.9124 485.394 39.8529 484.902C37.7935 484.38 36.2874 482.721 34.9349 481.155C-3.08775 436.771 -36.9301 387.013 -87.4015 356.082C-78.3031 352.581 -69.174 349.11 -60.0756 345.608C-73.8154 335.38 -45.967 331.387 -61.6125 324.077C-19.1636 318.548 24.8529 313.726 71.5436 329.206C71.5436 329.206 101.574 270.141 144.454 261.971L248.409 396.258Z" fill="white"/>
<path d="M125.734 242.62C99.1768 260.988 55.4677 291.519 39.0537 317.197C-5.48534 311.054 -51.4691 311.207 -96.5306 317.719C-43.1391 355.898 4.28928 400.22 44.2791 449.242C45.3549 450.563 46.523 451.945 48.2443 452.621C50.7341 453.603 53.7156 452.805 56.3898 452.068C91.2772 442.362 127.763 439.29 163.911 436.28C188.777 409.496 220.345 387.32 255.632 371.87L125.734 242.62Z" fill="white"/>
<mask id="mask2_810_2647" style="mask-type:luminance" maskUnits="userSpaceOnUse" x="-97" y="242" width="353" height="212">
<path d="M125.734 242.62C99.1768 260.988 55.4677 291.519 39.0537 317.197C-5.48534 311.054 -51.4691 311.207 -96.5306 317.719C-43.1391 355.898 4.28928 400.22 44.2791 449.242C45.3549 450.563 46.523 451.945 48.2443 452.621C50.7341 453.603 53.7156 452.805 56.3898 452.068C91.2772 442.362 127.763 439.29 163.911 436.28C188.777 409.496 220.345 387.32 255.632 371.87L125.734 242.62Z" fill="white"/>
</mask>
<g mask="url(#mask2_810_2647)">
<path d="M-31.305 350.861C-7.14515 342.414 18.3057 338.912 43.8488 340.509C45.6624 340.632 45.6624 337.807 43.8488 337.684C18.0906 336.056 -7.66769 339.619 -32.0427 348.127C-33.7641 348.741 -33.0264 351.444 -31.305 350.861Z" fill="#FFDFDF"/>
</g>
<mask id="mask3_810_2647" style="mask-type:luminance" maskUnits="userSpaceOnUse" x="-97" y="242" width="353" height="212">
<path d="M125.734 242.62C99.1768 260.988 55.4677 291.519 39.0537 317.197C-5.48534 311.054 -51.4691 311.207 -96.5306 317.719C-43.1391 355.898 4.28928 400.22 44.2791 449.242C45.3549 450.563 46.523 451.945 48.2443 452.621C50.7341 453.603 53.7156 452.805 56.3898 452.068C91.2772 442.362 127.763 439.29 163.911 436.28C188.777 409.496 220.345 387.32 255.632 371.87L125.734 242.62Z" fill="white"/>
</mask>
<g mask="url(#mask3_810_2647)">
<path d="M-20.6084 361.489C2.35277 352.581 27.1582 349.755 51.6254 348.865C53.439 348.803 53.439 345.977 51.6254 346.07C26.943 346.991 1.83022 349.817 -21.3461 358.816C-23.0366 359.431 -22.2989 362.134 -20.6084 361.489Z" fill="#FFDFDF"/>
</g>
<mask id="mask4_810_2647" style="mask-type:luminance" maskUnits="userSpaceOnUse" x="-97" y="242" width="353" height="212">
<path d="M125.734 242.62C99.1768 260.988 55.4677 291.519 39.0537 317.197C-5.48534 311.054 -51.4691 311.207 -96.5306 317.719C-43.1391 355.898 4.28928 400.22 44.2791 449.242C45.3549 450.563 46.523 451.945 48.2443 452.621C50.7341 453.603 53.7156 452.805 56.3898 452.068C91.2772 442.362 127.763 439.29 163.911 436.28C188.777 409.496 220.345 387.32 255.632 371.87L125.734 242.62Z" fill="white"/>
</mask>
<g mask="url(#mask4_810_2647)">
<path d="M-3.85622 371.471C18.0598 362.103 41.9738 360.014 65.4575 358.11C67.2403 357.956 67.271 355.161 65.4575 355.284C41.4205 357.25 17.1377 359.431 -5.27016 369.045C-6.93 369.751 -5.48533 372.178 -3.85622 371.471Z" fill="#FFDFDF"/>
</g>
<mask id="mask5_810_2647" style="mask-type:luminance" maskUnits="userSpaceOnUse" x="-97" y="242" width="353" height="212">
<path d="M125.734 242.62C99.1768 260.988 55.4677 291.519 39.0537 317.197C-5.48534 311.054 -51.4691 311.207 -96.5306 317.719C-43.1391 355.898 4.28928 400.22 44.2791 449.242C45.3549 450.563 46.523 451.945 48.2443 452.621C50.7341 453.603 53.7156 452.805 56.3898 452.068C91.2772 442.362 127.763 439.29 163.911 436.28C188.777 409.496 220.345 387.32 255.632 371.87L125.734 242.62Z" fill="white"/>
</mask>
<g mask="url(#mask5_810_2647)">
<path d="M10.3139 386.737C32.8754 378.351 56.3898 373.038 80.3653 370.949C82.1481 370.795 82.1788 367.97 80.3653 368.123C56.1439 370.243 32.3529 375.526 9.54544 384.003C7.8856 384.648 8.62331 387.351 10.3139 386.737Z" fill="#FFDFDF"/>
</g>
<mask id="mask6_810_2647" style="mask-type:luminance" maskUnits="userSpaceOnUse" x="-97" y="242" width="353" height="212">
<path d="M125.734 242.62C99.1768 260.988 55.4677 291.519 39.0537 317.197C-5.48534 311.054 -51.4691 311.207 -96.5306 317.719C-43.1391 355.898 4.28928 400.22 44.2791 449.242C45.3549 450.563 46.523 451.945 48.2443 452.621C50.7341 453.603 53.7156 452.805 56.3898 452.068C91.2772 442.362 127.763 439.29 163.911 436.28C188.777 409.496 220.345 387.32 255.632 371.87L125.734 242.62Z" fill="white"/>
</mask>
<g mask="url(#mask6_810_2647)">
<path d="M26.2975 400.251C45.9082 393.032 65.8263 385.845 86.9739 385.2C88.7874 385.139 88.7874 382.344 86.9739 382.374C65.5804 383.019 45.4164 390.207 25.5598 397.517C23.8692 398.162 24.6069 400.896 26.2975 400.251Z" fill="#FFDFDF"/>
</g>
<mask id="mask7_810_2647" style="mask-type:luminance" maskUnits="userSpaceOnUse" x="-97" y="242" width="353" height="212">
<path d="M125.734 242.62C99.1768 260.988 55.4677 291.519 39.0537 317.197C-5.48534 311.054 -51.4691 311.207 -96.5306 317.719C-43.1391 355.898 4.28928 400.22 44.2791 449.242C45.3549 450.563 46.523 451.945 48.2443 452.621C50.7341 453.603 53.7156 452.805 56.3898 452.068C91.2772 442.362 127.763 439.29 163.911 436.28C188.777 409.496 220.345 387.32 255.632 371.87L125.734 242.62Z" fill="white"/>
</mask>
<g mask="url(#mask7_810_2647)">
<path d="M40.2218 413.397C47.5066 407.807 58.9718 407.284 67.7014 405.472C78.3366 403.261 89.1871 400.374 100.068 402.309C101.851 402.616 102.589 399.913 100.806 399.606C89.9555 397.671 79.351 400.189 68.7465 402.401C63.06 403.568 57.3427 404.735 51.6562 405.933C47.0148 406.916 42.6193 408.022 38.8079 410.97C37.3939 412.076 38.7771 414.503 40.2218 413.397Z" fill="#FFDFDF"/>
</g>
<mask id="mask8_810_2647" style="mask-type:luminance" maskUnits="userSpaceOnUse" x="-97" y="242" width="353" height="212">
<path d="M125.734 242.62C99.1768 260.988 55.4677 291.519 39.0537 317.197C-5.48534 311.054 -51.4691 311.207 -96.5306 317.719C-43.1391 355.898 4.28928 400.22 44.2791 449.242C45.3549 450.563 46.523 451.945 48.2443 452.621C50.7341 453.603 53.7156 452.805 56.3898 452.068C91.2772 442.362 127.763 439.29 163.911 436.28C188.777 409.496 220.345 387.32 255.632 371.87L125.734 242.62Z" fill="white"/>
</mask>
<g mask="url(#mask8_810_2647)">
<path d="M50.7648 428.356C72.0046 417.298 95.8879 414.073 119.31 411.063C121.093 410.848 121.093 408.022 119.31 408.237C95.3346 411.309 71.021 414.626 49.3201 425.929C47.7525 426.759 49.1664 429.185 50.7648 428.356Z" fill="#FFDFDF"/>
</g>
<mask id="mask9_810_2647" style="mask-type:luminance" maskUnits="userSpaceOnUse" x="-97" y="242" width="353" height="212">
<path d="M125.734 242.62C99.1768 260.988 55.4677 291.519 39.0537 317.197C-5.48534 311.054 -51.4691 311.207 -96.5306 317.719C-43.1391 355.898 4.28928 400.22 44.2791 449.242C45.3549 450.563 46.523 451.945 48.2443 452.621C50.7341 453.603 53.7156 452.805 56.3898 452.068C91.2772 442.362 127.763 439.29 163.911 436.28C188.777 409.496 220.345 387.32 255.632 371.87L125.734 242.62Z" fill="white"/>
</mask>
<g mask="url(#mask9_810_2647)">
<path d="M74.4637 325.183C92.2916 306.201 111.257 286.389 136.892 278.618C138.613 278.096 137.876 275.393 136.154 275.915C110.027 283.84 90.6625 303.866 72.4657 323.217C71.2362 324.507 73.2034 326.503 74.4637 325.183Z" fill="#FFDFDF"/>
</g>
<mask id="mask10_810_2647" style="mask-type:luminance" maskUnits="userSpaceOnUse" x="-97" y="242" width="353" height="212">
<path d="M125.734 242.62C99.1768 260.988 55.4677 291.519 39.0537 317.197C-5.48534 311.054 -51.4691 311.207 -96.5306 317.719C-43.1391 355.898 4.28928 400.22 44.2791 449.242C45.3549 450.563 46.523 451.945 48.2443 452.621C50.7341 453.603 53.7156 452.805 56.3898 452.068C91.2772 442.362 127.763 439.29 163.911 436.28C188.777 409.496 220.345 387.32 255.632 371.87L125.734 242.62Z" fill="white"/>
</mask>
<g mask="url(#mask10_810_2647)">
<path d="M87.2505 333.845C101.421 313.726 124.167 302.699 145.806 292.41C147.435 291.642 146.021 289.215 144.392 289.983C122.23 300.519 99.3305 311.853 84.8222 332.401C83.7772 333.906 86.2054 335.319 87.2505 333.845Z" fill="#FFDFDF"/>
</g>
<mask id="mask11_810_2647" style="mask-type:luminance" maskUnits="userSpaceOnUse" x="-97" y="242" width="353" height="212">
<path d="M125.734 242.62C99.1768 260.988 55.4677 291.519 39.0537 317.197C-5.48534 311.054 -51.4691 311.207 -96.5306 317.719C-43.1391 355.898 4.28928 400.22 44.2791 449.242C45.3549 450.563 46.523 451.945 48.2443 452.621C50.7341 453.603 53.7156 452.805 56.3898 452.068C91.2772 442.362 127.763 439.29 163.911 436.28C188.777 409.496 220.345 387.32 255.632 371.87L125.734 242.62Z" fill="white"/>
</mask>
<g mask="url(#mask11_810_2647)">
<path d="M100.867 343.92C106.892 334.091 116.113 327.21 125.734 321.16C135.847 314.832 146.359 309.211 157.21 304.205C158.839 303.437 157.425 301.01 155.796 301.778C144.054 307.215 132.589 313.358 121.708 320.392C112.609 326.289 104.156 333.138 98.439 342.507C97.4862 344.073 99.9145 345.486 100.867 343.92Z" fill="#FFDFDF"/>
</g>
<mask id="mask12_810_2647" style="mask-type:luminance" maskUnits="userSpaceOnUse" x="-97" y="242" width="353" height="212">
<path d="M125.734 242.62C99.1768 260.988 55.4677 291.519 39.0537 317.197C-5.48534 311.054 -51.4691 311.207 -96.5306 317.719C-43.1391 355.898 4.28928 400.22 44.2791 449.242C45.3549 450.563 46.523 451.945 48.2443 452.621C50.7341 453.603 53.7156 452.805 56.3898 452.068C91.2772 442.362 127.763 439.29 163.911 436.28C188.777 409.496 220.345 387.32 255.632 371.87L125.734 242.62Z" fill="white"/>
</mask>
<g mask="url(#mask12_810_2647)">
<path d="M111.134 354.486C130.437 339.036 151.769 326.35 174.546 316.675C176.206 315.969 174.761 313.542 173.132 314.249C150.109 324.016 128.654 336.886 109.136 352.489C107.722 353.626 109.72 355.622 111.134 354.486Z" fill="#FFDFDF"/>
</g>
<mask id="mask13_810_2647" style="mask-type:luminance" maskUnits="userSpaceOnUse" x="-97" y="242" width="353" height="212">
<path d="M125.734 242.62C99.1768 260.988 55.4677 291.519 39.0537 317.197C-5.48534 311.054 -51.4691 311.207 -96.5306 317.719C-43.1391 355.898 4.28928 400.22 44.2791 449.242C45.3549 450.563 46.523 451.945 48.2443 452.621C50.7341 453.603 53.7156 452.805 56.3898 452.068C91.2772 442.362 127.763 439.29 163.911 436.28C188.777 409.496 220.345 387.32 255.632 371.87L125.734 242.62Z" fill="white"/>
</mask>
<g mask="url(#mask13_810_2647)">
<path d="M123.429 367.447C141.503 354.578 160.13 341.554 182.138 336.609C183.89 336.21 183.152 333.507 181.4 333.906C159.146 338.913 140.304 352.028 122.015 365.021C120.54 366.065 121.923 368.492 123.429 367.447Z" fill="#FFDFDF"/>
</g>
<mask id="mask14_810_2647" style="mask-type:luminance" maskUnits="userSpaceOnUse" x="-97" y="242" width="353" height="212">
<path d="M125.734 242.62C99.1768 260.988 55.4677 291.519 39.0537 317.197C-5.48534 311.054 -51.4691 311.207 -96.5306 317.719C-43.1391 355.898 4.28928 400.22 44.2791 449.242C45.3549 450.563 46.523 451.945 48.2443 452.621C50.7341 453.603 53.7156 452.805 56.3898 452.068C91.2772 442.362 127.763 439.29 163.911 436.28C188.777 409.496 220.345 387.32 255.632 371.87L125.734 242.62Z" fill="white"/>
</mask>
<g mask="url(#mask14_810_2647)">
<path d="M142.21 380.408C160.437 366.556 180.909 356.113 202.825 349.509C204.546 348.987 203.808 346.284 202.087 346.806C179.925 353.471 159.208 363.976 140.796 377.982C139.351 379.057 140.765 381.514 142.21 380.408Z" fill="#FFDFDF"/>
</g>
<mask id="mask15_810_2647" style="mask-type:luminance" maskUnits="userSpaceOnUse" x="-97" y="242" width="353" height="212">
<path d="M125.734 242.62C99.1768 260.988 55.4677 291.519 39.0537 317.197C-5.48534 311.054 -51.4691 311.207 -96.5306 317.719C-43.1391 355.898 4.28928 400.22 44.2791 449.242C45.3549 450.563 46.523 451.945 48.2443 452.621C50.7341 453.603 53.7156 452.805 56.3898 452.068C91.2772 442.362 127.763 439.29 163.911 436.28C188.777 409.496 220.345 387.32 255.632 371.87L125.734 242.62Z" fill="white"/>
</mask>
<g mask="url(#mask15_810_2647)">
<path d="M-53.4363 334.182C-33.5797 331.295 -13.5694 329.483 6.47166 328.746C15.6315 328.408 24.8221 328.316 34.0127 328.438C40.8058 328.531 49.0128 330.65 54.2997 325.336C60.4472 319.162 66.0415 312.374 72.189 306.2C78.06 300.303 84.1153 294.621 90.3551 289.092C103.972 277.052 118.419 265.994 133.542 255.889C135.048 254.875 133.634 252.449 132.128 253.462C103.91 272.322 78.0292 294.621 55.3755 319.93C54.1152 321.343 52.9165 323.094 51.4103 324.261C48.8283 326.288 46.1849 325.92 43.2033 325.828C38.9308 325.705 34.6275 325.613 30.3549 325.582C20.5803 325.52 10.775 325.705 1.00034 326.135C-17.4731 326.995 -35.8543 328.776 -54.174 331.448C-55.9568 331.725 -55.1883 334.428 -53.4363 334.182Z" fill="#E0D7F9"/>
</g>
<path d="M173.193 445.832C168.859 447.092 164.525 448.474 160.161 449.641C159.7 449.764 157.702 450.593 157.271 450.317C156.042 449.426 157.548 447.982 158.04 447.491C159.638 445.832 163.48 445.433 165.663 445.31C167.015 445.218 167.015 443.129 165.663 443.191C162.927 443.344 150.632 446.139 153.675 451.054C154.689 452.713 157.21 452.528 158.839 452.221C163.849 451.207 168.829 449.334 173.747 447.89C175.038 447.491 174.484 445.464 173.193 445.832Z" fill="#3F3C36"/>
<path d="M125.949 446.876C99.2075 451.576 73.2956 459.869 48.7976 471.572C49.3509 471.633 49.9349 471.725 50.4882 471.786C14.986 434.498 -22.2989 398.961 -61.2437 365.297C-62.5961 364.129 -64.5941 366.095 -63.2416 367.293C-24.2969 400.957 12.9881 436.495 48.4902 473.783C48.9513 474.274 49.6275 474.274 50.1808 473.998C74.4636 462.388 100.16 454.248 126.656 449.579C128.501 449.272 127.732 446.569 125.949 446.876Z" fill="#3F3C36"/>
<path d="M153.152 424.793C122.261 385.324 84.9453 351.261 43.1726 323.586C42.0353 322.849 40.9902 324.661 42.0968 325.398C83.7157 352.981 120.878 386.952 151.677 426.267C152.476 427.373 153.982 425.868 153.152 424.793Z" fill="#3F3C36"/>
<path d="M-63.4567 345.823C-23.6513 378.259 14.6787 412.414 51.5026 448.197C52.7936 449.457 54.7915 447.46 53.5005 446.201C16.7074 410.417 -21.6534 376.262 -61.4588 343.827C-62.842 342.69 -64.8707 344.687 -63.4567 345.823Z" fill="#3F3C36"/>
<path d="M54.2383 448.781C65.5498 447.122 76.892 445.863 88.2957 444.972C90.0785 444.819 90.1093 442.024 88.2957 442.147C76.6461 443.037 65.058 444.358 53.4698 446.047C51.7178 446.354 52.4555 449.057 54.2383 448.781Z" fill="#3F3C36"/>
<path d="M212.2 141.505C206.667 133.519 216.749 122.769 222.251 117.517C228.306 111.742 235.591 107.258 243.399 104.278C258.091 98.6574 274.72 98.2274 289.413 104.125C298.081 107.596 305.827 111.865 315.417 109.316C323.563 107.135 331.032 102.282 338.163 97.951C353.009 88.9207 368.163 80.4432 386.083 84.9277C413.747 91.8693 433.389 118.561 462.774 120.527C480.909 121.755 500.766 108.609 517.795 118.991C530.182 126.516 535.776 141.29 547.242 149.952C560.059 159.597 580.438 158.184 590.459 144.976C594.24 140 596.699 131.646 591.104 126.946C587.078 123.568 580.254 123.506 577.641 128.543C576.811 130.141 579.24 131.584 580.069 129.956C582.19 125.871 588.369 126.946 590.551 130.478C593.809 135.669 589.444 142.611 585.602 146.082C579.086 152.01 569.68 154.529 561.043 153.023C545.705 150.321 538.297 135.454 528.799 124.888C524.711 120.312 519.916 116.227 514.075 114.046C506.299 111.159 497.969 112.141 490.038 113.739C481.032 115.551 472.057 118.315 462.743 117.67C455.458 117.179 448.45 114.814 441.903 111.681C418.819 100.654 397.21 77.4024 369.516 81.0575C353.378 83.1769 340.376 93.9887 326.483 101.452C322.241 103.725 317.815 105.968 313.05 106.951C306.934 108.21 301.37 106.244 295.837 103.848C289.198 100.961 282.681 98.5346 275.427 97.5824C259.782 95.5245 243.46 99.3331 230.151 107.78C220.96 113.616 201.011 130.356 209.71 142.918C210.816 144.392 213.245 142.98 212.2 141.505Z" fill="#3F3C36"/>
<path d="M372.897 274.718C389.495 281.568 400.223 296.342 403.327 313.727C404.587 320.791 405.755 328.716 411.841 333.415C417.067 337.469 423.921 337.623 430.223 337.715C439.598 337.869 448.112 338.79 454.721 346.254C460.899 353.196 462.743 361.827 463.266 370.826C463.665 377.891 464.126 385.908 469.813 390.945C473.87 394.539 479.588 395.951 484.905 395.276C491.206 394.477 497.2 390.484 499.014 384.157C500.827 377.829 496.432 370.826 489.362 372.546C487.61 372.976 488.348 375.679 490.1 375.249C498.614 373.161 496.954 384.648 493.358 388.334C490.868 390.883 487.364 392.296 483.829 392.573C477.067 393.156 470.674 389.839 468.092 383.45C465.233 376.386 466.585 368.4 465.049 361.059C463.85 355.315 461.329 349.786 457.579 345.24C453.768 340.602 448.665 337.162 442.764 335.842C436.432 334.429 429.915 335.227 423.522 334.613C414.762 333.722 409.598 328.808 407.507 320.361C405.848 313.665 405.294 306.938 402.62 300.55C397.18 287.557 386.667 277.36 373.696 271.984C371.975 271.309 371.237 274.012 372.897 274.718Z" fill="#3F3C36"/>
<path d="M-8.25167 310.194C-14.7681 304.45 -11.7558 292.502 -4.47092 288.109C2.84467 283.717 12.189 284.976 20.3345 287.648C12.8037 283.809 10.6828 272.322 15.7238 265.533C20.7648 258.745 31.1542 257.486 38.2853 262.093C33.2136 259.114 32.1378 250.913 36.2566 246.797C40.0681 242.958 46.2157 243.234 51.5333 244.217C67.5477 247.227 82.7936 254.722 95.181 265.687C96.2568 266.639 97.3941 267.929 97.0252 269.311C96.7486 270.294 95.765 270.878 94.8736 271.308C82.1174 277.39 66.3797 276.53 54.1153 269.096C61.2464 271.615 68.3161 274.287 75.3551 277.052C80.8264 279.202 87.435 284.147 85.099 289.584C83.8387 292.532 80.4268 293.669 77.3838 294.437C60.8469 298.491 43.5415 299.412 26.605 297.17C39.5763 299.382 52.3018 303.436 64.228 309.241C66.1645 310.194 68.3161 311.484 68.685 313.634C69.1461 316.337 66.5641 318.456 64.1665 319.592C52.855 324.875 39.6378 322.756 27.3119 320.514C15.9697 318.456 1.33852 312.651 -8.25167 310.194Z" fill="#FFDFDF"/>
<path d="M12.4656 287.986C18.5517 291.764 24.8837 295.051 31.4615 297.877C33.1214 298.583 34.5353 296.157 32.8755 295.45C26.2976 292.655 19.9656 289.338 13.8795 285.56C12.3427 284.577 10.9287 287.004 12.4656 287.986Z" fill="#3F3C36"/>
<path d="M31.7689 259.974C47.7218 268.575 64.7813 274.748 82.5785 278.25C84.3613 278.588 85.099 275.885 83.3162 275.547C65.7649 272.076 48.9514 266.056 33.1829 257.548C31.5845 256.688 30.1706 259.114 31.7689 259.974Z" fill="#3F3C36"/>
<path d="M66.2566 275.732C67.4247 283.656 75.6931 288.909 83.3776 287.004C85.1296 286.574 84.3919 283.871 82.6399 284.301C76.3079 285.868 69.9452 281.353 68.9923 274.994C68.6849 273.182 65.98 273.95 66.2566 275.732Z" fill="#3F3C36"/>
<path d="M78.7055 257.978C81.6563 264.827 89.0027 269.004 96.4105 268.021C98.1933 267.776 98.1933 264.981 96.4105 265.226C89.8633 266.086 83.7465 262.646 81.1338 256.565C80.4268 254.875 77.9985 256.319 78.7055 257.978Z" fill="#3F3C36"/>
<path d="M48.398 308.013C53.2854 313.757 60.6932 316.214 68.0702 314.77C69.853 314.432 69.0846 311.699 67.3325 312.067C60.8776 313.327 54.6378 311.023 50.396 306.047C49.1972 304.665 47.23 306.661 48.398 308.013Z" fill="#3F3C36"/>
<path d="M409.659 546.21C404.649 540.129 335.489 456 330.448 449.887C305.489 419.602 276.319 393.648 246.564 368.062C216.441 342.169 172.333 335.073 136.462 351.015C134.833 351.721 130.99 355.683 130.068 357.188C128.132 360.321 130.652 364.683 134.126 365.942C137.599 367.202 141.441 366.28 144.945 365.205C150.847 363.424 156.749 361.243 162.896 361.335C169.044 361.427 175.652 364.407 177.927 370.12C176.144 376.57 167.107 376.662 160.499 375.495C136.615 371.225 112.056 365.973 87.8039 365.113C82.0866 364.929 74.6173 369.536 74.9862 375.249C75.2321 378.843 78.8899 381.085 82.1481 382.651C101.82 392.05 123.091 396.197 144.208 401.572C127.117 396.412 109.382 394.538 92.2916 389.378C87.6809 387.996 81.6256 385.354 76.8919 385.999C72.1276 386.644 67.394 389.962 66.687 394.723C66.0722 398.931 68.8079 403.046 72.3735 405.381C75.9391 407.715 81.5026 409.896 85.6522 410.848C104.648 415.24 123.275 421.322 141.226 428.939C126.411 423.994 111.103 420.523 95.6112 418.558C90.5088 417.913 84.6379 417.698 81.0723 421.414C76.8612 425.837 78.6747 433.547 83.1624 437.693C87.6502 441.84 93.8284 443.406 99.6994 445.096C145.468 458.242 179.894 463.279 260.95 586.97L409.659 546.21Z" fill="#FFDFDF"/>
<path d="M67.5784 396.442C75.0169 397.025 81.5333 401.848 84.2075 408.82C84.853 410.479 87.5579 409.772 86.9125 408.083C83.7465 399.851 76.3694 394.322 67.5784 393.647C65.7649 393.493 65.7956 396.288 67.5784 396.442Z" fill="#3F3C36"/>
<path d="M77.5989 375.31C84.392 374.419 90.9699 378.351 93.1215 384.924C93.6748 386.644 96.4105 385.907 95.8264 384.187C93.3059 376.539 85.6522 371.471 77.5989 372.515C75.8161 372.73 75.8161 375.556 77.5989 375.31Z" fill="#3F3C36"/>
<path d="M79.5354 426.851C85.2834 427.312 90.5703 430.322 93.9514 435.021C95.3654 436.987 96.4719 439.198 97.056 441.533C97.4863 443.222 97.2096 445.096 98.4392 446.386C98.9002 446.877 99.5765 446.847 100.13 446.601C100.744 446.324 101.021 445.925 101.144 445.28C101.267 444.666 101.052 443.99 100.499 443.683C100.437 443.652 100.345 443.591 100.283 443.56C98.6851 442.669 97.2711 445.096 98.8695 445.987C98.931 446.017 99.0232 446.079 99.0846 446.109C98.8695 445.587 98.6543 445.065 98.4392 444.512C98.5314 444.389 98.6236 444.266 98.7158 444.144C99.2691 444.205 99.8531 444.297 100.406 444.359C99.9146 443.836 99.9146 441.41 99.7301 440.734C99.4228 439.567 99.0232 438.431 98.5314 437.325C97.3633 434.714 95.6728 432.349 93.6441 430.383C89.7711 426.605 84.8838 424.424 79.5047 423.994C77.7219 423.902 77.7526 426.728 79.5354 426.851Z" fill="#3F3C36"/>
<path d="M132.189 357.864C136.646 357.864 140.95 357.618 144.546 354.669C147.497 352.273 149.126 348.803 148.081 345.086C147.589 343.335 144.884 344.072 145.376 345.823C146.298 349.048 144.177 351.843 141.472 353.41C138.644 355.069 135.386 355.038 132.189 355.038C130.376 355.038 130.376 357.864 132.189 357.864Z" fill="#3F3C36"/>
<path d="M111.902 421.905C122.599 425.561 132.958 429.984 143.04 435.082C144.638 435.912 146.083 433.485 144.454 432.656C134.187 427.403 123.583 422.919 112.64 419.172C110.949 418.619 110.212 421.322 111.902 421.905Z" fill="#3F3C36"/>
<path d="M103.818 392.234C121.984 397.118 140.181 402.002 158.347 406.885C160.099 407.346 160.837 404.643 159.085 404.182C140.919 399.299 122.722 394.415 104.556 389.531C102.804 389.04 102.066 391.743 103.818 392.234Z" fill="#3F3C36"/>
<path d="M154.505 458.733C155.857 455.323 157.763 452.19 160.161 449.426C161.329 448.074 159.361 446.078 158.163 447.429C155.427 450.593 153.306 454.095 151.769 457.965C151.124 459.685 153.859 460.391 154.505 458.733Z" fill="white"/>
<path d="M167.569 434.683C169.843 430.935 171.626 426.942 172.948 422.765C173.501 421.045 170.765 420.308 170.243 422.028C169.013 425.99 167.292 429.737 165.14 433.27C164.218 434.805 166.646 436.218 167.569 434.683Z" fill="white"/>
<path d="M177.65 406.794C179.648 402.401 181.646 398.009 183.613 393.617C184.351 391.989 181.923 390.545 181.185 392.204C179.187 396.596 177.189 400.988 175.222 405.35C174.484 407.009 176.882 408.422 177.65 406.794Z" fill="white"/>
<path d="M204.7 364.314C207.681 361.365 209.925 357.925 211.462 354.055C212.138 352.365 209.402 351.659 208.757 353.318C207.405 356.758 205.345 359.768 202.702 362.348C201.441 363.577 203.409 365.573 204.7 364.314Z" fill="white"/>
<path d="M222.435 296.864C220.499 294.468 216.933 294.099 214.505 296.034L123.46 369.751C123.367 369.812 123.306 369.905 123.245 369.966C127.732 371.41 132.251 372.515 136.769 373.468L221.605 304.788C224.003 302.853 224.403 299.29 222.435 296.864Z" fill="#3F3C36"/>
<path d="M192.989 336.64C203.286 328.378 213.583 320.085 223.849 311.822C224.618 311.208 224.218 310.071 223.573 309.611C221.144 307.891 219.362 306.048 217.702 303.59C216.687 302.116 214.259 303.498 215.274 305.003C217.179 307.798 219.392 310.071 222.159 312.037C222.067 311.3 221.974 310.563 221.882 309.826C211.585 318.088 201.288 326.381 191.021 334.644C189.577 335.811 191.575 337.777 192.989 336.64Z" fill="#3F3C36"/>
</svg>
