<svg width="375" height="613" viewBox="0 0 375 613" fill="none" xmlns="http://www.w3.org/2000/svg">
<path d="M219.382 0C200.426 2.9141 181.354 5.56852 161.966 7.38623C107.434 12.6662 56.3656 27.6118 6.22002 51.3574C-66.0554 85.4898 -133.31 127.499 -208.5 152.803V310.741C-129.502 271.213 -71.1623 204.449 -3.47443 146.34C118.86 40.7974 279.886 53.1174 429.486 16.1862C446.595 11.8007 462.983 6.26098 478.91 0L219.382 0Z" fill="#FFF4E0"/>
<path d="M406.634 104.128C327.434 139.299 248.234 166.565 166.38 193.83C94.22 218.442 36.14 263.307 -26.3256 311.664C-82.2705 354.221 -138.244 400.76 -208.5 406.877V528H-170.703C-148.689 492.742 -111.498 469.227 -72.98 454.137C-37.78 440.952 -3.47443 428.632 29.9656 409.301C38.7656 404.915 45.8056 397.875 54.6056 391.701C98.6056 363.569 137.326 339.824 181.326 311.664C206.86 295.824 229.74 281.773 257.006 274.733C340.62 251.882 407.471 207.016 481.42 164.805C513.677 146.455 548.213 136.818 583.5 133.298V74.7852C522.939 72.8232 462.81 78.7668 406.634 104.128Z" fill="#FFF4E0"/>
<path d="M420.714 395.221C367.914 425.112 308.074 424.246 252.649 443.578C226.249 453.243 192.636 459.648 159.138 485.327C143.327 497.445 134.296 513.545 121.168 528H583.5V325.802C576.806 326.321 570.055 327.158 563.246 328.37C508.714 337.17 467.34 369.715 420.714 395.221Z" fill="#FFF4E0"/>
<path d="M309.648 409.591C317.789 418.556 330.381 410.917 334.294 401.889C337.386 394.787 337.954 386.611 339.027 379.035C340.258 370.513 341.362 361.99 342.372 353.467C346.064 322.06 350.356 289.231 343.003 258.013C341.394 251.258 334.609 222.028 322.397 229.509C320.819 230.488 322.271 232.981 323.848 232.003C335.02 225.185 342.467 269.945 343.098 276.037C344.739 292.041 344.013 308.202 342.625 324.206C341.078 341.662 339.027 359.086 336.566 376.415C335.493 384.023 334.956 392.167 332.243 399.395C329.402 407.003 319.146 415.746 311.731 407.571C310.437 406.182 308.417 408.202 309.648 409.591Z" fill="#4CAADD"/>
<path d="M-5.76338 330.204C-12.9268 315.747 -11.5383 299.396 -7.43589 284.244C-3.45972 269.566 2.59921 255.141 9.98353 241.852C24.405 215.936 47.7571 193.114 78.3358 189.232C80.1661 189.011 80.1661 186.107 78.3358 186.359C46.6842 190.4 22.4801 213.506 7.49052 240.431C-0.524928 254.825 -7.15187 270.703 -11.0334 286.706C-14.694 301.732 -15.262 317.546 -8.22481 331.687C-7.43589 333.329 -4.9429 331.845 -5.76338 330.204Z" fill="#4CAADD"/>
<path d="M567.973 355.045C555.918 354.225 543.264 353.183 534.049 354.256C514.137 356.561 495.518 365.178 476.174 370.386C456.293 375.721 435.654 377.488 415.143 379.193C400.185 380.456 385.227 381.718 370.237 381.718C356.51 381.75 342.783 380.771 329.118 379.54C307.439 377.615 285.349 375.563 263.196 372.817C213.115 366.63 162.877 356.971 117.151 337.653C106.043 332.949 95.0609 327.931 84.2369 322.596C33.2409 297.47 -14.41 265.399 -57.0118 227.489C-73.0427 213.221 -88.3478 198.164 -102.864 182.318L-102.927 182.255C-105.83 179.067 -102.359 174.143 -98.446 175.879L-77.1451 185.317C-73.7685 186.801 -69.7292 186.327 -67.0154 183.802C-63.7334 180.74 -64.8695 176.921 -66.1633 173.575C-70.3919 162.59 -76.2615 152.268 -80.2061 141.189C-82.4151 134.939 -84.0876 125.122 -84.3717 115.747C-84.5294 110.475 -77.3976 108.928 -75.441 113.79C-71.7489 122.944 -61.7769 139.894 -52.6254 151.7C-51.1107 153.657 -48.1443 151.637 -49.3435 149.459C-57.138 135.507 -65.8477 117.388 -66.4789 107.287C-66.6682 104.162 -64.4592 101.29 -61.3667 101.006C-57.4221 100.627 -55.718 104.983 -54.5819 108.487C-50.3849 121.271 -43.6632 133.487 -32.997 141.473C-37.9199 133.865 -43.253 123.196 -45.9353 114.452C-47.4501 109.528 -41.0125 106.182 -38.0146 110.317C-34.8589 114.673 -31.861 121.176 -29.7151 124.932C-17.471 146.271 -1.28233 165.273 17.778 180.614C29.5172 190.084 42.2977 198.133 55.0152 206.182C78.8091 221.176 106.358 235.096 134.381 245.671C150.349 251.637 166.443 256.561 182.063 260.001C203.774 264.768 225.927 267.798 248.27 269.755C282.383 272.754 316.874 273.29 350.766 273.764C398.133 274.427 446.857 274.522 491.068 257.224C500.283 253.625 518.555 247.217 534.996 243.272C539.887 242.104 542.222 249.174 537.615 251.226C524.771 257.003 510.003 263.221 497.822 267.577C496.054 268.208 494.666 269.692 494.35 271.554C493.625 275.879 500.378 274.995 504.701 273.89L557.685 260.38C563.271 258.96 566.963 266.062 562.671 269.945C560.21 272.154 557.149 274.017 554.277 275.311C543.327 280.235 526.097 285.948 511.17 291.378C506.342 293.145 508.235 300.5 513.284 299.585C528.022 296.965 549.512 290.652 567.531 285.727C573.148 284.181 576.461 291.883 571.57 295.071C559.01 303.183 545.82 309.749 532.029 315.367C515.525 322.122 518.807 335.854 530.42 337.842C537.015 338.978 543.201 339.578 547.271 339.61C553.172 339.673 562.261 341.409 570.213 344.534C575.957 346.838 574.032 355.456 567.973 355.045Z" fill="#E0D7F9"/>
<path d="M142.838 286.138C149.402 306.34 169.851 312.116 185.408 305.393C201.597 298.764 214.22 283.518 223.371 267.104C207.814 265.178 190.994 263.947 175.815 260.001C164.833 257.16 153.599 253.278 142.365 248.638C138.957 260.79 139.619 274.048 142.838 286.138Z" fill="#E0D7F9"/>
<path d="M265.153 378.972C264.49 376.952 263.827 374.9 263.165 372.817C257.421 354.793 251.993 335.538 250.668 316.914C249.248 296.965 248.522 281.561 248.238 269.755C244.23 269.408 227.316 267.514 223.34 267.072C212.61 283.486 206.646 296.586 187.617 303.183C169.346 309.907 150.98 306.308 143.28 286.106C139.493 274.016 138.704 260.759 142.743 248.638C139.935 247.659 137.158 246.649 134.349 245.607C118.003 259.212 105.254 277.141 95.7867 296.018C91.4319 304.667 87.5819 313.537 84.2054 322.596C69.8154 360.948 63.504 402.362 61.8631 443.019C59.591 499.489 62.1155 557.349 72.0875 612.999L421.675 599.552C354.68 536.232 294.185 468.271 265.153 378.972Z" fill="#4CAADD"/>
<path d="M189.29 216.883C182.631 210.507 183.073 198.512 190.173 192.514C194.055 189.232 199.356 187.716 202.859 184.086C210.969 175.69 205.415 162.306 205.573 150.848C205.699 139.737 212.989 129.983 222.141 123.196C238.771 110.791 249.721 117.641 263.038 112.938C294.816 101.732 289.483 84.0235 302.2 70.7028C314.918 57.4137 334.42 52.4264 353.039 52.3948C366.86 52.3948 379.83 59.718 393.652 59.3077C409.778 58.8342 411.072 40.684 441.871 38.9163C463.298 37.7168 484.063 49.2698 494.035 67.6725C504.038 86.0753 498.863 116.536 481.412 128.815C468.695 137.748 442.913 141.504 427.418 139.611C411.198 137.622 401.731 125.343 388.288 134.434C372.856 144.85 372.478 168.335 357.677 179.541C346.096 188.316 329.813 186.643 315.265 184.939C300.749 183.234 284.087 182.571 273.547 192.514C266.383 199.301 262.944 210.349 253.571 213.695C240.444 218.367 225.044 204.352 212.926 211.17C209.676 213.001 207.372 216.094 204.342 218.272C201.313 220.45 196.737 221.523 193.992 219.061L189.29 216.883Z" fill="#4F3422"/>
<path d="M191.972 197.439C200.461 190.873 202.165 179.983 201.376 169.819C200.272 155.362 195.917 140.147 207.403 128.499C225.359 110.318 254.77 115.368 274.557 100.343C285.412 92.1042 288.852 78.4363 297.94 68.6826C307.281 58.6447 320.377 52.2685 334.073 51.2899C356.825 49.6801 388.572 62.7167 405.675 40.7155C410.977 33.8657 413.912 18.1461 401.983 16.1574C398.291 15.5577 393.81 17.0413 392.295 20.7344C390.749 24.5223 394.883 26.9844 398.228 25.9112C399.995 25.343 399.238 22.5653 397.471 23.1334C396.713 22.5337 395.988 21.9024 395.23 21.3026C396.019 20.1978 397.06 19.5034 398.354 19.1562C399.743 18.7142 401.415 18.7774 402.772 19.2824C406.18 20.5451 407.569 24.3645 407.6 27.7104C407.664 33.3607 404.382 38.6321 400.248 42.2622C392.043 49.4276 380.367 51.2268 369.858 50.8165C356.857 50.3114 343.919 47.0917 330.886 48.7016C321.324 49.9011 312.109 53.5942 304.315 59.2445C296.015 65.2735 290.461 73.0071 285.475 81.877C282.477 87.18 279.416 92.4515 274.777 96.4603C270.202 100.406 264.742 103.121 259.094 105.141C240.854 111.706 218.448 112.085 204.5 127.363C196.548 136.107 195.822 147.06 197.147 158.329C198.536 170.355 201.723 186.328 190.552 194.913C189.069 196.05 190.489 198.543 191.972 197.439Z" fill="#4F3422"/>
<path d="M235.268 207.697C244.767 212.369 256.033 211.737 264.648 205.393C269.318 201.952 272.947 197.059 278.059 194.187C285.223 190.178 293.428 191.504 301.033 193.461C313.056 196.523 324.48 199.869 337.039 198.259C347.674 196.902 357.078 192.23 364.273 184.212C371.846 175.753 377.022 164.926 386.394 158.202C397.755 150.058 412.681 150.847 425.714 153.53C448.53 158.171 476.521 170.039 495.739 150.248C500.914 144.913 509.151 129.856 499.368 125.185C496.181 123.669 491.952 123.827 489.806 126.952C487.786 129.919 488.481 133.991 491.605 135.759C493.214 136.674 494.666 134.181 493.057 133.265C488.702 130.803 493.719 126.479 497.033 127.363C499.021 127.899 500.251 129.193 500.662 131.403C501.072 133.739 500.409 136.548 499.652 138.726C497.916 143.935 494.161 148.354 489.806 151.605C480.876 158.265 469.925 159.37 459.133 158.044C438.274 155.456 417.509 144.566 396.177 150.437C377.4 155.614 371.72 174.238 358.34 186.075C350.23 193.24 339.501 195.955 328.866 195.828C318.01 195.671 308.259 191.851 297.751 189.705C287.242 187.558 278.533 189.105 270.517 196.333C266.068 200.311 262.092 204.604 256.285 206.592C249.816 208.802 242.842 208.202 236.751 205.203C235.047 204.383 233.596 206.876 235.268 207.697Z" fill="#4F3422"/>
<path d="M83.7635 336.358C72.687 324.995 54.2262 326.478 38.7002 329.824C23.1742 333.17 5.97573 337.337 -7.71996 329.319C-8.66667 325.563 -5.29008 321.996 -1.72415 320.481C1.87333 318.966 5.91261 318.587 9.22609 316.535C20.0501 309.78 15.3481 291.598 24.1209 282.318C31.1897 274.869 44.917 275.563 50.0607 266.662C56.1512 256.119 45.1378 240.02 53.8791 231.561C56.1196 229.383 59.2122 228.373 61.9892 227.015C76.6632 219.913 84.2369 200.91 78.5251 185.633C85.2151 185.412 91.274 189.957 95.0924 195.45C98.9108 200.942 101.025 207.413 103.771 213.505C109.514 226.163 123.494 236.958 134.349 245.639C135.769 246.775 132.077 248.448 132.708 250.153C133.308 251.794 132.992 253.593 132.645 255.298C129.205 273.038 125.703 290.904 118.886 307.634C112.07 324.363 101.562 340.052 86.6036 350.216L83.7635 336.358Z" fill="#4CAADD"/>
<path d="M241.043 276.132C262.376 252.268 292.418 235.507 324.89 229.352C313.782 238.379 301.664 249.774 303.368 263.506C303.873 267.514 305.577 271.46 305.104 275.5C303.684 287.653 283.866 293.524 285.16 305.677C286.012 313.758 296.394 319.25 295.826 327.363C295.258 335.317 284.181 340.81 285.728 348.638C286.706 353.594 292.386 356.371 295.132 360.696C299.171 367.041 296.268 375.121 296.836 382.476C297.593 392.64 307.092 407.95 317.569 410.349C286.359 411.296 254.076 388.632 238.929 362.937C223.75 337.243 225.202 303.594 242.526 279.13L241.043 276.132Z" fill="#4CAADD"/>
<path d="M270.517 392.83C248.711 378.625 227.379 362.968 221.699 335.98C216.334 310.538 227 284.212 247.986 269.061C249.09 268.24 248.017 266.378 246.881 267.198C225.991 282.287 214.851 307.887 219.016 333.455C223.75 362.558 246.187 379.604 269.413 394.692C270.612 395.449 271.685 393.587 270.517 392.83Z" fill="#4F3422"/>
<path d="M80.8602 336.927C92.5363 303.909 110.082 271.965 134.223 246.396C135.17 245.386 133.655 243.84 132.677 244.881C108.283 270.765 90.5798 302.994 78.7775 336.358C78.3041 337.653 80.3869 338.221 80.8602 336.927Z" fill="#4F3422"/>
<path d="M64.5454 316.347C66.8806 316.22 68.9634 316.852 70.8883 318.177C72.0244 318.967 73.1289 317.104 71.9928 316.315C69.8154 314.8 67.2277 314.042 64.577 314.2C63.1569 314.232 63.1569 316.41 64.5454 316.347Z" fill="#4F3422"/>
<path d="M70.7621 300.216C73.1919 302.584 75.7796 304.73 78.5251 306.687C79.6611 307.508 80.7341 305.614 79.6296 304.825C77.0103 302.962 74.5805 300.911 72.3084 298.67C71.267 297.723 69.7522 299.238 70.7621 300.216Z" fill="#4F3422"/>
<path d="M102.824 255.708C106.043 257.129 109.293 258.518 112.512 259.938C113.774 260.475 114.879 258.612 113.616 258.076C110.398 256.655 107.147 255.267 103.928 253.846C102.666 253.309 101.562 255.172 102.824 255.708Z" fill="#4F3422"/>
<path d="M112.102 249.364C113.017 252.173 114.879 254.509 117.466 255.929C118.697 256.592 119.77 254.73 118.571 254.067C116.488 252.899 114.942 251.068 114.184 248.796C113.774 247.47 111.691 248.038 112.102 249.364Z" fill="#4F3422"/>
<path d="M116.93 238.6C118.287 242.041 120.464 244.85 123.431 247.028C124.567 247.849 125.64 245.986 124.535 245.166C122.074 243.335 120.149 240.873 119.044 238.032C118.508 236.738 116.393 237.306 116.93 238.6Z" fill="#4F3422"/>
<path d="M238.866 285.096C241.8 284.37 244.735 283.644 247.67 282.918C249.027 282.571 248.459 280.488 247.102 280.835C244.167 281.561 241.232 282.287 238.298 283.013C236.941 283.328 237.509 285.412 238.866 285.096Z" fill="#4F3422"/>
<path d="M234.606 296.744C237.856 296.334 241.012 296.586 244.167 297.565C245.493 297.975 246.061 295.892 244.735 295.481C241.422 294.44 238.045 294.156 234.606 294.566C233.249 294.755 233.217 296.933 234.606 296.744Z" fill="#4F3422"/>
<path d="M227.821 343.65C230.061 345.986 232.302 348.322 234.542 350.689C235.521 351.7 237.035 350.153 236.089 349.174C233.848 346.838 231.608 344.503 229.367 342.135C228.389 341.093 226.874 342.64 227.821 343.65Z" fill="#4F3422"/>
<path d="M228.389 338.158C231.355 338.695 234.322 339.231 237.288 339.8C238.645 340.052 239.244 337.969 237.856 337.716C234.89 337.18 231.923 336.643 228.957 336.075C227.6 335.822 227 337.906 228.389 338.158Z" fill="#4F3422"/>
<path d="M227.221 328.909C229.84 330.33 232.649 331.087 235.584 331.15C236.972 331.182 236.972 329.036 235.584 328.972C232.996 328.909 230.566 328.246 228.294 327.015C227.063 326.384 225.99 328.246 227.221 328.909Z" fill="#4F3422"/>
<path d="M217.47 151.574C219.742 139.8 228.357 130.362 239.939 127.174C241.737 126.669 240.98 123.891 239.181 124.396C226.685 127.837 217.154 138.064 214.693 150.816C214.346 152.647 217.123 153.405 217.47 151.574Z" fill="#251404"/>
<path d="M281.436 119.788C288.094 115.621 294.974 111.202 298.918 104.163C301.127 100.248 302.611 95.9871 305.104 92.2308C307.881 88.0642 311.32 84.5288 315.202 81.4038C316.653 80.2359 314.602 78.2157 313.151 79.3521C306.713 84.4973 301.979 90.8104 298.54 98.2914C294.469 107.193 288.094 112.212 279.953 117.294C278.406 118.272 279.858 120.766 281.436 119.788Z" fill="#251404"/>
<path d="M333.095 72.1236C344.928 62.9696 360.233 67.6413 372.982 71.9027C374.75 72.5024 375.507 69.6931 373.74 69.1249C359.729 64.4848 343.824 60.1918 331.043 70.1034C329.56 71.2082 331.643 73.2284 333.095 72.1236Z" fill="#251404"/>
<path d="M193.802 270.924L207.056 184.023C207.056 184.023 164.076 192.988 156.502 225.185L174.395 226.826L155.619 257.035C148.739 268.114 153.946 282.761 166.285 286.99C166.506 287.054 166.695 287.148 166.916 287.211C179.002 291.283 191.877 283.518 193.802 270.924Z" fill="#E0D7F9"/>
<path d="M214.03 223.512C209.581 226.037 203.932 224.459 201.408 220.008C198.883 215.557 200.461 209.907 204.91 207.382C209.36 204.857 215.009 206.435 217.533 210.886C220.026 215.336 218.48 220.987 214.03 223.512Z" fill="#E0D7F9"/>
<path d="M205.447 217.104C208.792 216.473 212.137 215.873 215.482 215.305C216.839 215.084 216.271 213.001 214.914 213.221C211.569 213.79 208.224 214.389 204.879 215.021C203.522 215.273 204.09 217.357 205.447 217.104Z" fill="#4F3422"/>
<path d="M174.363 226.826L156.692 255.33L187.649 227.11L174.363 226.826Z" fill="#4F3422"/>
<path d="M168.936 208.581C168.936 208.581 180.517 211.611 190.268 212.369C190.268 212.369 172.091 222.312 162.277 218.682L168.936 208.581Z" fill="white"/>
<path d="M185.945 191.252C180.233 193.24 174.427 195.734 169.22 198.796C168.557 199.175 168.462 200.311 169.22 200.658C171.366 201.7 173.48 202.71 175.626 203.752C176.888 204.351 177.961 202.489 176.73 201.889C174.584 200.848 172.47 199.837 170.324 198.796C170.324 199.427 170.324 200.027 170.324 200.658C175.373 197.691 180.99 195.292 186.513 193.335C187.838 192.893 187.27 190.81 185.945 191.252Z" fill="#4F3422"/>
<path d="M189.732 203.594C192.225 201.921 196.737 204.131 197.968 206.53C198.599 207.761 200.461 206.688 199.83 205.425C198.063 202.016 192.067 199.365 188.627 201.7C187.491 202.49 188.596 204.384 189.732 203.594Z" fill="#4F3422"/>
</svg>
