<svg width="375" height="539" viewBox="0 0 375 539" fill="none" xmlns="http://www.w3.org/2000/svg">
<path d="M-17.7751 133.567C-23.7055 131.128 -27.2316 123.922 -25.6021 117.664C-23.9459 111.406 -17.3209 106.963 -10.9899 107.857C-7.73081 108.318 -4.79233 109.97 -1.93399 111.596C1.69904 113.654 5.33208 115.741 8.96511 117.799C-0.0907593 114.576 -4.47177 103.251 -2.49497 93.7153C-1.05244 86.8612 3.56899 80.3052 10.2474 78.5171C15.6969 77.0542 21.4937 78.8964 26.4891 81.5243C42.0097 89.5975 52.882 104.471 62.1249 119.479C59.2398 115.442 62.4455 109.239 67.1203 107.613C71.7952 106.015 76.9241 107.694 81.3319 109.916C91.1624 114.901 99.3367 124.437 105 134L-17.7751 133.567Z" fill="#F2F5EB"/>
<path d="M382.452 158.45C390.057 155.359 394.58 146.223 392.49 138.288C390.366 130.354 381.87 124.721 373.75 125.854C369.571 126.438 365.802 128.533 362.137 130.594C357.478 133.205 352.818 135.85 348.159 138.46C359.773 134.373 365.391 120.015 362.856 107.925C361.006 99.2348 355.079 90.9226 346.515 88.6557C339.526 86.8009 332.092 89.1365 325.686 92.4683C305.781 102.704 291.838 121.561 279.985 140.59C283.685 135.472 279.574 127.606 273.579 125.545C267.583 123.519 261.006 125.648 255.353 128.465C242.746 134.785 232.263 146.875 225 159L382.452 158.45Z" fill="#F2F5EB"/>
<path d="M-34.0657 375.211C-41.2164 372.326 -45.5027 363.713 -43.5119 356.258C-41.5211 348.802 -33.4969 343.5 -25.8587 344.557C-21.9381 345.105 -18.3627 347.076 -14.9093 349.026C-10.5214 351.484 -6.13351 353.942 -1.74561 356.4C-12.6747 352.54 -17.9768 339.072 -15.5797 327.716C-13.853 319.55 -8.2462 311.749 -0.181404 309.616C6.40044 307.869 13.3886 310.083 19.4626 313.191C38.2127 322.82 51.3561 340.514 62.5086 358.391C59.0146 353.576 62.8946 346.182 68.542 344.272C74.1691 342.363 80.3853 344.353 85.7076 347.015C97.5712 352.967 107.464 364.302 114.29 375.698L-34.0657 375.211Z" fill="#F2F5EB"/>
<path d="M462.436 322.232C473.639 317.691 480.354 304.132 477.235 292.395C474.116 280.659 461.544 272.312 449.577 273.975C443.435 274.838 437.833 277.94 432.422 281.01C425.548 284.88 418.673 288.75 411.798 292.619C428.921 286.543 437.228 265.34 433.473 247.464C430.767 234.608 421.983 222.327 409.347 218.97C399.035 216.219 388.087 219.705 378.57 224.598C349.194 239.756 328.601 267.611 311.128 295.753C316.602 288.174 310.523 276.533 301.675 273.527C292.859 270.521 283.12 273.655 274.781 277.844C256.194 287.215 240.694 305.059 230 323L462.436 322.232Z" fill="#F2F5EB"/>
<path d="M217.01 138.958C219.438 147.583 229.302 151.67 237.112 147.282C247.126 141.641 259.218 149.965 257.59 161.347C256.314 170.223 263.649 177.97 272.561 177.117C284.002 176.039 291.662 188.575 285.554 198.303C280.772 205.899 284.352 215.953 292.839 218.811C303.704 222.497 305.656 237.063 296.093 243.457C288.658 248.446 287.832 259.076 294.416 265.169C302.852 272.966 298.697 287.056 287.381 289.012C278.569 290.541 273.487 299.918 277.017 308.166C281.573 318.722 272.035 329.904 260.92 327.096C252.233 324.889 243.796 331.408 243.671 340.358C243.546 351.866 230.303 358.209 221.266 351.089C214.231 345.548 203.867 348.055 200.137 356.204C195.355 366.658 180.66 367.06 175.303 356.881C171.122 348.958 160.633 347.002 153.923 352.944C145.312 360.541 131.743 354.925 130.967 343.442C130.366 334.492 121.579 328.449 113.042 331.132C102.077 334.567 91.9635 323.886 95.9439 313.106C99.0482 304.681 93.4655 295.58 84.5533 294.553C73.1627 293.224 68.231 279.359 76.2419 271.111C82.4755 264.692 81.0735 254.087 73.388 249.524C63.5245 243.657 64.6511 228.99 75.3157 224.728C83.627 221.394 86.6562 211.164 81.4741 203.844C74.84 194.467 81.8246 181.53 93.2903 181.981C102.228 182.332 109.162 174.209 107.385 165.409C105.132 154.127 116.772 145.176 127.062 150.24C135.098 154.202 144.711 149.589 146.688 140.839C149.217 129.632 163.486 126.172 170.821 134.997C176.554 141.892 187.219 141.591 192.551 134.395C199.436 125.219 213.88 127.902 217.01 138.958Z" fill="#4F3422"/>
<path d="M358.203 409.531C348.815 376.637 319.901 353.17 285.829 350.763C207.847 345.222 74.6898 343.217 46.4261 373.453C37.1884 383.331 56.0393 365.38 46.4261 373.453C3.19187 409.731 -3.54236 497.733 -3.54236 497.733L97.446 497.031L378.706 497.833C380.258 489.81 368.617 446.085 358.203 409.531Z" fill="#34D1BF"/>
<path d="M226.673 314.233L219.714 292.07C225.546 293.449 231.955 291.995 236.687 287.607C244.272 280.587 244.748 268.753 237.738 261.157C230.729 253.56 218.912 253.084 211.327 260.104C210.876 260.53 210.451 260.956 210.05 261.407L201.839 235.283C200.813 232.049 197.608 230.043 194.254 230.544C177.631 233.026 131.217 244.685 127.838 297.335C127.587 301.321 130.717 304.731 134.722 304.731L155.2 304.706L153.573 318.947C178.257 323.685 202.84 321.103 226.673 314.233Z" fill="white" fill-opacity="0.7"/>
<path d="M226.673 314.233C202.865 321.128 178.257 323.685 153.598 318.947L148.741 361.493C146.288 382.93 158.755 403.639 179.158 410.584C180.109 410.909 181.086 411.21 182.062 411.511C217.41 421.791 249.78 387.768 238.715 352.593L226.673 314.233Z" fill="#34D1BF"/>
<path d="M163.261 246.791C153.147 252.03 143.008 257.245 132.895 262.485C131.568 263.162 131.443 265.093 132.419 266.096C135.423 269.154 138.402 272.188 141.406 275.247C143.484 277.353 146.713 274.119 144.636 272.013C141.632 268.954 138.652 265.92 135.648 262.861C135.498 264.065 135.348 265.268 135.173 266.472C145.287 261.232 155.425 256.017 165.539 250.777C168.193 249.398 165.865 245.437 163.261 246.791Z" fill="#4F3422"/>
<path d="M160.382 282.292C160.658 284.648 157.904 286.805 155.751 285.476C153.222 283.946 150.919 287.908 153.448 289.437C158.329 292.421 165.639 288.158 164.989 282.292C164.838 281.063 164.037 280.01 162.685 280.01C161.559 279.985 160.257 281.038 160.382 282.292Z" fill="#4F3422"/>
<path d="M227.524 269.43C223.594 270.759 219.663 272.088 215.733 273.416C212.954 274.369 214.156 278.782 216.96 277.829C220.89 276.5 224.82 275.171 228.751 273.843C231.53 272.915 230.328 268.477 227.524 269.43Z" fill="#4F3422"/>
<path d="M172.198 260.505C176.579 270.408 190.248 272.941 198.284 266.071C200.537 264.14 197.283 260.906 195.055 262.837C189.046 267.976 179.283 265.218 176.179 258.198C174.977 255.491 171.022 257.822 172.198 260.505Z" fill="#4F3422"/>
<path d="M175.954 262.335C174.276 264.04 172.574 265.72 170.897 267.425C168.819 269.506 172.048 272.765 174.126 270.659C175.803 268.954 177.506 267.274 179.183 265.569C181.286 263.488 178.056 260.254 175.954 262.335Z" fill="#4F3422"/>
<path d="M183.188 268.954C183.213 270.658 183.239 272.338 183.264 274.043C183.289 277.002 187.895 277.002 187.845 274.043C187.82 272.338 187.795 270.658 187.77 268.954C187.72 266.02 183.138 265.995 183.188 268.954Z" fill="#4F3422"/>
<path d="M192.201 268.904C192.752 270.409 193.277 271.938 193.828 273.442C194.254 274.596 195.38 275.398 196.657 275.047C197.783 274.746 198.685 273.392 198.259 272.214C197.708 270.709 197.183 269.18 196.632 267.676C196.206 266.497 195.08 265.72 193.803 266.071C192.676 266.397 191.8 267.751 192.201 268.904Z" fill="#4F3422"/>
<path d="M207.972 437.335C207.972 441.723 204.418 445.308 200.012 445.308C195.63 445.308 192.051 441.748 192.051 437.335C192.051 432.948 195.605 429.362 200.012 429.362C204.418 429.362 207.972 432.922 207.972 437.335Z" fill="#4F3422"/>
<path d="M92.7646 412.163C67.2546 425.275 41.7447 438.388 16.2097 451.5C10.3517 454.509 4.49365 457.517 -1.36438 460.526C-10.9775 465.49 -18.7882 472.034 -23.019 482.313C-26.7742 491.414 -27.2248 503.975 -22.969 513.051C-18.5629 522.453 -11.278 531.077 -1.2392 534.738C8.29886 538.198 20.065 539.501 29.4528 534.688C45.4498 526.464 61.4717 518.241 77.4686 509.992C100.475 498.158 123.482 486.35 146.488 474.516C133.32 451.35 120.252 428.108 107.91 404.391C102.853 406.998 97.7965 409.58 92.7646 412.163Z" fill="#34D1BF"/>
<path d="M171.573 461.629C181.186 456.69 188.996 450.146 193.227 439.867C196.982 430.766 197.433 418.205 193.177 409.129C188.771 399.727 181.486 391.103 171.447 387.442C161.909 383.982 170.246 370.218 160.858 375.057C149.893 380.698 118.85 398.775 107.885 404.391C120.227 428.133 133.27 451.375 146.463 474.516C148.967 473.237 151.495 471.934 153.998 470.655C159.856 467.646 165.714 464.638 171.573 461.629Z" fill="white" fill-opacity="0.7"/>
<path d="M175.878 405.569C178.908 385.236 181.937 364.878 184.966 344.545C185.842 338.628 181.586 332.11 175.428 331.433C169.294 330.756 163.286 334.642 162.335 340.985C159.306 361.318 156.277 381.676 153.247 402.009C152.371 407.926 156.627 414.445 162.785 415.122C168.919 415.824 174.927 411.912 175.878 405.569Z" fill="white" fill-opacity="0.7"/>
<path d="M176.98 405.87C179.258 390.502 181.561 375.108 183.839 359.739C185.191 350.613 190.048 336.222 178.757 331.182C174.777 329.402 169.87 330.129 166.34 332.586C161.959 335.62 161.283 340.183 160.557 345.147C158.279 360.541 155.976 375.91 153.698 391.304C153.473 392.758 155.701 393.36 155.901 391.906C157.754 379.495 159.581 367.085 161.434 354.674C161.884 351.691 162.31 348.707 162.76 345.749C163.161 343.066 163.261 340.133 164.638 337.701C167.467 332.737 174.577 330.856 179.333 334.116C185.016 338.027 183.864 344.27 182.988 350.161C182.112 356.103 181.211 362.07 180.335 368.012C178.482 380.423 176.654 392.808 174.802 405.219C174.552 406.723 176.755 407.325 176.98 405.87Z" fill="#4F3422"/>
<path d="M181.361 444.155C186.543 410.985 191.725 377.791 196.907 344.621C197.834 338.704 193.628 332.16 187.444 331.433C181.311 330.706 175.278 334.567 174.276 340.91C169.094 374.08 163.912 407.275 158.73 440.444C157.804 446.361 162.009 452.905 168.193 453.632C174.326 454.359 180.36 450.498 181.361 444.155Z" fill="white" fill-opacity="0.7"/>
<path d="M188.27 411.386C190.173 398.549 192.101 385.713 194.003 372.901C194.955 366.483 195.906 360.065 196.857 353.646C197.533 349.033 199.16 343.843 197.783 339.205C195.63 331.934 187.995 328.324 181.035 331.107C177.531 332.511 174.752 335.419 173.675 339.055C171.948 344.896 171.698 351.565 170.796 357.608C168.618 372.174 166.466 386.716 164.288 401.282C164.062 402.736 166.29 403.338 166.491 401.884C168.543 388.07 170.596 374.255 172.649 360.441C173.6 354.047 174.226 347.529 175.503 341.186C176.73 335.093 182.963 330.756 189.172 332.862C196.607 335.394 196.106 343.066 195.155 349.309C194.153 355.978 193.177 362.647 192.176 369.291C190.123 383.105 188.07 396.92 186.017 410.759C185.842 412.213 188.045 412.84 188.27 411.386Z" fill="#4F3422"/>
<path d="M182.638 352.92C178.958 377.64 175.278 402.361 171.598 427.081C170.721 432.998 174.977 439.517 181.136 440.194C187.269 440.871 193.277 436.985 194.229 430.641C197.909 405.921 201.589 381.2 205.269 356.48C206.145 350.563 201.889 344.044 195.731 343.367C189.597 342.69 183.589 346.576 182.638 352.92Z" fill="white" fill-opacity="0.7"/>
<path d="M193.402 443.954C197.483 416.601 201.539 389.248 205.619 361.895C206.395 356.755 207.322 351.942 204.142 347.379C201.238 343.217 196.356 341.387 191.4 342.465C179.834 344.972 180.56 359.137 179.183 368.414C177.13 382.278 175.052 396.143 173 410.033C172.774 411.487 175.002 412.088 175.203 410.634C176.73 400.305 178.282 389.975 179.809 379.646C180.635 374.005 181.486 368.364 182.312 362.748C182.988 358.185 182.863 351.841 185.992 348.206C190.699 342.765 199.436 343.392 202.915 349.811C205.644 354.875 203.291 361.87 202.49 367.235C200.662 379.52 198.835 391.831 197.007 404.116C195.055 417.178 193.127 430.265 191.174 443.328C190.974 444.782 193.177 445.409 193.402 443.954Z" fill="#4F3422"/>
<path d="M293.239 413.341C318.749 426.454 344.259 439.566 369.794 452.679C375.652 455.687 381.51 458.696 387.368 461.704C396.981 466.643 404.792 473.187 409.023 483.466C412.778 492.567 413.229 505.128 408.973 514.204C404.567 523.606 397.282 532.256 387.243 535.891C377.705 539.351 365.939 540.655 356.551 535.841C340.554 527.618 324.532 519.394 308.535 511.145C285.529 499.312 262.522 487.503 239.516 475.669C252.684 452.503 265.752 429.262 278.093 405.544C283.15 408.151 288.207 410.759 293.239 413.341Z" fill="#34D1BF"/>
<path d="M214.431 462.782C204.818 457.843 197.007 451.3 192.777 441.02C189.021 431.919 188.571 419.358 192.827 410.282C197.233 400.881 204.518 392.231 214.556 388.596C224.094 385.136 215.758 371.371 225.146 376.21C236.111 381.851 267.153 399.928 278.118 405.569C265.777 429.312 252.734 452.553 239.541 475.694C237.037 474.416 234.509 473.112 232.005 471.833C226.147 468.825 220.289 465.816 214.431 462.782Z" fill="white" fill-opacity="0.7"/>
<path d="M210.125 406.748C207.096 386.415 204.067 366.057 201.038 345.724C200.162 339.807 204.417 333.288 210.576 332.611C216.709 331.934 222.718 335.821 223.669 342.164C226.698 362.497 229.727 382.855 232.756 403.188C233.633 409.105 229.377 415.623 223.218 416.3C217.085 416.977 211.077 413.091 210.125 406.748Z" fill="white" fill-opacity="0.7"/>
<path d="M211.227 406.447C209.374 394.037 207.547 381.651 205.694 369.241C204.818 363.299 203.917 357.332 203.041 351.39C202.164 345.498 200.988 339.255 206.696 335.344C211.452 332.06 218.537 333.965 221.391 338.929C222.768 341.311 222.868 344.295 223.268 346.977C223.719 349.961 224.145 352.944 224.595 355.903C226.448 368.313 228.275 380.724 230.128 393.134C230.353 394.588 232.556 393.961 232.331 392.532C230.053 377.138 227.75 361.77 225.471 346.376C224.72 341.411 224.069 336.848 219.688 333.815C216.159 331.358 211.252 330.631 207.271 332.411C195.956 337.45 200.838 351.816 202.189 360.967C204.468 376.336 206.771 391.73 209.049 407.099C209.224 408.503 211.452 407.876 211.227 406.447Z" fill="#4F3422"/>
<path d="M204.643 445.333C199.461 412.163 194.279 378.968 189.097 345.799C188.17 339.882 192.376 333.338 198.56 332.611C204.693 331.884 210.726 335.745 211.728 342.088C216.91 375.258 222.092 408.452 227.274 441.622C228.2 447.539 223.994 454.083 217.811 454.81C211.677 455.537 205.644 451.676 204.643 445.333Z" fill="white" fill-opacity="0.7"/>
<path d="M199.936 411.937C197.884 398.123 195.831 384.309 193.778 370.469C192.827 364.051 191.875 357.632 190.924 351.214C189.973 344.796 189.046 336.673 196.807 334.04C202.64 332.059 209.074 335.945 210.376 341.837C211.778 348.306 212.378 355.05 213.33 361.594C215.383 375.408 217.435 389.223 219.488 403.037C219.714 404.491 221.917 403.864 221.691 402.435C219.789 389.599 217.861 376.762 215.958 363.95C215.007 357.532 214.056 351.114 213.104 344.695C212.479 340.559 211.678 336.973 208.298 334.216C202.39 329.377 193.427 330.68 189.497 337.324C187.144 341.311 187.695 345.222 188.346 349.584C189.297 356.003 190.248 362.421 191.199 368.839C193.377 383.406 195.53 397.948 197.708 412.514C197.934 414.018 200.162 413.392 199.936 411.937Z" fill="#4F3422"/>
<path d="M203.366 354.097C207.046 378.818 210.726 403.538 214.406 428.259C215.282 434.176 211.027 440.694 204.868 441.371C198.735 442.048 192.727 438.162 191.775 431.819C188.095 407.099 184.415 382.378 180.735 357.657C179.859 351.74 184.115 345.222 190.273 344.545C196.407 343.868 202.415 347.754 203.366 354.097Z" fill="white" fill-opacity="0.7"/>
<path d="M194.804 444.505C191.249 420.662 187.695 396.794 184.165 372.951C183.364 367.511 181.787 361.644 181.787 356.153C181.762 348.807 188.871 343.743 195.756 346.375C201.814 348.707 202.29 354.423 203.116 360.014C203.917 365.43 204.718 370.845 205.544 376.261C207.296 388.094 209.074 399.928 210.826 411.787C211.052 413.241 213.255 412.614 213.029 411.185C211.202 398.975 209.399 386.766 207.572 374.531C206.696 368.589 205.794 362.647 204.918 356.705C204.142 351.565 202.64 347.127 197.683 344.695C187.544 339.731 178.357 348.682 179.784 358.936C181.661 372.324 183.764 385.662 185.742 399.026C188.02 414.394 190.323 429.738 192.601 445.107C192.802 446.586 195.03 445.96 194.804 444.505Z" fill="#4F3422"/>
<path d="M5.64522 458.245C35.0355 442.55 64.4508 426.855 93.841 411.16C97.9967 408.929 102.152 406.723 106.308 404.491C107.61 403.789 106.458 401.809 105.157 402.511C75.7663 418.205 46.351 433.9 16.9607 449.595C12.805 451.826 8.64933 454.033 4.49364 456.264C3.16682 456.966 4.34343 458.947 5.64522 458.245Z" fill="#4F3422"/>
<path d="M365.288 449.093C339.978 435.931 314.694 422.743 289.384 409.58C285.854 407.75 282.324 405.895 278.769 404.065C277.468 403.388 276.291 405.368 277.618 406.045C302.928 419.208 328.212 432.396 353.522 445.558C357.052 447.388 360.581 449.244 364.136 451.074C365.438 451.751 366.59 449.77 365.288 449.093Z" fill="#4F3422"/>
<path d="M22.8188 435.73C28.2262 437.21 33.6336 438.664 39.066 440.143C40.493 440.519 41.0938 438.313 39.6668 437.937C34.2594 436.457 28.852 435.003 23.4196 433.524C21.9926 433.123 21.3918 435.329 22.8188 435.73Z" fill="#4F3422"/>
<path d="M342.281 438.137C346.612 436.783 350.843 435.154 354.974 433.248C356.301 432.647 355.149 430.666 353.822 431.268C349.867 433.073 345.811 434.627 341.68 435.931C340.279 436.357 340.879 438.589 342.281 438.137Z" fill="#4F3422"/>
<path d="M292.964 224.878C297.17 234.029 308.735 233.528 315.77 228.213C323.305 222.496 330.891 210.236 327.586 200.484C325.133 193.238 314.068 188.85 309.887 197.224C308.085 200.81 309.512 205.097 312.29 207.779C315.845 211.189 321.278 211.766 325.959 211.916C337.049 212.292 350.017 207.303 351.719 194.893C352.12 192.009 347.714 190.756 347.313 193.664C346.062 202.665 337.55 206.927 329.214 207.303C325.258 207.479 320.351 207.504 316.822 205.423C314.894 204.295 313.292 202.214 313.842 199.932C314.393 197.575 317.122 196.798 319.225 197.475C323.531 198.879 324.157 204.295 323.431 208.055C322.554 212.568 320.026 217.031 317.122 220.541C312.39 226.232 301.25 231.948 296.944 222.522C295.668 219.889 291.737 222.221 292.964 224.878Z" fill="#4F3422"/>
<path d="M46.0506 163.754C45.2244 174.585 54.2368 183.961 65.1517 182.883C75.8163 181.805 83.0763 171.3 80.3475 160.896C79.3462 157.11 76.1668 152.647 71.8109 155.104C67.4549 157.561 66.5286 164.105 67.1294 168.542C68.8067 180.827 80.2224 187.12 91.0372 190.33C93.8661 191.182 95.0677 186.744 92.2639 185.917C85.5046 183.911 78.2697 180.953 74.2642 174.81C72.2615 171.726 71.0598 167.79 71.6606 164.08C71.7858 163.353 71.9611 162.6 72.2364 161.924C72.5368 161.096 73.8136 159.115 75.0152 159.692C76.1167 160.219 76.3421 164.481 76.3421 165.283C76.3921 172.704 70.3839 178.596 62.9737 178.396C55.2381 178.195 50.0811 171.175 50.6318 163.754C50.8571 160.82 46.2759 160.82 46.0506 163.754Z" fill="#4F3422"/>
<path d="M50.031 338.302C55.864 343.818 65.1267 344.846 71.9611 340.484C75.6912 338.102 77.9443 334.341 79.4964 330.305C81.0485 326.168 82.9511 320.602 80.4727 316.415C78.7454 313.481 74.6898 311.576 71.5355 313.381C68.3311 315.211 67.8805 319.348 68.8819 322.557C71.3352 330.505 80.5478 334.466 88.2834 334.065C99.2735 333.489 107.585 325.165 113.518 316.641C115.195 314.209 111.24 311.927 109.563 314.334C105.232 320.552 99.624 326.669 92.1137 328.825C86.0053 330.58 77.9943 329.051 74.3393 323.41C73.6634 322.357 72.5869 320.451 72.9624 319.123C74.0639 315.186 76.3671 318.496 76.7927 319.875C77.1932 321.178 76.993 322.382 76.7176 323.686C75.9666 327.446 74.4645 331.784 71.8109 334.642C66.9792 339.832 58.2923 339.807 53.2605 335.018C51.1325 333.012 47.8781 336.272 50.031 338.302Z" fill="#4F3422"/>
<path d="M241.168 158.589C237.012 151.97 237.588 142.769 243.571 137.378C248.728 132.74 261.07 130.584 265.226 137.83C266.628 140.287 265.601 143.621 262.247 142.894C259.643 142.318 258.467 139.635 258.266 137.203C257.941 133.392 259.393 129.431 261.32 126.222C265.226 119.753 272.11 115.315 279.621 114.588C282.525 114.313 282.55 109.724 279.621 110C270.433 110.853 262.147 115.942 257.365 123.89C253.36 130.534 250.631 143.596 260.169 147.031C263.523 148.234 267.554 147.457 269.507 144.273C271.96 140.312 270.107 135.473 266.803 132.665C259.768 126.748 248.578 127.701 241.593 133.091C233.157 139.61 231.655 152.045 237.212 160.896C238.79 163.403 242.745 161.096 241.168 158.589Z" fill="#4F3422"/>
<path d="M127.916 39.5502C121.487 37.1727 117.649 30.0723 119.441 23.9357C121.232 17.7991 128.428 13.3975 135.272 14.2971C138.791 14.7469 141.989 16.3855 145.091 17.9919C149.025 20.016 152.959 22.0401 156.893 24.0963C147.074 20.9156 142.309 9.7991 144.484 0.449675C146.019 -6.26521 151.072 -12.7231 158.301 -14.4901C164.218 -15.9359 170.486 -14.1046 175.924 -11.5343C192.747 -3.59853 204.549 11.02 214.56 25.7349C211.425 21.7509 214.912 15.6786 219.965 14.0722C225.018 12.4979 230.584 14.1365 235.349 16.3533C246 21.269 254.891 30.6184 261 40L127.916 39.5502Z" fill="#F2F5EB"/>
</svg>
