<svg width="63" height="63" viewBox="0 0 63 63" fill="none" xmlns="http://www.w3.org/2000/svg">
<path d="M53.0934 53.6867C65.1688 41.5941 65.1688 21.9882 53.0934 9.89561C41.018 -2.19697 21.4398 -2.19697 9.36442 9.89561C-2.71099 21.9882 -2.71099 41.5941 9.36442 53.6867C21.4398 65.7793 41.018 65.7793 53.0934 53.6867Z" fill="#4CAADD"/>
<path fill-rule="evenodd" clip-rule="evenodd" d="M22.8425 41.9743C18.7413 37.9412 17.148 33.1841 18.0332 27.7327C19.3609 19.5481 27.9764 15.9877 34.4822 18.0413C40.9881 20.0948 43.7173 23.8325 44.4992 29.4907C45.0156 33.2727 43.4075 37.4241 39.6456 41.9743L38.2736 44.2642V48.6224C38.2736 52.4783 35.1609 55.5955 31.3105 55.5955C27.46 55.5955 24.3473 52.4783 24.3473 48.6224V44.7665L22.8425 41.9743Z" fill="white"/>
<path fill-rule="evenodd" clip-rule="evenodd" d="M29.3483 33.45H26.3536C25.9847 33.45 25.6897 33.1545 25.6897 32.7852C25.6897 32.6522 25.7339 32.5192 25.8077 32.4158L31.0744 24.7041C31.2809 24.3938 31.694 24.3199 32.0038 24.5268C32.1808 24.645 32.2988 24.8518 32.2988 25.0734V28.6634C32.2988 29.0327 32.5939 29.3282 32.9627 29.3282H35.4706C35.8394 29.3282 36.1345 29.6236 36.1345 29.993C36.1345 30.1259 36.105 30.2441 36.0312 30.3475L31.2514 37.9264C31.0596 38.2366 30.6466 38.3252 30.3367 38.1332C30.145 38.015 30.0269 37.7934 30.0269 37.5718V34.1296C30.0122 33.7602 29.7171 33.45 29.3483 33.45Z" fill="#4F3422"/>
<path fill-rule="evenodd" clip-rule="evenodd" d="M47.6267 27.6887L50.6068 27.1716C51.4181 27.0238 52.2 27.5705 52.3328 28.383C52.4803 29.1956 51.9345 29.9638 51.1231 30.1115L48.1431 30.6286C47.3317 30.7763 46.5498 30.2297 46.417 29.4172C46.2695 28.6046 46.8153 27.8364 47.6267 27.6887Z" fill="#4F3422"/>
<path fill-rule="evenodd" clip-rule="evenodd" d="M42.7584 17.007L44.5287 14.5989C45.0155 13.9341 45.9597 13.7716 46.6383 14.2591C47.3022 14.7467 47.4497 15.6774 46.9776 16.3422C46.9776 16.3422 46.9776 16.3422 46.9776 16.357L45.2073 18.7651C44.7204 19.4299 43.7763 19.5924 43.0977 19.1048C42.4338 18.6173 42.2715 17.6866 42.7584 17.007C42.7584 17.0218 42.7584 17.0218 42.7584 17.007Z" fill="#4F3422"/>
<path fill-rule="evenodd" clip-rule="evenodd" d="M29.968 13.2252V10.8319C29.968 9.82732 30.7794 9 31.7973 9C32.8152 9 33.6266 9.81255 33.6266 10.8319V13.2252C33.6266 14.2298 32.8152 15.0571 31.7973 15.0571C30.7794 15.0571 29.968 14.2298 29.968 13.2252Z" fill="#4F3422"/>
<path fill-rule="evenodd" clip-rule="evenodd" d="M16.7791 18.3072L14.6548 16.1946C14.0647 15.6185 14.0647 14.6729 14.64 14.082C14.64 14.082 14.64 14.082 14.6548 14.0672C15.2449 13.4763 16.189 13.4763 16.7791 14.0672L18.9035 16.1798C19.4936 16.756 19.4936 17.7015 18.9183 18.2924C18.9183 18.2924 18.9183 18.2924 18.9035 18.3072C18.3134 18.8834 17.3692 18.8834 16.7791 18.3072Z" fill="#4F3422"/>
<path fill-rule="evenodd" clip-rule="evenodd" d="M13.8877 29.2688L10.8634 29.0029C10.0372 28.929 9.43237 28.2051 9.50613 27.3926C9.5799 26.5653 10.3028 25.9596 11.1289 26.0334L14.1532 26.2994C14.9793 26.3732 15.5842 27.0971 15.5104 27.9097C15.4367 28.737 14.7138 29.3427 13.8877 29.2688Z" fill="#4F3422"/>
<path d="M36.6656 46.3478C36.6508 46.3478 36.6508 46.3478 36.6656 46.3478L25.9995 46.2887C24.893 46.2887 24.0079 45.3875 24.0226 44.2795C24.0226 43.1862 24.9225 42.2998 26.0142 42.2998C26.0142 42.2998 26.0142 42.2998 26.029 42.2998L36.6803 42.3589C37.7867 42.3589 38.6719 43.2601 38.6571 44.3681C38.6424 45.4613 37.7572 46.3478 36.6656 46.3478Z" fill="#4F3422"/>
<path d="M34.2314 53.5426H28.3747C27.2682 53.5426 26.3831 52.6414 26.3831 51.5481C26.3831 50.4549 27.283 49.5537 28.3747 49.5537H34.2314C35.3379 49.5537 36.223 50.4549 36.223 51.5481C36.223 52.6414 35.3231 53.5426 34.2314 53.5426Z" fill="#4F3422"/>
</svg>
