<svg width="100" height="70" viewBox="0 0 100 70" fill="none" xmlns="http://www.w3.org/2000/svg">
<g clip-path="url(#clip0_810_3473)">
<path d="M50.1633 44.0808L50.0708 44.2005L50.0516 44.234C50.008 44.3044 49.9661 44.3749 49.9224 44.4436V44.4524C49.861 44.5077 49.8027 44.5665 49.7479 44.6285C45.7778 49.6768 41.8083 54.7222 37.8394 59.7647C37.7777 59.8564 37.7245 59.9537 37.6805 60.0553C37.7469 60.1081 37.7748 60.1469 37.808 60.1557C40.8952 60.9587 43.8816 62.1143 46.7093 63.6003C47.9101 64.2237 49.1074 63.7975 49.7915 62.6335C49.8579 62.5208 50.0289 62.4697 50.1528 62.3904C50.2 62.5049 50.2453 62.6176 50.2907 62.7321L50.3047 62.7603L50.3989 62.9011C51.1599 63.9754 52.2665 64.2131 53.5667 63.4946C57.2564 61.4536 61.2463 60.2631 65.3409 59.4671C71.3973 58.2907 77.52 58.0177 83.6671 58.3277C85.1681 58.4017 86.6674 58.5302 88.1701 58.583C88.6934 58.5995 89.2042 58.4203 89.6046 58.0801C90.005 57.7398 90.2667 57.2623 90.3396 56.7392C90.3859 56.395 90.4052 56.0475 90.3972 55.7002C90.3972 40.6726 90.3972 25.6397 90.3972 10.6015C90.3972 10.4588 90.3972 10.3144 90.3972 10.1718C90.3501 8.71009 89.5681 7.8278 88.1282 7.70629C86.1822 7.54956 84.2343 7.41043 82.2848 7.32766C80.5394 7.25194 78.7941 7.26603 77.0487 7.24137C77.0906 6.5123 77.1337 5.7844 77.1779 5.05767C77.0383 3.47272 76.9091 1.88778 76.7363 0.302834C76.7241 0.183082 76.3628 -0.0247209 76.2267 0.0175443C74.7675 0.468373 73.3224 0.961466 71.8633 1.44399C71.1075 1.83671 70.3239 2.18363 69.5943 2.62742C66.8018 4.33916 64.4944 6.58274 62.4942 9.1662C58.9499 9.98032 55.5484 11.3323 52.4061 13.1761C51.7341 13.5759 51.1425 14.113 50.5159 14.585L50.4077 14.7311V14.7399L50.2733 14.9741L50.1633 15.226C50.0516 15.1943 49.905 15.1978 49.8369 15.1274C49.5036 14.7751 49.2453 14.3384 48.8665 14.0707C46.7564 12.5386 44.4106 11.4591 41.9828 10.5486C38.0715 9.08343 34.0101 8.26983 29.8753 7.79434C23.9088 7.11122 17.8864 7.08347 11.9139 7.71157C10.3431 7.87535 9.62749 8.69424 9.62749 10.2581C9.62749 25.5205 9.62749 40.7782 9.62749 56.0313C9.61898 56.3168 9.64418 56.6023 9.70254 56.8819C10.0027 58.1146 10.9784 58.6993 12.5544 58.5496C17.9044 58.0432 23.2902 58.0556 28.6379 58.5866C28.3342 58.9388 28.0183 59.291 27.7268 59.6678C27.2939 60.2208 26.7564 60.3335 26.0635 60.2754C21.5577 59.9181 17.0293 59.9653 12.5318 60.4163C11.111 60.5501 9.87184 60.1909 8.86651 59.136C8.00955 58.2344 7.77043 57.1337 7.77218 55.9203C7.78265 41.7615 7.78265 27.6038 7.77218 13.4473C7.78704 13.2639 7.78704 13.0795 7.77218 12.8961C7.76243 12.76 7.69968 12.6334 7.59764 12.5439C6.46142 11.9487 5.3409 11.3112 4.16802 10.8057C2.0736 9.89351 -0.369893 12.0015 0.066445 14.4106C0.191784 15.1677 0.581134 15.8548 1.16427 16.3478C2.65829 17.6421 3.33025 19.2535 3.32502 21.2664C3.28778 33.3589 3.28488 45.4515 3.31629 57.544C3.33968 58.426 3.16445 59.3019 2.80378 60.1057C2.44311 60.9095 1.90641 61.6202 1.23409 62.1844C0.0420098 63.241 -0.301825 64.6974 0.296832 66.0587C0.591543 66.7064 1.08245 67.243 1.6988 67.5911C2.31516 67.9393 3.02515 68.081 3.72645 67.9959C5.13844 67.8303 6.28165 66.698 6.51901 65.157C6.58185 64.7485 6.7494 64.6164 7.1264 64.5583C8.73387 64.3065 10.3274 63.9507 11.9418 63.7711C15.8217 63.3396 19.7121 62.9839 23.5973 62.6018C23.7616 62.5965 23.9262 62.6036 24.0895 62.6229C22.2953 64.1603 20.4504 65.5269 18.2844 66.3704C17.8107 66.5568 17.3178 66.6891 16.8149 66.7649C15.155 66.9956 14.2789 66.2788 14.1235 64.6199C14.1235 64.5847 14.0851 64.553 14.0258 64.4438C13.558 64.4878 13.0519 64.5055 12.5614 64.597C12.4235 64.6217 12.2577 64.8524 12.2246 65.0126C11.8755 66.7068 12.5318 68.2283 14.0205 69.0965C15.278 69.8464 16.751 70.142 18.1972 69.9348C20.4181 69.6169 22.554 68.856 24.4804 67.6965C26.8708 66.2927 29.1212 64.659 31.2 62.8184C31.3577 62.6623 31.547 62.5426 31.7549 62.4675C31.9628 62.3924 32.1844 62.3637 32.4043 62.3834C35.1393 62.5806 37.876 62.7585 40.4871 62.9364C38.2687 62.0611 35.8008 61.605 33.298 61.0397C33.3723 60.9179 33.4533 60.8003 33.5406 60.6875C36.0399 57.9226 38.5899 55.193 41.0316 52.3753C46.2939 46.2856 51.2576 39.9582 55.7467 33.2662C57.1185 31.211 58.4293 29.1119 59.7366 27.0162C60.0019 26.5918 60.2288 26.5214 60.5831 26.8401C60.7419 26.988 60.8885 27.15 61.0403 27.3068C60.7209 27.8738 60.4138 28.4479 60.0821 29.008C59.2636 30.3886 58.4345 31.764 57.6107 33.1411L57.5112 33.2644L57.4973 33.2855L57.3629 33.5074L57.2669 33.636L57.2512 33.6624L57.1185 33.8843L57.0278 34.0164C55.4895 36.2999 53.949 38.581 52.4061 40.8598C51.7079 41.8865 50.9871 42.8991 50.2768 43.917L50.1651 44.0773L50.1633 44.0808ZM59.5027 62.9011C59.7121 63.0068 59.7854 63.0772 59.843 63.0772C62.9149 62.5031 66.0251 62.4098 69.1353 62.3869C74.2638 62.3586 79.3886 62.6687 84.4769 63.315C87.2817 63.6672 90.0621 64.1444 92.8651 64.5601C93.2247 64.6129 93.4254 64.7361 93.4865 65.1606C93.7099 66.6856 94.8286 67.8321 96.197 68.0082C97.6596 68.1949 99.0821 67.4358 99.6755 66.1503C99.9858 65.4962 100.071 64.7565 99.9188 64.0479C99.7661 63.3394 99.3839 62.7022 98.8325 62.2372C97.3524 60.92 96.6752 59.3174 96.6805 57.3063C96.713 45.2994 96.713 33.2914 96.6805 21.2822C96.6805 19.2887 97.3384 17.7161 98.7749 16.3971C100.141 15.1485 100.368 13.3751 99.4015 11.9733C98.4171 10.5433 96.9231 10.2123 95.1864 11.0629C94.3836 11.4591 93.6278 11.9557 92.8128 12.322C92.345 12.5316 92.2054 12.7887 92.2071 13.2871C92.2263 17.6034 92.2193 21.9162 92.2176 26.2361C92.2176 36.139 92.2176 46.0403 92.2176 55.9397C92.2176 56.8607 92.0762 57.7307 91.5718 58.5179C90.5455 60.1152 89.0358 60.5889 87.2416 60.4093C82.9254 59.992 78.583 59.9249 74.2562 60.2085C70.3105 60.4205 66.3943 61.0168 62.5623 61.9889C61.5901 62.2478 60.6092 62.5701 59.5027 62.9011Z" fill="#040206"/>
<path d="M28.6343 58.5866C23.2867 58.0557 17.9009 58.0433 12.5509 58.5496C10.9801 58.6993 9.99918 58.1235 9.69898 56.8819C9.64061 56.6024 9.61542 56.3169 9.62393 56.0313C9.62393 40.7689 9.62393 25.5112 9.62393 10.2581C9.62393 8.6943 10.3378 7.87541 11.9103 7.71163C17.8846 7.08373 23.9088 7.11207 29.877 7.79616C34.0117 8.27164 38.0802 9.08525 41.9845 10.5504C44.4123 11.4591 46.7581 12.5387 48.8682 14.0725C49.2469 14.3473 49.5052 14.7875 49.8386 15.1292C49.9067 15.1996 50.0533 15.1961 50.165 15.226C50.0847 15.7015 49.9381 16.1735 49.9363 16.649C49.9189 20.7804 49.9259 24.9118 49.9363 29.045C49.6309 29.2017 49.3272 29.3602 49.0043 29.5293C49.02 29.8604 49.0375 30.246 49.0514 30.5419L49.9503 30.9945C49.9503 31.993 49.9259 32.9897 49.9503 33.9883C49.9503 34.1644 50.1248 34.3405 50.2191 34.5166L44.3372 41.5432C44.3455 41.3069 44.2853 41.0733 44.1641 40.871C44.043 40.6686 43.866 40.5063 43.6548 40.4038C42.9968 40.0516 42.3493 39.643 41.6529 39.3771C40.2566 38.8488 38.8359 38.3909 37.4239 37.9031C37.5077 37.8186 37.5845 37.727 37.6752 37.646C39.2269 36.3217 40.5027 34.8107 40.9914 32.7573C41.0528 32.6182 41.1365 32.4902 41.2392 32.3787C41.604 33.0954 42.7752 33.4071 43.5187 32.988C44.4489 32.4597 44.8172 31.3291 44.2447 30.4891C43.6234 29.5751 42.6443 29.1612 41.6267 28.853L41.3649 27.5833C41.6255 27.2722 41.8862 26.9611 42.1468 26.65C43.194 25.4031 44.1906 24.1123 44.7299 22.5397C45.182 21.2189 44.9795 20.5374 43.948 19.7766C43.7735 19.5459 43.667 19.2042 43.4419 19.1039C41.7768 18.3589 40.1257 17.5629 38.4013 16.9659C34.0379 15.4532 29.4703 14.9636 24.887 14.7611C22.3964 14.6519 19.8936 14.8069 17.3977 14.8615C16.2598 14.8862 15.5145 15.7614 15.6227 16.8902C15.7204 17.894 16.8078 18.69 17.8376 18.5086C18.0147 18.4652 18.1951 18.4363 18.3769 18.4223C22.4348 18.3677 26.4928 18.3801 30.5263 18.9278C30.8212 18.9665 31.0953 19.1497 31.378 19.2659C31.0289 19.3064 30.6938 19.3539 30.35 19.3874C27.9973 19.6128 25.9098 20.4951 24.2884 22.2174C23.393 23.1666 22.7403 24.3448 21.9775 25.4208C21.7879 25.3578 21.5917 25.317 21.3928 25.2992C20.0175 25.3292 18.6369 25.308 17.2721 25.4419C16.2999 25.537 15.5267 26.1921 15.6157 27.4583C15.652 27.9092 15.8573 28.3291 16.1896 28.6327C16.522 28.9363 16.9565 29.1008 17.4047 29.0925C18.6369 29.0732 19.8691 29.0133 21.0996 28.971C21.1811 29.8962 21.2619 30.8219 21.3422 31.7482C21.1228 31.9263 20.9201 32.1244 20.7366 32.3399C19.8779 33.5445 19.0401 34.7631 18.1936 35.9765C17.9719 35.9765 17.7485 35.9624 17.5269 35.9765C16.4622 36.0593 15.6698 36.7337 15.621 37.5896C15.5267 39.1746 17.0172 40.2312 18.5235 39.6043C18.5985 39.5726 18.6352 39.4475 18.698 39.3665L20.1501 39.636H20.5097L21.4784 39.5497L21.7279 39.5039L22.5867 39.3876L22.7053 39.5638L22.8188 39.3295L23.0736 39.2679C23.0736 39.7187 23.4052 39.6342 23.681 39.65C25.0319 39.7275 26.3846 39.8261 27.7372 39.8807C28.3865 39.9089 29.041 39.8807 29.692 39.8719L29.9171 39.9001C29.9957 39.9758 30.069 40.1079 30.1563 40.1202C30.6432 40.1836 31.1354 40.2189 31.6258 40.2629C32.125 40.3492 32.6259 40.4214 33.1234 40.5218C36.08 41.117 38.9633 41.9306 41.6145 43.4328C41.8676 43.5772 42.1835 43.6089 42.4715 43.6952L37.9545 48.8639C37.759 48.7036 37.5862 48.4694 37.3628 48.3937C36.4657 48.0978 35.5511 47.8495 34.6436 47.5836C34.9123 47.1821 34.6715 46.976 34.3364 46.8404C34.144 46.7743 33.977 46.649 33.8586 46.4823C33.7403 46.3156 33.6767 46.1156 33.6766 45.9106C33.6627 45.7151 33.5126 45.5302 33.4236 45.34C33.2351 45.4369 33.0483 45.5355 32.8581 45.6288C32.6144 45.7742 32.3557 45.8923 32.0866 45.981C31.7849 46.0241 31.4799 46.0388 31.1755 46.025L31.3955 46.8792C31.4059 46.9179 31.4129 46.9584 31.4216 46.9989C31.0726 46.9989 30.7235 47.02 30.3866 46.9989C28.6326 46.8527 26.8802 46.6766 25.1244 46.5463C24.4158 46.4952 23.7002 46.5322 22.9881 46.5322C21.1851 46.5322 19.3839 46.5322 17.5775 46.5534C17.3542 46.5688 17.1343 46.6169 16.9247 46.696C16.4709 46.8303 16.084 47.1326 15.8416 47.5424C15.5992 47.9522 15.5192 48.4393 15.6175 48.9061C15.7379 49.6105 16.5879 50.2304 17.4466 50.2199C18.4606 50.2058 19.4764 50.123 20.4887 50.1441C22.5168 50.1846 24.5467 50.2269 26.5696 50.359C28.2451 50.4699 29.9154 50.676 31.5805 50.9014C32.9034 51.0775 34.2159 51.3505 35.5337 51.5812C35.5075 51.6359 35.4759 51.6878 35.4394 51.7361C33.3276 53.9339 31.2128 56.1288 29.0951 58.3207C28.9547 58.4308 28.7995 58.5203 28.6343 58.5866Z" fill="#E0D7F9"/>
<path d="M50.2783 43.9224C50.9887 42.9046 51.7095 41.892 52.4076 40.8653C53.954 38.59 55.4952 36.31 57.0311 34.0253L57.1183 33.8845L57.2492 33.6678L57.265 33.6414C57.2964 33.5974 57.3295 33.5551 57.361 33.5129L57.4953 33.291L57.5093 33.2699L57.6088 33.1466C57.8244 33.0949 58.0348 33.023 58.2371 32.9317C60.6387 31.5405 63.2376 30.6899 65.9376 30.1475C67.3042 29.8745 68.6918 29.6949 70.0706 29.473C70.0148 29.7372 69.9572 30.0013 69.8961 30.2655L70.0043 30.3588L71.13 29.3339C73.495 29.2159 75.8582 29.0838 78.2232 28.9817C79.1761 28.943 80.1326 28.9623 81.0873 28.9817C81.5707 28.9905 82.056 29.105 82.5377 29.0856C83.5692 29.0469 84.3284 28.346 84.3493 27.4795C84.379 26.3172 83.7664 25.5177 82.7297 25.4261C81.9041 25.3539 81.0733 25.2941 80.2443 25.2993C77.8305 25.3187 75.4184 25.3715 73.0045 25.4103C72.9941 24.4188 73.0639 23.4185 72.9522 22.4376C72.8405 21.4567 72.5909 20.4776 71.8875 19.7027L72.8422 18.3943C73.0473 18.465 73.26 18.5111 73.4758 18.5316C74.0605 18.5158 74.6452 18.4277 75.2316 18.4224C77.244 18.4083 79.2547 18.4224 81.267 18.4224C81.4905 18.4224 81.7139 18.4665 81.9355 18.4506C82.4085 18.4171 82.9112 18.44 83.3475 18.2868C84.1347 18.0121 84.4855 17.1862 84.3424 16.2106C84.2603 15.6523 83.5255 14.9461 82.8972 14.8757C82.2745 14.7991 81.6482 14.7551 81.021 14.7436C78.9894 14.7242 76.956 14.7295 74.9244 14.7242C74.9855 14.5323 75.0344 14.335 75.1112 14.1484C76.031 11.9206 76.7728 9.6436 77.0311 7.23096C78.7764 7.25561 80.5218 7.24152 82.2671 7.31725C84.2167 7.40002 86.1645 7.53914 88.1106 7.69587C89.554 7.81386 90.3359 8.69615 90.3795 10.1613C90.3795 10.304 90.3795 10.4484 90.3795 10.591C90.3795 25.6187 90.3795 40.6516 90.3795 55.6898C90.3875 56.0371 90.3683 56.3845 90.3219 56.7288C90.2493 57.2457 89.9922 57.7181 89.5988 58.0572C89.2055 58.3964 88.703 58.579 88.1856 58.5709C86.6829 58.518 85.1836 58.3948 83.6826 58.3155C77.5303 58.0056 71.4076 58.2785 65.3564 59.4549C61.2548 60.2509 57.2719 61.4414 53.5823 63.4824C52.282 64.2009 51.1754 63.9632 50.4144 62.889L50.3202 62.7481L50.3062 62.7199L50.1683 62.3783C50.0898 61.267 49.9519 60.1558 49.9449 59.0446C49.9188 54.1788 49.931 49.313 49.9275 44.4472V44.4384L50.0566 44.2289L50.0758 44.1954C50.1055 44.1549 50.1369 44.1162 50.1683 44.0757L50.2783 43.9224ZM64.7979 41.0255C64.7351 41.2615 64.6705 41.4975 64.6094 41.7299C64.1225 43.5667 64.0771 45.3894 64.7927 47.1892L64.941 47.7615C63.3859 48.2212 61.7994 48.5928 60.2862 49.1704C58.9107 49.7106 57.5771 50.3534 56.2963 51.0934C55.3049 51.6499 55.2194 53.0482 56.0153 53.8372C56.6488 54.4641 57.3767 54.5592 58.2546 54.1365C59.1848 53.6875 60.1046 53.212 61.0471 52.7981C63.0491 51.9176 65.1732 51.465 67.3077 51.0617C67.6742 51.3118 68.0338 51.576 68.4125 51.8084C70.5628 53.1433 72.8649 53.5589 75.3311 52.9232C75.6051 52.858 75.8879 52.814 76.1549 52.7242C77.6367 52.2311 78.8393 51.3048 79.9301 50.2129C80.8202 50.2129 81.7104 50.2235 82.6005 50.2235C83.4906 50.2235 84.2848 49.5455 84.3459 48.7794C84.4384 47.677 83.9095 46.8863 82.9496 46.6767C82.6005 46.5992 82.2514 46.5006 81.9024 46.4143C81.9216 46.2946 81.9425 46.1748 81.9634 46.0621C81.9844 45.9776 82.0071 45.886 82.028 45.8085C82.0525 45.606 82.0751 45.4053 82.0996 45.2027L82.1467 44.8259V43.7287L82.0839 43.2286C82.0664 43.0666 82.0472 42.9046 82.0298 42.7443L81.9652 42.4907L81.8779 42.3727L81.0052 39.8474C81.5568 39.7893 82.1066 39.7065 82.6616 39.6713C83.6355 39.6184 84.2673 38.9087 84.3668 37.9507C84.4663 36.9927 83.4714 36.0136 82.3876 35.9836C80.7242 35.9449 79.0627 35.8956 77.3994 35.8674C77.184 35.887 76.9715 35.9307 76.7658 35.9977C76.4342 35.9009 76.1025 35.7987 75.7692 35.7089C73.687 35.1418 71.6379 35.133 69.6482 36.0875L68.238 36.7391C67.9054 36.715 67.5712 36.7209 67.2396 36.7567C64.3267 37.3185 61.4206 37.9331 58.7119 39.2028C57.7732 39.6368 56.8729 40.1505 56.0205 40.7385C55.4149 41.1611 55.3416 42.1033 55.6854 42.8059C55.8484 43.1373 56.1138 43.4063 56.4415 43.5721C56.7693 43.7379 57.1416 43.7917 57.5023 43.7252C57.916 43.6338 58.3153 43.4857 58.6892 43.285C60.6125 42.2514 62.6682 41.491 64.7979 41.0255ZM55.4096 46.8669C55.8512 46.8793 56.0223 46.6626 55.8355 46.3386C55.5248 45.7892 55.572 45.3313 55.9228 44.8171C56.1706 44.456 55.942 44.1743 55.5458 44.2711C54.9332 44.4226 54.5527 44.206 54.1914 43.7428C53.9366 43.4135 53.6242 43.4646 53.5578 43.9101C53.4706 44.4966 53.2088 44.8646 52.6328 45.0583C52.2261 45.1957 52.2052 45.525 52.5944 45.7134C52.8393 45.8101 53.0471 45.9832 53.1874 46.2076C53.3278 46.4319 53.3934 46.6956 53.3746 46.9603C53.3746 47.3688 53.6678 47.5326 53.9854 47.2139C54.427 46.7613 54.8756 46.564 55.4149 46.8669H55.4096Z" fill="#E0D7F9"/>
<path d="M37.9543 48.864L42.4573 43.7076L42.5935 43.5667L42.857 43.2145L44.3301 41.5398L50.2119 34.5132C50.2618 34.4787 50.308 34.4391 50.3498 34.3952C52.7514 31.3521 55.1525 28.3078 57.5529 25.2624C57.6031 25.1685 57.6413 25.0684 57.6664 24.9648C57.2126 24.6566 56.8024 24.3114 57.0642 23.7056C57.2597 23.2495 57.6733 23.2196 58.1027 23.283L62.7244 26.312L62.9932 27.0164C62.597 27.8458 62.2688 27.9427 61.4817 27.4795C61.3405 27.4121 61.194 27.3567 61.0436 27.314C60.8918 27.1573 60.7452 26.9953 60.5863 26.8473C60.2373 26.5215 60.0051 26.592 59.7398 27.0234C58.4291 29.1191 57.1218 31.2183 55.7465 33.2699C51.2574 39.9548 46.2971 46.2823 41.0314 52.3755C38.5879 55.1932 36.0397 57.9263 33.5403 60.7C33.4531 60.8128 33.3721 60.9304 33.2977 61.0522C35.8006 61.6175 38.2755 62.0736 40.4834 62.9401C37.8653 62.7639 35.1356 62.5878 32.4006 62.3871C32.1807 62.3674 31.9591 62.3961 31.7512 62.4712C31.5433 62.5463 31.354 62.666 31.1963 62.8221C29.1184 64.6613 26.8693 66.2938 24.4802 67.6967C22.5545 68.8593 20.4185 69.6232 18.1969 69.9438C16.7478 70.1565 15.2701 69.8639 14.0081 69.1143C12.5193 68.2461 11.8578 66.7245 12.2121 65.0304C12.2453 64.8702 12.4111 64.6395 12.549 64.6148C13.0394 64.5232 13.5456 64.5056 14.0133 64.4616C14.0727 64.562 14.1076 64.5937 14.1111 64.6377C14.2664 66.2966 15.1426 67.0134 16.8024 66.7827C17.3053 66.7069 17.7982 66.5746 18.272 66.3882C20.438 65.5447 22.2863 64.1781 24.077 62.6407C23.9137 62.6214 23.7492 62.6143 23.5848 62.6195C19.6997 63.0017 15.8093 63.3574 11.9294 63.7889C10.3149 63.965 8.72142 64.3172 7.11395 64.5761C6.73695 64.6342 6.5694 64.7663 6.50656 65.1748C6.26571 66.7157 5.1225 67.8481 3.714 68.0136C3.0127 68.0988 2.30271 67.9571 1.68635 67.6089C1.07 67.2608 0.579092 66.7242 0.28438 66.0765C-0.314276 64.7099 0.0295587 63.2465 1.22163 62.2022C1.89396 61.638 2.43066 60.9272 2.79133 60.1235C3.15199 59.3197 3.32723 58.4438 3.30384 57.5618C3.28522 45.4693 3.28813 33.3767 3.31257 21.2842C3.31257 19.2713 2.64584 17.6599 1.15182 16.3655C0.568683 15.8725 0.179332 15.1855 0.0539935 14.4284C-0.377109 12.0069 2.05766 9.89897 4.15906 10.8147C5.33194 11.3237 6.45246 11.9576 7.58868 12.5529C7.69072 12.6424 7.75347 12.769 7.76322 12.9051C7.77808 13.0885 7.77808 13.2729 7.76322 13.4563C7.76322 27.6128 7.76322 41.7705 7.76322 55.9293C7.76322 57.1427 8.00059 58.2433 8.85755 59.145C9.86113 60.2016 11.1003 60.5538 12.5228 60.4253C17.0203 59.9743 21.5487 59.9271 26.0545 60.2844C26.7527 60.3425 27.2763 60.2298 27.7178 59.6768C28.0093 59.307 28.3252 58.9548 28.6289 58.5955C28.7955 58.529 28.9518 58.4388 29.0932 58.3279C31.2132 56.1395 33.328 53.9446 35.4375 51.7433C35.474 51.6949 35.5056 51.643 35.5318 51.5883L37.9543 48.864Z" fill="#7F56D9"/>
<path d="M59.5027 62.9011C60.6145 62.57 61.5971 62.2478 62.5815 61.9889C66.4135 61.0167 70.3297 60.4205 74.2753 60.2085C78.6022 59.9248 82.9446 59.992 87.2608 60.4092C89.055 60.5853 90.5647 60.1151 91.591 58.5179C92.0954 57.7307 92.2368 56.8607 92.2368 55.9397C92.2298 46.0391 92.2298 36.1378 92.2368 26.236C92.2368 21.9197 92.2455 17.6069 92.2263 13.287C92.2263 12.7887 92.3642 12.5316 92.8319 12.322C93.647 11.9557 94.4028 11.4591 95.2056 11.0628C96.951 10.2087 98.4363 10.5433 99.4207 11.9733C100.388 13.3821 100.161 15.1432 98.7941 16.3971C97.3507 17.7161 96.6857 19.2887 96.6996 21.2822C96.7415 33.2914 96.7415 45.2994 96.6996 57.3063C96.6996 59.3156 97.3716 60.9182 98.8517 62.2372C99.4009 62.7023 99.7815 63.3383 99.9334 64.0454C100.085 64.7524 100 65.4904 99.6912 66.1432C99.0978 67.4288 97.6753 68.1878 96.2127 68.0011C94.8443 67.825 93.7256 66.6786 93.5022 65.1535C93.4411 64.7344 93.2404 64.6058 92.8808 64.553C90.0883 64.1374 87.2957 63.6566 84.4926 63.3079C79.4043 62.6616 74.2795 62.3516 69.151 62.3798C66.0408 62.4027 62.9306 62.4961 59.8587 63.0702C59.7854 63.079 59.7121 63.0068 59.5027 62.9011Z" fill="#7F56D9"/>
<path d="M72.8529 18.3996L71.8981 19.7098L68.2888 23.9363L67.3602 24.7076L62.941 21.7632C63.1312 21.4779 63.3005 21.1767 63.5135 20.9091C64.627 19.5002 65.7632 18.1231 66.8628 16.7107C67.0578 16.4597 67.1618 16.149 67.1578 15.8302C67.1479 15.6114 67.0584 15.404 66.9064 15.2477C66.7544 15.0914 66.5505 14.9972 66.334 14.9831C65.833 14.9232 65.484 15.1469 65.2501 15.5995C64.3809 17.2807 63.503 18.959 62.6164 20.6343C62.4749 20.8487 62.3117 21.0476 62.1294 21.2278L57.7468 18.3573C57.8306 17.9857 57.9126 17.6141 57.9964 17.2425C58.8225 15.5742 59.6475 13.9059 60.4713 12.2376C60.4818 12.1794 60.4818 12.1198 60.4713 12.0615L62.4994 9.1558C64.4996 6.57234 66.8104 4.32876 69.5995 2.61702C70.3238 2.17324 71.1075 1.82631 71.8685 1.43359C71.9889 1.44416 72.1093 1.45825 72.2298 1.46001C73.3236 1.45745 74.3903 1.80313 75.2781 2.44784C76.1659 3.09256 76.8295 4.00344 77.1744 5.05079C77.1313 5.77752 77.0883 6.50542 77.0452 7.23449C76.7817 9.64713 76.0399 11.9242 75.1253 14.1519C75.0485 14.3386 74.9996 14.5358 74.9386 14.7295L72.8529 18.3996ZM65.6585 9.94651C65.6536 10.5416 65.7666 11.1317 65.9908 11.6822C66.2151 12.2326 66.5462 12.7323 66.9645 13.1518C67.3829 13.5713 67.8802 13.9022 68.4271 14.125C68.974 14.3479 69.5595 14.4582 70.1493 14.4495C72.5212 14.4495 74.5127 12.4349 74.5493 10.0187C74.5485 8.83772 74.0866 7.7046 73.2637 6.86474C72.4408 6.02489 71.3232 5.54592 70.1528 5.53156C69.5688 5.51774 68.988 5.6216 68.4443 5.83708C67.9006 6.05256 67.405 6.37532 66.9865 6.78646C66.568 7.19759 66.2349 7.68885 66.0069 8.23146C65.7789 8.77408 65.6604 9.35714 65.6585 9.94651Z" fill="#F4F2F4"/>
<path d="M49.917 44.4507C49.917 49.3165 49.9083 54.1823 49.9344 59.048C49.9344 60.1593 50.0793 61.2705 50.1578 62.3817C50.0339 62.4609 49.8629 62.512 49.7965 62.6247C49.1124 63.7888 47.9151 64.2097 46.7143 63.5915C43.8866 62.1056 40.9002 60.9499 37.813 60.1469C37.7798 60.1469 37.7519 60.0994 37.6855 60.0465C37.7295 59.945 37.7827 59.8477 37.8444 59.756C41.811 54.7076 45.7805 49.6622 49.7529 44.6197C49.8045 44.5604 49.8593 44.504 49.917 44.4507Z" fill="#E0D7F9"/>
<path d="M57.9912 17.2424C57.9074 17.614 57.8254 17.9856 57.7416 18.3572L57.4676 18.6654C57.0941 18.8661 56.7049 19.044 56.3488 19.2765C55.5617 19.7889 55.258 20.8896 55.6751 21.6327C55.9194 22.0652 56.3192 22.3861 56.7917 22.5291C57.2642 22.6721 57.7731 22.626 58.2129 22.4006C58.4686 22.2902 58.7302 22.1944 58.9965 22.1135L58.0942 23.2916C57.6648 23.2283 57.2512 23.2582 57.0557 23.7143C56.7939 24.3201 57.2041 24.6653 57.6579 24.9735C57.6328 25.0771 57.5946 25.1771 57.5444 25.2711C55.1486 28.313 52.7488 31.3602 50.3448 34.4127C50.303 34.4566 50.2568 34.4962 50.2069 34.5307C50.1127 34.3546 49.9416 34.1785 49.9382 34.0024C49.9155 33.0056 49.9382 32.0089 49.9382 31.0086L50.7899 30.0259L49.9172 29.0573C49.9172 24.9241 49.9085 20.7927 49.9172 16.6613C49.9172 16.1858 50.0656 15.7138 50.1458 15.2384L50.2558 14.9865L50.3902 14.7523V14.7435L50.4984 14.5973C51.125 14.1219 51.7202 13.5847 52.3886 13.1885C55.5319 11.3399 58.9352 9.98373 62.482 9.16626L60.4557 12.0702C60.028 12.0702 59.6004 12.0544 59.1746 12.0702C55.8584 12.1671 52.7953 14.3983 51.687 17.5295C51.6189 17.7197 51.577 17.9204 51.4741 18.2955C53.6156 16.767 55.6856 16.1224 57.9912 17.2424Z" fill="#E0D7F9"/>
<path d="M61.0436 27.3138C61.194 27.3565 61.3405 27.4119 61.4817 27.4794C62.2689 27.9425 62.597 27.8456 62.9932 27.0162C63.0747 27.0186 63.1564 27.0157 63.2375 27.0074C65.1871 26.6411 67.1384 26.2801 69.0845 25.8909C69.2346 25.8609 69.3498 25.6426 69.4807 25.5105C70.2678 26.7432 70.3254 28.0852 70.0758 29.4746C68.697 29.6965 67.3094 29.8761 65.9428 30.1491C63.2428 30.6915 60.6439 31.5421 58.2423 32.9333C58.04 33.0246 57.8296 33.0965 57.614 33.1482C58.4378 31.771 59.2669 30.3957 60.0854 29.015C60.4171 28.455 60.7242 27.8809 61.0436 27.3138Z" fill="#B5A2E9"/>
<path d="M77.176 5.04899C76.8311 4.00163 76.1675 3.09075 75.2797 2.44604C74.392 1.80133 73.3252 1.45564 72.2314 1.4582C72.111 1.4582 71.9905 1.44236 71.8701 1.43179C73.3205 0.949261 74.7657 0.456166 76.2335 0.00533724C76.3696 -0.036928 76.7309 0.170878 76.7431 0.290629C76.9072 1.87381 77.0364 3.46228 77.176 5.04899Z" fill="#DE68A3"/>
<path d="M50.1562 62.3782L50.2941 62.7198C50.2488 62.6053 50.2034 62.4926 50.1562 62.3782Z" fill="#C7A0C9"/>
<path d="M50.0515 44.2341C50.0079 44.3046 49.966 44.375 49.9224 44.4437C49.9625 44.375 50.0079 44.3046 50.0515 44.2341Z" fill="#C7A0C9"/>
<path d="M50.5228 14.5886C50.4861 14.6362 50.4512 14.6855 50.4146 14.7348C50.4512 14.689 50.4861 14.6362 50.5228 14.5886Z" fill="#C8A1CB"/>
<path d="M50.1633 44.0808C50.1319 44.1213 50.1005 44.1601 50.0708 44.2006L50.1633 44.0808Z" fill="#C7A0C9"/>
<path d="M21.9671 25.4312C22.7298 24.3552 23.3826 23.1771 24.2779 22.2279C25.8994 20.5056 27.9868 19.6233 30.3396 19.3979C30.6886 19.3644 31.0255 19.3169 31.3676 19.2764L31.968 19.2887L34.5389 19.898C34.4045 20.0953 34.284 20.3048 34.1322 20.4862C33.6086 21.1079 33.0745 21.7189 32.5422 22.3336C32.1338 22.802 32.0517 23.3638 32.3554 23.8621C32.7045 24.4292 33.2805 24.2055 33.7919 24.0594C33.8289 24.0447 33.8668 24.0324 33.9053 24.0224C34.4027 23.9608 34.9002 23.8463 35.3958 23.8569C35.9561 23.8727 36.3523 24.4045 36.3732 24.9787C36.4029 25.8275 35.8496 26.2959 35.2772 26.7784C33.8809 27.9636 32.6748 29.302 31.858 30.9557C31.2838 32.118 31.5438 32.7167 32.7307 33.1711L30.0271 34.8088C29.9748 33.9283 29.5856 33.6694 28.8054 34.0216C28.6029 34.1132 28.4301 34.3069 28.2224 34.3457C27.8646 34.4108 27.3829 34.5376 27.1525 34.3668C26.9222 34.196 26.8488 33.6465 26.9518 33.3472C27.2002 32.6819 27.5142 32.0436 27.8891 31.4417C28.4127 30.5524 29.0515 29.7229 29.5227 28.8001C29.6763 28.5043 29.5978 27.8368 29.3761 27.6643C29.1545 27.4917 28.5383 27.5692 28.2242 27.7576C27.1246 28.4127 26.0966 29.1876 25.0058 29.8585C24.7684 30.0047 24.3844 29.9131 24.0685 29.9307C24.0685 29.6067 23.9969 29.2703 24.0685 28.9621C24.1244 28.6945 24.3652 28.4726 24.4595 28.2084C24.6811 27.5868 24.3425 27.1342 23.7107 27.2909C23.215 27.4142 22.756 27.7153 22.2987 27.9707C21.9792 28.1683 21.6699 28.3823 21.3719 28.6117C21.3545 28.2243 21.3423 27.9812 21.3318 27.7312C21.5459 26.9645 21.7577 26.1979 21.9671 25.4312Z" fill="#E84A9A"/>
<path d="M31.9679 19.2834L31.3675 19.2711C31.0848 19.1549 30.8108 18.9717 30.5158 18.933C26.4823 18.3853 22.4243 18.373 18.3664 18.4276C18.1846 18.4415 18.0042 18.4704 17.8271 18.5138C16.7973 18.6899 15.71 17.8992 15.6122 16.8954C15.504 15.7666 16.2493 14.8914 17.3872 14.8667C19.8831 14.8121 22.3859 14.6571 24.8766 14.7663C29.4598 14.9688 34.0205 15.4584 38.3908 16.9712C40.1117 17.5682 41.7663 18.3642 43.4314 19.1091C43.6565 19.2095 43.7717 19.5511 43.9376 19.7818C43.0307 19.4695 42.0548 19.4219 41.1223 19.6444C39.9808 19.9016 38.8533 20.2291 37.7189 20.525C37.2441 20.3806 36.7746 20.2115 36.2912 20.1023C35.8356 19.9984 35.3644 19.9597 34.8949 19.8927L34.661 19.8399C33.8446 19.3707 32.9014 19.1758 31.9679 19.2834Z" fill="#B5A2E9"/>
<path d="M37.9544 48.8639L35.537 51.5795C34.2193 51.3488 32.9068 51.0776 31.5838 50.8997C29.9187 50.6743 28.2484 50.4682 26.5729 50.3573C24.55 50.2252 22.5202 50.1812 20.4921 50.1424C19.4798 50.1213 18.464 50.2041 17.4499 50.2182C16.5912 50.2287 15.7412 49.6018 15.6208 48.9044C15.5225 48.4376 15.6026 47.9505 15.845 47.5407C16.0874 47.1309 16.4742 46.8286 16.9281 46.6943C17.1377 46.6151 17.3576 46.5671 17.5808 46.5516C19.3838 46.534 21.185 46.534 22.9914 46.5305C23.7035 46.5305 24.4191 46.4935 25.1278 46.5446C26.8836 46.6749 28.6359 46.851 30.39 46.9972C30.7391 47.0254 31.0881 46.9972 31.425 46.9972C31.3839 47.263 31.3196 47.5247 31.233 47.7791C30.9974 48.3321 31.1108 48.5716 31.6658 48.4589C32.2209 48.3462 32.5385 48.5258 32.8876 48.9079C33.2367 49.2901 33.5264 49.2091 33.5735 48.7054C33.6381 48.001 34.0465 47.7175 34.6487 47.5766C35.5562 47.8425 36.4708 48.0908 37.3679 48.3867C37.5861 48.4694 37.7589 48.7037 37.9544 48.8639Z" fill="#B5A2E9"/>
<path d="M41.2356 32.3839C41.1329 32.4955 41.0492 32.6234 40.9878 32.7625C40.4921 34.8159 39.2163 36.3269 37.6716 37.6512C37.5809 37.7305 37.4971 37.8273 37.4203 37.9083C36.0694 38.7431 34.6853 39.4933 33.0866 39.7398L32.7218 39.8067L31.8613 39.9001H30.3953C30.3554 39.8968 30.3157 39.8909 30.2766 39.8825C29.4563 38.9209 29.0426 37.8502 29.4039 36.5735C29.8693 36.2776 30.3347 35.9806 30.8002 35.6824L31.1859 35.3654L34.0692 33.6043L34.4532 33.3543L34.6783 33.2063L35.4987 32.597L35.9821 32.2289L36.2387 32.0528L36.4987 31.8468C36.6174 31.7552 36.7361 31.6707 36.8478 31.5703L37.1079 31.3678L37.3295 31.1917L37.9526 30.644L38.3122 30.3464L38.9091 29.9519C39.0958 30.2812 39.4327 30.6088 39.4327 30.9399C39.4327 31.6672 39.6334 31.956 40.3647 31.9278C40.6579 31.9155 40.9529 31.9278 41.2479 31.9278L41.2356 32.3839Z" fill="#E74A9A"/>
<path d="M21.3388 27.7347C21.3492 27.9777 21.3614 28.2207 21.3789 28.6152C21.6769 28.3858 21.9862 28.1719 22.3057 27.9742C22.763 27.7188 23.222 27.4177 23.7177 27.2944C24.3495 27.1377 24.6881 27.5903 24.4664 28.2119C24.3722 28.4761 24.1313 28.698 24.0755 28.9657C24.0091 29.2739 24.0755 29.6102 24.0755 29.9342C24.3914 29.9166 24.7736 30.0082 25.0127 29.862C26.1036 29.1911 27.1316 28.4162 28.2312 27.7611C28.5453 27.5727 29.151 27.4881 29.3831 27.6678C29.6152 27.8474 29.6833 28.5078 29.5297 28.8037C29.0585 29.7212 28.4231 30.5506 27.8961 31.4452C27.5211 32.0471 27.2071 32.6854 26.9588 33.3507C26.8558 33.6501 26.9466 34.2136 27.1595 34.3703C27.3724 34.5271 27.8716 34.4144 28.2294 34.3492C28.4371 34.3105 28.6099 34.1167 28.8124 34.0252C29.5908 33.673 29.98 33.9283 30.0341 34.8106C28.9869 35.3283 27.9519 35.8972 26.8715 36.3462C26.0582 36.6861 25.182 36.8745 24.3338 37.1299C23.9463 36.7096 23.5583 36.2899 23.1696 35.8707L21.8432 33.5338L21.707 32.9298L21.4592 32.4226L21.3388 31.7534L21.0979 28.9762C21.1735 28.5618 21.2538 28.148 21.3388 27.7347Z" fill="#E367A6"/>
<path d="M31.8528 39.8984L32.7132 39.8069L33.078 39.7399C34.6768 39.4987 36.0608 38.7432 37.4117 37.9084C38.8237 38.3963 40.2479 38.8488 41.6407 39.3824C42.3389 39.6484 42.9846 40.0499 43.6426 40.4091C43.8538 40.5116 44.0308 40.674 44.152 40.8763C44.2732 41.0787 44.3333 41.3123 44.3251 41.5485L42.852 43.218L42.5885 43.5702L42.4523 43.7111C42.1643 43.6266 41.8484 43.5931 41.5953 43.4487C38.9442 41.9413 36.0608 41.1329 33.1042 40.5377C32.6068 40.4373 32.1059 40.3616 31.6067 40.2788V40.0305L31.8528 39.8984Z" fill="#B5A2E9"/>
<path d="M21.3386 27.7347C21.256 28.1491 21.1745 28.563 21.0942 28.9762C19.862 29.0185 18.6298 29.0784 17.3976 29.0977C16.9493 29.106 16.5148 28.9415 16.1825 28.6379C15.8501 28.3343 15.6449 27.9144 15.6086 27.4635C15.5126 26.1973 16.2928 25.5422 17.2649 25.4471C18.6298 25.3132 20.0104 25.3344 21.3857 25.3044C21.5846 25.3222 21.7808 25.363 21.9704 25.426C21.7586 26.1961 21.548 26.9657 21.3386 27.7347Z" fill="#B5A2E9"/>
<path d="M21.3386 31.7534C21.3805 31.9718 21.4242 32.1919 21.466 32.4103C20.4623 33.3682 19.7189 34.57 19.307 35.9007C18.7834 37.63 19.6282 38.8064 21.4172 38.6603C22.8677 38.5607 24.2984 38.2645 25.6706 37.7797C27.4247 37.1299 29.0671 36.1807 30.7583 35.3583L30.8019 35.6858C30.3365 35.9829 29.8711 36.2799 29.4057 36.5769L25.9533 38.2869L23.0543 39.2872L22.7995 39.3488L22.5674 39.4069L21.7086 39.5232L21.4591 39.569L20.4904 39.6553H20.1308L18.6787 39.3858C17.8951 38.8874 17.6647 38.1531 17.8252 37.2726C17.9073 36.8376 18.0626 36.4149 18.1743 35.987C19.0208 34.7736 19.8586 33.555 20.7173 32.3504C20.9055 32.1323 21.1135 31.9324 21.3386 31.7534Z" fill="#6D3193"/>
<path d="M37.7188 20.5267C38.8533 20.2291 39.9877 19.9015 41.1222 19.6462C42.0547 19.4236 43.0306 19.4712 43.9375 19.7835C44.969 20.5443 45.1714 21.2258 44.7194 22.5466C44.1801 24.1192 43.1905 25.4101 42.1363 26.6569C41.8745 26.9669 41.6138 27.278 41.3544 27.5903L39.0575 29.7194C39.0138 29.5944 38.9719 29.4676 38.9301 29.3425C39.7591 28.4497 40.6248 27.5815 41.4085 26.6534C42.2986 25.5968 43.098 24.4503 43.4505 23.0749C43.8293 21.5992 43.1137 20.62 41.5987 20.5285C40.1764 20.4527 38.7564 20.7157 37.4535 21.2963L36.9438 20.886L37.7188 20.5267Z" fill="#703193"/>
<path d="M41.2356 32.384C41.2461 32.2326 41.2583 32.0811 41.2688 31.9297C41.3851 30.9059 41.5015 29.8822 41.6178 28.8584C42.6406 29.1666 43.6197 29.5804 44.2359 30.4944C44.8083 31.3344 44.4401 32.4668 43.5098 32.9933C42.7698 33.4125 41.5986 33.1008 41.2356 32.384Z" fill="#B5A2E9"/>
<path d="M34.6436 47.5836C34.0414 47.7245 33.633 48.008 33.5684 48.7124C33.5213 49.2161 33.2193 49.2971 32.8825 48.915C32.5456 48.5328 32.2001 48.3567 31.6607 48.4659C31.1214 48.5751 30.9923 48.3391 31.2279 47.7861C31.3145 47.5317 31.3788 47.27 31.4199 47.0042C31.4112 46.9637 31.4042 46.9232 31.3937 46.8845L31.1755 46.0356C31.4799 46.0494 31.7849 46.0347 32.0866 45.9916C32.3557 45.9029 32.6144 45.7848 32.8581 45.6394C33.0483 45.5461 33.2351 45.4474 33.4236 45.3506C33.5126 45.5408 33.6627 45.7257 33.6766 45.9212C33.6767 46.1262 33.7403 46.3261 33.8586 46.4929C33.9769 46.6596 34.144 46.7849 34.3364 46.851C34.6715 46.976 34.9123 47.1821 34.6436 47.5836Z" fill="#6D3193"/>
<path d="M41.6163 28.8583C41.5 29.8809 41.3836 30.9047 41.2672 31.9296C40.9723 31.9296 40.6773 31.9173 40.3841 31.9296C39.6528 31.9578 39.4573 31.669 39.4521 30.9417C39.4521 30.6106 39.1117 30.283 38.9285 29.9537L39.0611 29.7177L41.358 27.5886L41.6163 28.8583Z" fill="#E067A7"/>
<path d="M18.1831 35.9818C18.0626 36.4098 17.9073 36.8324 17.834 37.2674C17.6734 38.1479 17.9038 38.877 18.6875 39.3807C18.6334 39.4617 18.5967 39.5867 18.5129 39.6184C17.0154 40.2383 15.5162 39.1957 15.6104 37.6038C15.6593 36.7479 16.4517 36.0734 17.5163 35.9906C17.738 35.9677 17.9614 35.9818 18.1831 35.9818Z" fill="#D1B0D3"/>
<path d="M25.9534 38.2871L29.4004 36.5876C29.0339 37.8644 29.4476 38.9351 30.2731 39.8967L29.9031 39.9196L29.678 39.8914L25.9534 38.2871Z" fill="#E067A7"/>
<path d="M25.9535 38.2871L29.6728 39.8914C29.0218 39.8914 28.3673 39.9284 27.718 39.9002C26.3654 39.8404 25.0127 39.747 23.6618 39.6695C23.3861 39.6537 23.0544 39.7382 23.0544 39.2874L25.9535 38.2871Z" fill="#D0AED2"/>
<path d="M49.9258 29.0503L50.7985 30.0189L49.9467 31.0015L49.0479 30.5472C49.0339 30.2513 49.0164 29.8657 49.0007 29.5346C49.3166 29.3655 49.6134 29.207 49.9258 29.0503Z" fill="#743A96"/>
<path d="M29.8909 39.9125L30.2609 39.8896C30.3 39.8981 30.3397 39.904 30.3796 39.9073L31.6013 40.0305V40.2753C31.1109 40.2313 30.6187 40.1961 30.1317 40.1327C30.0497 40.1203 29.9764 39.9883 29.8909 39.9125Z" fill="#D0AED2"/>
<path d="M22.5605 39.3999L22.7927 39.3418C22.756 39.4193 22.7176 39.4985 22.6792 39.576L22.5605 39.3999Z" fill="#D0AED2"/>
<path d="M75.3398 52.9196C72.8736 53.5553 70.5715 53.1397 68.4212 51.8048C68.0425 51.5724 67.6829 51.3082 67.3164 51.0581C66.3756 50.0684 65.5379 49.0048 64.9462 47.7615L64.7979 47.1891C65.4419 46.5657 66.2378 46.2963 67.1017 46.1642C67.4645 46.1209 67.8205 46.0315 68.1611 45.8983C68.8593 45.6024 68.8959 44.9491 68.2746 44.5335C68.039 44.375 67.751 44.2834 67.5468 44.0914C67.3426 43.8995 67.0563 43.586 67.093 43.387C67.1364 43.2385 67.2148 43.1028 67.3215 42.9915C67.4282 42.8802 67.56 42.7965 67.7056 42.7477C68.4607 42.6273 69.2241 42.5684 69.9885 42.5716C70.9188 42.5628 71.8491 42.6527 72.7811 42.6386C73.1947 42.6386 73.6084 42.4343 73.6765 41.9482C73.7445 41.4622 73.3902 41.1681 72.994 40.9656C72.5245 40.7243 72.0411 40.5042 71.5628 40.2788C70.8996 39.9653 70.2242 39.6782 69.5819 39.3296C69.4849 39.2689 69.4036 39.1859 69.3447 39.0873C69.2859 38.9887 69.2511 38.8773 69.2433 38.7625C69.2677 38.5864 69.5225 38.3786 69.7215 38.2993C69.9554 38.206 70.2556 38.287 70.4964 38.2025C70.8158 38.0915 71.2783 37.9506 71.3569 37.7147C71.4354 37.4787 71.1562 37.0472 70.9153 36.8341C70.5523 36.5224 70.0863 36.3322 69.6639 36.0892C71.6536 35.1347 73.7026 35.1435 75.7849 35.7106C76.1182 35.8004 76.4498 35.9025 76.7814 35.9994C78.1236 36.7443 79.3995 37.5843 80.3123 38.8541L81.0209 39.842L81.8936 42.3674C80.9755 42.2124 80.061 42.0151 79.1359 41.9165C78.6769 41.8637 78.1568 42.0486 78.0887 42.554C78.0451 42.8851 78.2877 43.2972 78.4971 43.6107C78.7345 43.9629 79.108 44.2094 79.3698 44.5458C79.547 44.7473 79.6559 45.0007 79.6803 45.2691C79.7048 45.5374 79.6437 45.8066 79.5059 46.0374C79.2372 46.5111 78.7729 46.6361 78.2842 46.5481C77.689 46.4407 77.1096 46.247 76.5249 46.0797C75.0117 45.6464 73.4775 45.3559 71.8979 45.5513C71.1387 45.6482 70.7041 46.0444 70.6273 46.5904C70.5505 47.1363 70.9258 47.7069 71.596 47.9992C72.1353 48.2352 72.7322 48.3602 73.2366 48.6525C74.1699 49.1766 75.0662 49.7651 75.9192 50.4136C76.49 50.8662 76.3975 51.4931 75.7971 51.7344C75.1967 51.9757 75.1443 52.3913 75.3398 52.9196Z" fill="#E6499A"/>
<path d="M75.3399 52.9195C75.1444 52.3912 75.1828 51.9914 75.7972 51.7413C76.4116 51.4913 76.4953 50.8731 75.9194 50.4206C75.0663 49.772 74.17 49.1836 73.2368 48.6595C72.7323 48.3672 72.1354 48.2421 71.5961 48.0062C70.9259 47.7121 70.5489 47.138 70.6275 46.5973C70.706 46.0567 71.1388 45.6552 71.8981 45.5583C73.4776 45.3575 75.0118 45.6481 76.525 46.0866C77.1097 46.2539 77.6891 46.4476 78.2843 46.5551C78.7643 46.6431 79.2286 46.5181 79.5061 46.0443C79.6438 45.8135 79.705 45.5443 79.6805 45.276C79.656 45.0077 79.5472 44.7543 79.3699 44.5527C79.1099 44.2164 78.7364 43.9663 78.4972 43.6176C78.2878 43.3077 78.0452 42.8956 78.0888 42.561C78.1552 42.0556 78.6753 41.8707 79.136 41.9235C80.0611 42.0292 80.9757 42.2193 81.8937 42.3743C81.9234 42.4131 81.9513 42.4536 81.9792 42.4923C82.0019 42.5768 82.0246 42.6684 82.0456 42.7459C82.063 42.9062 82.0822 43.0682 82.0997 43.2302L82.1625 43.7303V44.8275L82.1154 45.2043C82.0909 45.4068 82.0682 45.6076 82.0438 45.8101C82.0229 45.8947 82.0002 45.9862 81.9792 46.0637C81.9583 46.1835 81.9373 46.3032 81.9181 46.4159C81.4986 47.7937 80.8306 49.0815 79.9476 50.2145C78.8568 51.3064 77.6542 52.2327 76.1724 52.7258C75.8967 52.8103 75.6192 52.8543 75.3399 52.9195Z" fill="#6B2E91"/>
<path d="M69.6623 36.084C70.0847 36.327 70.5507 36.5172 70.9137 36.8289C71.1546 37.035 71.4286 37.477 71.3553 37.7094C71.282 37.9419 70.8143 38.0863 70.4949 38.1972C70.254 38.2818 69.9538 38.1972 69.7199 38.2941C69.521 38.3734 69.2661 38.5794 69.2417 38.7573C69.2495 38.8721 69.2843 38.9834 69.3432 39.082C69.402 39.1806 69.4833 39.2637 69.5803 39.3243C70.2226 39.6765 70.898 39.9601 71.5613 40.2735C72.0395 40.4989 72.523 40.7191 72.9925 40.9603C73.3887 41.1629 73.7464 41.4376 73.6749 41.943C73.6033 42.4484 73.1932 42.6263 72.7795 42.6333C71.8493 42.6474 70.919 42.5576 69.987 42.5664C69.2225 42.5632 68.4591 42.6221 67.704 42.7425C67.5584 42.7913 67.4266 42.8749 67.3199 42.9862C67.2132 43.0976 67.1349 43.2333 67.0914 43.3818C67.0548 43.5896 67.3393 43.8995 67.5452 44.0862C67.7512 44.2729 68.0374 44.3697 68.273 44.5282C68.8944 44.9438 68.849 45.5972 68.1596 45.893C67.8189 46.0263 67.463 46.1156 67.1001 46.159C66.2362 46.291 65.4403 46.5605 64.7963 47.1839C64.0807 45.3876 64.1261 43.5649 64.613 41.7246C64.6741 41.4886 64.7387 41.2527 64.8015 41.0202C65.5447 39.3014 66.7368 37.8186 68.2503 36.7303L69.6623 36.084Z" fill="#6B2E91"/>
<path d="M73.0151 25.4154C75.429 25.3766 77.841 25.3238 80.2549 25.3044C81.0839 25.3044 81.9147 25.359 82.7402 25.4312C83.777 25.5228 84.3896 26.3223 84.3599 27.4846C84.339 28.3511 83.5798 29.052 82.5483 29.0907C82.0665 29.1101 81.5813 28.9956 81.0979 28.9868C80.1432 28.9674 79.1867 28.9481 78.2337 28.9868C75.8688 29.0854 73.5056 29.2175 71.1406 29.339C72.0435 28.1859 72.6835 26.8463 73.0151 25.4154Z" fill="#B5A2E9"/>
<path d="M68.252 36.7355C66.7365 37.8231 65.5426 39.306 64.798 41.0254C62.6714 41.4906 60.6187 42.2497 58.698 43.2813C58.3241 43.482 57.9248 43.6302 57.5111 43.7216C57.1504 43.788 56.7781 43.7343 56.4503 43.5685C56.1226 43.4026 55.8572 43.1337 55.6942 42.8023C55.3451 42.0979 55.4237 41.1575 56.0293 40.7348C56.8817 40.1469 57.782 39.6332 58.7206 39.1992C61.4294 37.9295 64.3355 37.3149 67.2484 36.7531C67.5818 36.7169 67.9177 36.711 68.252 36.7355Z" fill="#B5A2E9"/>
<path d="M64.9463 47.7615C65.538 49.0048 66.3758 50.0685 67.3165 51.0582C65.1819 51.4614 63.0578 51.9176 61.0559 52.7946C60.1099 53.2084 59.1901 53.6839 58.2634 54.133C57.3907 54.5556 56.6576 54.4605 56.0241 53.8336C55.2282 53.0446 55.3137 51.6464 56.3051 51.0899C57.5859 50.3498 58.9195 49.707 60.2949 49.1668C61.8047 48.5927 63.3912 48.2211 64.9463 47.7615Z" fill="#B5A2E9"/>
<path d="M72.8528 18.3996L74.935 14.7278C76.9666 14.7278 78.9999 14.7278 81.0315 14.7454C81.6588 14.7568 82.285 14.8009 82.9078 14.8775C83.5361 14.9479 84.2709 15.6541 84.3529 16.2123C84.496 17.188 84.1452 18.0139 83.3581 18.2886C82.9217 18.4418 82.4191 18.4189 81.9461 18.4524C81.7244 18.4683 81.501 18.4242 81.2776 18.4242C79.2652 18.4242 77.2546 18.4137 75.2422 18.4242C74.6557 18.4242 74.071 18.5176 73.4863 18.5334C73.2707 18.514 73.058 18.4691 72.8528 18.3996Z" fill="#B5A2E9"/>
<path d="M73.0151 25.4155C72.683 26.8452 72.043 28.1836 71.1406 29.3356L70.0149 30.3623L69.9066 30.269C69.9625 30.0048 70.0201 29.7407 70.0812 29.4765C70.3308 28.0871 70.2732 26.7451 69.486 25.5124L68.2939 23.9274L71.9033 19.7009C72.6015 20.474 72.8563 21.4532 72.968 22.4341C73.0797 23.415 73.0012 24.4241 73.0151 25.4155Z" fill="#E74E9C"/>
<path d="M81.0192 39.8367L80.3106 38.8488C79.3926 37.5738 78.122 36.7355 76.7798 35.9941C76.9855 35.9271 77.198 35.8834 77.4133 35.8638C79.0767 35.8919 80.7382 35.9413 82.4016 35.98C83.4854 36.0064 84.4838 36.968 84.3808 37.9471C84.2778 38.9262 83.6495 39.6148 82.6756 39.6676C82.1206 39.6958 81.5708 39.7786 81.0192 39.8367Z" fill="#B5A2E9"/>
<path d="M79.939 50.2092C80.8194 49.0757 81.4851 47.7879 81.9025 46.4106C82.2516 46.4987 82.6006 46.5956 82.9497 46.673C83.9079 46.8826 84.4367 47.6733 84.346 48.7757C84.2814 49.5418 83.4733 50.218 82.6006 50.2198C81.728 50.2216 80.8291 50.2128 79.939 50.2092Z" fill="#B5A2E9"/>
<path d="M55.415 46.8669C54.8757 46.5605 54.4271 46.7612 53.9908 47.2033C53.6731 47.522 53.3834 47.3582 53.3799 46.9497C53.3987 46.685 53.3332 46.4213 53.1928 46.197C53.0524 45.9726 52.8446 45.7995 52.5997 45.7028C52.2105 45.5144 52.2315 45.1851 52.6381 45.0477C53.2158 44.854 53.4759 44.486 53.5632 43.8995C53.6295 43.454 53.9419 43.4029 54.1967 43.7322C54.558 44.2007 54.9385 44.4173 55.5511 44.2605C55.9473 44.1637 56.176 44.4455 55.9281 44.8065C55.5791 45.3207 55.5302 45.7786 55.8409 46.328C56.0276 46.6626 55.8566 46.8792 55.415 46.8669Z" fill="#6D3193"/>
<path d="M82.0368 42.7336C82.0158 42.649 81.9931 42.5575 81.9705 42.48C81.9931 42.5645 82.0158 42.649 82.0368 42.7336Z" fill="#C7A0C9"/>
<path d="M81.9705 46.0514C81.9914 45.9669 82.0141 45.8753 82.035 45.7979C82.0141 45.8824 81.9914 45.9669 81.9705 46.0514Z" fill="#C7A0C9"/>
<path d="M58.0977 23.2917L59 22.1136L59.2496 21.9709C59.7523 22.2668 60.2479 22.575 60.7593 22.8515C60.9662 22.9464 61.1804 23.0242 61.3999 23.0839H61.6617C61.7804 23.2917 61.8519 23.5541 62.023 23.6933C62.489 24.0701 62.9951 24.3977 63.4856 24.7499C63.2319 25.2712 62.9782 25.7913 62.7246 26.3102L58.0977 23.2917Z" fill="#E14A9A"/>
<path d="M62.7246 26.312C62.9771 25.793 63.2308 25.2729 63.4856 24.7517C63.7526 24.8961 64.0092 25.044 64.2867 25.1849C64.694 25.4196 65.1552 25.5421 65.6242 25.5403C66.0932 25.5384 66.5534 25.4122 66.9588 25.1743C67.1334 25.0792 67.2276 24.8608 67.3603 24.6988L68.2888 23.9275L69.4809 25.5124C69.35 25.6445 69.2348 25.8646 69.0847 25.8928C67.1386 26.282 65.1873 26.643 63.2377 27.0093C63.1566 27.0176 63.0749 27.0205 62.9934 27.0181L62.7246 26.312Z" fill="#E0D7F9"/>
<path d="M65.6584 9.94645C65.6603 9.35707 65.7788 8.77401 66.0068 8.2314C66.2348 7.68879 66.5678 7.19753 66.9864 6.78639C67.4049 6.37525 67.9005 6.05249 68.4442 5.83701C68.9879 5.62154 69.5687 5.51767 70.1527 5.53149C71.3237 5.54586 72.4418 6.02531 73.2648 6.86593C74.0878 7.70654 74.5493 8.84057 74.5492 10.0222C74.5195 12.4383 72.5211 14.4512 70.1492 14.453C69.5591 14.4617 68.9733 14.3513 68.4261 14.1282C67.879 13.9051 67.3816 13.5739 66.9632 13.154C66.5447 12.7341 66.2138 12.234 65.9897 11.6832C65.7656 11.1323 65.653 10.5419 65.6584 9.94645ZM73.1634 9.99223C73.1739 9.58657 73.1036 9.1829 72.9566 8.80518C72.8096 8.42746 72.5889 8.08336 72.3076 7.79331C72.0264 7.50326 71.6902 7.27316 71.3191 7.11666C70.9481 6.96015 70.5496 6.88043 70.1474 6.88222C69.7405 6.86833 69.3349 6.93683 68.9546 7.08366C68.5743 7.2305 68.227 7.4527 67.9332 7.73716C67.6394 8.02162 67.4051 8.36257 67.244 8.7399C67.0829 9.11723 66.9984 9.52329 66.9953 9.93412C66.9878 10.7631 67.3054 11.5616 67.8789 12.1553C68.4523 12.7491 69.2351 13.0901 70.0567 13.104C70.4647 13.1113 70.8701 13.036 71.2488 12.8825C71.6275 12.729 71.9719 12.5004 72.2616 12.2103C72.5512 11.9202 72.7803 11.5744 72.9352 11.1935C73.0901 10.8125 73.1677 10.404 73.1634 9.99223Z" fill="#E16AA8"/>
<path d="M57.9911 17.2425C55.6803 16.1225 53.6103 16.767 51.4932 18.2833C51.5961 17.9082 51.638 17.7074 51.7061 17.5172C52.8144 14.3826 55.874 12.1513 59.1937 12.058C59.6195 12.0456 60.0471 12.058 60.4748 12.058C60.4814 12.1168 60.4784 12.1762 60.466 12.2341C59.6457 13.9059 58.8207 15.5754 57.9911 17.2425Z" fill="#E74E9C"/>
<path d="M61.6563 23.0943H61.3945C61.5062 22.8619 61.6336 22.6365 61.7261 22.3899C61.871 22.0078 61.9932 21.6151 62.1241 21.2276C62.3064 21.0474 62.4696 20.8485 62.611 20.6341C63.4988 18.9612 64.3768 17.2829 65.2448 15.5993C65.4787 15.1467 65.8277 14.9231 66.3286 14.9829C66.5452 14.997 66.7491 15.0912 66.9011 15.2475C67.0531 15.4038 67.1426 15.6112 67.1525 15.83C67.1565 16.1489 67.0524 16.4595 66.8575 16.7105C65.7579 18.1194 64.6217 19.5071 63.5082 20.9089C63.2952 21.1766 63.1259 21.4777 62.9357 21.763C62.5133 22.2056 62.0869 22.6494 61.6563 23.0943Z" fill="#E36EAA"/>
<path d="M61.6562 23.0945C62.0844 22.6484 62.5109 22.2022 62.9356 21.7561L67.3548 24.7006C67.2222 24.8626 67.1227 25.081 66.9534 25.1761C66.548 25.414 66.0877 25.5402 65.6187 25.542C65.1497 25.5439 64.6885 25.4213 64.2813 25.1866C64.0125 25.0457 63.7472 24.8978 63.4801 24.7534C62.9897 24.4012 62.4835 24.0807 62.0175 23.6968C61.8517 23.5647 61.7802 23.3023 61.6562 23.0945Z" fill="#6D3193"/>
<path d="M62.1293 21.2276C61.9984 21.6151 61.8762 22.0078 61.7313 22.3899C61.6388 22.6312 61.5114 22.8566 61.3997 23.0943C61.1803 23.0346 60.9661 22.9568 60.7592 22.8619C60.2478 22.5801 59.7521 22.2719 59.2495 21.9813C58.0644 21.2012 57.2772 20.2045 57.4709 18.6759L57.7467 18.3677L62.1293 21.2276Z" fill="#6D3193"/>
<path d="M57.4675 18.6653C57.2738 20.1939 58.0609 21.1906 59.246 21.9708L58.9964 22.1134C58.7301 22.1943 58.4685 22.2902 58.2128 22.4005C57.773 22.6259 57.2641 22.672 56.7916 22.529C56.3191 22.3861 55.9193 22.0651 55.675 21.6327C55.2579 20.8895 55.5616 19.7888 56.3487 19.2764C56.7083 19.0439 57.0975 18.866 57.4675 18.6653Z" fill="#B5A2E9"/>
<path d="M36.9439 20.8843L37.4536 21.2929L37.9091 21.7402L38.4187 22.0255C38.5357 22.1858 38.6421 22.3583 38.7678 22.5063C39.6281 23.4419 40.315 24.5257 40.7959 25.7061C40.2461 26.4299 39.7487 27.1977 39.1343 27.8651C37.2517 29.9193 35.0975 31.7018 32.7324 33.1624C31.5386 32.701 31.2785 32.1058 31.8597 30.947C32.6765 29.2934 33.8913 27.9532 35.2788 26.7698C35.8443 26.2872 36.4046 25.8188 36.3749 24.97C36.354 24.3959 35.9578 23.864 35.3975 23.8482C34.9019 23.8323 34.4044 23.9521 33.907 24.0137C33.8684 24.0249 33.8305 24.0384 33.7936 24.0542C33.2822 24.2004 32.7045 24.424 32.3571 23.857C32.0534 23.3586 32.1355 22.8004 32.5439 22.3284C33.0762 21.7156 33.6103 21.0957 34.1339 20.4811C34.2857 20.305 34.4062 20.0901 34.5406 19.8929L34.668 19.8418L34.9019 19.8946L36.9439 20.8843Z" fill="#E367A6"/>
<path d="M32.7376 33.1622C35.1033 31.7018 37.2581 29.9193 39.1413 27.865C39.7521 27.1976 40.2531 26.4297 40.8029 25.7059C41.1345 25.0015 41.5499 24.3094 41.775 23.5645C41.8362 23.3932 41.8574 23.2099 41.8371 23.029C41.8168 22.848 41.7556 22.6742 41.658 22.521C41.5605 22.3678 41.4293 22.2392 41.2747 22.1453C41.12 22.0514 40.9461 21.9947 40.7662 21.9796C40 21.8774 39.1954 22.0042 38.4204 22.0306L37.9091 21.733C37.9893 21.6238 38.0469 21.4495 38.1482 21.4178C39.356 21.0392 40.5812 20.7134 41.8588 20.9124C42.9269 21.0885 43.372 21.814 43.1311 22.8742C42.8501 24.1069 42.1433 25.1072 41.3858 26.0758C39.5968 28.381 37.4081 30.2706 35.1025 32.0193C31.8684 34.4654 28.4108 36.5276 24.5344 37.7656C23.4873 38.0871 22.4015 38.2625 21.3073 38.2869C19.8255 38.3309 19.1308 37.3571 19.6806 35.9887C20.0855 34.9832 20.7418 34.0762 21.3073 33.1376C21.3753 33.0231 21.5708 32.9879 21.7069 32.9157L21.8431 33.5197C21.3073 34.2101 20.9215 34.9603 20.9041 35.8602C20.9041 36.6051 21.1711 37.1087 21.8553 37.1827C22.6704 37.2708 23.5064 37.1475 24.3337 37.1158C25.1819 36.8604 26.0581 36.672 26.8714 36.3321C27.9518 35.8831 28.9816 35.3142 30.034 34.7965L32.7376 33.1622Z" fill="#733092"/>
<path d="M34.6661 19.8417L34.5387 19.8928L31.9678 19.2835C32.9032 19.1753 33.8484 19.3708 34.6661 19.8417Z" fill="#C8A1CB"/>
<path d="M36.944 20.8842L34.9001 19.8945C35.3644 19.9615 35.8357 20.0002 36.2964 20.1041C36.7799 20.2133 37.2494 20.3823 37.7241 20.5267L36.944 20.8842Z" fill="#C8A1CB"/>
<path d="M21.707 32.9176C21.5709 32.9898 21.3754 33.025 21.3073 33.1395C20.7418 34.0781 20.0856 34.9851 19.6807 35.9906C19.1309 37.359 19.8255 38.3328 21.3073 38.2888C22.4013 38.2662 23.4871 38.0926 24.5345 37.7728C28.4109 36.5401 31.865 34.4726 35.1026 32.0265C37.4135 30.2778 39.6021 28.3882 41.3859 26.083C42.1381 25.1144 42.845 24.1124 43.1312 22.8814C43.3721 21.8248 42.927 21.0904 41.8589 20.9196C40.5813 20.7135 39.356 21.0464 38.1482 21.425C38.047 21.4567 37.9894 21.631 37.9091 21.7402L37.4536 21.2929C38.7569 20.7137 40.1767 20.4513 41.5988 20.5269C43.1138 20.6184 43.8294 21.5976 43.4506 23.0733C43.1016 24.4487 42.2987 25.5899 41.4086 26.6518C40.6249 27.5851 39.7592 28.4481 38.9302 29.3409L38.2215 29.9767L37.9597 30.2144L37.3349 30.7762L36.9056 31.153L36.8619 31.1706L36.2982 31.6479L36.0975 31.78L35.9753 31.8751L35.7519 32.0318L35.518 32.1903L35.2597 32.3946L34.4656 32.9933L34.4184 33.0127L34.0048 33.3403C33.1321 33.8791 32.2455 34.411 31.3867 34.9657C31.2803 35.0344 31.2541 35.2316 31.1913 35.3708L30.7619 35.3602C29.0707 36.1826 27.4283 37.1318 25.6742 37.7816C24.302 38.2664 22.8713 38.5626 21.4208 38.6622C19.6318 38.8083 18.7818 37.6319 19.3107 35.9026C19.7225 34.5719 20.4659 33.3701 21.4697 32.4122C21.543 32.5795 21.625 32.7486 21.707 32.9176Z" fill="#C63E96"/>
<path d="M31.1843 35.3708C31.2472 35.2317 31.2733 35.0345 31.3798 34.9658C32.2525 34.4111 33.1252 33.8792 34.0066 33.3403C34.0258 33.4284 34.0467 33.5164 34.0676 33.6027L31.1843 35.3708Z" fill="#7F2D91"/>
<path d="M38.2214 29.9766L38.93 29.3408C38.9719 29.4659 39.0138 29.5926 39.0575 29.7177L38.9248 29.9537L38.3279 30.3481L38.2214 29.9766Z" fill="#7F2D91"/>
<path d="M31.6065 40.0305L30.3848 39.9072H31.8509L31.6065 40.0305Z" fill="#C69CC8"/>
<path d="M37.335 30.7761L37.9598 30.2144C37.9598 30.3588 37.9598 30.5014 37.9685 30.6458L37.3454 31.1935L37.335 30.7761Z" fill="#7F2D91"/>
<path d="M34.4636 32.9933L35.2595 32.3945L35.4986 32.5953L34.6766 33.2046L34.4636 32.9933Z" fill="#703193"/>
<path d="M37.9684 30.6458C37.9684 30.5014 37.9684 30.3587 37.9597 30.2143L38.2215 29.9766C38.2564 30.0998 38.2931 30.2231 38.328 30.3481L37.9684 30.6458Z" fill="#703193"/>
<path d="M36.2981 31.6461L36.8618 31.1707C36.8618 31.3063 36.8618 31.4401 36.8618 31.5739C36.7449 31.6673 36.6262 31.7588 36.5128 31.8504L36.2981 31.6461Z" fill="#703193"/>
<path d="M34.0674 33.6026C34.0465 33.5146 34.0255 33.4265 34.0063 33.3403L34.4183 33.0127C34.4305 33.1254 34.4409 33.2399 34.4514 33.3526L34.0674 33.6026Z" fill="#703193"/>
<path d="M30.7515 35.3618L31.1808 35.3724L30.7951 35.6894C30.7811 35.5802 30.7637 35.4692 30.7515 35.3618Z" fill="#7F2D91"/>
<path d="M37.3349 30.7761L37.3453 31.1935L37.1237 31.3696L36.9055 31.1512L37.3349 30.7761Z" fill="#703193"/>
<path d="M35.5179 32.1902L35.7517 32.0317L35.9874 32.2272L35.5039 32.5953C35.5091 32.4597 35.5126 32.3241 35.5179 32.1902Z" fill="#703193"/>
<path d="M35.9751 31.8751L36.0973 31.78L36.2491 32.0565L35.9926 32.2326C35.9856 32.1093 35.9803 31.9931 35.9751 31.8751Z" fill="#703193"/>
<path d="M36.2493 32.0565L36.0974 31.78L36.2981 31.6479L36.5093 31.8505L36.2493 32.0565Z" fill="#7F2D91"/>
<path d="M35.5179 32.1902C35.5179 32.324 35.5092 32.4596 35.504 32.5952L35.2666 32.3945L35.5179 32.1902Z" fill="#7F2D91"/>
<path d="M36.9055 31.1531L37.1236 31.3714L36.8723 31.574C36.8723 31.4401 36.8723 31.3063 36.8723 31.1707L36.9055 31.1531Z" fill="#7F2D91"/>
<path d="M34.4516 33.3561C34.4411 33.2434 34.4307 33.1289 34.4185 33.0162L34.4656 32.9968L34.6768 33.2082L34.4516 33.3561Z" fill="#7F2D91"/>
<path d="M35.9752 31.875C35.9752 31.993 35.9857 32.1092 35.9927 32.2272L35.7571 32.0317L35.9752 31.875Z" fill="#7F2D91"/>
<path d="M24.3337 37.1177C23.5064 37.1494 22.6704 37.2727 21.8553 37.1846C21.1711 37.1106 20.9058 36.607 20.9041 35.8621H23.173C23.5582 36.2788 23.945 36.6974 24.3337 37.1177Z" fill="#D0AED2"/>
<path d="M23.1696 35.8585H20.9006C20.9181 34.9586 21.3038 34.2084 21.8396 33.5181C22.2841 34.3011 22.7274 35.0813 23.1696 35.8585Z" fill="#C69CC8"/>
<path d="M73.1636 9.99225C73.1678 10.404 73.0902 10.8125 72.9353 11.1935C72.7804 11.5745 72.5514 11.9202 72.2617 12.2103C71.9721 12.5005 71.6277 12.729 71.249 12.8825C70.8703 13.036 70.4649 13.1113 70.0568 13.104C69.2353 13.0901 68.4525 12.7491 67.879 12.1553C67.3056 11.5616 66.988 10.7632 66.9955 9.93413C66.9981 9.523 67.0823 9.11656 67.2431 8.73882C67.404 8.36109 67.6383 8.01971 67.9322 7.73488C68.226 7.45005 68.5734 7.22753 68.954 7.08048C69.3345 6.93343 69.7404 6.86482 70.1476 6.87871C70.5501 6.87691 70.9488 6.95674 71.3201 7.11346C71.6914 7.27019 72.0277 7.5006 72.3091 7.79103C72.5904 8.08146 72.811 8.42597 72.9578 8.80411C73.1046 9.18225 73.1746 9.58629 73.1636 9.99225Z" fill="#6B2E91"/>
<path d="M38.4187 22.0256C39.2024 21.9991 39.9895 21.8723 40.7645 21.9745C40.9443 21.9897 41.1183 22.0464 41.2729 22.1403C41.4276 22.2341 41.5588 22.3627 41.6563 22.5159C41.7538 22.6691 41.8151 22.8429 41.8354 23.0239C41.8557 23.2049 41.8344 23.3881 41.7733 23.5594C41.5481 24.3044 41.1327 24.9894 40.8011 25.7009C40.3202 24.5204 39.6333 23.4367 38.773 22.501C38.6421 22.3584 38.5356 22.1858 38.4187 22.0256Z" fill="#C69CC8"/>
</g>
<defs>
<clipPath id="clip0_810_3473">
<rect width="100" height="70" fill="white"/>
</clipPath>
</defs>
</svg>
