<svg width="241" height="241" viewBox="0 0 241 241" fill="none" xmlns="http://www.w3.org/2000/svg">
<path d="M93.715 127.921C96.348 128.573 99.0201 128.959 101.731 129.082C102.036 128.052 102.401 126.974 102.838 125.834C105.153 119.736 103.323 114.453 100.289 111.268C98.589 109.491 96.5169 108.355 94.5847 108.146C94.1322 108.074 93.6784 108.068 93.2234 108.127C92.7697 108.187 92.3323 108.31 91.9138 108.495C91.4954 108.682 91.111 108.924 90.7631 109.221C90.414 109.519 90.1152 109.859 89.8657 110.244C88.1515 112.851 87.8503 117.925 90.6131 126.222C90.8173 126.843 91.9718 127.421 93.7351 127.911M175.86 68.6813C175.352 67.7196 174.713 66.8562 173.944 66.0886C173.174 65.321 172.308 64.6858 171.345 64.1804C168.267 62.5784 163.976 62.1952 158.237 63.588C151.591 65.195 147.212 69.2195 145.207 73.3411C144.432 74.8674 144.012 76.4858 143.944 78.1962C143.909 78.8882 143.978 79.5688 144.153 80.2393C144.328 80.9099 144.599 81.5376 144.969 82.1236C145.939 83.5807 147.614 84.5273 150.013 84.6243C155.699 84.8575 159.767 84.1781 163.33 82.348C166.894 80.5166 170.005 77.4929 173.749 73.0789C174.814 71.7958 175.511 70.335 175.841 68.7002L175.86 68.6813ZM126.341 72.6226C126.878 71.5147 127.263 70.3551 127.497 69.1451C127.73 67.9351 127.804 66.715 127.719 65.4861C127.681 65.074 127.621 64.6656 127.545 64.2585C127.425 65.2202 127.235 66.168 126.976 67.1033C126.837 67.6301 126.645 68.1381 126.398 68.6246C126.152 69.1111 125.857 69.5674 125.514 69.9909C125.17 70.4156 124.787 70.7988 124.362 71.1416C123.937 71.4845 123.482 71.7794 122.996 72.0264C123.666 72.0869 124.331 72.1865 124.991 72.3226C125.452 72.4436 125.888 72.5205 126.316 72.6428L126.341 72.6226ZM109.348 87.7514C107.804 88.4472 106.293 89.0938 104.813 89.6924C106.334 90.4714 107.891 91.1684 109.484 91.786C109.879 91.941 110.272 92.086 110.664 92.2221C110.119 90.7701 109.678 89.2853 109.343 87.7703L109.348 87.7514ZM113.388 85.8772C112.315 86.3914 111.251 86.8918 110.208 87.367C110.583 89.1379 111.101 90.8672 111.76 92.5523L111.791 92.6305C114.314 93.4787 116.904 94.0094 119.559 94.2224C122.689 94.4417 125.544 94.0182 127.812 92.7666C131.506 90.7323 133.671 86.4544 132.977 79.0419C132.759 76.7543 130.185 74.7931 126.826 73.7003L126.583 74.1578C124.092 78.7205 119.525 82.9593 113.383 85.8961L113.388 85.8772ZM63.5368 96.9121C63.644 96.9411 63.7498 96.9751 63.862 96.9991C64.341 97.1251 64.8262 97.2108 65.3191 97.2575C64.7216 97.1554 64.1191 97.0432 63.5368 96.9121ZM57.633 86.4406C57.9834 82.9316 58.8607 79.5612 60.2648 76.327C55.784 78.9197 53.3615 82.3329 53.0653 85.62C53.0237 86.1028 53.0287 86.5843 53.0792 87.0657C53.1296 87.5485 53.2241 88.0199 53.3653 88.4837C53.5052 88.9475 53.6892 89.3937 53.9135 89.8223C54.1392 90.2508 54.4038 90.6542 54.7051 91.0335C55.8773 92.4754 57.3041 93.5909 58.988 94.3774C58.8708 94.1745 58.7598 93.9653 58.6578 93.7523C57.7162 91.7558 57.4099 89.2274 57.633 86.4406ZM121.893 60.6751C121.827 64.6013 121.052 68.3813 119.567 72.0164C119.971 71.9823 120.374 71.9584 120.781 71.9483C123.398 71.1807 125.423 69.4867 126.122 66.8839C126.595 65.161 126.774 63.4065 126.656 61.6217C126.014 60.2995 125.167 59.1248 124.116 58.0976C123.229 57.2304 122.258 56.4691 121.203 55.815C121.684 57.3993 121.914 59.0202 121.893 60.6751ZM117.621 75.9388C115.829 78.7835 113.057 80.954 109.78 82.5509C109.721 83.8555 109.804 85.1499 110.027 86.4355C110.999 85.9881 111.97 85.5318 112.989 85.0516C118.951 82.1967 123.374 78.1042 125.752 73.7393L125.904 73.4583C125.549 73.3663 125.194 73.2831 124.831 73.21C123.541 72.9465 122.238 72.8255 120.922 72.847C120.728 72.8999 120.534 72.9478 120.335 72.9919C119.911 73.089 119.484 73.1633 119.053 73.215C118.638 74.1565 118.161 75.064 117.621 75.9388ZM109.882 81.4733C112.795 79.9784 115.223 77.992 116.844 75.4485C117.272 74.7628 117.657 74.0545 117.999 73.3222C117.756 73.3222 117.514 73.3222 117.266 73.3222C116.288 73.5516 115.364 73.9183 114.494 74.42C113.625 74.9229 112.847 75.5405 112.159 76.274C111.522 77.0038 111.009 77.8118 110.621 78.6991C110.233 79.5864 109.987 80.5103 109.882 81.4733ZM96.9442 85.891C93.9381 86.1771 90.9345 86.1595 87.9335 85.8381C87.791 86.7204 87.5125 87.5573 87.0978 88.3476C85.9521 90.4701 83.7728 91.849 79.7231 93.9842C77.7253 95.0517 75.6633 95.9756 73.5382 96.7571C81.1121 96.4369 90.8022 94.3295 102.668 89.6156C100.676 88.5026 98.768 87.2611 96.9442 85.891ZM102.833 84.9545C101.324 85.3049 99.8015 85.5721 98.2638 85.7562C100.023 87.0015 101.852 88.1346 103.75 89.1543C105.507 88.4383 107.312 87.6632 109.164 86.8288C108.928 85.5444 108.822 84.25 108.848 82.9442C106.905 83.8013 104.9 84.4718 102.833 84.9545ZM70.9065 74.759C70.8094 74.5069 70.7275 74.2498 70.6494 73.9965C70.2612 73.9965 69.878 73.9965 69.4986 74.0267C66.4887 74.1528 63.673 74.6569 61.5655 75.6476C59.9459 79.1024 58.9401 82.7274 58.5506 86.5225C58.3427 89.1543 58.6187 91.5238 59.4884 93.3678C59.7858 94.0031 60.1677 94.5829 60.6341 95.1059L60.8471 95.1841C63.9074 96.2315 67.0559 96.7684 70.2901 96.7962C73.4412 95.9605 76.4422 94.7543 79.2958 93.1788C83.1804 91.1344 85.2576 89.8286 86.2873 87.9253C86.6491 87.2359 86.8911 86.5061 87.0159 85.736C85.0975 85.499 83.2245 85.0655 81.3982 84.4352C75.7616 82.3959 72.4114 78.8856 70.9065 74.7452V74.759ZM71.6111 73.9965C71.659 74.1477 71.7132 74.2977 71.7661 74.4439C73.1878 78.3273 76.359 81.6485 81.7045 83.5756C83.4804 84.1832 85.3017 84.5991 87.1659 84.8235C87.3083 82.7828 87.3083 80.7422 87.1659 78.7016C87.1583 78.5289 87.1129 78.3676 87.0297 78.2164C86.3983 77.0026 83.9468 75.8858 80.7188 75.0893C77.7304 74.3847 74.7003 74.0154 71.63 73.9826L71.6111 73.9965ZM70.5082 64.3896C70.6393 63.8262 70.7994 63.2628 70.9935 62.6994C70.4162 63.2136 69.8477 63.748 69.2805 64.3014C66.3476 67.2709 63.9704 70.6312 62.1479 74.3859C64.5187 73.5755 66.9551 73.1432 69.4595 73.089C69.7709 73.089 70.086 73.065 70.4023 73.06C70.0809 71.6282 69.9284 70.1787 69.9473 68.7115C69.965 67.2432 70.1515 65.7987 70.5082 64.3745V64.3896ZM72.3686 61.5007C71.9741 62.5103 71.6501 63.5438 71.3968 64.5975C71.0477 65.9878 70.8687 67.3995 70.8586 68.8326C70.8485 70.2656 71.0086 71.6798 71.3388 73.0751C74.5806 73.0953 77.7783 73.4784 80.9318 74.2246C84.4081 75.0792 87.0789 76.356 87.8402 77.8181C87.9826 78.0865 88.062 78.3739 88.0784 78.6777C88.217 80.7687 88.207 82.8597 88.0494 84.9495C90.6497 85.2205 93.2537 85.2621 95.8615 85.0755C90.627 80.891 86.9478 76.022 86.7966 71.7202C86.5155 63.5489 87.6852 57.6413 91.2773 54.1348C91.992 53.4492 92.7785 52.8605 93.6381 52.3677C94.4977 51.8749 95.4039 51.493 96.3568 51.222C93.7465 51.6228 91.1752 52.1938 88.6418 52.9362C85.666 53.7907 82.8073 54.9377 80.0672 56.3771C77.3258 57.8178 74.7596 59.5206 72.3686 61.4856V61.5007ZM112.135 48.2121C112.147 48.5726 112.103 48.9255 112.004 49.2709C112.962 49.2885 113.901 49.4284 114.821 49.6906C115.742 49.9528 116.614 50.3296 117.436 50.8199C118.128 51.2598 118.744 51.7892 119.285 52.4043C119.827 53.0206 120.272 53.6987 120.621 54.4411C122.136 55.2553 123.51 56.2612 124.743 57.4611C125.271 57.9816 125.757 58.54 126.2 59.1362C124.058 51.4892 115.077 47.1294 106.391 43.6633L106.027 43.9255C108.255 44.3376 109.746 44.9451 110.688 45.6585C110.898 45.7997 111.09 45.9636 111.264 46.1488C111.436 46.3341 111.585 46.537 111.71 46.7576C111.836 46.9782 111.934 47.2101 112.006 47.4534C112.078 47.6966 112.121 47.9449 112.135 48.1983V48.2121ZM111.052 49.2369C111.17 48.9104 111.226 48.5739 111.217 48.2273C111.193 47.8504 111.086 47.4987 110.894 47.1723C110.704 46.8458 110.451 46.5786 110.134 46.3719C109.164 45.6484 107.581 45.0472 105.09 44.6729C104.674 45.0422 104.287 45.4405 103.929 45.8678C102.989 46.9883 102.282 48.2411 101.808 49.6251C104.828 49.373 107.911 49.2608 111.052 49.2369ZM111.285 50.8199C111.202 50.951 111.11 51.0821 111.013 51.2081C113.82 51.6921 116.525 52.5152 119.126 53.6748C118.54 52.829 117.814 52.132 116.946 51.5812C116.145 51.1111 115.296 50.7544 114.398 50.5124C113.501 50.2717 112.588 50.1532 111.66 50.1595C111.549 50.3876 111.424 50.6069 111.285 50.8199ZM109.993 51.0329C110.18 50.8061 110.352 50.5704 110.514 50.3246L110.615 50.1595C108.323 50.1784 106.058 50.2578 103.818 50.3977C105.887 50.4784 107.943 50.6914 109.984 51.0329H109.993ZM106.469 54.7575C104.647 55.1091 102.824 55.1091 101.003 54.7575C100.896 61.7629 103.989 66.618 108.042 69.4527C109.896 70.7383 111.928 71.6156 114.135 72.0844C115.126 72.2949 116.128 72.4071 117.14 72.4197L117.684 72.2924C117.955 72.2395 118.233 72.1865 118.514 72.1424C119.284 70.3274 119.872 68.4569 120.281 66.5285C120.689 64.6001 120.908 62.6502 120.941 60.6802C120.971 58.8387 120.655 57.059 119.995 55.3398C119.961 55.2516 119.922 55.1595 119.884 55.0726C116.854 53.545 113.662 52.5228 110.31 52.0085C108.974 53.5097 107.183 54.6453 106.469 54.7575ZM101.032 53.8248C102.332 54.1651 104.076 54.2079 106.328 53.8538C106.857 53.7668 108.134 52.9652 109.241 51.8484C106.622 51.4174 103.986 51.2434 101.333 51.3291C101.173 52.0967 101.071 52.8719 101.027 53.6546L101.032 53.8248ZM98.0798 53.1202C97.7634 52.7534 97.5189 52.3413 97.3462 51.8875C96.3278 52.1194 95.3586 52.4824 94.4372 52.9765C93.5171 53.4706 92.6789 54.0794 91.9239 54.8003C88.5246 58.1064 87.4431 63.7921 87.7192 71.7C87.8654 75.9589 91.7437 80.838 97.1761 84.9734C99.0113 84.7919 100.826 84.4958 102.624 84.0861C104.789 83.592 106.883 82.8875 108.907 81.9737C108.979 80.8153 109.234 79.6999 109.673 78.626C110.113 77.5521 110.713 76.5766 111.474 75.7006C112.465 74.6166 113.633 73.7797 114.979 73.1911C114.644 73.1381 114.3 73.0789 113.965 73.007C111.642 72.5029 109.505 71.5714 107.557 70.2102C103.187 67.1852 99.915 61.957 100.109 54.4802C99.315 54.2029 98.6382 53.7491 98.0798 53.1202ZM98.255 51.6644C98.3873 51.9707 98.5625 52.2505 98.7793 52.5039C99.1562 52.9274 99.6062 53.2513 100.128 53.4756C100.177 52.7648 100.267 52.0589 100.395 51.3581C99.6755 51.4287 98.9621 51.5371 98.255 51.6833V51.6644ZM97.0702 49.0427C97.3475 47.321 97.9512 45.7215 98.8802 44.2456C97.7937 44.2456 96.6228 44.2456 95.3611 44.2897C87.5301 44.5368 80.6508 48.9117 76.1889 54.7323C74.9978 56.2826 73.9806 57.9375 73.1349 59.6996C75.4188 57.9652 77.8426 56.4565 80.4062 55.1709C82.9699 53.8853 85.6294 52.8454 88.3847 52.0526C91.2168 51.2296 94.0918 50.6094 97.0122 50.1935C97.0022 49.8078 97.0211 49.4247 97.0702 49.0427ZM99.949 44.2847C99.8759 44.4057 99.7978 44.5229 99.7309 44.6439C98.8323 46.0354 98.2487 47.5492 97.9828 49.1839C97.9412 49.4801 97.9235 49.7776 97.9298 50.0763C98.9003 49.9502 99.8709 49.8393 100.814 49.7461C101.322 48.1012 102.131 46.6202 103.24 45.3044C103.464 45.0371 103.697 44.7851 103.934 44.5418C102.765 44.3868 101.444 44.2847 99.949 44.2847ZM101.755 41.8571C101.323 42.3424 100.92 42.8667 100.555 43.3822C101.974 43.4251 103.387 43.5398 104.794 43.7263C104.983 43.5662 105.177 43.4112 105.381 43.2411L102.469 42.1193L101.755 41.8571ZM132.676 40.1921C126.932 37.0461 120.432 34.8227 115.116 34.8227C110.383 34.8227 105.697 37.6284 102.411 41.1336L102.813 41.2899C103.95 41.7311 105.114 42.1773 106.285 42.6386C108.129 41.4929 110.108 40.6711 112.222 40.1732C115.917 39.2455 120.243 39.0124 124.845 39.2934C127.47 39.4535 130.081 39.7484 132.676 40.177V40.1921ZM143.546 46.9895C144.774 46.1728 146.036 45.3825 147.314 44.6489C144.114 43.6494 140.798 42.7558 137.478 42.0323C138.658 42.8327 139.774 43.6582 140.808 44.5027C141.765 45.2817 142.677 46.1085 143.546 46.9845V46.9895ZM143.414 48.1693C141.794 49.2608 140.226 50.3977 138.716 51.4842L137.259 52.524C134.725 54.3441 133.808 56.6166 134.031 58.4858C134.079 58.9257 134.196 59.3454 134.382 59.7462C134.569 60.147 134.816 60.5062 135.123 60.8251C135.444 61.149 135.81 61.4074 136.223 61.6028C136.635 61.7969 137.067 61.9154 137.521 61.957C139.74 62.199 142.784 60.8982 146.051 56.9027C146.315 56.5838 146.515 56.2296 146.652 55.8402C146.791 55.4507 146.857 55.0486 146.853 54.6352C146.853 53.2954 146.201 51.7715 145.066 50.1784C144.56 49.4725 144.009 48.802 143.414 48.1693ZM148.518 45.0182C147.061 45.8236 145.605 46.7173 144.192 47.6487C144.776 48.2815 145.319 48.947 145.823 49.6452C147.071 51.3922 147.765 53.0962 147.765 54.6352C147.772 55.1545 147.687 55.6587 147.513 56.1477C147.341 56.6368 147.087 57.0817 146.756 57.48C143.254 61.7578 139.909 63.1418 137.415 62.8695C136.855 62.8166 136.322 62.6691 135.814 62.4296C135.306 62.1889 134.854 61.87 134.458 61.4717C134.08 61.0785 133.776 60.6361 133.544 60.1432C133.313 59.6504 133.169 59.1336 133.108 58.5929C132.846 56.4225 133.871 53.8147 136.71 51.7955L138.167 50.7569C139.623 49.6881 141.177 48.5865 142.759 47.5139C141.95 46.7047 141.102 45.9396 140.216 45.2174C138.556 43.8675 136.81 42.6386 134.982 41.5269C131.612 40.8639 128.214 40.419 124.787 40.1921C120.267 39.9148 116.048 40.1429 112.431 41.0467C110.639 41.4727 108.941 42.1394 107.338 43.0469C116.99 46.9303 126.821 51.9846 127.555 61.4427C128.131 62.7107 128.479 64.0392 128.598 65.4282C128.692 66.7163 128.618 67.9944 128.38 69.2624C128.142 70.5316 127.745 71.7492 127.19 72.9138C130.822 74.1187 133.608 76.3522 133.855 78.9827C134.594 86.8137 132.235 91.3928 128.224 93.601C125.796 94.9408 122.763 95.3933 119.46 95.1639C117.02 94.9723 114.632 94.5098 112.295 93.7762C112.819 94.7518 113.452 95.6517 114.193 96.4748C118.922 101.816 128.384 105.778 138.021 107.894C147.658 110.01 157.44 110.269 162.854 108.205C163.821 107.86 164.695 107.358 165.481 106.699C171.51 101.359 176.279 91.4066 177.516 82.285C178.055 78.3184 177.923 74.517 176.934 71.337C176.788 70.8505 176.623 70.4194 176.447 69.982C176.02 71.3383 175.348 72.5596 174.433 73.6473V73.6713C170.613 78.1823 167.437 81.2603 163.753 83.1635C160.033 85.0705 155.83 85.7801 149.979 85.5419C147.255 85.431 145.333 84.3231 144.206 82.6291C143.781 81.9661 143.466 81.254 143.259 80.4939C143.053 79.7326 142.966 78.96 142.997 78.1722C143.072 76.3371 143.522 74.599 144.347 72.9579C146.46 68.6221 151.048 64.3984 157.995 62.7145C163.981 61.2574 168.485 61.6797 171.749 63.3787C172.62 63.8325 173.419 64.3883 174.147 65.0463C174.876 65.7042 175.51 66.4428 176.05 67.2633C176.13 66.2878 176.091 65.316 175.933 64.3505C175.798 63.53 175.592 62.7271 175.314 61.9431C175.037 61.1591 174.693 60.4054 174.282 59.6819C173.872 58.9584 173.401 58.2753 172.87 57.635C172.34 56.9947 171.757 56.4061 171.122 55.8692H171.093C167.02 52.4068 158.388 48.2222 148.518 45.0271V45.0182ZM160.295 41.4588C156.669 41.4588 153.082 42.6676 149.614 44.4258C159.267 47.6298 167.646 51.7426 171.671 55.1066L171.699 55.1306C172.379 55.704 173.003 56.333 173.57 57.0161C174.137 57.7006 174.641 58.4291 175.08 59.2017C175.519 59.9743 175.885 60.7797 176.182 61.6179C176.478 62.4561 176.697 63.3132 176.841 64.1904C177.081 65.6487 177.07 67.1045 176.808 68.559C177.216 69.3657 177.555 70.2001 177.823 71.0647C178.851 74.3759 178.992 78.3084 178.434 82.406C177.171 91.723 172.287 101.908 166.097 107.389C165.229 108.125 164.257 108.682 163.184 109.064C157.631 111.19 147.648 110.943 137.832 108.793C128.015 106.641 118.378 102.578 113.509 97.0823C112.507 95.9794 111.697 94.7492 111.081 93.393C110.431 93.1737 109.78 92.9405 109.139 92.6885C107.275 91.9612 105.46 91.1281 103.692 90.1878C89.7043 95.8445 78.6215 97.8927 70.3922 97.6885C67.6634 98.325 65.4249 98.349 63.6288 97.8789C62.9596 97.7125 62.3243 97.4579 61.7256 97.115C61.1269 96.771 60.5862 96.3525 60.1047 95.8584C57.3419 94.7808 55.3076 93.296 53.9829 91.5768C53.6451 91.1558 53.3514 90.7071 53.1006 90.2294C52.8485 89.7529 52.6443 89.2563 52.488 88.7396C52.3317 88.2241 52.2246 87.6985 52.1679 87.1615C52.1112 86.6259 52.1061 86.0889 52.1515 85.552C52.4968 81.7354 55.4046 77.784 60.7942 75.0023L60.871 74.9683C62.7881 70.7333 65.377 66.9621 68.639 63.651C69.6108 62.6805 70.6027 61.7793 71.6148 60.9474C72.598 58.5148 73.8924 56.2624 75.4994 54.189C80.0773 48.1693 87.1999 43.6293 95.3321 43.3721C96.827 43.323 98.2008 43.3116 99.4537 43.3381C99.8835 42.7029 100.345 42.0915 100.838 41.5029C95.8413 39.6892 90.7228 38.3405 85.4807 37.4545C80.9369 36.726 76.4851 36.5167 73.087 37.3272H73.0618L72.3043 37.4053L72.2072 36.4928L72.9017 36.4197C76.441 35.5891 80.9898 35.7983 85.6319 36.5407C91.0492 37.4583 96.3354 38.8649 101.493 40.7605C104.944 36.968 109.998 33.8812 115.121 33.8812C121.282 33.8812 128.981 36.794 135.342 40.6484C139.766 41.5281 144.123 42.66 148.416 44.0465C152.217 42.0033 156.213 40.5564 160.3 40.5564L160.295 41.4588ZM138.099 201.963C137.981 201.846 137.856 201.735 137.725 201.631C137.594 201.528 137.458 201.432 137.315 201.345C137.174 201.257 137.028 201.178 136.877 201.106C136.725 201.035 136.57 200.973 136.413 200.919C136.254 200.866 136.094 200.822 135.93 200.787C135.768 200.753 135.602 200.726 135.437 200.711C135.271 200.695 135.105 200.689 134.937 200.691C134.771 200.694 134.604 200.706 134.439 200.729C134.274 200.75 134.11 200.782 133.947 200.823C133.786 200.864 133.627 200.914 133.471 200.972C133.315 201.031 133.162 201.099 133.015 201.176C132.866 201.252 132.722 201.338 132.584 201.43C132.445 201.523 132.313 201.624 132.185 201.731C132.058 201.839 131.937 201.955 131.824 202.076C131.709 202.199 131.603 202.327 131.504 202.461C131.404 202.596 131.313 202.734 131.23 202.879C131.147 203.024 131.071 203.173 131.006 203.325C130.939 203.479 130.882 203.635 130.834 203.795C130.785 203.954 130.746 204.117 130.717 204.281C130.687 204.446 130.667 204.611 130.655 204.777C130.645 204.944 130.644 205.11 130.651 205.276C130.66 205.444 130.678 205.609 130.706 205.774C130.732 205.938 130.769 206.101 130.815 206.262C130.861 206.422 130.916 206.58 130.98 206.733C131.043 206.887 131.117 207.037 131.197 207.183C131.279 207.33 131.367 207.471 131.464 207.606C131.563 207.742 131.667 207.872 131.78 207.995C131.892 208.119 132.01 208.236 132.135 208.346C132.261 208.455 132.392 208.557 132.53 208.653C132.667 208.748 132.809 208.835 132.957 208.913C133.103 208.992 133.254 209.061 133.409 209.123C133.566 209.185 133.723 209.237 133.884 209.281C134.046 209.324 134.208 209.358 134.374 209.382C134.539 209.407 134.705 209.422 134.871 209.427C135.039 209.432 135.205 209.428 135.372 209.414C135.538 209.402 135.703 209.378 135.867 209.346C136.03 209.314 136.191 209.272 136.35 209.22C136.51 209.17 136.665 209.109 136.817 209.041C136.969 208.972 137.116 208.895 137.26 208.809C137.404 208.724 137.541 208.63 137.673 208.528C137.806 208.427 137.932 208.318 138.053 208.202C138.172 208.086 138.285 207.964 138.392 207.835C138.498 207.707 138.596 207.572 138.687 207.432C138.776 207.291 138.859 207.146 138.932 206.997C139.007 206.847 139.072 206.693 139.128 206.537C139.185 206.379 139.232 206.219 139.27 206.057C139.308 205.894 139.337 205.73 139.356 205.565C139.376 205.399 139.385 205.232 139.385 205.066C139.386 204.484 139.275 203.924 139.052 203.386C138.829 202.849 138.511 202.374 138.099 201.963ZM134.992 199.755C135.197 199.753 135.399 199.765 135.602 199.787C135.805 199.81 136.007 199.844 136.206 199.891C136.405 199.936 136.601 199.993 136.794 200.061C136.986 200.129 137.174 200.208 137.357 200.298C137.541 200.389 137.719 200.488 137.891 200.598C138.063 200.709 138.228 200.828 138.387 200.957C138.544 201.087 138.694 201.224 138.838 201.37C138.98 201.518 139.114 201.672 139.239 201.833C139.364 201.994 139.478 202.163 139.584 202.338C139.689 202.514 139.784 202.694 139.869 202.879C139.953 203.066 140.028 203.256 140.091 203.45C140.154 203.644 140.204 203.842 140.245 204.042C140.285 204.242 140.314 204.445 140.331 204.647C140.348 204.852 140.354 205.055 140.348 205.26C140.342 205.464 140.323 205.667 140.294 205.869C140.263 206.071 140.223 206.271 140.17 206.469C140.117 206.665 140.054 206.86 139.98 207.05C139.904 207.24 139.819 207.425 139.723 207.606C139.627 207.786 139.521 207.96 139.405 208.128C139.289 208.296 139.163 208.456 139.029 208.61C138.895 208.764 138.752 208.91 138.601 209.048C138.45 209.185 138.291 209.314 138.125 209.432C137.959 209.552 137.787 209.661 137.608 209.76C137.43 209.859 137.246 209.949 137.057 210.027C136.869 210.105 136.676 210.173 136.48 210.229C136.283 210.285 136.085 210.329 135.883 210.363C135.682 210.396 135.479 210.419 135.275 210.429C135.071 210.439 134.866 210.438 134.663 210.424C134.459 210.41 134.256 210.386 134.056 210.35C133.854 210.313 133.656 210.265 133.461 210.206C133.266 210.147 133.074 210.076 132.886 209.995C132.698 209.914 132.517 209.823 132.339 209.719C132.163 209.617 131.993 209.506 131.829 209.384C131.664 209.263 131.507 209.132 131.359 208.992C131.21 208.852 131.069 208.705 130.936 208.548C130.804 208.393 130.682 208.231 130.568 208.061C130.455 207.891 130.352 207.714 130.258 207.533C130.165 207.351 130.082 207.165 130.01 206.973C129.938 206.783 129.878 206.587 129.828 206.389C129.779 206.192 129.74 205.991 129.714 205.788C129.687 205.585 129.673 205.382 129.67 205.178C129.666 204.974 129.675 204.77 129.695 204.567C129.715 204.363 129.748 204.162 129.791 203.962C129.833 203.763 129.889 203.566 129.954 203.372C130.02 203.179 130.097 202.99 130.185 202.806C130.272 202.621 130.37 202.442 130.478 202.269C130.586 202.095 130.704 201.929 130.83 201.769C130.958 201.609 131.094 201.457 131.239 201.312C131.735 200.815 132.31 200.43 132.961 200.16C133.611 199.889 134.288 199.755 134.992 199.755ZM137.001 215.076C136.906 214.98 136.805 214.891 136.698 214.806C136.592 214.722 136.481 214.644 136.365 214.573C136.25 214.501 136.132 214.436 136.008 214.378C135.886 214.321 135.76 214.27 135.631 214.227C135.503 214.183 135.373 214.147 135.239 214.118C135.107 214.089 134.973 214.069 134.839 214.055C134.702 214.043 134.568 214.036 134.431 214.039C134.297 214.041 134.162 214.051 134.027 214.069C133.892 214.087 133.76 214.112 133.627 214.145C133.496 214.179 133.366 214.219 133.239 214.267C133.113 214.315 132.988 214.369 132.867 214.431C132.748 214.494 132.63 214.562 132.518 214.638C132.405 214.713 132.296 214.794 132.193 214.882C132.09 214.97 131.991 215.064 131.898 215.162C131.806 215.261 131.719 215.365 131.638 215.474C131.558 215.583 131.483 215.696 131.415 215.814C131.347 215.932 131.285 216.053 131.233 216.177C131.178 216.301 131.132 216.429 131.091 216.558C131.052 216.688 131.021 216.819 130.996 216.953C130.972 217.087 130.955 217.221 130.945 217.356C130.936 217.492 130.935 217.627 130.943 217.763C130.949 217.898 130.963 218.033 130.984 218.168C131.007 218.302 131.036 218.434 131.074 218.564C131.11 218.695 131.154 218.822 131.206 218.948C131.259 219.073 131.317 219.195 131.383 219.314C131.448 219.433 131.521 219.548 131.599 219.658C131.679 219.769 131.763 219.875 131.855 219.974C131.946 220.075 132.042 220.171 132.144 220.26C132.246 220.35 132.353 220.433 132.464 220.511C132.575 220.588 132.691 220.659 132.811 220.723C132.93 220.787 133.053 220.845 133.179 220.894C133.305 220.945 133.433 220.988 133.564 221.023C133.695 221.058 133.828 221.086 133.963 221.106C134.096 221.126 134.231 221.139 134.367 221.144C134.502 221.149 134.638 221.146 134.773 221.135C134.909 221.125 135.043 221.106 135.176 221.08C135.309 221.053 135.441 221.02 135.57 220.979C135.699 220.937 135.826 220.889 135.949 220.834C136.074 220.778 136.194 220.715 136.31 220.646C136.427 220.577 136.539 220.501 136.647 220.418C136.754 220.336 136.858 220.248 136.955 220.154C137.053 220.06 137.145 219.96 137.232 219.856C137.318 219.751 137.399 219.641 137.472 219.528C137.546 219.415 137.613 219.296 137.673 219.175C137.734 219.054 137.788 218.929 137.833 218.802C137.88 218.673 137.919 218.544 137.949 218.413C137.981 218.28 138.005 218.147 138.021 218.012C138.036 217.877 138.045 217.742 138.045 217.606C138.048 217.132 137.958 216.676 137.777 216.237C137.596 215.798 137.338 215.411 137.001 215.076ZM134.487 213.135C134.658 213.135 134.829 213.144 134.999 213.164C135.169 213.183 135.336 213.213 135.503 213.251C135.67 213.29 135.834 213.339 135.994 213.396C136.156 213.454 136.313 213.521 136.467 213.596C136.62 213.672 136.768 213.757 136.912 213.849C137.056 213.942 137.194 214.043 137.327 214.151C137.459 214.259 137.584 214.375 137.704 214.498C137.822 214.621 137.934 214.751 138.038 214.886C138.142 215.022 138.238 215.163 138.326 215.309C138.414 215.457 138.494 215.608 138.564 215.764C138.635 215.919 138.695 216.079 138.748 216.242C138.8 216.405 138.843 216.57 138.877 216.737C138.91 216.906 138.934 217.075 138.948 217.245C138.961 217.416 138.966 217.587 138.96 217.758C138.955 217.929 138.939 218.099 138.915 218.268C138.89 218.438 138.854 218.604 138.81 218.769C138.766 218.936 138.712 219.097 138.649 219.256C138.586 219.416 138.515 219.571 138.435 219.721C138.354 219.872 138.264 220.018 138.167 220.158C138.069 220.299 137.964 220.434 137.851 220.563C137.739 220.691 137.619 220.812 137.492 220.928C137.366 221.043 137.232 221.15 137.093 221.25C136.955 221.349 136.81 221.44 136.66 221.523C136.511 221.606 136.357 221.681 136.199 221.746C136.041 221.812 135.88 221.869 135.715 221.915C135.551 221.962 135.384 222 135.215 222.027C135.047 222.055 134.876 222.074 134.706 222.082C134.535 222.09 134.363 222.089 134.193 222.078C134.023 222.066 133.853 222.045 133.685 222.015C133.516 221.985 133.35 221.944 133.186 221.894C133.024 221.845 132.862 221.785 132.706 221.717C132.548 221.649 132.396 221.572 132.248 221.487C132.1 221.402 131.957 221.308 131.82 221.206C131.683 221.104 131.551 220.995 131.427 220.878C131.302 220.761 131.183 220.637 131.072 220.506C130.963 220.376 130.859 220.24 130.765 220.098C130.669 219.955 130.582 219.808 130.504 219.655C130.426 219.504 130.358 219.348 130.297 219.188C130.237 219.028 130.186 218.864 130.145 218.699C130.103 218.532 130.07 218.365 130.049 218.194C130.026 218.026 130.014 217.855 130.011 217.684C130.007 217.513 130.015 217.342 130.031 217.172C130.049 217.002 130.075 216.833 130.111 216.666C130.147 216.498 130.193 216.334 130.248 216.171C130.302 216.01 130.367 215.851 130.44 215.696C130.513 215.543 130.595 215.393 130.686 215.246C130.776 215.101 130.875 214.961 130.98 214.828C131.086 214.694 131.201 214.567 131.322 214.446C131.739 214.021 132.222 213.694 132.77 213.463C133.32 213.232 133.892 213.116 134.487 213.115V213.135ZM136.23 227.214C136.103 227.088 135.965 226.975 135.817 226.875C135.668 226.777 135.512 226.692 135.347 226.624C135.181 226.556 135.011 226.504 134.836 226.469C134.661 226.435 134.483 226.417 134.305 226.417C134.126 226.417 133.949 226.435 133.774 226.469C133.598 226.504 133.428 226.556 133.263 226.624C133.098 226.692 132.942 226.777 132.793 226.875C132.644 226.975 132.507 227.088 132.38 227.214C132.253 227.341 132.141 227.479 132.042 227.627C131.943 227.776 131.859 227.934 131.791 228.099C131.723 228.264 131.671 228.434 131.637 228.611C131.602 228.786 131.584 228.962 131.584 229.141C131.584 229.32 131.602 229.498 131.637 229.673C131.671 229.848 131.723 230.018 131.791 230.184C131.859 230.349 131.943 230.506 132.042 230.655C132.141 230.804 132.253 230.942 132.38 231.068C132.507 231.196 132.644 231.308 132.793 231.407C132.942 231.507 133.099 231.59 133.264 231.659C133.429 231.728 133.6 231.779 133.775 231.813C133.95 231.849 134.128 231.866 134.307 231.866C134.486 231.866 134.663 231.849 134.839 231.813C135.014 231.778 135.184 231.726 135.349 231.658C135.514 231.589 135.672 231.506 135.82 231.406C135.969 231.307 136.107 231.193 136.233 231.067C136.36 230.94 136.472 230.802 136.572 230.654C136.671 230.505 136.754 230.347 136.823 230.182C136.892 230.017 136.942 229.847 136.978 229.672C137.013 229.495 137.029 229.319 137.029 229.14C137.029 228.961 137.012 228.783 136.976 228.608C136.942 228.433 136.889 228.263 136.821 228.098C136.753 227.932 136.669 227.775 136.569 227.626C136.47 227.477 136.356 227.34 136.23 227.214ZM134.288 225.495C134.428 225.495 134.566 225.504 134.705 225.519C134.842 225.535 134.98 225.559 135.116 225.591C135.252 225.622 135.384 225.661 135.517 225.708C135.648 225.756 135.775 225.81 135.9 225.872C136.026 225.932 136.147 226.001 136.264 226.077C136.381 226.153 136.494 226.235 136.601 226.323C136.709 226.411 136.811 226.506 136.908 226.605C137.005 226.706 137.096 226.811 137.18 226.922C137.265 227.033 137.343 227.147 137.415 227.267C137.487 227.387 137.551 227.509 137.609 227.636C137.667 227.764 137.716 227.893 137.759 228.026C137.802 228.158 137.837 228.293 137.864 228.43C137.891 228.566 137.91 228.704 137.922 228.842C137.933 228.982 137.937 229.121 137.933 229.26C137.928 229.4 137.915 229.538 137.895 229.676C137.875 229.814 137.846 229.95 137.811 230.085C137.774 230.219 137.73 230.351 137.68 230.481C137.628 230.611 137.57 230.737 137.504 230.86C137.439 230.983 137.366 231.101 137.286 231.216C137.207 231.331 137.121 231.44 137.029 231.545C136.937 231.649 136.84 231.749 136.737 231.842C136.633 231.937 136.525 232.024 136.413 232.104C136.299 232.186 136.181 232.261 136.06 232.327C135.938 232.396 135.813 232.456 135.684 232.51C135.555 232.563 135.423 232.609 135.29 232.648C135.156 232.685 135.02 232.716 134.883 232.738C134.745 232.761 134.607 232.776 134.468 232.783C134.328 232.79 134.189 232.789 134.05 232.78C133.911 232.77 133.774 232.754 133.636 232.728C133.499 232.703 133.364 232.67 133.23 232.63C133.097 232.59 132.966 232.542 132.838 232.486C132.711 232.431 132.586 232.369 132.465 232.299C132.344 232.229 132.228 232.154 132.116 232.07C132.005 231.987 131.898 231.898 131.796 231.803C131.694 231.707 131.598 231.607 131.509 231.501C131.418 231.394 131.335 231.283 131.257 231.167C131.18 231.052 131.109 230.931 131.045 230.807C130.982 230.684 130.925 230.557 130.876 230.426C130.827 230.296 130.785 230.162 130.751 230.027C130.717 229.892 130.692 229.756 130.673 229.618C130.655 229.479 130.645 229.34 130.643 229.202C130.64 229.062 130.646 228.923 130.659 228.784C130.673 228.646 130.694 228.508 130.725 228.372C130.754 228.236 130.79 228.101 130.836 227.97C130.881 227.838 130.933 227.708 130.992 227.583C131.051 227.457 131.118 227.335 131.192 227.217C131.265 227.098 131.346 226.985 131.432 226.875C131.519 226.765 131.612 226.662 131.71 226.564C132.054 226.218 132.451 225.954 132.901 225.768C133.351 225.583 133.82 225.492 134.307 225.495H134.288ZM86.9818 136.242C66.1056 140.971 51.181 129.484 42.5925 114.424C39.2612 108.532 36.8677 102.28 35.4119 95.6693C34.0242 89.3584 33.6549 83.2996 34.3242 78.2353C35.3388 70.5984 38.723 65.224 44.5587 64.7198C46.346 64.5635 46.7872 63.3888 46.6321 61.5536C46.4027 59.8269 46.0485 58.1266 45.5683 56.4515C44.6659 52.8732 43.5781 48.5814 43.8353 44.2267C44.5739 31.6616 56.4054 18.8495 115.567 22.3358C122.073 22.7189 123.675 24.8654 124.612 26.1221C124.971 26.6086 125.194 26.9035 125.665 26.7397C126.811 26.3464 129.22 24.3121 135.376 19.0726C137.235 17.4958 139.449 15.6165 142.468 13.0768C147.834 8.56699 156.063 7.1402 164.893 8.48506C167.825 8.95267 170.696 9.66859 173.504 10.6328C176.313 11.5983 179.017 12.7957 181.619 14.2275C184.401 15.7312 187.02 17.4781 189.476 19.4683C191.933 21.4598 194.185 23.6592 196.232 26.0691C203.781 35.0408 208.204 47.1345 205.941 61.87L205.907 62.0981L205.704 62.204C205.65 62.233 204.889 63.1758 203.728 64.6606C199.504 70.001 190.187 81.7216 185.764 82.9933C185.352 84.2122 186.289 87.096 187.489 90.7613C189.29 96.2958 191.653 103.573 190.94 110.298C189.707 121.872 179.433 131.659 141.794 127.64C137.487 127.182 134.142 125.037 131.598 123.396C130.302 122.56 129.215 121.862 128.37 121.629C127.524 121.396 126.787 121.774 126.326 123.435C125.723 125.59 123.413 127.144 120.233 128.207C116.411 129.474 111.27 130.052 106.314 130.096C104.983 130.096 103.672 130.096 102.401 130.018C98.8172 143.205 106.401 146.938 115.126 151.225C124.617 155.895 135.41 161.206 135.41 179.316V198.327H134.492V179.335C134.492 161.793 123.971 156.618 114.722 152.069C105.649 147.607 97.7307 143.724 101.454 129.984C98.7567 129.851 96.0972 129.457 93.4768 128.804C91.4185 128.231 90.0447 127.46 89.7295 126.523C86.8697 117.914 87.239 112.569 89.093 109.753C89.2392 109.525 89.3993 109.31 89.577 109.105C89.7535 108.9 89.9451 108.71 90.1493 108.533C90.3535 108.357 90.5702 108.195 90.7984 108.049C91.0265 107.904 91.2635 107.776 91.5105 107.665C91.7563 107.554 92.0096 107.462 92.2705 107.387C92.5302 107.314 92.7949 107.259 93.0621 107.224C93.3306 107.187 93.6003 107.172 93.87 107.174C94.141 107.178 94.4095 107.201 94.6767 107.244C96.8169 107.496 99.0944 108.7 100.94 110.642C104.197 114.04 106.154 119.677 103.687 126.178C103.289 127.216 102.954 128.207 102.668 129.154C103.858 129.208 105.095 129.227 106.319 129.217C111.173 129.174 116.232 128.61 119.961 127.373C122.873 126.401 124.947 125.047 125.452 123.226C126.098 120.9 127.146 120.371 128.632 120.798C129.603 121.071 130.749 121.799 132.112 122.673C134.584 124.264 137.827 126.348 141.915 126.78C178.812 130.708 188.868 121.352 190.051 110.273C190.746 103.749 188.41 96.5731 186.653 91.1155C185.328 87.033 184.304 83.8819 185.066 82.4451L185.167 82.2509L185.381 82.2068C189.387 81.3762 198.83 69.4817 203.062 64.1413C204.034 62.9136 204.748 62.025 205.112 61.6406C207.262 47.2656 202.936 35.4681 195.577 26.7145C194.599 25.5751 193.573 24.4797 192.498 23.4298C191.424 22.3799 190.306 21.3791 189.145 20.4275C187.983 19.4759 186.782 18.5772 185.54 17.7302C184.3 16.8832 183.024 16.0929 181.715 15.3581C180.405 14.6233 179.065 13.9477 177.695 13.3301C176.326 12.7125 174.932 12.1567 173.514 11.6613C172.097 11.166 170.66 10.7336 169.204 10.3643C167.748 9.9963 166.278 9.69128 164.796 9.45054C156.237 8.14475 148.251 9.4997 143.104 13.8204C140.532 15.9808 138.074 18.068 136.011 19.8162C129.744 25.1566 127.296 27.2048 125.985 27.6522C124.884 28.0354 124.53 27.535 123.898 26.7145C123.059 25.5889 121.617 23.6517 115.538 23.3164C57.1238 19.8162 45.4662 32.1469 44.7528 44.2847C44.5058 48.4945 45.5734 52.7181 46.462 56.2334C46.9497 57.9539 47.3115 59.7021 47.5447 61.4768C47.7589 63.9031 47.1325 65.4231 44.6318 65.6412C39.2915 66.1277 36.1896 71.1618 35.2329 78.3613C34.5725 83.3236 34.9367 89.2853 36.3055 95.4803C37.7411 102 40.1019 108.166 43.3891 113.977C51.7923 128.717 66.3816 139.965 86.7726 135.34L86.9818 136.242Z" fill="#7F56D9"/>
</svg>
