<svg width="521" height="64" viewBox="0 0 521 64" fill="none" xmlns="http://www.w3.org/2000/svg">
<g filter="url(#filter0_d_482_44)">
<mask id="path-1-outside-1_482_44" maskUnits="userSpaceOnUse" x="0" y="-1" width="521" height="60" fill="black">
<rect fill="white" y="-1" width="521" height="60"/>
<path d="M25.224 53.896C21.5547 53.896 18.0133 53.448 14.6 52.552C11.2293 51.6133 8.47733 50.4187 6.344 48.968L10.504 39.624C12.5093 40.904 14.8133 41.9707 17.416 42.824C20.0613 43.6347 22.6853 44.04 25.288 44.04C27.0373 44.04 28.4453 43.8907 29.512 43.592C30.5787 43.2507 31.3467 42.824 31.816 42.312C32.328 41.7573 32.584 41.1173 32.584 40.392C32.584 39.368 32.1147 38.5573 31.176 37.96C30.2373 37.3627 29.0213 36.872 27.528 36.488C26.0347 36.104 24.3707 35.72 22.536 35.336C20.744 34.952 18.9307 34.4613 17.096 33.864C15.304 33.2667 13.6613 32.4987 12.168 31.56C10.6747 30.5787 9.45867 29.32 8.52 27.784C7.58133 26.2053 7.112 24.2213 7.112 21.832C7.112 19.144 7.83733 16.712 9.288 14.536C10.7813 12.36 13 10.6107 15.944 9.288C18.888 7.96533 22.5573 7.304 26.952 7.304C29.896 7.304 32.776 7.64533 35.592 8.328C38.4507 8.968 40.9893 9.928 43.208 11.208L39.304 20.616C37.1707 19.464 35.0587 18.6107 32.968 18.056C30.8773 17.4587 28.8507 17.16 26.888 17.16C25.1387 17.16 23.7307 17.352 22.664 17.736C21.5973 18.0773 20.8293 18.5467 20.36 19.144C19.8907 19.7413 19.656 20.424 19.656 21.192C19.656 22.1733 20.104 22.9627 21 23.56C21.9387 24.1147 23.1547 24.584 24.648 24.968C26.184 25.3093 27.848 25.672 29.64 26.056C31.4747 26.44 33.288 26.9307 35.08 27.528C36.9147 28.0827 38.5787 28.8507 40.072 29.832C41.5653 30.7707 42.76 32.0293 43.656 33.608C44.5947 35.144 45.064 37.0853 45.064 39.432C45.064 42.0347 44.3173 44.4453 42.824 46.664C41.3733 48.84 39.176 50.5893 36.232 51.912C33.3307 53.2347 29.6613 53.896 25.224 53.896ZM86.3095 53.896C82.7255 53.896 79.4188 53.32 76.3895 52.168C73.3602 51.016 70.7148 49.3947 68.4535 47.304C66.2348 45.1707 64.5068 42.696 63.2695 39.88C62.0322 37.064 61.4135 33.9707 61.4135 30.6C61.4135 27.2293 62.0322 24.136 63.2695 21.32C64.5068 18.504 66.2348 16.0507 68.4535 13.96C70.7148 11.8267 73.3602 10.184 76.3895 9.032C79.4188 7.88 82.7255 7.304 86.3095 7.304C89.9362 7.304 93.2428 7.88 96.2295 9.032C99.2588 10.184 101.883 11.8267 104.102 13.96C106.32 16.0507 108.048 18.504 109.286 21.32C110.566 24.136 111.206 27.2293 111.206 30.6C111.206 33.9707 110.566 37.0853 109.286 39.944C108.048 42.76 106.32 45.2133 104.102 47.304C101.883 49.3947 99.2588 51.016 96.2295 52.168C93.2428 53.32 89.9362 53.896 86.3095 53.896ZM86.3095 43.4C88.0162 43.4 89.5948 43.1013 91.0455 42.504C92.5388 41.9067 93.8188 41.0533 94.8855 39.944C95.9948 38.792 96.8482 37.4267 97.4455 35.848C98.0855 34.2693 98.4055 32.52 98.4055 30.6C98.4055 28.6373 98.0855 26.888 97.4455 25.352C96.8482 23.7733 95.9948 22.4293 94.8855 21.32C93.8188 20.168 92.5388 19.2933 91.0455 18.696C89.5948 18.0987 88.0162 17.8 86.3095 17.8C84.6028 17.8 83.0028 18.0987 81.5095 18.696C80.0588 19.2933 78.7788 20.168 77.6695 21.32C76.6028 22.4293 75.7495 23.7733 75.1095 25.352C74.5122 26.888 74.2135 28.6373 74.2135 30.6C74.2135 32.52 74.5122 34.2693 75.1095 35.848C75.7495 37.4267 76.6028 38.792 77.6695 39.944C78.7788 41.0533 80.0588 41.9067 81.5095 42.504C83.0028 43.1013 84.6028 43.4 86.3095 43.4ZM151.314 53.896C144.701 53.896 139.538 52.0827 135.826 48.456C132.114 44.8293 130.258 39.688 130.258 33.032V8.2H142.931V32.648C142.931 36.488 143.677 39.24 145.17 40.904C146.706 42.568 148.797 43.4 151.442 43.4C154.088 43.4 156.157 42.568 157.65 40.904C159.144 39.24 159.89 36.488 159.89 32.648V8.2H172.371V33.032C172.371 39.688 170.515 44.8293 166.803 48.456C163.091 52.0827 157.928 53.896 151.314 53.896ZM193.755 53V8.2H206.427V42.952H227.803V53H193.755ZM261.236 53.896C257.567 53.896 254.026 53.448 250.612 52.552C247.242 51.6133 244.49 50.4187 242.356 48.968L246.516 39.624C248.522 40.904 250.826 41.9707 253.428 42.824C256.074 43.6347 258.698 44.04 261.3 44.04C263.05 44.04 264.458 43.8907 265.524 43.592C266.591 43.2507 267.359 42.824 267.828 42.312C268.34 41.7573 268.596 41.1173 268.596 40.392C268.596 39.368 268.127 38.5573 267.188 37.96C266.25 37.3627 265.034 36.872 263.54 36.488C262.047 36.104 260.383 35.72 258.548 35.336C256.756 34.952 254.943 34.4613 253.108 33.864C251.316 33.2667 249.674 32.4987 248.18 31.56C246.687 30.5787 245.471 29.32 244.532 27.784C243.594 26.2053 243.124 24.2213 243.124 21.832C243.124 19.144 243.85 16.712 245.3 14.536C246.794 12.36 249.012 10.6107 251.956 9.288C254.9 7.96533 258.57 7.304 262.964 7.304C265.908 7.304 268.788 7.64533 271.604 8.328C274.463 8.968 277.002 9.928 279.22 11.208L275.316 20.616C273.183 19.464 271.071 18.6107 268.98 18.056C266.89 17.4587 264.863 17.16 262.9 17.16C261.151 17.16 259.743 17.352 258.676 17.736C257.61 18.0773 256.842 18.5467 256.372 19.144C255.903 19.7413 255.668 20.424 255.668 21.192C255.668 22.1733 256.116 22.9627 257.012 23.56C257.951 24.1147 259.167 24.584 260.66 24.968C262.196 25.3093 263.86 25.672 265.652 26.056C267.487 26.44 269.3 26.9307 271.092 27.528C272.927 28.0827 274.591 28.8507 276.084 29.832C277.578 30.7707 278.772 32.0293 279.668 33.608C280.607 35.144 281.076 37.0853 281.076 39.432C281.076 42.0347 280.33 44.4453 278.836 46.664C277.386 48.84 275.188 50.5893 272.244 51.912C269.343 53.2347 265.674 53.896 261.236 53.896ZM299.73 53V8.2H320.21C324.306 8.2 327.826 8.86133 330.77 10.184C333.757 11.5067 336.061 13.4267 337.682 15.944C339.303 18.4187 340.114 21.3627 340.114 24.776C340.114 28.1467 339.303 31.0693 337.682 33.544C336.061 36.0187 333.757 37.9387 330.77 39.304C327.826 40.6267 324.306 41.288 320.21 41.288H306.77L312.402 35.784V53H299.73ZM312.402 37.128L306.77 31.304H319.442C322.087 31.304 324.05 30.728 325.33 29.576C326.653 28.424 327.314 26.824 327.314 24.776C327.314 22.6853 326.653 21.064 325.33 19.912C324.05 18.76 322.087 18.184 319.442 18.184H306.77L312.402 12.36V37.128ZM351.466 53L371.242 8.2H383.722L403.562 53H390.378L374.89 14.408H379.882L364.394 53H351.466ZM362.282 44.296L365.546 34.952H387.434L390.698 44.296H362.282ZM441.666 53.896C438.125 53.896 434.839 53.3413 431.81 52.232C428.823 51.08 426.221 49.4587 424.002 47.368C421.826 45.2773 420.119 42.824 418.882 40.008C417.645 37.1493 417.026 34.0133 417.026 30.6C417.026 27.1867 417.645 24.072 418.882 21.256C420.119 18.3973 421.826 15.9227 424.002 13.832C426.221 11.7413 428.823 10.1413 431.81 9.032C434.839 7.88 438.125 7.304 441.666 7.304C445.805 7.304 449.495 8.02933 452.738 9.48C456.023 10.9307 458.754 13.0213 460.93 15.752L452.866 23.048C451.415 21.3413 449.815 20.04 448.066 19.144C446.359 18.248 444.439 17.8 442.306 17.8C440.471 17.8 438.786 18.0987 437.25 18.696C435.714 19.2933 434.391 20.168 433.282 21.32C432.215 22.4293 431.362 23.7733 430.722 25.352C430.125 26.9307 429.826 28.68 429.826 30.6C429.826 32.52 430.125 34.2693 430.722 35.848C431.362 37.4267 432.215 38.792 433.282 39.944C434.391 41.0533 435.714 41.9067 437.25 42.504C438.786 43.1013 440.471 43.4 442.306 43.4C444.439 43.4 446.359 42.952 448.066 42.056C449.815 41.16 451.415 39.8587 452.866 38.152L460.93 45.448C458.754 48.136 456.023 50.2267 452.738 51.72C449.495 53.1707 445.805 53.896 441.666 53.896ZM491.028 25.544H511.828V35.016H491.028V25.544ZM491.924 43.208H515.348V53H479.38V8.2H514.516V17.992H491.924V43.208Z"/>
</mask>
<path d="M25.224 53.896C21.5547 53.896 18.0133 53.448 14.6 52.552C11.2293 51.6133 8.47733 50.4187 6.344 48.968L10.504 39.624C12.5093 40.904 14.8133 41.9707 17.416 42.824C20.0613 43.6347 22.6853 44.04 25.288 44.04C27.0373 44.04 28.4453 43.8907 29.512 43.592C30.5787 43.2507 31.3467 42.824 31.816 42.312C32.328 41.7573 32.584 41.1173 32.584 40.392C32.584 39.368 32.1147 38.5573 31.176 37.96C30.2373 37.3627 29.0213 36.872 27.528 36.488C26.0347 36.104 24.3707 35.72 22.536 35.336C20.744 34.952 18.9307 34.4613 17.096 33.864C15.304 33.2667 13.6613 32.4987 12.168 31.56C10.6747 30.5787 9.45867 29.32 8.52 27.784C7.58133 26.2053 7.112 24.2213 7.112 21.832C7.112 19.144 7.83733 16.712 9.288 14.536C10.7813 12.36 13 10.6107 15.944 9.288C18.888 7.96533 22.5573 7.304 26.952 7.304C29.896 7.304 32.776 7.64533 35.592 8.328C38.4507 8.968 40.9893 9.928 43.208 11.208L39.304 20.616C37.1707 19.464 35.0587 18.6107 32.968 18.056C30.8773 17.4587 28.8507 17.16 26.888 17.16C25.1387 17.16 23.7307 17.352 22.664 17.736C21.5973 18.0773 20.8293 18.5467 20.36 19.144C19.8907 19.7413 19.656 20.424 19.656 21.192C19.656 22.1733 20.104 22.9627 21 23.56C21.9387 24.1147 23.1547 24.584 24.648 24.968C26.184 25.3093 27.848 25.672 29.64 26.056C31.4747 26.44 33.288 26.9307 35.08 27.528C36.9147 28.0827 38.5787 28.8507 40.072 29.832C41.5653 30.7707 42.76 32.0293 43.656 33.608C44.5947 35.144 45.064 37.0853 45.064 39.432C45.064 42.0347 44.3173 44.4453 42.824 46.664C41.3733 48.84 39.176 50.5893 36.232 51.912C33.3307 53.2347 29.6613 53.896 25.224 53.896ZM86.3095 53.896C82.7255 53.896 79.4188 53.32 76.3895 52.168C73.3602 51.016 70.7148 49.3947 68.4535 47.304C66.2348 45.1707 64.5068 42.696 63.2695 39.88C62.0322 37.064 61.4135 33.9707 61.4135 30.6C61.4135 27.2293 62.0322 24.136 63.2695 21.32C64.5068 18.504 66.2348 16.0507 68.4535 13.96C70.7148 11.8267 73.3602 10.184 76.3895 9.032C79.4188 7.88 82.7255 7.304 86.3095 7.304C89.9362 7.304 93.2428 7.88 96.2295 9.032C99.2588 10.184 101.883 11.8267 104.102 13.96C106.32 16.0507 108.048 18.504 109.286 21.32C110.566 24.136 111.206 27.2293 111.206 30.6C111.206 33.9707 110.566 37.0853 109.286 39.944C108.048 42.76 106.32 45.2133 104.102 47.304C101.883 49.3947 99.2588 51.016 96.2295 52.168C93.2428 53.32 89.9362 53.896 86.3095 53.896ZM86.3095 43.4C88.0162 43.4 89.5948 43.1013 91.0455 42.504C92.5388 41.9067 93.8188 41.0533 94.8855 39.944C95.9948 38.792 96.8482 37.4267 97.4455 35.848C98.0855 34.2693 98.4055 32.52 98.4055 30.6C98.4055 28.6373 98.0855 26.888 97.4455 25.352C96.8482 23.7733 95.9948 22.4293 94.8855 21.32C93.8188 20.168 92.5388 19.2933 91.0455 18.696C89.5948 18.0987 88.0162 17.8 86.3095 17.8C84.6028 17.8 83.0028 18.0987 81.5095 18.696C80.0588 19.2933 78.7788 20.168 77.6695 21.32C76.6028 22.4293 75.7495 23.7733 75.1095 25.352C74.5122 26.888 74.2135 28.6373 74.2135 30.6C74.2135 32.52 74.5122 34.2693 75.1095 35.848C75.7495 37.4267 76.6028 38.792 77.6695 39.944C78.7788 41.0533 80.0588 41.9067 81.5095 42.504C83.0028 43.1013 84.6028 43.4 86.3095 43.4ZM151.314 53.896C144.701 53.896 139.538 52.0827 135.826 48.456C132.114 44.8293 130.258 39.688 130.258 33.032V8.2H142.931V32.648C142.931 36.488 143.677 39.24 145.17 40.904C146.706 42.568 148.797 43.4 151.442 43.4C154.088 43.4 156.157 42.568 157.65 40.904C159.144 39.24 159.89 36.488 159.89 32.648V8.2H172.371V33.032C172.371 39.688 170.515 44.8293 166.803 48.456C163.091 52.0827 157.928 53.896 151.314 53.896ZM193.755 53V8.2H206.427V42.952H227.803V53H193.755ZM261.236 53.896C257.567 53.896 254.026 53.448 250.612 52.552C247.242 51.6133 244.49 50.4187 242.356 48.968L246.516 39.624C248.522 40.904 250.826 41.9707 253.428 42.824C256.074 43.6347 258.698 44.04 261.3 44.04C263.05 44.04 264.458 43.8907 265.524 43.592C266.591 43.2507 267.359 42.824 267.828 42.312C268.34 41.7573 268.596 41.1173 268.596 40.392C268.596 39.368 268.127 38.5573 267.188 37.96C266.25 37.3627 265.034 36.872 263.54 36.488C262.047 36.104 260.383 35.72 258.548 35.336C256.756 34.952 254.943 34.4613 253.108 33.864C251.316 33.2667 249.674 32.4987 248.18 31.56C246.687 30.5787 245.471 29.32 244.532 27.784C243.594 26.2053 243.124 24.2213 243.124 21.832C243.124 19.144 243.85 16.712 245.3 14.536C246.794 12.36 249.012 10.6107 251.956 9.288C254.9 7.96533 258.57 7.304 262.964 7.304C265.908 7.304 268.788 7.64533 271.604 8.328C274.463 8.968 277.002 9.928 279.22 11.208L275.316 20.616C273.183 19.464 271.071 18.6107 268.98 18.056C266.89 17.4587 264.863 17.16 262.9 17.16C261.151 17.16 259.743 17.352 258.676 17.736C257.61 18.0773 256.842 18.5467 256.372 19.144C255.903 19.7413 255.668 20.424 255.668 21.192C255.668 22.1733 256.116 22.9627 257.012 23.56C257.951 24.1147 259.167 24.584 260.66 24.968C262.196 25.3093 263.86 25.672 265.652 26.056C267.487 26.44 269.3 26.9307 271.092 27.528C272.927 28.0827 274.591 28.8507 276.084 29.832C277.578 30.7707 278.772 32.0293 279.668 33.608C280.607 35.144 281.076 37.0853 281.076 39.432C281.076 42.0347 280.33 44.4453 278.836 46.664C277.386 48.84 275.188 50.5893 272.244 51.912C269.343 53.2347 265.674 53.896 261.236 53.896ZM299.73 53V8.2H320.21C324.306 8.2 327.826 8.86133 330.77 10.184C333.757 11.5067 336.061 13.4267 337.682 15.944C339.303 18.4187 340.114 21.3627 340.114 24.776C340.114 28.1467 339.303 31.0693 337.682 33.544C336.061 36.0187 333.757 37.9387 330.77 39.304C327.826 40.6267 324.306 41.288 320.21 41.288H306.77L312.402 35.784V53H299.73ZM312.402 37.128L306.77 31.304H319.442C322.087 31.304 324.05 30.728 325.33 29.576C326.653 28.424 327.314 26.824 327.314 24.776C327.314 22.6853 326.653 21.064 325.33 19.912C324.05 18.76 322.087 18.184 319.442 18.184H306.77L312.402 12.36V37.128ZM351.466 53L371.242 8.2H383.722L403.562 53H390.378L374.89 14.408H379.882L364.394 53H351.466ZM362.282 44.296L365.546 34.952H387.434L390.698 44.296H362.282ZM441.666 53.896C438.125 53.896 434.839 53.3413 431.81 52.232C428.823 51.08 426.221 49.4587 424.002 47.368C421.826 45.2773 420.119 42.824 418.882 40.008C417.645 37.1493 417.026 34.0133 417.026 30.6C417.026 27.1867 417.645 24.072 418.882 21.256C420.119 18.3973 421.826 15.9227 424.002 13.832C426.221 11.7413 428.823 10.1413 431.81 9.032C434.839 7.88 438.125 7.304 441.666 7.304C445.805 7.304 449.495 8.02933 452.738 9.48C456.023 10.9307 458.754 13.0213 460.93 15.752L452.866 23.048C451.415 21.3413 449.815 20.04 448.066 19.144C446.359 18.248 444.439 17.8 442.306 17.8C440.471 17.8 438.786 18.0987 437.25 18.696C435.714 19.2933 434.391 20.168 433.282 21.32C432.215 22.4293 431.362 23.7733 430.722 25.352C430.125 26.9307 429.826 28.68 429.826 30.6C429.826 32.52 430.125 34.2693 430.722 35.848C431.362 37.4267 432.215 38.792 433.282 39.944C434.391 41.0533 435.714 41.9067 437.25 42.504C438.786 43.1013 440.471 43.4 442.306 43.4C444.439 43.4 446.359 42.952 448.066 42.056C449.815 41.16 451.415 39.8587 452.866 38.152L460.93 45.448C458.754 48.136 456.023 50.2267 452.738 51.72C449.495 53.1707 445.805 53.896 441.666 53.896ZM491.028 25.544H511.828V35.016H491.028V25.544ZM491.924 43.208H515.348V53H479.38V8.2H514.516V17.992H491.924V43.208Z" fill="#E207E3"/>
<path d="M14.6 52.552L13.2586 57.3687L13.2945 57.3787L13.3305 57.3882L14.6 52.552ZM6.344 48.968L1.77623 46.9344L0.0763912 50.7525L3.53245 53.1026L6.344 48.968ZM10.504 39.624L13.1942 35.4094L8.29847 32.2845L5.93623 37.5904L10.504 39.624ZM17.416 42.824L15.8582 47.5751L15.9045 47.5903L15.951 47.6046L17.416 42.824ZM29.512 43.592L30.8602 48.4068L30.9485 48.3821L31.0359 48.3541L29.512 43.592ZM31.816 42.312L28.142 38.9206L28.1361 38.927L28.1302 38.9334L31.816 42.312ZM31.176 37.96L28.4916 42.1783L28.4916 42.1783L31.176 37.96ZM27.528 36.488L28.7732 31.6455L28.7732 31.6455L27.528 36.488ZM22.536 35.336L21.4884 40.225L21.5 40.2275L21.5117 40.23L22.536 35.336ZM17.096 33.864L15.5149 38.6074L15.5314 38.6129L15.5481 38.6184L17.096 33.864ZM12.168 31.56L9.42211 35.7385L9.46435 35.7663L9.50714 35.7932L12.168 31.56ZM8.52 27.784L4.22232 30.3394L4.2378 30.3654L4.25359 30.3912L8.52 27.784ZM9.288 14.536L5.16543 11.7068L5.1464 11.7345L5.12775 11.7625L9.288 14.536ZM15.944 9.288L13.8949 4.72716L13.8949 4.72716L15.944 9.288ZM35.592 8.328L34.414 13.1872L34.4567 13.1976L34.4996 13.2072L35.592 8.328ZM43.208 11.208L47.8262 13.1244L49.5084 9.07042L45.7066 6.87707L43.208 11.208ZM39.304 20.616L36.9283 25.0155L41.8001 27.6463L43.9222 22.5324L39.304 20.616ZM32.968 18.056L31.5944 22.8636L31.64 22.8766L31.6858 22.8888L32.968 18.056ZM22.664 17.736L24.1879 22.4981L24.2733 22.4708L24.3576 22.4404L22.664 17.736ZM20.36 19.144L16.4284 16.0549L16.4284 16.0549L20.36 19.144ZM21 23.56L18.2265 27.7202L18.3395 27.7956L18.4564 27.8646L21 23.56ZM24.648 24.968L23.4028 29.8105L23.4828 29.831L23.5633 29.8489L24.648 24.968ZM29.64 26.056L28.5924 30.945L28.604 30.9475L28.6157 30.95L29.64 26.056ZM35.08 27.528L33.4989 32.2714L33.5657 32.2937L33.6331 32.3141L35.08 27.528ZM40.072 29.832L37.3261 34.0105L37.3684 34.0383L37.4111 34.0652L40.072 29.832ZM43.656 33.608L39.3076 36.076L39.3475 36.1463L39.3896 36.2153L43.656 33.608ZM42.824 46.664L38.6761 43.8721L38.6699 43.8813L38.6637 43.8905L42.824 46.664ZM36.232 51.912L34.1829 47.3512L34.1704 47.3568L34.1579 47.3625L36.232 51.912ZM25.224 53.896V48.896C21.966 48.896 18.8522 48.4988 15.8695 47.7158L14.6 52.552L13.3305 57.3882C17.1744 58.3972 21.1433 58.896 25.224 58.896V53.896ZM14.6 52.552L15.9414 47.7353C12.9208 46.8941 10.711 45.8911 9.15555 44.8334L6.344 48.968L3.53245 53.1026C6.2437 54.9463 9.53786 56.3325 13.2586 57.3687L14.6 52.552ZM6.344 48.968L10.9118 51.0016L15.0718 41.6576L10.504 39.624L5.93623 37.5904L1.77623 46.9344L6.344 48.968ZM10.504 39.624L7.81382 43.8386C10.2212 45.3752 12.9158 46.6104 15.8582 47.5751L17.416 42.824L18.9738 38.0729C16.7109 37.3309 14.7975 36.4328 13.1942 35.4094L10.504 39.624ZM17.416 42.824L15.951 47.6046C19.0411 48.5515 22.1584 49.04 25.288 49.04V44.04V39.04C23.2122 39.04 21.0816 38.7178 18.881 38.0434L17.416 42.824ZM25.288 44.04V49.04C27.2623 49.04 29.1773 48.878 30.8602 48.4068L29.512 43.592L28.1639 38.7772C27.7134 38.9033 26.8124 39.04 25.288 39.04V44.04ZM29.512 43.592L31.0359 48.3541C32.4753 47.8935 34.1888 47.123 35.5018 45.6906L31.816 42.312L28.1302 38.9334C28.2377 38.8162 28.3293 38.7396 28.3861 38.6965C28.4425 38.6537 28.4713 38.6388 28.4598 38.6452C28.4484 38.6515 28.4062 38.6739 28.3253 38.7078C28.2447 38.7415 28.1339 38.7832 27.9881 38.8299L29.512 43.592ZM31.816 42.312L35.49 45.7034C36.8164 44.2665 37.584 42.4295 37.584 40.392H32.584H27.584C27.584 40.1523 27.6292 39.8602 27.7496 39.559C27.8687 39.2613 28.0237 39.0487 28.142 38.9206L31.816 42.312ZM32.584 40.392H37.584C37.584 37.489 36.0922 35.162 33.8604 33.7417L31.176 37.96L28.4916 42.1783C28.4104 42.1266 28.1413 41.9296 27.9049 41.5212C27.6583 41.0954 27.584 40.6754 27.584 40.392H32.584ZM31.176 37.96L33.8604 33.7417C32.3434 32.7763 30.5947 32.1139 28.7732 31.6455L27.528 36.488L26.2828 41.3305C27.448 41.6301 28.1313 41.949 28.4916 42.1783L31.176 37.96ZM27.528 36.488L28.7732 31.6455C27.1931 31.2392 25.4539 30.8384 23.5603 30.442L22.536 35.336L21.5117 40.23C23.2875 40.6016 24.8763 40.9688 26.2828 41.3305L27.528 36.488ZM22.536 35.336L23.5836 30.447C21.9692 30.101 20.3229 29.6563 18.6439 29.1096L17.096 33.864L15.5481 38.6184C17.5385 39.2664 19.5188 39.803 21.4884 40.225L22.536 35.336ZM17.096 33.864L18.6771 29.1206C17.2374 28.6407 15.9609 28.0384 14.8289 27.3268L12.168 31.56L9.50714 35.7932C11.3617 36.9589 13.3706 37.8926 15.5149 38.6074L17.096 33.864ZM12.168 31.56L14.9139 27.3815C14.0418 26.8084 13.3433 26.088 12.7864 25.1767L8.52 27.784L4.25359 30.3912C5.57402 32.552 7.30752 34.3489 9.42211 35.7385L12.168 31.56ZM8.52 27.784L12.8177 25.2286C12.4573 24.6226 12.112 23.5865 12.112 21.832H7.112H2.112C2.112 24.8562 2.70533 27.7881 4.22232 30.3394L8.52 27.784ZM7.112 21.832H12.112C12.112 20.102 12.5611 18.6402 13.4483 17.3095L9.288 14.536L5.12775 11.7625C3.11358 14.7838 2.112 18.186 2.112 21.832H7.112ZM9.288 14.536L13.4106 17.3652C14.28 16.0983 15.6995 14.8793 17.9931 13.8488L15.944 9.288L13.8949 4.72716C10.3005 6.34203 7.28263 8.62173 5.16543 11.7068L9.288 14.536ZM15.944 9.288L17.9931 13.8488C20.1044 12.9003 23.023 12.304 26.952 12.304V7.304V2.304C22.0917 2.304 17.6716 3.03037 13.8949 4.72716L15.944 9.288ZM26.952 7.304V12.304C29.5055 12.304 31.9899 12.5996 34.414 13.1872L35.592 8.328L36.77 3.46875C33.5621 2.69108 30.2865 2.304 26.952 2.304V7.304ZM35.592 8.328L34.4996 13.2072C36.9341 13.7522 38.9868 14.5451 40.7094 15.5389L43.208 11.208L45.7066 6.87707C42.9919 5.31087 39.9672 4.18375 36.6844 3.44878L35.592 8.328ZM43.208 11.208L38.5898 9.29161L34.6858 18.6996L39.304 20.616L43.9222 22.5324L47.8262 13.1244L43.208 11.208ZM39.304 20.616L41.6797 16.2165C39.2412 14.8997 36.7637 13.89 34.2502 13.2232L32.968 18.056L31.6858 22.8888C33.3536 23.3313 35.1001 24.0283 36.9283 25.0155L39.304 20.616ZM32.968 18.056L34.3416 13.2484C31.8518 12.537 29.3623 12.16 26.888 12.16V17.16V22.16C28.3391 22.16 29.9029 22.3803 31.5944 22.8636L32.968 18.056ZM26.888 17.16V12.16C24.8402 12.16 22.7921 12.3757 20.9704 13.0316L22.664 17.736L24.3576 22.4404C24.6692 22.3283 25.4371 22.16 26.888 22.16V17.16ZM22.664 17.736L21.1401 12.9739C19.5488 13.4831 17.7437 14.3809 16.4284 16.0549L20.36 19.144L24.2916 22.2331C24.0974 22.4803 23.9275 22.5907 23.8952 22.6104C23.8684 22.6268 23.9461 22.5755 24.1879 22.4981L22.664 17.736ZM20.36 19.144L16.4284 16.0549C15.2587 17.5436 14.656 19.317 14.656 21.192H19.656H24.656C24.656 21.3256 24.6341 21.5151 24.5604 21.7294C24.4866 21.9443 24.3843 22.1151 24.2916 22.2331L20.36 19.144ZM19.656 21.192H14.656C14.656 24.0285 16.0994 26.3022 18.2265 27.7202L21 23.56L23.7735 19.3998C23.855 19.4541 24.1132 19.6517 24.3404 20.052C24.5779 20.4703 24.656 20.8899 24.656 21.192H19.656ZM21 23.56L18.4564 27.8646C19.9294 28.7351 21.6259 29.3535 23.4028 29.8105L24.648 24.968L25.8932 20.1255C24.6834 19.8145 23.9479 19.4943 23.5436 19.2554L21 23.56ZM24.648 24.968L23.5633 29.8489C25.1135 30.1934 26.79 30.5588 28.5924 30.945L29.64 26.056L30.6876 21.167C28.906 20.7852 27.2545 20.4253 25.7327 20.0871L24.648 24.968ZM29.64 26.056L28.6157 30.95C30.2605 31.2942 31.888 31.7345 33.4989 32.2714L35.08 27.528L36.6611 22.7846C34.688 22.1269 32.6888 21.5858 30.6643 21.162L29.64 26.056ZM35.08 27.528L33.6331 32.3141C35.0411 32.7397 36.2624 33.3115 37.3261 34.0105L40.072 29.832L42.8179 25.6535C40.8949 24.3898 38.7882 23.4256 36.527 22.7419L35.08 27.528ZM40.072 29.832L37.4111 34.0652C38.1838 34.5509 38.8072 35.1944 39.3076 36.076L43.656 33.608L48.0044 31.14C46.7128 28.8642 44.9469 26.9905 42.7329 25.5988L40.072 29.832ZM43.656 33.608L39.3896 36.2153C39.7235 36.7616 40.064 37.7318 40.064 39.432H45.064H50.064C50.064 36.4389 49.4658 33.5264 47.9224 31.0007L43.656 33.608ZM45.064 39.432H40.064C40.064 41.0113 39.6303 42.4545 38.6761 43.8721L42.824 46.664L46.9719 49.4559C49.0044 46.4362 50.064 43.0581 50.064 39.432H45.064ZM42.824 46.664L38.6637 43.8905C37.8447 45.1191 36.4699 46.3237 34.1829 47.3512L36.232 51.912L38.2811 56.4728C41.8821 54.855 44.902 52.5609 46.9843 49.4375L42.824 46.664ZM36.232 51.912L34.1579 47.3625C32.1103 48.2959 29.208 48.896 25.224 48.896V53.896V58.896C30.1146 58.896 34.551 58.1734 38.3061 56.4615L36.232 51.912ZM76.3895 52.168L74.6123 56.8415L74.6123 56.8415L76.3895 52.168ZM68.4535 47.304L64.988 50.9082L65.0233 50.9421L65.0592 50.9754L68.4535 47.304ZM63.2695 39.88L58.6919 41.8914L58.6919 41.8914L63.2695 39.88ZM63.2695 21.32L58.6919 19.3086L58.6919 19.3086L63.2695 21.32ZM68.4535 13.96L71.8825 17.5989L71.8846 17.597L68.4535 13.96ZM76.3895 9.032L74.6123 4.35852L74.6123 4.35852L76.3895 9.032ZM96.2295 9.032L94.4301 13.697L94.4412 13.7013L94.4523 13.7055L96.2295 9.032ZM104.102 13.96L100.636 17.5642L100.654 17.5816L100.672 17.5989L104.102 13.96ZM109.286 21.32L104.708 23.3314L104.721 23.3603L104.734 23.389L109.286 21.32ZM109.286 39.944L104.722 37.9007L104.715 37.9166L104.708 37.9326L109.286 39.944ZM104.102 47.304L107.531 50.9429L107.531 50.9429L104.102 47.304ZM96.2295 52.168L94.4523 47.4945L94.4412 47.4987L94.4301 47.503L96.2295 52.168ZM91.0455 42.504L89.1885 37.8616L89.1651 37.871L89.1417 37.8806L91.0455 42.504ZM94.8855 39.944L91.2839 36.4758L91.2813 36.4785L94.8855 39.944ZM97.4455 35.848L92.8118 33.9695L92.7898 34.0238L92.7691 34.0785L97.4455 35.848ZM97.4455 25.352L92.7691 27.1215L92.7983 27.1988L92.8301 27.2751L97.4455 25.352ZM94.8855 21.32L91.2167 24.717L91.282 24.7876L91.35 24.8555L94.8855 21.32ZM91.0455 18.696L89.1417 23.3194L89.1651 23.329L89.1885 23.3384L91.0455 18.696ZM81.5095 18.696L79.6525 14.0536L79.6291 14.063L79.6058 14.0726L81.5095 18.696ZM77.6695 21.32L74.0679 17.8518L74.0653 17.8545L77.6695 21.32ZM75.1095 25.352L70.4758 23.4735L70.4624 23.5065L70.4495 23.5398L75.1095 25.352ZM75.1095 35.848L70.4331 37.6175L70.4538 37.6722L70.4758 37.7265L75.1095 35.848ZM77.6695 39.944L74.0007 43.341L74.066 43.4116L74.134 43.4795L77.6695 39.944ZM81.5095 42.504L79.6058 47.1274L79.6291 47.137L79.6525 47.1464L81.5095 42.504ZM86.3095 53.896V48.896C83.2687 48.896 80.5714 48.409 78.1667 47.4945L76.3895 52.168L74.6123 56.8415C78.2663 58.231 82.1823 58.896 86.3095 58.896V53.896ZM76.3895 52.168L78.1667 47.4945C75.7038 46.5579 73.6149 45.2664 71.8478 43.6326L68.4535 47.304L65.0592 50.9754C67.8148 53.523 71.0165 55.4741 74.6123 56.8415L76.3895 52.168ZM68.4535 47.304L71.919 43.6998C70.1713 42.0193 68.8213 40.0857 67.8471 37.8686L63.2695 39.88L58.6919 41.8914C60.1924 45.3063 62.2984 48.322 64.988 50.9082L68.4535 47.304ZM63.2695 39.88L67.8471 37.8686C66.914 35.7451 66.4135 33.3451 66.4135 30.6H61.4135H56.4135C56.4135 34.5962 57.1503 38.3829 58.6919 41.8914L63.2695 39.88ZM61.4135 30.6H66.4135C66.4135 27.8549 66.914 25.4549 67.8471 23.3314L63.2695 21.32L58.6919 19.3086C57.1503 22.8171 56.4135 26.6038 56.4135 30.6H61.4135ZM63.2695 21.32L67.8471 23.3314C68.8171 21.1238 70.1565 19.2254 71.8825 17.5989L68.4535 13.96L65.0245 10.3211C62.3132 12.8759 60.1966 15.8842 58.6919 19.3086L63.2695 21.32ZM68.4535 13.96L71.8846 17.597C73.6478 15.9335 75.7248 14.6341 78.1667 13.7055L76.3895 9.032L74.6123 4.35852C70.9955 5.73391 67.7818 7.71978 65.0224 10.323L68.4535 13.96ZM76.3895 9.032L78.1667 13.7055C80.5714 12.791 83.2687 12.304 86.3095 12.304V7.304V2.304C82.1823 2.304 78.2663 2.96896 74.6123 4.35852L76.3895 9.032ZM86.3095 7.304V12.304C89.402 12.304 92.0887 12.7939 94.4301 13.697L96.2295 9.032L98.0289 4.36699C94.397 2.96613 90.4703 2.304 86.3095 2.304V7.304ZM96.2295 9.032L94.4523 13.7055C96.8865 14.6312 98.9278 15.9217 100.636 17.5642L104.102 13.96L107.567 10.3558C104.838 7.73158 101.631 5.73682 98.0067 4.35852L96.2295 9.032ZM104.102 13.96L100.672 17.5989C102.399 19.2254 103.738 21.1238 104.708 23.3314L109.286 21.32L113.863 19.3086C112.358 15.8842 110.242 12.8759 107.531 10.3211L104.102 13.96ZM109.286 21.32L104.734 23.389C105.693 25.4987 106.206 27.8783 106.206 30.6H111.206H116.206C116.206 26.5803 115.438 22.7732 113.837 19.251L109.286 21.32ZM111.206 30.6H106.206C106.206 33.3208 105.693 35.7326 104.722 37.9007L109.286 39.944L113.849 41.9873C115.438 38.438 116.206 34.6205 116.206 30.6H111.206ZM109.286 39.944L104.708 37.9326C103.738 40.1402 102.399 42.0386 100.672 43.6651L104.102 47.304L107.531 50.9429C110.242 48.3881 112.358 45.3798 113.863 41.9554L109.286 39.944ZM104.102 47.304L100.672 43.6651C98.9608 45.278 96.9077 46.5608 94.4523 47.4945L96.2295 52.168L98.0067 56.8415C101.61 55.4712 104.805 53.5114 107.531 50.9429L104.102 47.304ZM96.2295 52.168L94.4301 47.503C92.0887 48.4061 89.402 48.896 86.3095 48.896V53.896V58.896C90.4703 58.896 94.397 58.2339 98.0289 56.833L96.2295 52.168ZM86.3095 43.4V48.4C88.6115 48.4 90.8435 47.9945 92.9492 47.1274L91.0455 42.504L89.1417 37.8806C88.3462 38.2082 87.4208 38.4 86.3095 38.4V43.4ZM91.0455 42.504L92.9025 47.1464C95.0247 46.2975 96.9086 45.0539 98.4897 43.4095L94.8855 39.944L91.2813 36.4785C90.7291 37.0528 90.0529 37.5159 89.1885 37.8616L91.0455 42.504ZM94.8855 39.944L98.4871 43.4122C100.092 41.7458 101.299 39.7936 102.122 37.6175L97.4455 35.848L92.7691 34.0785C92.3978 35.0597 91.8979 35.8382 91.2839 36.4758L94.8855 39.944ZM97.4455 35.848L102.079 37.7265C102.99 35.48 103.406 33.0824 103.406 30.6H98.4055H93.4055C93.4055 31.9576 93.181 33.0587 92.8118 33.9695L97.4455 35.848ZM98.4055 30.6H103.406C103.406 28.0938 102.996 25.6734 102.061 23.4289L97.4455 25.352L92.8301 27.2751C93.1749 28.1026 93.4055 29.1809 93.4055 30.6H98.4055ZM97.4455 25.352L102.122 23.5825C101.293 21.392 100.069 19.4322 98.421 17.7845L94.8855 21.32L91.35 24.8555C91.9209 25.4265 92.4032 26.1546 92.7691 27.1215L97.4455 25.352ZM94.8855 21.32L98.5543 17.923C96.971 16.213 95.0673 14.9195 92.9025 14.0536L91.0455 18.696L89.1885 23.3384C90.0104 23.6671 90.6667 24.123 91.2167 24.717L94.8855 21.32ZM91.0455 18.696L92.9492 14.0726C90.8435 13.2055 88.6115 12.8 86.3095 12.8V17.8V22.8C87.4208 22.8 88.3462 22.9918 89.1417 23.3194L91.0455 18.696ZM86.3095 17.8V12.8C84.0061 12.8 81.7719 13.2059 79.6525 14.0536L81.5095 18.696L83.3665 23.3384C84.2337 22.9915 85.1996 22.8 86.3095 22.8V17.8ZM81.5095 18.696L79.6058 14.0726C77.5027 14.9386 75.6476 16.2113 74.0679 17.8518L77.6695 21.32L81.2711 24.7882C81.9101 24.1247 82.615 23.6481 83.4132 23.3194L81.5095 18.696ZM77.6695 21.32L74.0653 17.8545C72.5128 19.4691 71.3293 21.3682 70.4758 23.4735L75.1095 25.352L79.7432 27.2305C80.1697 26.1785 80.6929 25.3896 81.2737 24.7855L77.6695 21.32ZM75.1095 25.352L70.4495 23.5398C69.589 25.7524 69.2135 28.1331 69.2135 30.6H74.2135H79.2135C79.2135 29.1416 79.4353 28.0236 79.7695 27.1642L75.1095 25.352ZM74.2135 30.6H69.2135C69.2135 33.0422 69.5945 35.4012 70.4331 37.6175L75.1095 35.848L79.7859 34.0785C79.4298 33.1374 79.2135 31.9978 79.2135 30.6H74.2135ZM75.1095 35.848L70.4758 37.7265C71.3236 39.8178 72.4896 41.709 74.0007 43.341L77.6695 39.944L81.3383 36.547C80.7161 35.875 80.1754 35.0356 79.7432 33.9695L75.1095 35.848ZM77.6695 39.944L74.134 43.4795C75.7101 45.0556 77.5447 46.2787 79.6058 47.1274L81.5095 42.504L83.4132 37.8806C82.573 37.5346 81.8476 37.051 81.205 36.4085L77.6695 39.944ZM81.5095 42.504L79.6525 47.1464C81.7719 47.9941 84.0061 48.4 86.3095 48.4V43.4V38.4C85.1996 38.4 84.2337 38.2085 83.3665 37.8616L81.5095 42.504ZM135.826 48.456L139.321 44.8796L139.321 44.8796L135.826 48.456ZM130.258 8.2V3.2H125.258V8.2H130.258ZM142.931 8.2H147.931V3.2H142.931V8.2ZM145.17 40.904L141.449 44.2435L141.473 44.2696L141.496 44.2954L145.17 40.904ZM157.65 40.904L153.929 37.5645L157.65 40.904ZM159.89 8.2V3.2H154.89V8.2H159.89ZM172.371 8.2H177.371V3.2H172.371V8.2ZM166.803 48.456L163.308 44.8796L166.803 48.456ZM151.314 53.896V48.896C145.632 48.896 141.861 47.3616 139.321 44.8796L135.826 48.456L132.332 52.0324C137.216 56.8038 143.77 58.896 151.314 58.896V53.896ZM135.826 48.456L139.321 44.8796C136.824 42.4406 135.258 38.7416 135.258 33.032H130.258H125.258C125.258 40.6344 127.405 47.2181 132.332 52.0324L135.826 48.456ZM130.258 33.032H135.258V8.2H130.258H125.258V33.032H130.258ZM130.258 8.2V13.2H142.931V8.2V3.2H130.258V8.2ZM142.931 8.2H137.931V32.648H142.931H147.931V8.2H142.931ZM142.931 32.648H137.931C137.931 36.9081 138.716 41.198 141.449 44.2435L145.17 40.904L148.892 37.5645C148.638 37.282 147.931 36.0679 147.931 32.648H142.931ZM145.17 40.904L141.496 44.2954C144.14 47.1593 147.658 48.4 151.442 48.4V43.4V38.4C149.936 38.4 149.273 37.9767 148.845 37.5126L145.17 40.904ZM151.442 43.4V48.4C155.223 48.4 158.755 47.159 161.372 44.2435L157.65 40.904L153.929 37.5645C153.559 37.977 152.952 38.4 151.442 38.4V43.4ZM157.65 40.904L161.372 44.2435C164.105 41.198 164.89 36.9081 164.89 32.648H159.89H154.89C154.89 36.0679 154.183 37.282 153.929 37.5645L157.65 40.904ZM159.89 32.648H164.89V8.2H159.89H154.89V32.648H159.89ZM159.89 8.2V13.2H172.371V8.2V3.2H159.89V8.2ZM172.371 8.2H167.371V33.032H172.371H177.371V8.2H172.371ZM172.371 33.032H167.371C167.371 38.7416 165.805 42.4406 163.308 44.8796L166.803 48.456L170.297 52.0324C175.224 47.2181 177.371 40.6344 177.371 33.032H172.371ZM166.803 48.456L163.308 44.8796C160.768 47.3616 156.997 48.896 151.314 48.896V53.896V58.896C158.859 58.896 165.413 56.8038 170.297 52.0324L166.803 48.456ZM193.755 53H188.755V58H193.755V53ZM193.755 8.2V3.2H188.755V8.2H193.755ZM206.427 8.2H211.427V3.2H206.427V8.2ZM206.427 42.952H201.427V47.952H206.427V42.952ZM227.803 42.952H232.803V37.952H227.803V42.952ZM227.803 53V58H232.803V53H227.803ZM193.755 53H198.755V8.2H193.755H188.755V53H193.755ZM193.755 8.2V13.2H206.427V8.2V3.2H193.755V8.2ZM206.427 8.2H201.427V42.952H206.427H211.427V8.2H206.427ZM206.427 42.952V47.952H227.803V42.952V37.952H206.427V42.952ZM227.803 42.952H222.803V53H227.803H232.803V42.952H227.803ZM227.803 53V48H193.755V53V58H227.803V53ZM250.612 52.552L249.271 57.3687L249.307 57.3787L249.343 57.3882L250.612 52.552ZM242.356 48.968L237.789 46.9344L236.089 50.7525L239.545 53.1026L242.356 48.968ZM246.516 39.624L249.207 35.4094L244.311 32.2845L241.949 37.5904L246.516 39.624ZM253.428 42.824L251.871 47.5751L251.917 47.5903L251.963 47.6046L253.428 42.824ZM265.524 43.592L266.873 48.4068L266.961 48.3821L267.048 48.3541L265.524 43.592ZM267.828 42.312L264.154 38.9206L264.149 38.927L264.143 38.9334L267.828 42.312ZM267.188 37.96L264.504 42.1783L264.504 42.1783L267.188 37.96ZM263.54 36.488L264.786 31.6455L264.786 31.6455L263.54 36.488ZM258.548 35.336L257.501 40.225L257.513 40.2275L257.524 40.23L258.548 35.336ZM253.108 33.864L251.527 38.6074L251.544 38.6129L251.561 38.6184L253.108 33.864ZM248.18 31.56L245.435 35.7385L245.477 35.7663L245.52 35.7932L248.18 31.56ZM244.532 27.784L240.235 30.3394L240.25 30.3654L240.266 30.3912L244.532 27.784ZM245.3 14.536L241.178 11.7068L241.159 11.7345L241.14 11.7625L245.3 14.536ZM251.956 9.288L249.907 4.72716L249.907 4.72716L251.956 9.288ZM271.604 8.328L270.426 13.1872L270.469 13.1976L270.512 13.2072L271.604 8.328ZM279.22 11.208L283.839 13.1244L285.521 9.07042L281.719 6.87707L279.22 11.208ZM275.316 20.616L272.941 25.0155L277.813 27.6463L279.935 22.5324L275.316 20.616ZM268.98 18.056L267.607 22.8636L267.652 22.8766L267.698 22.8888L268.98 18.056ZM258.676 17.736L260.2 22.4981L260.286 22.4708L260.37 22.4404L258.676 17.736ZM256.372 19.144L252.441 16.0549L252.441 16.0549L256.372 19.144ZM257.012 23.56L254.239 27.7202L254.352 27.7956L254.469 27.8646L257.012 23.56ZM260.66 24.968L259.415 29.8105L259.495 29.831L259.576 29.8489L260.66 24.968ZM265.652 26.056L264.605 30.945L264.617 30.9475L264.628 30.95L265.652 26.056ZM271.092 27.528L269.511 32.2714L269.578 32.2937L269.646 32.3141L271.092 27.528ZM276.084 29.832L273.339 34.0105L273.381 34.0383L273.424 34.0652L276.084 29.832ZM279.668 33.608L275.32 36.076L275.36 36.1463L275.402 36.2153L279.668 33.608ZM278.836 46.664L274.689 43.8721L274.682 43.8813L274.676 43.8905L278.836 46.664ZM272.244 51.912L270.195 47.3512L270.183 47.3568L270.17 47.3625L272.244 51.912ZM261.236 53.896V48.896C257.979 48.896 254.865 48.4988 251.882 47.7158L250.612 52.552L249.343 57.3882C253.187 58.3972 257.156 58.896 261.236 58.896V53.896ZM250.612 52.552L251.954 47.7353C248.933 46.8941 246.723 45.8911 245.168 44.8334L242.356 48.968L239.545 53.1026C242.256 54.9463 245.55 56.3325 249.271 57.3687L250.612 52.552ZM242.356 48.968L246.924 51.0016L251.084 41.6576L246.516 39.624L241.949 37.5904L237.789 46.9344L242.356 48.968ZM246.516 39.624L243.826 43.8386C246.234 45.3752 248.928 46.6104 251.871 47.5751L253.428 42.824L254.986 38.0729C252.723 37.3309 250.81 36.4328 249.207 35.4094L246.516 39.624ZM253.428 42.824L251.963 47.6046C255.054 48.5515 258.171 49.04 261.3 49.04V44.04V39.04C259.225 39.04 257.094 38.7178 254.894 38.0434L253.428 42.824ZM261.3 44.04V49.04C263.275 49.04 265.19 48.878 266.873 48.4068L265.524 43.592L264.176 38.7772C263.726 38.9033 262.825 39.04 261.3 39.04V44.04ZM265.524 43.592L267.048 48.3541C268.488 47.8935 270.201 47.123 271.514 45.6906L267.828 42.312L264.143 38.9334C264.25 38.8162 264.342 38.7396 264.399 38.6965C264.455 38.6537 264.484 38.6388 264.472 38.6452C264.461 38.6515 264.419 38.6739 264.338 38.7078C264.257 38.7415 264.146 38.7832 264.001 38.8299L265.524 43.592ZM267.828 42.312L271.503 45.7034C272.829 44.2665 273.596 42.4295 273.596 40.392H268.596H263.596C263.596 40.1523 263.642 39.8602 263.762 39.559C263.881 39.2613 264.036 39.0487 264.154 38.9206L267.828 42.312ZM268.596 40.392H273.596C273.596 37.489 272.105 35.162 269.873 33.7417L267.188 37.96L264.504 42.1783C264.423 42.1266 264.154 41.9296 263.917 41.5212C263.671 41.0954 263.596 40.6754 263.596 40.392H268.596ZM267.188 37.96L269.873 33.7417C268.356 32.7763 266.607 32.1139 264.786 31.6455L263.54 36.488L262.295 41.3305C263.461 41.6301 264.144 41.949 264.504 42.1783L267.188 37.96ZM263.54 36.488L264.786 31.6455C263.206 31.2392 261.466 30.8384 259.573 30.442L258.548 35.336L257.524 40.23C259.3 40.6016 260.889 40.9688 262.295 41.3305L263.54 36.488ZM258.548 35.336L259.596 30.447C257.982 30.101 256.335 29.6563 254.656 29.1096L253.108 33.864L251.561 38.6184C253.551 39.2664 255.531 39.803 257.501 40.225L258.548 35.336ZM253.108 33.864L254.69 29.1206C253.25 28.6407 251.973 28.0384 250.841 27.3268L248.18 31.56L245.52 35.7932C247.374 36.9589 249.383 37.8926 251.527 38.6074L253.108 33.864ZM248.18 31.56L250.926 27.3815C250.054 26.8084 249.356 26.088 248.799 25.1767L244.532 27.784L240.266 30.3912C241.587 32.552 243.32 34.3489 245.435 35.7385L248.18 31.56ZM244.532 27.784L248.83 25.2286C248.47 24.6226 248.124 23.5865 248.124 21.832H243.124H238.124C238.124 24.8562 238.718 27.7881 240.235 30.3394L244.532 27.784ZM243.124 21.832H248.124C248.124 20.102 248.574 18.6402 249.461 17.3095L245.3 14.536L241.14 11.7625C239.126 14.7838 238.124 18.186 238.124 21.832H243.124ZM245.3 14.536L249.423 17.3652C250.293 16.0983 251.712 14.8793 254.006 13.8488L251.956 9.288L249.907 4.72716C246.313 6.34203 243.295 8.62173 241.178 11.7068L245.3 14.536ZM251.956 9.288L254.006 13.8488C256.117 12.9003 259.035 12.304 262.964 12.304V7.304V2.304C258.104 2.304 253.684 3.03037 249.907 4.72716L251.956 9.288ZM262.964 7.304V12.304C265.518 12.304 268.002 12.5996 270.426 13.1872L271.604 8.328L272.783 3.46875C269.575 2.69108 266.299 2.304 262.964 2.304V7.304ZM271.604 8.328L270.512 13.2072C272.947 13.7522 274.999 14.5451 276.722 15.5389L279.22 11.208L281.719 6.87707C279.004 5.31087 275.98 4.18375 272.697 3.44878L271.604 8.328ZM279.22 11.208L274.602 9.29161L270.698 18.6996L275.316 20.616L279.935 22.5324L283.839 13.1244L279.22 11.208ZM275.316 20.616L277.692 16.2165C275.254 14.8997 272.776 13.89 270.263 13.2232L268.98 18.056L267.698 22.8888C269.366 23.3313 271.113 24.0283 272.941 25.0155L275.316 20.616ZM268.98 18.056L270.354 13.2484C267.864 12.537 265.375 12.16 262.9 12.16V17.16V22.16C264.352 22.16 265.915 22.3803 267.607 22.8636L268.98 18.056ZM262.9 17.16V12.16C260.853 12.16 258.805 12.3757 256.983 13.0316L258.676 17.736L260.37 22.4404C260.682 22.3283 261.45 22.16 262.9 22.16V17.16ZM258.676 17.736L257.153 12.9739C255.561 13.4831 253.756 14.3809 252.441 16.0549L256.372 19.144L260.304 22.2331C260.11 22.4803 259.94 22.5907 259.908 22.6104C259.881 22.6268 259.959 22.5755 260.2 22.4981L258.676 17.736ZM256.372 19.144L252.441 16.0549C251.271 17.5436 250.668 19.317 250.668 21.192H255.668H260.668C260.668 21.3256 260.647 21.5151 260.573 21.7294C260.499 21.9443 260.397 22.1151 260.304 22.2331L256.372 19.144ZM255.668 21.192H250.668C250.668 24.0285 252.112 26.3022 254.239 27.7202L257.012 23.56L259.786 19.3998C259.868 19.4541 260.126 19.6517 260.353 20.052C260.59 20.4703 260.668 20.8899 260.668 21.192H255.668ZM257.012 23.56L254.469 27.8646C255.942 28.7351 257.638 29.3535 259.415 29.8105L260.66 24.968L261.906 20.1255C260.696 19.8145 259.96 19.4943 259.556 19.2554L257.012 23.56ZM260.66 24.968L259.576 29.8489C261.126 30.1934 262.802 30.5588 264.605 30.945L265.652 26.056L266.7 21.167C264.919 20.7852 263.267 20.4253 261.745 20.0871L260.66 24.968ZM265.652 26.056L264.628 30.95C266.273 31.2942 267.901 31.7345 269.511 32.2714L271.092 27.528L272.674 22.7846C270.7 22.1269 268.701 21.5858 266.677 21.162L265.652 26.056ZM271.092 27.528L269.646 32.3141C271.054 32.7397 272.275 33.3115 273.339 34.0105L276.084 29.832L278.83 25.6535C276.907 24.3898 274.801 23.4256 272.539 22.7419L271.092 27.528ZM276.084 29.832L273.424 34.0652C274.196 34.5509 274.82 35.1944 275.32 36.076L279.668 33.608L284.017 31.14C282.725 28.8642 280.959 26.9905 278.745 25.5988L276.084 29.832ZM279.668 33.608L275.402 36.2153C275.736 36.7616 276.076 37.7318 276.076 39.432H281.076H286.076C286.076 36.4389 285.478 33.5264 283.935 31.0007L279.668 33.608ZM281.076 39.432H276.076C276.076 41.0113 275.643 42.4545 274.689 43.8721L278.836 46.664L282.984 49.4559C285.017 46.4362 286.076 43.0581 286.076 39.432H281.076ZM278.836 46.664L274.676 43.8905C273.857 45.1191 272.482 46.3237 270.195 47.3512L272.244 51.912L274.294 56.4728C277.895 54.855 280.915 52.5609 282.997 49.4375L278.836 46.664ZM272.244 51.912L270.17 47.3625C268.123 48.2959 265.221 48.896 261.236 48.896V53.896V58.896C266.127 58.896 270.564 58.1734 274.319 56.4615L272.244 51.912ZM299.73 53H294.73V58H299.73V53ZM299.73 8.2V3.2H294.73V8.2H299.73ZM330.77 10.184L328.721 14.7448L328.733 14.7503L328.745 14.7557L330.77 10.184ZM337.682 15.944L333.478 18.6514L333.489 18.6678L333.5 18.6841L337.682 15.944ZM337.682 33.544L341.864 36.2841L341.864 36.2841L337.682 33.544ZM330.77 39.304L332.819 43.8648L332.834 43.8582L332.849 43.8514L330.77 39.304ZM306.77 41.288L303.275 37.7121L294.5 46.288H306.77V41.288ZM312.402 35.784H317.402V23.9065L308.907 32.2081L312.402 35.784ZM312.402 53V58H317.402V53H312.402ZM312.402 37.128L308.808 40.6038L317.402 49.4911V37.128H312.402ZM306.77 31.304V26.304H294.979L303.176 34.7798L306.77 31.304ZM325.33 29.576L322.046 25.8056L322.015 25.8323L321.985 25.8595L325.33 29.576ZM325.33 19.912L321.985 23.6285L322.015 23.6557L322.046 23.6824L325.33 19.912ZM306.77 18.184L303.176 14.7082L294.979 23.184H306.77V18.184ZM312.402 12.36H317.402V-0.00306713L308.808 8.88421L312.402 12.36ZM299.73 53H304.73V8.2H299.73H294.73V53H299.73ZM299.73 8.2V13.2H320.21V8.2V3.2H299.73V8.2ZM320.21 8.2V13.2C323.783 13.2 326.57 13.7784 328.721 14.7448L330.77 10.184L332.819 5.62316C329.082 3.94422 324.829 3.2 320.21 3.2V8.2ZM330.77 10.184L328.745 14.7557C330.924 15.7205 332.434 17.0294 333.478 18.6514L337.682 15.944L341.886 13.2366C339.688 9.82393 336.589 7.29283 332.795 5.61225L330.77 10.184ZM337.682 15.944L333.5 18.6841C334.509 20.225 335.114 22.1827 335.114 24.776H340.114H345.114C345.114 20.5426 344.097 16.6123 341.864 13.2039L337.682 15.944ZM340.114 24.776H335.114C335.114 27.3127 334.516 29.2529 333.5 30.8039L337.682 33.544L341.864 36.2841C344.091 32.8858 345.114 28.9806 345.114 24.776H340.114ZM337.682 33.544L333.5 30.8039C332.451 32.4048 330.918 33.7388 328.691 34.7566L330.77 39.304L332.849 43.8514C336.596 42.1386 339.671 39.6326 341.864 36.2841L337.682 33.544ZM330.77 39.304L328.721 34.7432C326.57 35.7096 323.783 36.288 320.21 36.288V41.288V46.288C324.829 46.288 329.082 45.5438 332.819 43.8648L330.77 39.304ZM320.21 41.288V36.288H306.77V41.288V46.288H320.21V41.288ZM306.77 41.288L310.265 44.8639L315.897 39.3599L312.402 35.784L308.907 32.2081L303.275 37.7121L306.77 41.288ZM312.402 35.784H307.402V53H312.402H317.402V35.784H312.402ZM312.402 53V48H299.73V53V58H312.402V53ZM312.402 37.128L315.996 33.6522L310.364 27.8282L306.77 31.304L303.176 34.7798L308.808 40.6038L312.402 37.128ZM306.77 31.304V36.304H319.442V31.304V26.304H306.77V31.304ZM319.442 31.304V36.304C322.684 36.304 326.093 35.6163 328.675 33.2925L325.33 29.576L321.985 25.8595C321.985 25.8599 321.979 25.8653 321.965 25.8749C321.951 25.8847 321.927 25.9 321.891 25.9194C321.817 25.9584 321.69 26.0156 321.49 26.0743C321.077 26.1955 320.42 26.304 319.442 26.304V31.304ZM325.33 29.576L328.614 33.3464C331.214 31.0822 332.314 28.0022 332.314 24.776H327.314H322.314C322.314 25.2624 322.236 25.5078 322.197 25.6021C322.166 25.6771 322.132 25.731 322.046 25.8056L325.33 29.576ZM327.314 24.776H332.314C332.314 21.544 331.237 18.4264 328.614 16.1416L325.33 19.912L322.046 23.6824C322.119 23.7458 322.153 23.795 322.188 23.8804C322.232 23.9873 322.314 24.2552 322.314 24.776H327.314ZM325.33 19.912L328.675 16.1955C326.093 13.8717 322.684 13.184 319.442 13.184V18.184V23.184C320.42 23.184 321.077 23.2925 321.49 23.4137C321.69 23.4724 321.817 23.5296 321.891 23.5686C321.927 23.588 321.951 23.6033 321.965 23.6131C321.979 23.6227 321.985 23.6281 321.985 23.6285L325.33 19.912ZM319.442 18.184V13.184H306.77V18.184V23.184H319.442V18.184ZM306.77 18.184L310.364 21.6598L315.996 15.8358L312.402 12.36L308.808 8.88421L303.176 14.7082L306.77 18.184ZM312.402 12.36H307.402V37.128H312.402H317.402V12.36H312.402ZM351.466 53L346.892 50.9808L343.794 58H351.466V53ZM371.242 8.2V3.2H367.984L366.668 6.18083L371.242 8.2ZM383.722 8.2L388.294 6.17537L386.977 3.2H383.722V8.2ZM403.562 53V58H411.245L408.134 50.9754L403.562 53ZM390.378 53L385.738 54.8623L386.997 58H390.378V53ZM374.89 14.408V9.408H367.496L370.25 16.2703L374.89 14.408ZM379.882 14.408L384.523 16.2703L387.277 9.408H379.882V14.408ZM364.394 53V58H367.775L369.035 54.8623L364.394 53ZM362.282 44.296L357.562 42.6471L355.24 49.296H362.282V44.296ZM365.546 34.952V29.952H361.997L360.826 33.3031L365.546 34.952ZM387.434 34.952L392.155 33.3031L390.984 29.952H387.434V34.952ZM390.698 44.296V49.296H397.741L395.419 42.6471L390.698 44.296ZM351.466 53L356.041 55.0192L375.817 10.2192L371.242 8.2L366.668 6.18083L346.892 50.9808L351.466 53ZM371.242 8.2V13.2H383.722V8.2V3.2H371.242V8.2ZM383.722 8.2L379.151 10.2246L398.991 55.0246L403.562 53L408.134 50.9754L388.294 6.17537L383.722 8.2ZM403.562 53V48H390.378V53V58H403.562V53ZM390.378 53L395.019 51.1377L379.531 12.5457L374.89 14.408L370.25 16.2703L385.738 54.8623L390.378 53ZM374.89 14.408V19.408H379.882V14.408V9.408H374.89V14.408ZM379.882 14.408L375.242 12.5457L359.754 51.1377L364.394 53L369.035 54.8623L384.523 16.2703L379.882 14.408ZM364.394 53V48H351.466V53V58H364.394V53ZM362.282 44.296L367.003 45.9449L370.267 36.6009L365.546 34.952L360.826 33.3031L357.562 42.6471L362.282 44.296ZM365.546 34.952V39.952H387.434V34.952V29.952H365.546V34.952ZM387.434 34.952L382.714 36.6009L385.978 45.9449L390.698 44.296L395.419 42.6471L392.155 33.3031L387.434 34.952ZM390.698 44.296V39.296H362.282V44.296V49.296H390.698V44.296ZM431.81 52.232L430.011 56.897L430.051 56.9124L430.091 56.9271L431.81 52.232ZM424.002 47.368L420.538 50.9735L420.555 50.9903L420.573 51.0069L424.002 47.368ZM418.882 40.008L414.293 41.9941L414.299 42.0068L414.304 42.0194L418.882 40.008ZM418.882 21.256L423.46 23.2674L423.465 23.2548L423.471 23.2421L418.882 21.256ZM424.002 13.832L420.573 10.1931L420.555 10.2097L420.538 10.2265L424.002 13.832ZM431.81 9.032L433.551 13.7191L433.569 13.7124L433.587 13.7055L431.81 9.032ZM452.738 9.48L450.696 14.0441L450.707 14.049L450.718 14.0539L452.738 9.48ZM460.93 15.752L464.285 19.4597L467.767 16.3088L464.84 12.636L460.93 15.752ZM452.866 23.048L449.056 26.2862L452.396 30.2157L456.221 26.7557L452.866 23.048ZM448.066 19.144L445.742 23.571L445.764 23.5827L445.787 23.5942L448.066 19.144ZM437.25 18.696L439.062 23.356L439.062 23.356L437.25 18.696ZM433.282 21.32L429.68 17.8518L429.678 17.8545L433.282 21.32ZM430.722 25.352L426.088 23.4735L426.066 23.5278L426.046 23.5825L430.722 25.352ZM430.722 35.848L426.046 37.6175L426.066 37.6722L426.088 37.7265L430.722 35.848ZM433.282 39.944L429.613 43.341L429.679 43.4116L429.746 43.4795L433.282 39.944ZM437.25 42.504L439.062 37.844L439.062 37.844L437.25 42.504ZM448.066 42.056L445.787 37.6058L445.764 37.6173L445.742 37.629L448.066 42.056ZM452.866 38.152L456.221 34.4443L452.396 30.9843L449.056 34.9138L452.866 38.152ZM460.93 45.448L464.816 48.594L467.794 44.9155L464.285 41.7403L460.93 45.448ZM452.738 51.72L454.78 56.2841L454.793 56.278L454.807 56.2718L452.738 51.72ZM441.666 53.896V48.896C438.654 48.896 435.957 48.4258 433.529 47.5369L431.81 52.232L430.091 56.9271C433.722 58.2569 437.595 58.896 441.666 58.896V53.896ZM431.81 52.232L433.609 47.567C431.197 46.6363 429.155 45.3533 427.431 43.7291L424.002 47.368L420.573 51.0069C423.287 53.5641 426.45 55.5237 430.011 56.897L431.81 52.232ZM424.002 47.368L427.466 43.7625C425.771 42.1341 424.439 40.2253 423.46 37.9966L418.882 40.008L414.304 42.0194C415.8 45.4227 417.881 48.4206 420.538 50.9735L424.002 47.368ZM418.882 40.008L423.471 38.0219C422.53 35.848 422.026 33.3961 422.026 30.6H417.026H412.026C412.026 34.6306 412.76 38.4507 414.293 41.9941L418.882 40.008ZM417.026 30.6H422.026C422.026 27.8028 422.53 25.3831 423.46 23.2674L418.882 21.256L414.304 19.2446C412.759 22.7609 412.026 26.5705 412.026 30.6H417.026ZM418.882 21.256L423.471 23.2421C424.453 20.9724 425.784 19.0534 427.466 17.4375L424.002 13.832L420.538 10.2265C417.868 12.7919 415.786 15.8222 414.293 19.2699L418.882 21.256ZM424.002 13.832L427.431 17.4709C429.141 15.8597 431.163 14.6062 433.551 13.7191L431.81 9.032L430.069 4.34487C426.484 5.67644 423.3 7.62294 420.573 10.1931L424.002 13.832ZM431.81 9.032L433.587 13.7055C435.999 12.7885 438.676 12.304 441.666 12.304V7.304V2.304C437.574 2.304 433.68 2.97148 430.033 4.35852L431.81 9.032ZM441.666 7.304V12.304C445.216 12.304 448.193 12.9244 450.696 14.0441L452.738 9.48L454.78 4.91591C450.797 3.1343 446.393 2.304 441.666 2.304V7.304ZM452.738 9.48L450.718 14.0539C453.287 15.1881 455.362 16.7873 457.02 18.868L460.93 15.752L464.84 12.636C462.146 9.25535 458.76 6.67323 454.758 4.90606L452.738 9.48ZM460.93 15.752L457.575 12.0443L449.511 19.3403L452.866 23.048L456.221 26.7557L464.285 19.4597L460.93 15.752ZM452.866 23.048L456.676 19.8098C454.859 17.6719 452.756 15.9282 450.345 14.6938L448.066 19.144L445.787 23.5942C446.875 24.1518 447.972 25.0107 449.056 26.2862L452.866 23.048ZM448.066 19.144L450.39 14.717C447.893 13.4058 445.161 12.8 442.306 12.8V17.8V22.8C443.718 22.8 444.826 23.0902 445.742 23.571L448.066 19.144ZM442.306 17.8V12.8C439.921 12.8 437.613 13.1899 435.438 14.036L437.25 18.696L439.062 23.356C439.959 23.0074 441.021 22.8 442.306 22.8V17.8ZM437.25 18.696L435.438 14.036C433.247 14.8879 431.308 16.1613 429.68 17.8518L433.282 21.32L436.884 24.7882C437.474 24.1747 438.181 23.6988 439.062 23.356L437.25 18.696ZM433.282 21.32L429.678 17.8545C428.125 19.4691 426.942 21.3682 426.088 23.4735L430.722 25.352L435.356 27.2305C435.782 26.1785 436.305 25.3896 436.886 24.7855L433.282 21.32ZM430.722 25.352L426.046 23.5825C425.207 25.7988 424.826 28.1578 424.826 30.6H429.826H434.826C434.826 29.2022 435.042 28.0626 435.398 27.1215L430.722 25.352ZM429.826 30.6H424.826C424.826 33.0422 425.207 35.4012 426.046 37.6175L430.722 35.848L435.398 34.0785C435.042 33.1374 434.826 31.9978 434.826 30.6H429.826ZM430.722 35.848L426.088 37.7265C426.936 39.8178 428.102 41.709 429.613 43.341L433.282 39.944L436.951 36.547C436.329 35.875 435.788 35.0356 435.356 33.9695L430.722 35.848ZM433.282 39.944L429.746 43.4795C431.371 45.1038 433.289 46.3283 435.438 47.164L437.25 42.504L439.062 37.844C438.139 37.485 437.412 37.0029 436.818 36.4085L433.282 39.944ZM437.25 42.504L435.438 47.164C437.613 48.0101 439.921 48.4 442.306 48.4V43.4V38.4C441.021 38.4 439.959 38.1926 439.062 37.844L437.25 42.504ZM442.306 43.4V48.4C445.161 48.4 447.893 47.7942 450.39 46.483L448.066 42.056L445.742 37.629C444.826 38.1098 443.718 38.4 442.306 38.4V43.4ZM448.066 42.056L450.345 46.5062C452.756 45.2718 454.859 43.5281 456.676 41.3902L452.866 38.152L449.056 34.9138C447.972 36.1893 446.875 37.0482 445.787 37.6058L448.066 42.056ZM452.866 38.152L449.511 41.8597L457.575 49.1557L460.93 45.448L464.285 41.7403L456.221 34.4443L452.866 38.152ZM460.93 45.448L457.044 42.302C455.378 44.3602 453.279 45.9816 450.669 47.1682L452.738 51.72L454.807 56.2718C458.767 54.4717 462.13 51.9118 464.816 48.594L460.93 45.448ZM452.738 51.72L450.696 47.1559C448.193 48.2756 445.216 48.896 441.666 48.896V53.896V58.896C446.393 58.896 450.797 58.0657 454.78 56.2841L452.738 51.72ZM491.028 25.544V20.544H486.028V25.544H491.028ZM511.828 25.544H516.828V20.544H511.828V25.544ZM511.828 35.016V40.016H516.828V35.016H511.828ZM491.028 35.016H486.028V40.016H491.028V35.016ZM491.924 43.208H486.924V48.208H491.924V43.208ZM515.348 43.208H520.348V38.208H515.348V43.208ZM515.348 53V58H520.348V53H515.348ZM479.38 53H474.38V58H479.38V53ZM479.38 8.2V3.2H474.38V8.2H479.38ZM514.516 8.2H519.516V3.2H514.516V8.2ZM514.516 17.992V22.992H519.516V17.992H514.516ZM491.924 17.992V12.992H486.924V17.992H491.924ZM491.028 25.544V30.544H511.828V25.544V20.544H491.028V25.544ZM511.828 25.544H506.828V35.016H511.828H516.828V25.544H511.828ZM511.828 35.016V30.016H491.028V35.016V40.016H511.828V35.016ZM491.028 35.016H496.028V25.544H491.028H486.028V35.016H491.028ZM491.924 43.208V48.208H515.348V43.208V38.208H491.924V43.208ZM515.348 43.208H510.348V53H515.348H520.348V43.208H515.348ZM515.348 53V48H479.38V53V58H515.348V53ZM479.38 53H484.38V8.2H479.38H474.38V53H479.38ZM479.38 8.2V13.2H514.516V8.2V3.2H479.38V8.2ZM514.516 8.2H509.516V17.992H514.516H519.516V8.2H514.516ZM514.516 17.992V12.992H491.924V17.992V22.992H514.516V17.992ZM491.924 17.992H486.924V43.208H491.924H496.924V17.992H491.924Z" fill="white" mask="url(#path-1-outside-1_482_44)"/>
</g>
<defs>
<filter id="filter0_d_482_44" x="0.076416" y="-0.00317383" width="520.271" height="63.8992" filterUnits="userSpaceOnUse" color-interpolation-filters="sRGB">
<feFlood flood-opacity="0" result="BackgroundImageFix"/>
<feColorMatrix in="SourceAlpha" type="matrix" values="0 0 0 0 0 0 0 0 0 0 0 0 0 0 0 0 0 0 127 0" result="hardAlpha"/>
<feOffset dy="5"/>
<feComposite in2="hardAlpha" operator="out"/>
<feColorMatrix type="matrix" values="0 0 0 0 0.886275 0 0 0 0 0.027451 0 0 0 0 0.890196 0 0 0 1 0"/>
<feBlend mode="normal" in2="BackgroundImageFix" result="effect1_dropShadow_482_44"/>
<feBlend mode="normal" in="SourceGraphic" in2="effect1_dropShadow_482_44" result="shape"/>
</filter>
</defs>
</svg>
