<svg width="63" height="62" viewBox="0 0 63 62" fill="none" xmlns="http://www.w3.org/2000/svg">
<path d="M31.2463 61.9306C48.3237 61.9306 62.1676 48.0669 62.1676 30.9653C62.1676 13.8636 48.3237 0 31.2463 0C14.1689 0 0.324951 13.8636 0.324951 30.9653C0.324951 48.0669 14.1689 61.9306 31.2463 61.9306Z" fill="#4CAADD"/>
<path fill-rule="evenodd" clip-rule="evenodd" d="M17.1391 14H45.2553C46.8101 14 48.0695 15.257 48.0695 16.8091V20.0799C48.0695 21.632 46.8101 22.889 45.2553 22.889H17.1391C15.5843 22.889 14.325 21.632 14.325 20.0799V16.8091C14.325 15.257 15.5843 14 17.1391 14Z" fill="#4F3422"/>
<path fill-rule="evenodd" clip-rule="evenodd" d="M18.3728 22.8887H44.3686V45.8104C44.3686 47.3624 43.1093 48.6194 41.5544 48.6194H21.1869C19.6321 48.6194 18.3728 47.3624 18.3728 45.8104V22.8887Z" fill="white"/>
<path fill-rule="evenodd" clip-rule="evenodd" d="M23.2301 27.0967H40.565C41.336 27.0967 41.9656 27.7252 41.9656 28.4948V37.3838C41.9656 38.1535 41.336 38.782 40.565 38.782H23.2301C22.4591 38.782 21.8295 38.1535 21.8295 37.3838V28.4948C21.8295 27.7252 22.4591 27.0967 23.2301 27.0967Z" fill="white"/>
<path d="M38.6503 33.9584H27.2008C26.4298 33.9584 25.8001 33.3299 25.8001 32.5603C25.8001 31.7906 26.4298 31.1621 27.2008 31.1621H38.6503C39.4213 31.1621 40.051 31.7906 40.051 32.5603C40.0638 33.3299 39.4341 33.9584 38.6503 33.9584Z" fill="#4F3422"/>
</svg>
