<svg width="93" height="93" viewBox="0 0 93 93" fill="none" xmlns="http://www.w3.org/2000/svg">
<path d="M75.1096 34.5625C82.1649 49.9659 74.3743 64.047 61.8558 70.6881C51.0927 76.398 32.2345 73.6007 21.8596 65.7619C11.3034 57.7861 10.0284 49.2879 16.5387 40.2762C25.6116 27.7175 23.0447 19.955 36.613 14.1977C44.0253 11.0526 52.4083 13.2599 57.0202 18.6478C62.9895 25.6215 71.6154 26.9337 75.1096 34.5625Z" fill="#F3EDFF"/>
<path d="M11.0451 36.3037C11.0451 36.3037 10.0713 41.5965 15.3666 43.4913C15.3666 43.4913 16.241 38.2932 11.0451 36.3037Z" fill="#C9CFF2"/>
<path d="M10.1534 44.9735C10.1534 44.9735 12.3863 49.8702 17.8121 48.3911C17.8121 48.3911 15.5524 43.6291 10.1534 44.9735Z" fill="#C9CFF2"/>
<path d="M11.8731 50.628C11.8731 50.628 14.8659 55.1008 19.9825 52.7667C19.9825 52.7667 16.9848 48.4312 11.8731 50.628Z" fill="#C9CFF2"/>
<path d="M19.4794 40.1943C19.4794 40.1943 15.2263 43.4919 17.9118 48.4332C17.9118 48.4332 22.0276 45.1404 19.4794 40.1943Z" fill="#C9CFF2"/>
<path d="M22.2899 45.9014C22.2899 45.9014 18.0368 49.199 20.7223 54.1402C20.7223 54.1402 24.8383 50.8475 22.2899 45.9014Z" fill="#C9CFF2"/>
<path d="M13.2624 39.7139C13.2624 39.7139 21.369 54.0723 25.285 65.2018" stroke="#C9CFF2" stroke-miterlimit="10"/>
<path d="M25.37 30.6904C25.37 30.6904 20.7922 55.7896 30.8068 63.8012C40.8214 71.8128 41.2263 65.3406 41.2263 65.3406C41.2263 65.3406 40.5158 38.3445 25.37 30.6904Z" fill="#D4DAFF"/>
<path d="M25.4563 30.6416C25.4563 30.6416 33.6057 66.7319 39.3416 72.1094" stroke="white" stroke-miterlimit="10" stroke-linecap="round"/>
<path d="M6.3692 54.377C6.3692 54.377 11.9479 70.8908 21.6551 72.7026C31.3622 74.5146 31.9323 68.704 31.9323 68.704C31.9323 68.704 17.6148 54.9489 6.3692 54.377Z" fill="#C9CFF2"/>
<path d="M5.94028 53.832C5.94028 53.832 25.2158 72.1569 31.0616 73.7307" stroke="white" stroke-miterlimit="10" stroke-linecap="round"/>
<path d="M80.3018 36.3047C80.3018 36.3047 81.2753 41.5975 75.9803 43.4923C75.9803 43.4923 75.1059 38.2941 80.3018 36.3047Z" fill="#C9CFF2"/>
<path d="M81.1935 44.9745C81.1935 44.9745 78.9605 49.8712 73.5347 48.3921C73.5347 48.3921 75.7944 43.6301 81.1935 44.9745Z" fill="#C9CFF2"/>
<path d="M79.4737 50.628C79.4737 50.628 76.481 55.1008 71.3643 52.7667C71.3643 52.7667 74.3619 48.4312 79.4737 50.628Z" fill="#C9CFF2"/>
<path d="M71.8674 40.1943C71.8674 40.1943 76.1205 43.4919 73.435 48.4332C73.435 48.4332 69.3192 45.1404 71.8674 40.1943Z" fill="#C9CFF2"/>
<path d="M69.0568 45.9023C69.0568 45.9023 73.3099 49.1999 70.6244 54.1412C70.6244 54.1412 66.5086 50.8485 69.0568 45.9023Z" fill="#C9CFF2"/>
<path d="M78.0843 39.7148C78.0843 39.7148 69.9777 54.0733 66.0616 65.2028" stroke="#C9CFF2" stroke-miterlimit="10"/>
<path d="M62.2081 62.4114C52.1938 70.4243 47.9884 64.1152 47.9884 64.1152C47.9884 64.1152 52.6291 47.444 61.4901 37.6083L63.7035 40.3834L62.8163 36.2208C64.5684 34.4984 66.4693 33.0606 68.5172 32.0674C68.5172 32.0674 72.2223 54.4004 62.2081 62.4114Z" fill="#D4DAFF"/>
<path d="M68.5081 32.0889C68.5081 32.0889 57.7411 66.7321 52.005 72.1096" stroke="white" stroke-miterlimit="10" stroke-linecap="round"/>
<path d="M84.9776 54.377C84.9776 54.377 79.3989 70.8908 69.6918 72.7026C59.9846 74.5146 59.4145 68.704 59.4145 68.704C59.4145 68.704 73.7319 54.9489 84.9776 54.377Z" fill="#C9CFF2"/>
<path d="M84.8595 54.3721C84.8595 54.3721 66.131 72.1572 60.2852 73.731" stroke="white" stroke-miterlimit="10" stroke-linecap="round"/>
<path d="M45.955 36.9922V68.3667L35.2842 65.3088L35.7845 63.6962L36.0115 54.1525C35.9501 54.3013 35.3716 55.0825 34.7448 55.9102C33.6604 57.3387 32.1557 58.3915 30.4408 58.9179C27.9484 59.6823 24.5427 60.75 24.4274 60.9043L21.4309 55.6201L29.2987 52.0991L32.8662 44.7093C33.5693 43.1897 34.6351 41.8877 35.9519 40.9075C36.7741 40.2955 37.691 39.8082 38.6806 39.4716L41.4408 38.5304L45.955 36.9922Z" fill="#294385"/>
<path d="M21.4268 55.6517L18.4834 53.3848C18.2773 53.1061 17.92 52.9847 17.5869 53.0799C17.1215 53.2129 16.8678 53.7136 17.0356 54.1674L18.5092 55.8524C18.6424 56.2127 18.3052 56.4047 17.9754 56.5615L16.3275 57.2478C16.1699 57.3135 16.0116 57.1561 16.076 56.9982L16.7028 55.4615C16.75 55.2963 16.7698 55.1226 16.7439 54.9529C16.722 54.809 16.6671 54.6544 16.5425 54.5547C16.073 54.179 15.3818 54.2904 15.0539 54.7945L14.04 56.3539C13.4363 57.2824 13.6323 58.5172 14.4939 59.2133L16.3401 60.7044C17.498 61.6396 19.0925 61.8206 20.4306 61.1687L22.8841 60L21.4268 55.6517Z" fill="#EF9B74"/>
<path d="M24.4144 60.878L17.6402 63.2569C16.7047 63.7238 15.5961 63.6438 14.7424 63.0579C14.694 63.0263 14.6475 62.9909 14.601 62.9556L13.5947 62.2376C13.087 61.8433 13.1223 61.064 13.6654 60.718L21.4272 55.6514L24.3102 60.6975L24.4144 60.878Z" fill="#EF9B74"/>
<path d="M17.8962 60.8242L13.8767 62.4195" stroke="#21426B" stroke-miterlimit="10" stroke-linecap="round"/>
<path d="M15.1875 59.7001L17.109 58.8252" stroke="#21426B" stroke-miterlimit="10" stroke-linecap="round"/>
<path d="M50.443 30.7493C50.0967 31.8173 50.5864 32.9332 51.5367 33.2412C52.487 33.5492 53.5382 32.9332 53.8846 31.8651C54.2309 30.7971 53.7412 29.6813 52.7909 29.3733C51.8406 29.0653 50.7893 29.6811 50.443 30.7493Z" fill="#EF8B5D"/>
<path d="M41.7821 30.7484C42.1284 31.8164 41.6387 32.9322 40.6884 33.2403C39.7382 33.5485 38.6869 32.9322 38.3406 31.8642C37.9942 30.7962 38.484 29.6804 39.4342 29.3724C40.3847 29.0642 41.436 29.6802 41.7821 30.7484Z" fill="#EF8B5D"/>
<path d="M40.2033 32.2016C40.6676 32.2016 41.0439 31.8253 41.0439 31.361C41.0439 30.8968 40.6676 30.5205 40.2033 30.5205C39.7391 30.5205 39.3628 30.8968 39.3628 31.361C39.3628 31.8253 39.7391 32.2016 40.2033 32.2016Z" stroke="#B86B47" stroke-miterlimit="10" stroke-linecap="round"/>
<path d="M52.8452 31.361C52.8452 31.8253 52.4689 32.2016 52.0047 32.2016C51.5404 32.2016 51.1641 31.8253 51.1641 31.361C51.1641 30.8968 51.5404 30.5205 52.0047 30.5205C52.4689 30.5205 52.8452 30.8968 52.8452 31.361Z" stroke="#B86B47" stroke-miterlimit="10" stroke-linecap="round"/>
<path d="M70.4308 55.6201L67.4343 60.9043C67.319 60.75 63.9133 59.6823 61.4209 58.9179C59.706 58.3915 58.2013 57.3387 57.1169 55.9102C56.5161 55.1179 55.9618 54.3702 55.8614 54.1749C55.8614 54.1749 55.8595 54.1749 55.8595 54.173C55.8558 54.1656 55.8521 54.1581 55.8502 54.1525L56.0771 63.6962L56.5775 65.3088L45.9085 68.3667V36.9922L53.1811 39.4716C54.1353 39.7971 55.0244 40.2621 55.8242 40.8424C57.1801 41.8319 58.2775 43.1562 58.9955 44.7093L62.563 52.0991L70.4308 55.6201Z" fill="#294385"/>
<path d="M49.1341 32.2217V38.3662C49.1341 40.0913 47.7356 41.4897 46.0086 41.4897C44.2836 41.4897 42.8851 40.0912 42.8851 38.3662V32.2217H49.1341Z" fill="#EF9B74"/>
<path d="M49.1341 32.2217V37.9579C48.4809 38.2384 47.7587 38.3933 47.0029 38.3933H45.1482C44.34 38.3933 43.5739 38.2176 42.8851 37.8993V32.2217H49.1341Z" fill="#EF8B5D"/>
<path d="M51.8685 28.0434V32.4968C51.8685 35.2286 49.656 37.4411 46.9243 37.4411H45.233C42.5012 37.4411 40.2887 35.2286 40.2887 32.4968V28.0434C40.2887 25.3957 42.4344 23.25 45.0821 23.25H47.0751C47.3214 23.25 47.5637 23.2692 47.7986 23.3054C50.1028 23.6529 51.8685 25.642 51.8685 28.0434Z" fill="#EF9B74"/>
<path d="M44.1932 29.5508C44.1932 30.1224 43.7299 30.5857 43.1583 30.5857C42.5867 30.5857 42.1234 30.1224 42.1234 29.5508" stroke="#262347" stroke-miterlimit="10" stroke-linecap="round"/>
<path d="M50.2961 29.5508C50.2961 30.1224 49.8328 30.5857 49.2612 30.5857C48.6896 30.5857 48.2263 30.1224 48.2263 29.5508" stroke="#262347" stroke-miterlimit="10" stroke-linecap="round"/>
<path d="M47.1134 33.0771C47.1134 33.6487 46.6501 34.1121 46.0785 34.1121C45.5069 34.1121 45.0436 33.6487 45.0436 33.0771" stroke="#CC7045" stroke-miterlimit="10" stroke-linecap="round"/>
<path d="M44.3151 31.7611C44.3151 32.121 43.8201 32.4129 43.2097 32.4129C42.5992 32.4129 42.1043 32.121 42.1043 31.7611C42.1043 31.4012 42.5992 31.1094 43.2097 31.1094C43.8201 31.1094 44.3151 31.4012 44.3151 31.7611Z" fill="#EF8B5D"/>
<path d="M50.1973 31.7611C50.1973 32.121 49.7024 32.4129 49.0919 32.4129C48.4815 32.4129 47.9865 32.121 47.9865 31.7611C47.9865 31.4012 48.4815 31.1094 49.0919 31.1094C49.7024 31.1094 50.1973 31.4012 50.1973 31.7611Z" fill="#EF8B5D"/>
<path d="M46.409 81.4888C64.5571 81.4888 79.2689 79.0004 79.2689 75.9309C79.2689 72.8614 64.5571 70.373 46.409 70.373C28.261 70.373 13.5492 72.8614 13.5492 75.9309C13.5492 79.0004 28.261 81.4888 46.409 81.4888Z" fill="#E6E9FF"/>
<path d="M32.1315 62.6335L29.7061 72.3669L22.7515 71.4964C19.9057 71.1393 17.9546 68.4516 18.4977 65.6356C18.9515 63.2771 21.0161 61.6143 23.3616 61.6143C23.5606 61.6143 23.7615 61.6254 23.9624 61.6496L32.1315 62.6335Z" fill="#EF8B5D"/>
<path d="M69.1436 71.4964L62.8252 72.2869L59.334 62.6856L67.9346 61.6496C68.1355 61.6254 68.3364 61.6143 68.5354 61.6143C70.8809 61.6143 72.9455 63.2771 73.3993 65.6356C73.9424 68.4516 71.9894 71.1393 69.1436 71.4964Z" fill="#EF8B5D"/>
<path d="M62.8252 72.2872L45.9922 74.3946L45.9494 73.3455L45.9048 74.3946L29.7061 72.3672L32.1315 62.6338L43.7044 64.0288C45.1943 64.2092 46.7027 64.2092 48.1926 64.0288L59.334 62.6859L62.8252 72.2872Z" fill="#193150"/>
<path d="M41.9947 20.8789H41.0076C40.2969 20.8789 39.7209 21.4549 39.7209 22.1657V29.2906L40.3006 29.3373C40.7035 27.8457 41.8104 28.3262 41.8104 27.1363L41.9947 20.8789Z" fill="#193150"/>
<path d="M50.1294 20.8789H51.1165C51.8272 20.8789 52.4033 21.4549 52.4033 22.1657V29.2999L51.865 29.3538C51.7924 27.6501 50.335 27.9914 50.335 26.8015L50.1294 20.8789Z" fill="#193150"/>
<path d="M51.5332 23.9755C45.5886 27.0668 40.5964 23.9755 40.5964 23.9755V21.0702C40.5964 21.033 40.5982 20.9958 40.6019 20.9586C40.6577 20.3299 41.186 19.8389 41.8277 19.8389H50.3018C50.9826 19.8389 51.5332 20.3894 51.5332 21.0702C51.5332 21.0702 52.4204 23.5124 51.5332 23.9755Z" fill="#193150"/>
<path d="M70.4352 55.6517L73.3787 53.3848C73.5848 53.1061 73.9421 52.9847 74.2752 53.0799C74.7406 53.2129 74.9943 53.7136 74.8265 54.1674L73.353 55.8524C73.2198 56.2127 73.5571 56.4047 73.8868 56.5615L75.5348 57.2478C75.6923 57.3135 75.8506 57.1561 75.7863 56.9982L75.1594 55.4615C75.1122 55.2963 75.0925 55.1226 75.1183 54.9529C75.1403 54.809 75.1952 54.6544 75.3198 54.5547C75.7892 54.179 76.4804 54.2904 76.8083 54.7945L77.8222 56.3539C78.426 57.2824 78.2301 58.5172 77.3684 59.2133L75.522 60.7044C74.3641 61.6396 72.7695 61.8206 71.4314 61.1687L68.9779 60L70.4352 55.6517Z" fill="#EF9B74"/>
<path d="M70.4352 55.6514L78.1974 60.7178C78.7392 61.0642 78.7753 61.8424 78.2677 62.2373L77.2618 62.9561C76.3911 63.6334 75.2091 63.7504 74.2226 63.2571L67.4475 60.8783L70.4352 55.6514Z" fill="#EF9B74"/>
<path d="M73.9657 60.8242L77.9852 62.4195" stroke="#21426B" stroke-miterlimit="10" stroke-linecap="round"/>
<path d="M76.6744 59.7001L74.7528 58.8252" stroke="#21426B" stroke-miterlimit="10" stroke-linecap="round"/>
<path d="M59.334 62.6859C59.334 62.6859 52.2307 65.1448 46.3642 65.2973C40.4996 65.4498 32.1315 62.6338 32.1315 62.6338L43.7044 64.0288C45.1943 64.2092 46.7027 64.2092 48.1926 64.0288L59.334 62.6859Z" fill="#1D3A5E"/>
<path d="M55.9538 71.8262L45.4694 71.8455L43.8173 78.6976L48.7861 79.6127C52.3224 80.2639 55.8177 78.2895 57.0849 74.9244L57.4428 73.9741C57.8345 72.9344 57.0648 71.8241 55.9538 71.8262Z" fill="#EF8B5D"/>
<path d="M45.4696 71.845L45.3952 72.1519L43.8811 78.4332L43.8179 78.6973L43.3361 78.5336L33.1471 75.0945L21.7099 71.2331C18.9925 70.3161 17.6179 67.2918 18.7116 64.6413C19.4984 62.7385 21.3398 61.5723 23.2965 61.5723C23.8173 61.5723 24.3437 61.6541 24.8626 61.8271L42.7967 70.5468L45.3022 71.7632L45.4696 71.845Z" fill="#EF9B74"/>
<path d="M67.0346 61.8268L46.4275 71.8457L48.0795 78.6977L70.1867 71.233C72.904 70.3154 74.2791 67.2916 73.1847 64.6406C72.1911 62.2337 69.5054 61.005 67.0346 61.8268Z" fill="#EF9B74"/>
<path d="M45.3952 72.1521L43.8811 78.4333L43.3361 78.5338L33.1471 75.0946C32.9164 74.704 32.7155 74.2892 32.5519 73.8521L32.1668 72.8329C31.7465 71.7169 32.5723 70.5265 33.7646 70.5283L42.7967 70.5469L45.3022 71.7634L45.3952 72.1521Z" fill="#EF8B5D"/>
<path d="M35.943 71.8262L46.4275 71.8455L48.0795 78.6976L43.1107 79.6127C39.5745 80.2639 36.0792 78.2895 34.8119 74.9244L34.4541 73.9741C34.0622 72.9344 34.8319 71.8241 35.943 71.8262Z" fill="#EF9B74"/>
<path d="M34.7342 74.5928L38.0952 74.3545" stroke="#21426B" stroke-miterlimit="10" stroke-linecap="round"/>
<path d="M35.5876 76.4503L38.1114 76.1211" stroke="#21426B" stroke-miterlimit="10" stroke-linecap="round"/>
<path d="M36.9243 78.0037L38.8067 77.5791" stroke="#21426B" stroke-miterlimit="10" stroke-linecap="round"/>
<path d="M70.4308 55.6195L70.2913 55.865L67.4343 60.9038C67.319 60.7494 63.9133 59.6817 61.4209 58.9173C59.706 58.3909 58.2013 57.3381 57.1169 55.9097C56.5161 55.1173 55.9618 54.3696 55.8614 54.1743C55.8614 54.1743 55.8595 54.1743 55.8595 54.1724C55.8558 54.1575 55.8539 54.1408 55.8502 54.1259C55.056 50.0916 55.3499 44.8389 55.6717 42.0043C55.7237 41.5486 55.7758 41.1561 55.8242 40.8418C57.1801 41.8313 58.2775 43.1556 58.9955 44.7087L62.563 52.0985L70.4308 55.6195Z" fill="#193150"/>
<path d="M36.0301 54.1259C36.0263 54.1408 36.0245 54.1575 36.0208 54.1724C36.0208 54.1743 36.0189 54.1743 36.0189 54.1743C35.9185 54.3696 35.3642 55.1173 34.7634 55.9097C33.679 57.3381 32.1743 58.3909 30.4594 58.9173C27.967 59.6817 24.5613 60.7494 24.446 60.9038L21.8829 56.384L21.4495 55.6195L29.3173 52.0985L32.8848 44.7087C33.6028 43.1556 34.7002 41.8313 36.0561 40.8418C36.1156 41.2305 36.1826 41.7365 36.244 42.3317C36.5509 45.2277 36.7945 50.2422 36.0301 54.1259Z" fill="#193150"/>
<path d="M36.244 42.3317C33.1489 45.4472 30.6454 53.075 30.6454 53.075L21.8829 56.384L21.4495 55.6195L29.3173 52.0985L32.8848 44.7087C33.6028 43.1556 34.7002 41.8313 36.0561 40.8418C36.1156 41.2305 36.1826 41.7365 36.244 42.3317Z" fill="#1D3A5E"/>
<path d="M70.4308 55.6195L70.2913 55.865L69.9323 56.4491L61.7557 52.9895C61.7557 52.9895 59.5014 48.1683 57.9297 45.1291C57.1466 43.6151 56.3115 42.62 55.6717 42.0043C55.7237 41.5486 55.7758 41.1561 55.8242 40.8418C57.1801 41.8313 58.2775 43.1556 58.9955 44.7087L62.563 52.0985L70.4308 55.6195Z" fill="#1D3A5E"/>
<path d="M41.4557 38.5935C41.5803 39.6742 36.244 42.3321 36.244 42.3321C36.244 42.3321 36.071 41.6309 35.9519 40.9074C36.7741 40.2954 37.691 39.8081 38.6806 39.4714L41.4408 38.5303C41.4482 38.5507 41.4538 38.5712 41.4557 38.5935Z" fill="#3353A6"/>
<path d="M24.4144 60.8782L17.6402 63.2572C16.7047 63.724 15.5961 63.644 14.7424 63.0581L23.542 59.5186L24.3102 60.6978L24.4144 60.8782Z" fill="#EF8B5D"/>
<path d="M67.4419 60.8782L74.216 63.2572C75.1516 63.724 76.2602 63.644 77.1139 63.0581L68.3143 59.5186L67.5461 60.6978L67.4419 60.8782Z" fill="#EF8B5D"/>
<path d="M43.9992 27.7588H42.3117" stroke="#262347" stroke-miterlimit="10" stroke-linecap="round"/>
<path d="M50.0576 27.7588H48.37" stroke="#262347" stroke-miterlimit="10" stroke-linecap="round"/>
<path d="M49.4165 19.8389C49.2454 20.4843 48.6576 20.9586 47.9601 20.9586H40.6019C40.6577 20.3299 41.186 19.8389 41.8277 19.8389H49.4165Z" fill="#1D3A5E"/>
<path d="M58.9942 15.8184C58.7178 16.1237 58.4704 16.3712 58.165 16.6476C57.8598 16.3712 57.6122 16.1239 57.3358 15.8184C57.6122 15.5132 57.8596 15.2657 58.165 14.9893C58.4704 15.2657 58.718 15.5132 58.9942 15.8184Z" stroke="#262347" stroke-miterlimit="10" stroke-linecap="round"/>
<path d="M32.2466 26.6495C31.9702 26.9547 31.7229 27.2023 31.4174 27.4787C31.1122 27.2023 30.8647 26.9549 30.5883 26.6495C30.8647 26.3443 31.1122 26.0967 31.4174 25.8203C31.7229 26.0967 31.9702 26.3443 32.2466 26.6495Z" stroke="#262347" stroke-miterlimit="10" stroke-linecap="round"/>
<path d="M59.5167 26.3143C59.5167 26.6778 59.222 26.9724 58.8586 26.9724C58.4951 26.9724 58.2005 26.6778 58.2005 26.3143C58.2005 25.9509 58.4951 25.6562 58.8586 25.6562C59.2218 25.6563 59.5167 25.9509 59.5167 26.3143Z" stroke="#262347" stroke-miterlimit="10" stroke-linecap="round"/>
</svg>
