<svg width="92" height="93" viewBox="0 0 92 93" fill="none" xmlns="http://www.w3.org/2000/svg">
<path d="M82.7818 73.8223H76.6873V73.8683H82.7818V73.8223Z" fill="#EBEBEB"/>
<path d="M60.9445 74.3223H59.345V74.3683H60.9445V74.3223Z" fill="#EBEBEB"/>
<path d="M76.5032 72.1152H72.9718V72.1612H76.5032V72.1152Z" fill="#EBEBEB"/>
<path d="M17.6 72.4238H9.65246V72.4698H17.6V72.4238Z" fill="#EBEBEB"/>
<path d="M20.4036 72.4238H19.2383V72.4698H20.4036V72.4238Z" fill="#EBEBEB"/>
<path d="M41.427 73.2012H24.1907V73.2472H41.427V73.2012Z" fill="#EBEBEB"/>
<path d="M43.6106 62.6554H8.08036C7.50131 62.6554 7.03009 62.1841 7.03009 61.6051V11.6616C7.03009 11.0826 7.50131 10.6113 8.08036 10.6113H43.6106C44.1894 10.6113 44.6607 11.0826 44.6607 11.6616V61.6051C44.6607 62.1841 44.1894 62.6554 43.6106 62.6554ZM8.08036 10.6575C7.52652 10.6575 7.07609 11.1079 7.07609 11.6618V61.6053C7.07609 62.1591 7.52652 62.6095 8.08036 62.6095H43.6106C44.1642 62.6095 44.6147 62.1591 44.6147 61.6053V11.6616C44.6147 11.1079 44.1642 10.6573 43.6106 10.6573L8.08036 10.6575Z" fill="#050505"/>
<path d="M83.409 62.6554H47.879C47.3 62.6554 46.8289 62.1841 46.8289 61.6051V11.6616C46.8289 11.0826 47.3001 10.6113 47.879 10.6113H83.409C83.9883 10.6113 84.4593 11.0826 84.4593 11.6616V61.6051C84.4595 62.1841 83.9883 62.6554 83.409 62.6554ZM47.879 10.6575C47.3254 10.6575 46.8749 11.1079 46.8749 11.6618V61.6053C46.8749 62.1591 47.3254 62.6095 47.879 62.6095H83.409C83.9629 62.6095 84.4133 62.1591 84.4133 61.6053V11.6616C84.4133 11.1079 83.9629 10.6573 83.409 10.6573L47.879 10.6575Z" fill="#050505"/>
<path d="M92 70.8613H0V70.9073H92V70.8613Z" fill="#EBEBEB"/>
<path d="M15.7123 44.5918H16.7488L16.7488 22.7885H15.7123L15.7123 44.5918Z" fill="#E0E0E0"/>
<path d="M36.0248 22.7871H16.3107V44.5904H36.0248V22.7871Z" fill="#E0E0E0"/>
<path d="M36.6543 22.7871H16.2073V44.5904H36.6543V22.7871Z" fill="#F0F0F0"/>
<path d="M35.7893 23.4824H17.0395V43.5885H35.7893V23.4824Z" fill="white"/>
<path d="M35.7895 23.4824H35.2472V43.5885H35.7895V23.4824Z" fill="#E0E0E0"/>
<path d="M16.9916 37.9402V38.4824H35.3051V37.9402H16.9916Z" fill="#E0E0E0"/>
<path d="M35.7895 37.0312H16.7488V37.9415H35.7895V37.0312Z" fill="#F0F0F0"/>
<path d="M50.3613 70.8613H77.4856V36.514H50.3613V70.8613Z" fill="#F0F0F0"/>
<path d="M51.3201 45.1094H76.527V37.7646H51.3201V45.1094Z" fill="#E0E0E0"/>
<path d="M75.0951 45.1094H76.527V38.9537H75.0951V45.1094Z" fill="#EBEBEB"/>
<path d="M68.1711 45.1094H69.603V38.9537H68.1711V45.1094Z" fill="#EBEBEB"/>
<path d="M59.2624 44.8682L60.6735 45.1113L61.7188 39.0449L60.3077 38.8017L59.2624 44.8682Z" fill="#EBEBEB"/>
<path d="M73.3208 45.1094H74.7527V39.7649H73.3208V45.1094Z" fill="#EBEBEB"/>
<path d="M70.0295 45.1094H71.4614V39.7649H70.0295V45.1094Z" fill="#EBEBEB"/>
<path d="M61.7219 45.1094H63.1538V39.7649H61.7219V45.1094Z" fill="#EBEBEB"/>
<path d="M65.1296 44.8008L66.5274 45.1113L67.6866 39.8941L66.2888 39.5835L65.1296 44.8008Z" fill="#EBEBEB"/>
<path d="M72.0826 45.1094H72.7985V38.648H72.0826V45.1094Z" fill="#EBEBEB"/>
<path d="M63.5655 45.1094H64.2814V38.648H63.5655V45.1094Z" fill="#EBEBEB"/>
<path d="M76.5269 46.2734H51.32V53.6182H76.5269V46.2734Z" fill="#E0E0E0"/>
<path d="M52.7519 47.4629H51.32V53.6186H52.7519V47.4629Z" fill="#EBEBEB"/>
<path d="M59.6758 47.4629H58.2439V53.6186H59.6758V47.4629Z" fill="#EBEBEB"/>
<path d="M67.5361 47.3135L66.1249 47.5566L67.1702 53.6231L68.5813 53.38L67.5361 47.3135Z" fill="#EBEBEB"/>
<path d="M54.5262 48.2734H53.0943V53.6179H54.5262V48.2734Z" fill="#EBEBEB"/>
<path d="M57.8174 48.2734H56.3855V53.6179H57.8174V48.2734Z" fill="#EBEBEB"/>
<path d="M66.125 48.2734H64.6931V53.6179H66.125V48.2734Z" fill="#EBEBEB"/>
<path d="M61.5567 48.0918L60.1589 48.4023L61.3181 53.6196L62.7159 53.309L61.5567 48.0918Z" fill="#EBEBEB"/>
<path d="M55.7645 47.1562H55.0486V53.6176H55.7645V47.1562Z" fill="#EBEBEB"/>
<path d="M64.2815 47.1562H63.5656V53.6176H64.2815V47.1562Z" fill="#EBEBEB"/>
<path d="M75.0951 53.6191H76.527V47.4634H75.0951V53.6191Z" fill="#EBEBEB"/>
<path d="M73.3208 53.6172H74.7527V48.2727H73.3208V53.6172Z" fill="#EBEBEB"/>
<path d="M70.0295 53.6172H71.4614V48.2727H70.0295V53.6172Z" fill="#EBEBEB"/>
<path d="M72.0826 53.6191H72.7985V47.1578H72.0826V53.6191Z" fill="#EBEBEB"/>
<path d="M51.3201 62.127H76.527V54.7822H51.3201V62.127Z" fill="#E0E0E0"/>
<path d="M60.6272 62.125H62.0591V55.9693H60.6272V62.125Z" fill="#EBEBEB"/>
<path d="M51.7179 61.8838L53.1291 62.127L54.1743 56.0605L52.7632 55.8174L51.7179 61.8838Z" fill="#EBEBEB"/>
<path d="M65.7767 62.125H67.2086V56.7805H65.7767V62.125Z" fill="#EBEBEB"/>
<path d="M62.4854 62.125H63.9173V56.7805H62.4854V62.125Z" fill="#EBEBEB"/>
<path d="M54.1781 62.125H55.61V56.7805H54.1781V62.125Z" fill="#EBEBEB"/>
<path d="M57.5854 61.8164L58.9832 62.127L60.1425 56.9097L58.7447 56.5991L57.5854 61.8164Z" fill="#EBEBEB"/>
<path d="M64.5385 62.125H65.2544V55.6637H64.5385V62.125Z" fill="#EBEBEB"/>
<path d="M56.0214 62.125H56.7374V55.6637H56.0214V62.125Z" fill="#EBEBEB"/>
<path d="M68.1911 61.8838L69.6022 62.127L70.6475 56.0605L69.2364 55.8174L68.1911 61.8838Z" fill="#EBEBEB"/>
<path d="M70.6516 62.125H72.0835V56.7805H70.6516V62.125Z" fill="#EBEBEB"/>
<path d="M74.059 61.8164L75.4569 62.127L76.6161 56.9097L75.2183 56.5991L74.059 61.8164Z" fill="#EBEBEB"/>
<path d="M72.4952 62.125H73.2111V55.6637H72.4952V62.125Z" fill="#EBEBEB"/>
<path d="M32.4585 49.7441H16.7142C15.0065 49.7441 13.6221 51.1286 13.6221 52.8363V65.1304H35.5506V52.8363C35.5506 51.1286 34.1662 49.7441 32.4585 49.7441Z" fill="#E6E6E6"/>
<path d="M40.2055 58.8555H37.3881C36.3733 58.8555 35.5506 59.6781 35.5506 60.6929V70.8602H42.0431V60.6929C42.0429 59.6781 41.2202 58.8555 40.2055 58.8555Z" fill="#E0E0E0"/>
<path d="M40.2055 58.8555H40.1459C39.1311 58.8555 38.3084 59.6781 38.3084 60.6929V70.8602H42.0429V60.6929C42.0429 59.6781 41.2202 58.8555 40.2055 58.8555Z" fill="#EBEBEB"/>
<path d="M37.5222 66.1914H15.9153V70.8619H37.5222V66.1914Z" fill="#E6E6E6"/>
<path d="M37.5529 61.9199H16.7151C15.6834 61.9199 14.847 62.7564 14.847 63.7881V64.9517C14.847 65.9834 15.6834 66.8198 16.7151 66.8198H37.5527C38.5844 66.8198 39.4209 65.9836 39.4209 64.9517V63.7881C39.4209 62.7562 38.5846 61.9199 37.5529 61.9199Z" fill="#F5F5F5"/>
<path d="M19.3338 61.9199H16.7493C15.7176 61.9199 14.8812 62.7564 14.8812 63.7881V64.9517C14.8812 65.9834 15.7176 66.8198 16.7493 66.8198H19.334C20.3657 66.8198 21.2021 65.9836 21.2021 64.9517V63.7881C21.202 62.7562 20.3655 61.9199 19.3338 61.9199Z" fill="#E0E0E0"/>
<path d="M16.4706 58.8555H13.6532C12.6384 58.8555 11.8157 59.6781 11.8157 60.6929V70.8602H18.308V60.6929C18.308 59.6781 17.4853 58.8555 16.4706 58.8555Z" fill="#E0E0E0"/>
<path d="M16.4706 58.8555H16.4111C15.3964 58.8555 14.5737 59.6781 14.5737 60.6929V70.8602H18.308V60.6929C18.308 59.6781 17.4853 58.8555 16.4706 58.8555Z" fill="#F0F0F0"/>
<path d="M63.2379 28.3527C65.3065 28.3527 66.9835 26.6757 66.9835 24.607C66.9835 22.5383 65.3065 20.8613 63.2379 20.8613C61.1692 20.8613 59.4922 22.5383 59.4922 24.607C59.4922 26.6757 61.1692 28.3527 63.2379 28.3527Z" fill="#E0E0E0"/>
<path d="M66.3829 25.117C66.6646 23.3809 65.4856 21.745 63.7494 21.4632C62.0133 21.1815 60.3774 22.3605 60.0957 24.0966C59.8139 25.8328 60.9929 27.4687 62.7291 27.7504C64.4652 28.0322 66.1011 26.8532 66.3829 25.117Z" fill="#F0F0F0"/>
<path d="M63.0877 22.4219V24.6481L61.6122 23.8133" fill="#F0F0F0"/>
<path d="M63.0877 22.4219V24.6481L61.6122 23.8133" stroke="#E0E0E0" stroke-width="1.7285" stroke-miterlimit="10" stroke-linecap="round" stroke-linejoin="round"/>
<path d="M46 78.4637C65.7031 78.4637 81.6756 77.531 81.6756 76.3803C81.6756 75.2297 65.7031 74.2969 46 74.2969C26.2969 74.2969 10.3244 75.2297 10.3244 76.3803C10.3244 77.531 26.2969 78.4637 46 78.4637Z" fill="#F5F5F5"/>
<path d="M34.4073 50.5425C35.0583 50.8758 35.7043 51.2186 36.3486 51.565C36.9952 51.9069 37.6335 52.2657 38.2764 52.6153L40.1992 53.6753C40.5194 53.8527 40.8359 54.0374 41.1505 54.2257L41.6199 54.5138L41.8532 54.6606L41.9698 54.7341C42.0116 54.7525 42.0449 54.7885 42.0085 54.9657C41.899 55.4977 41.6491 55.979 41.3183 56.3632C41.2 56.4997 41.151 56.4953 41.1111 56.4734L40.982 56.4256L40.7234 56.3297L40.2093 56.1323C39.8686 55.9968 39.5293 55.8579 39.1938 55.7115L37.1833 54.8292C36.515 54.5313 35.8421 54.2426 35.1775 53.937C34.5107 53.6359 33.8457 53.3314 33.1853 53.0171C32.4972 52.6896 32.2048 51.866 32.5323 51.1779C32.86 50.4897 33.6834 50.1973 34.3718 50.5249C34.3817 50.5297 34.3975 50.5376 34.4073 50.5425Z" fill="#E4897B"/>
<path d="M35.5624 47.2018C35.4469 47.1433 35.3819 47.1091 35.3819 47.1091C35.3663 47.101 35.3475 47.1069 35.3396 47.1223C35.3315 47.1376 35.3374 47.1568 35.3528 47.1647C35.3528 47.1647 35.418 47.1989 35.5343 47.2578C35.5368 47.2591 35.5394 47.26 35.5422 47.2605C35.5556 47.2633 35.57 47.2569 35.5764 47.244C35.5841 47.2285 35.5781 47.2097 35.5624 47.2018Z" fill="#263238"/>
<path d="M36.206 47.5869C36.3188 47.6403 36.4399 47.6966 36.5676 47.7547C36.5698 47.7558 36.572 47.7564 36.5744 47.757C36.5884 47.7599 36.6029 47.7527 36.6092 47.7393C36.6164 47.7235 36.6094 47.7049 36.5937 47.6977C36.4662 47.6397 36.3455 47.5834 36.2329 47.5303C36.2169 47.5231 36.1985 47.5295 36.1911 47.5452C36.1836 47.561 36.1904 47.5796 36.206 47.5869Z" fill="#263238"/>
<path d="M37.2698 48.0622C37.5323 48.1724 37.787 48.2734 38.0267 48.3626C38.0282 48.3632 38.0299 48.3637 38.0315 48.3639C38.0464 48.3669 38.0617 48.3588 38.0672 48.344C38.0733 48.3277 38.065 48.3098 38.0488 48.3037C37.8098 48.2151 37.5559 48.1142 37.2942 48.0044C37.2784 47.9978 37.2598 48.0051 37.2532 48.0211C37.2462 48.0371 37.2537 48.0553 37.2698 48.0622Z" fill="#263238"/>
<path d="M38.4104 48.4988C38.8016 48.6318 39.1491 48.7293 39.4516 48.7911C39.8064 48.8636 40.0991 48.8868 40.3267 48.8601C41.023 48.7788 41.0966 48.4881 41.0784 48.3221C41.0408 47.978 40.545 47.5839 40.1937 47.6194C40.039 47.6351 39.928 47.702 39.8809 47.808C39.8347 47.9122 39.8561 48.0446 39.9363 48.1536C40.0355 48.2883 40.1977 48.3569 40.3703 48.3365C40.3876 48.3344 40.4 48.319 40.3978 48.3017C40.3957 48.2844 40.3801 48.2719 40.363 48.2743C40.213 48.2918 40.0724 48.2327 39.9869 48.1164C39.9199 48.0253 39.9013 47.917 39.9383 47.8334C39.9764 47.7477 40.0669 47.6952 40.2 47.6818C40.517 47.6498 40.9823 48.0187 41.016 48.3289C41.0429 48.5757 40.7956 48.7422 40.3194 48.7979C39.907 48.846 39.2715 48.7254 38.4306 48.4395C38.4142 48.4338 38.3964 48.4426 38.3907 48.459C38.3852 48.4754 38.394 48.4931 38.4104 48.4988Z" fill="#263238"/>
<path d="M35.2294 47.6079C35.0754 47.5239 34.9887 47.4747 34.9887 47.4747C34.9734 47.4663 34.9545 47.4716 34.946 47.4865C34.9376 47.5016 34.9427 47.5207 34.9578 47.5292C34.9578 47.5292 35.0446 47.5783 35.1994 47.6628C35.2021 47.6644 35.2051 47.6654 35.208 47.6661C35.2213 47.6688 35.2351 47.6628 35.2419 47.6503C35.2502 47.6352 35.2446 47.6162 35.2294 47.6079Z" fill="#263238"/>
<path d="M36.5262 48.2827C36.2346 48.1375 35.9405 47.9864 35.6524 47.8339C35.6369 47.8254 35.618 47.8317 35.6101 47.8469C35.602 47.8622 35.6079 47.8812 35.6231 47.8893C35.9118 48.042 36.2062 48.1932 36.4984 48.3388C36.501 48.3399 36.5036 48.3408 36.5062 48.3413C36.5198 48.3441 36.5341 48.3377 36.5406 48.3246C36.5481 48.3091 36.5418 48.2904 36.5262 48.2827Z" fill="#263238"/>
<path d="M38.6514 49.2509C38.1009 49.0279 37.4966 48.7567 36.8556 48.4446C36.8403 48.4369 36.8212 48.4437 36.8136 48.4591C36.8061 48.4748 36.8125 48.4935 36.8282 48.5011C37.4707 48.8135 38.0762 49.0853 38.628 49.309C39.7136 49.749 40.0097 50.2272 40.0669 50.5509C40.1133 50.8132 40.0093 51.0436 39.8855 51.1555C39.7729 51.2572 39.5468 51.2878 39.314 51.232C39.0063 51.1595 38.766 50.9711 38.6713 50.7284C38.6277 50.6169 38.6556 50.5264 38.7541 50.4596C38.9289 50.3405 39.2765 50.3433 39.4069 50.4644C39.4693 50.5223 39.473 50.6002 39.418 50.6951C39.4093 50.7102 39.4145 50.7293 39.4295 50.738C39.4443 50.7466 39.4638 50.7417 39.4724 50.7264C39.5663 50.5641 39.4984 50.4636 39.4496 50.4184C39.2963 50.2763 38.9208 50.2704 38.7189 50.4077C38.5964 50.4911 38.5589 50.613 38.6128 50.7514C38.7151 51.0134 38.9719 51.216 39.2996 51.2933C39.3112 51.2961 39.3226 51.2984 39.334 51.3008C39.5788 51.3509 39.804 51.3141 39.9276 51.2022C40.0542 51.0878 40.1828 50.8456 40.1287 50.5402C40.0686 50.2007 39.7637 49.7017 38.6514 49.2509Z" fill="#263238"/>
<path d="M41.7321 49.6208C41.713 49.4785 41.5496 49.3378 41.3522 49.2934C41.1683 49.2513 41.0164 49.3046 40.9308 49.4366C40.9214 49.4511 40.9256 49.4706 40.94 49.48C40.9547 49.4894 40.974 49.4853 40.9834 49.4708C41.0833 49.3166 41.2642 49.338 41.3384 49.3547C41.5087 49.393 41.6543 49.5135 41.6699 49.6292C41.6835 49.731 41.5939 49.8014 41.5163 49.8427C41.0066 50.1131 39.852 49.4517 39.8404 49.4449C39.8255 49.436 39.8062 49.4412 39.7975 49.4563C39.7889 49.4714 39.7939 49.4905 39.809 49.4991C39.8421 49.5183 40.3876 49.8311 40.9025 49.9361C41.1417 49.9851 41.3742 49.9891 41.5457 49.8981C41.7183 49.8062 41.7424 49.6966 41.7321 49.6208Z" fill="#263238"/>
<path d="M38.3736 48.7737C38.3576 48.7671 38.3393 48.7756 38.3331 48.7918C38.3268 48.808 38.3349 48.826 38.3511 48.8323C38.3557 48.8339 38.8128 49.0102 39.4389 49.3024C39.4413 49.3035 39.4435 49.3042 39.4459 49.3048C39.4599 49.3075 39.4744 49.3007 39.4807 49.2873C39.4881 49.2717 39.4812 49.2529 39.4654 49.2455C38.8371 48.9524 38.3782 48.7756 38.3736 48.7737Z" fill="#263238"/>
<g opacity="0.7">
<path d="M35.5624 47.2018C35.4469 47.1433 35.3819 47.1091 35.3819 47.1091C35.3663 47.101 35.3475 47.1069 35.3396 47.1223C35.3315 47.1376 35.3374 47.1568 35.3528 47.1647C35.3528 47.1647 35.418 47.1989 35.5343 47.2578C35.5368 47.2591 35.5394 47.26 35.5422 47.2605C35.5556 47.2633 35.57 47.2569 35.5764 47.244C35.5841 47.2285 35.5781 47.2097 35.5624 47.2018Z" fill="white"/>
<path d="M36.206 47.5869C36.3188 47.6403 36.4399 47.6966 36.5676 47.7547C36.5698 47.7558 36.572 47.7564 36.5744 47.757C36.5884 47.7599 36.6029 47.7527 36.6092 47.7393C36.6164 47.7235 36.6094 47.7049 36.5937 47.6977C36.4662 47.6397 36.3455 47.5834 36.2329 47.5303C36.2169 47.5231 36.1985 47.5295 36.1911 47.5452C36.1836 47.561 36.1904 47.5796 36.206 47.5869Z" fill="white"/>
<path d="M37.2698 48.0622C37.5323 48.1724 37.787 48.2734 38.0267 48.3626C38.0282 48.3632 38.0299 48.3637 38.0315 48.3639C38.0464 48.3669 38.0617 48.3588 38.0672 48.344C38.0733 48.3277 38.065 48.3098 38.0488 48.3037C37.8098 48.2151 37.5559 48.1142 37.2942 48.0044C37.2784 47.9978 37.2598 48.0051 37.2532 48.0211C37.2462 48.0371 37.2537 48.0553 37.2698 48.0622Z" fill="white"/>
<path d="M38.4104 48.4988C38.8016 48.6318 39.1491 48.7293 39.4516 48.7911C39.8064 48.8636 40.0991 48.8868 40.3267 48.8601C41.023 48.7788 41.0966 48.4881 41.0784 48.3221C41.0408 47.978 40.545 47.5839 40.1937 47.6194C40.039 47.6351 39.928 47.702 39.8809 47.808C39.8347 47.9122 39.8561 48.0446 39.9363 48.1536C40.0355 48.2883 40.1977 48.3569 40.3703 48.3365C40.3876 48.3344 40.4 48.319 40.3978 48.3017C40.3957 48.2844 40.3801 48.2719 40.363 48.2743C40.213 48.2918 40.0724 48.2327 39.9869 48.1164C39.9199 48.0253 39.9013 47.917 39.9383 47.8334C39.9764 47.7477 40.0669 47.6952 40.2 47.6818C40.517 47.6498 40.9823 48.0187 41.016 48.3289C41.0429 48.5757 40.7956 48.7422 40.3194 48.7979C39.907 48.846 39.2715 48.7254 38.4306 48.4395C38.4142 48.4338 38.3964 48.4426 38.3907 48.459C38.3852 48.4754 38.394 48.4931 38.4104 48.4988Z" fill="white"/>
<path d="M35.2294 47.6079C35.0754 47.5239 34.9887 47.4747 34.9887 47.4747C34.9734 47.4663 34.9545 47.4716 34.946 47.4865C34.9376 47.5016 34.9427 47.5207 34.9578 47.5292C34.9578 47.5292 35.0446 47.5783 35.1994 47.6628C35.2021 47.6644 35.2051 47.6654 35.208 47.6661C35.2213 47.6688 35.2351 47.6628 35.2419 47.6503C35.2502 47.6352 35.2446 47.6162 35.2294 47.6079Z" fill="white"/>
<path d="M36.5262 48.2827C36.2346 48.1375 35.9405 47.9864 35.6524 47.8339C35.6369 47.8254 35.618 47.8317 35.6101 47.8469C35.602 47.8622 35.6079 47.8812 35.6231 47.8893C35.9118 48.042 36.2062 48.1932 36.4984 48.3388C36.501 48.3399 36.5036 48.3408 36.5062 48.3413C36.5198 48.3441 36.5341 48.3377 36.5406 48.3246C36.5481 48.3091 36.5418 48.2904 36.5262 48.2827Z" fill="white"/>
<path d="M38.6514 49.2509C38.1009 49.0279 37.4966 48.7567 36.8556 48.4446C36.8403 48.4369 36.8212 48.4437 36.8136 48.4591C36.8061 48.4748 36.8125 48.4935 36.8282 48.5011C37.4707 48.8135 38.0762 49.0853 38.628 49.309C39.7136 49.749 40.0097 50.2272 40.0669 50.5509C40.1133 50.8132 40.0093 51.0436 39.8855 51.1555C39.7729 51.2572 39.5468 51.2878 39.314 51.232C39.0063 51.1595 38.766 50.9711 38.6713 50.7284C38.6277 50.6169 38.6556 50.5264 38.7541 50.4596C38.9289 50.3405 39.2765 50.3433 39.4069 50.4644C39.4693 50.5223 39.473 50.6002 39.418 50.6951C39.4093 50.7102 39.4145 50.7293 39.4295 50.738C39.4443 50.7466 39.4638 50.7417 39.4724 50.7264C39.5663 50.5641 39.4984 50.4636 39.4496 50.4184C39.2963 50.2763 38.9208 50.2704 38.7189 50.4077C38.5964 50.4911 38.5589 50.613 38.6128 50.7514C38.7151 51.0134 38.9719 51.216 39.2996 51.2933C39.3112 51.2961 39.3226 51.2984 39.334 51.3008C39.5788 51.3509 39.804 51.3141 39.9276 51.2022C40.0542 51.0878 40.1828 50.8456 40.1287 50.5402C40.0686 50.2007 39.7637 49.7017 38.6514 49.2509Z" fill="white"/>
<path d="M41.7321 49.6208C41.713 49.4785 41.5496 49.3378 41.3522 49.2934C41.1683 49.2513 41.0164 49.3046 40.9308 49.4366C40.9214 49.4511 40.9256 49.4706 40.94 49.48C40.9547 49.4894 40.974 49.4853 40.9834 49.4708C41.0833 49.3166 41.2642 49.338 41.3384 49.3547C41.5087 49.393 41.6543 49.5135 41.6699 49.6292C41.6835 49.731 41.5939 49.8014 41.5163 49.8427C41.0066 50.1131 39.852 49.4517 39.8404 49.4449C39.8255 49.436 39.8062 49.4412 39.7975 49.4563C39.7889 49.4714 39.7939 49.4905 39.809 49.4991C39.8421 49.5183 40.3876 49.8311 40.9025 49.9361C41.1417 49.9851 41.3742 49.9891 41.5457 49.8981C41.7183 49.8062 41.7424 49.6966 41.7321 49.6208Z" fill="white"/>
<path d="M38.3736 48.7737C38.3576 48.7671 38.3393 48.7756 38.3331 48.7918C38.3268 48.808 38.3349 48.826 38.3511 48.8323C38.3557 48.8339 38.8128 49.0102 39.4389 49.3024C39.4413 49.3035 39.4435 49.3042 39.4459 49.3048C39.4599 49.3075 39.4744 49.3007 39.4807 49.2873C39.4881 49.2717 39.4812 49.2529 39.4654 49.2455C38.8371 48.9524 38.3782 48.7756 38.3736 48.7737Z" fill="white"/>
</g>
<path d="M33.4547 60.6895H24.9096V64.8801H33.4547V60.6895Z" fill="#E4897B"/>
<path d="M23.5321 49.8476C23.5321 49.8476 29.576 48.516 34.564 50.4583C34.564 50.4583 34.564 52.0858 34.8509 54.4213C35.0829 56.3104 34.3097 58.7107 33.8271 61.1226L24.5936 61.1892C24.5936 61.1892 25.0928 58.6756 23.0425 53.8115L23.5321 49.8476Z" fill="#407BFF"/>
<path opacity="0.1" d="M23.5321 49.8476C23.5321 49.8476 29.576 48.516 34.564 50.4583C34.564 50.4583 34.4671 51.9782 34.8509 54.4213C35.1464 56.3018 34.3097 58.7103 33.8271 61.1226L24.5936 61.1892C24.5936 61.1892 25.0928 58.6756 23.0425 53.8115L23.5321 49.8476Z" fill="black"/>
<path d="M26.1368 45.0137C26.6254 46.1725 27.1084 46.4583 28.2365 46.3911" stroke="#263238" stroke-width="0.5" stroke-miterlimit="10" stroke-linecap="round" stroke-linejoin="round"/>
<path d="M33.7813 40.113C34.6014 40.8632 35.0121 41.9423 34.9418 42.875C34.8715 43.8103 33.7813 44.5912 34.0932 47.0413C33.4124 46.2846 31.5692 41.9552 30.6014 38.8379C30.6014 38.8379 32.7757 39.1932 33.7813 40.113Z" fill="#263238"/>
<path d="M31.3569 39.0629C29.8915 38.3924 28.4552 39.1838 27.6228 39.7687C26.7904 40.3536 26.137 41.75 26.137 42.875C26.137 44 26.1056 45.3575 26.8428 45.9423C27.5799 46.527 28.2365 46.3912 28.2365 46.3912L33.7813 41.274C33.7813 41.274 32.8223 39.7334 31.3569 39.0629Z" fill="#263238"/>
<path d="M30.2879 51.1964C28.1651 50.6736 27.6228 49.6782 27.6228 49.6782C28.5984 48.9496 28.5785 47.7064 28.4411 46.9165C28.3675 46.4799 28.2561 46.1816 28.2561 46.1816L30.7941 46.9633C30.6774 47.3837 30.6064 47.7407 30.5688 48.0439C30.5252 48.3766 30.525 48.6428 30.5503 48.8544C30.6378 49.6497 31.0783 49.7109 31.0783 49.7109C31.4362 50.6138 30.2879 51.1964 30.2879 51.1964Z" fill="#E4897B"/>
<path opacity="0.2" d="M30.5687 48.0439C30.525 48.3766 30.5249 48.6428 30.5501 48.8544C29.5359 48.6012 28.8495 47.688 28.4409 46.9165C28.3673 46.4799 28.256 46.1816 28.256 46.1816L30.7939 46.9633C30.6772 47.3837 30.6062 47.7407 30.5687 48.0439Z" fill="black"/>
<path d="M31.3273 40.3441C33.5754 40.6688 34.1252 41.9769 33.9554 44.3174C33.743 47.2424 32.8039 49.2066 30.0823 48.1821C26.386 46.7911 27.5937 39.8048 31.3273 40.3441Z" fill="#E4897B"/>
<path d="M32.52 43.9805C32.52 43.9805 32.7467 44.6127 33.0394 45.0074C33.0394 45.0074 32.8028 45.2854 32.4099 45.1761L32.52 43.9805Z" fill="#DE5753"/>
<path d="M30.348 42.3394C30.3714 42.3394 30.395 42.3309 30.4134 42.3138C30.7742 41.9813 31.3404 42.1352 31.3462 42.1366C31.3976 42.1504 31.4509 42.121 31.4651 42.0696C31.4795 42.0183 31.4495 41.9651 31.3981 41.9508C31.3707 41.9431 30.7216 41.7673 30.2825 42.172C30.2432 42.208 30.2408 42.2691 30.277 42.3083C30.2962 42.3287 30.3221 42.3394 30.348 42.3394Z" fill="#263238"/>
<path d="M33.8893 42.5938C33.9158 42.5938 33.9421 42.5829 33.9612 42.5618C33.9968 42.522 33.9934 42.4609 33.9539 42.4254C33.472 41.9937 33.0188 42.0848 32.9998 42.0887C32.9478 42.0999 32.9145 42.1513 32.9257 42.2033C32.9369 42.2552 32.9895 42.287 33.0398 42.2777C33.0554 42.2745 33.4199 42.2065 33.8251 42.5693C33.8433 42.5857 33.8663 42.5938 33.8893 42.5938Z" fill="#263238"/>
<path d="M28.3229 43.7776C28.3229 43.7776 29.6409 42.0823 29.6877 40.6334C29.6877 40.6334 34.4056 39.4569 33.9723 44.0106C33.9723 44.0106 34.9876 40.0582 31.1357 39.4106C27.2901 38.764 26.4839 44.419 28.2365 46.3919C28.2365 46.3919 27.5058 44.8389 28.3229 43.7776Z" fill="#263238"/>
<path d="M28.6216 44.3048C28.6587 43.9407 28.3737 43.2741 27.69 43.2503C26.9823 43.2257 26.4437 44.6081 28.127 45.2022C28.3686 45.2874 28.5439 45.0648 28.6216 44.3048Z" fill="#E4897B"/>
<path d="M31.6894 46.2504C31.6863 46.4298 31.7893 46.577 31.9196 46.5792C32.0499 46.5814 32.158 46.4379 32.1612 46.2585C32.1643 46.0791 32.0611 45.9319 31.9308 45.9297C31.8007 45.9275 31.6925 46.071 31.6894 46.2504Z" fill="#2E353A"/>
<path d="M31.3383 43.5788C31.3496 43.5639 31.3514 43.5438 31.3431 43.5271C31.3306 43.5054 31.3028 43.4978 31.2809 43.5103L31.2807 43.5105C30.9402 43.7059 30.6658 43.6654 30.3065 43.5074C30.2842 43.4954 30.2566 43.5039 30.2448 43.5262C30.2329 43.5482 30.2413 43.576 30.2634 43.5878C30.65 43.7646 30.96 43.8038 31.326 43.5876L31.3383 43.5788Z" fill="#263238"/>
<path d="M32.6975 43.709C32.6872 43.6933 32.6867 43.6733 32.6961 43.6571C32.71 43.6361 32.7382 43.6304 32.7592 43.6444L32.7594 43.6446C33.0865 43.8617 33.3629 43.8392 33.7318 43.7049C33.7548 43.6944 33.7817 43.7047 33.7921 43.7275C33.8026 43.7504 33.7925 43.7774 33.7695 43.7879C33.3723 43.9393 33.0604 43.9581 32.7091 43.7185L32.6975 43.709Z" fill="#263238"/>
<path d="M25.3852 42.1885C26.4367 42.1885 27.289 41.2592 27.289 40.1128C27.289 38.9664 26.4367 38.0371 25.3852 38.0371C24.3337 38.0371 23.4813 38.9664 23.4813 40.1128C23.4813 41.2592 24.3337 42.1885 25.3852 42.1885Z" fill="#263238"/>
<path d="M33.2551 39.923C33.7623 40.3692 34.3381 41.4034 34.3447 41.9722C34.3513 42.5407 33.5761 42.9443 33.5761 42.9443C33.513 42.3185 33.1857 41.9207 32.6372 41.7137C32.6416 42.0412 32.4907 42.3954 32.2346 42.7676C32.1027 41.6036 31.0106 41.025 29.6877 40.6343L30.5475 39.1055C30.5475 39.1055 32.7478 39.4768 33.2551 39.923Z" fill="#263238"/>
<path d="M29.7186 40.5781C29.7865 42.2626 28.8797 42.6082 29.0304 43.7361" stroke="#263238" stroke-width="0.5" stroke-miterlimit="10" stroke-linecap="round" stroke-linejoin="round"/>
<path d="M34.7786 41.9746C35.4505 43.7362 33.6507 44.7946 34.3447 47.0418" stroke="#263238" stroke-width="0.5" stroke-miterlimit="10" stroke-linecap="round" stroke-linejoin="round"/>
<path d="M22.9529 39.9551C23.0475 40.9708 23.8289 42.0854 25.3556 42.1287" stroke="#263238" stroke-width="0.5" stroke-miterlimit="10" stroke-linecap="round" stroke-linejoin="round"/>
<path d="M25.6882 38.1112C22.947 37.3896 22.4425 41.9053 25.1664 42.1291" stroke="#263238" stroke-width="0.5" stroke-miterlimit="10" stroke-linecap="round" stroke-linejoin="round"/>
<path d="M24.605 55.8841C24.2762 55.9168 23.9603 55.3324 23.6425 54.8436L23.0425 53.8119C22.7332 52.8516 23.2508 51.3141 23.6664 49.8478C24.4345 49.7639 25.0509 50.052 25.3224 51.0119C25.6928 52.2113 25.7784 53.5679 25.5385 54.4215C25.3346 55.1402 25.3226 55.8854 24.605 55.8841Z" fill="#E4897B"/>
<path opacity="0.2" d="M23.0396 53.7532C23.2466 54.0217 23.4383 54.0622 23.6694 54.0894C24.0026 54.0894 24.1502 53.6233 24.3806 53.1757C24.605 52.6537 24.8216 51.5377 24.605 50.7246L23.1616 51.6707C22.8697 52.424 22.7761 53.1308 23.0396 53.7532Z" fill="black"/>
<path d="M33.6207 63.375L34.9629 65.7276C38.5605 64.8897 50.0934 63.1303 51.5099 67.0872C53.27 72.0044 40.5499 75.9245 33.5099 76.1645C26.4699 76.4046 20.3305 74.7271 24.7813 64.4643L33.6207 63.375Z" fill="#263238"/>
<path opacity="0.2" d="M33.6207 63.375L34.9629 65.7276C38.5605 64.8897 50.0934 63.1303 51.5099 67.0872C53.27 72.0044 40.5499 75.9245 33.5099 76.1645C26.4699 76.4046 20.3305 74.7271 24.7813 64.4643L33.6207 63.375Z" fill="black"/>
<path opacity="0.2" d="M39.6154 72.3738C39.6154 72.3738 43.1241 67.9943 45.6007 67.4531C45.6007 67.4531 31.8885 67.4371 28.5664 68.5505L36.8992 73.9086L39.6154 72.3738Z" fill="black"/>
<path d="M39.9262 72.2637L38.8073 72.6622L37.4164 73.1575L37.773 74.6796L39.1201 74.3927L39.9262 74.2209V72.2637Z" fill="#E4897B"/>
<path d="M38.1322 74.6026L37.9119 72.9805C37.6052 73.0335 36.568 73.1001 36.568 73.1001C36.568 73.1001 35.6097 73.0633 35.3701 73.3726C34.67 74.2762 35.1076 78.2622 35.574 78.4024C35.7448 78.4537 35.9253 78.2195 35.9996 78.0576C36.2355 77.5444 36.6511 76.2007 36.8532 75.7747C37.0892 75.277 37.8114 74.6574 38.1322 74.6026Z" fill="#E4897B"/>
<path opacity="0.2" d="M39.9262 72.2637L38.8073 72.6622L39.1201 74.3927L39.9262 74.2209V72.2637Z" fill="black"/>
<path d="M39.6332 74.6515L40.4662 74.7115L39.9087 71.8457L38.9637 72.3684L39.6332 74.6515Z" fill="#263238"/>
<path opacity="0.4" d="M39.6332 74.6515L40.4662 74.7115L39.9087 71.8457L38.9637 72.3684L39.6332 74.6515Z" fill="white"/>
<path opacity="0.2" d="M39.599 73.6611L39.8469 73.2793L40.2362 73.5303L40.4662 74.3051L39.599 73.6611Z" fill="black"/>
<path d="M37.3235 75.4332L40.2603 76.3422L41.6707 76.7788L42.2972 75.3462L41.0465 74.7692L37.9921 73.3594L37.3235 75.4332Z" fill="#E4897B"/>
<path d="M41.9636 75.1906L41.168 76.6215C41.4896 76.7772 42.1551 77.2328 42.1551 77.2328C42.1551 77.2328 43.061 77.9344 43.4384 77.83C44.5401 77.5262 46.5779 74.0722 46.2883 73.6805C46.1823 73.5371 45.8973 73.6168 45.7411 73.7016C45.2447 73.9714 44.11 74.8043 43.6901 75.018C43.0957 75.3205 42.4746 75.3869 41.9636 75.1906Z" fill="#E4897B"/>
<path opacity="0.2" d="M37.3235 75.4332L40.2603 76.3422L41.0465 74.7692L37.9921 73.3594L37.3235 75.4332Z" fill="black"/>
<path d="M40.5722 74.3855C40.5722 74.3855 29.2696 65.808 25.015 65.421C20.7604 65.0341 19.6363 68.6773 21.0588 71.2505C22.4815 73.8238 26.9433 75.4498 26.9433 75.4498C26.9433 75.4498 23.8582 71.4345 24.2955 70.6063C24.7327 69.7783 25.8056 71.1657 25.8056 71.1657C25.8056 71.1657 33.1706 74.718 39.8345 76.2193L40.5722 74.3855Z" fill="#263238"/>
<path d="M40.7956 74.2237L40.1665 73.6621L38.898 76.2762L39.9679 76.4238L40.7956 74.2237Z" fill="#263238"/>
<path opacity="0.4" d="M40.7956 74.2237L40.1665 73.6621L38.898 76.2762L39.9679 76.4238L40.7956 74.2237Z" fill="white"/>
<path d="M24.7495 63.9292L24.7813 64.4647L33.6207 63.3754V63.0293L24.7495 63.9292Z" fill="#263238"/>
<path opacity="0.1" d="M24.7495 63.9292L24.7813 64.4647L33.6207 63.3754V63.0293L24.7495 63.9292Z" fill="white"/>
<path opacity="0.2" d="M24.9096 62.5508L27.0116 63.0298L28.6249 62.5508V61.1602L24.9096 61.1762V62.5508Z" fill="black"/>
<path d="M24.244 61.7991C24.244 61.7991 26.6167 62.5886 26.8855 62.5482C27.1542 62.5079 28.3259 62.2355 28.324 62.1415C28.3224 62.0477 27.9244 60.3102 27.9244 60.3102L25.8294 59.8242C25.8294 59.8242 24.6356 59.8807 24.111 60.2969L24.244 61.7991Z" fill="#E4897B"/>
<path d="M24.723 52.1765C24.1253 52.7907 23.5047 53.3753 22.8948 53.9644L21.0461 55.6927C20.4343 56.2661 19.8212 56.8311 19.2304 57.4054C18.6405 57.9797 18.0596 58.5532 17.535 59.1444L17.238 57.323C17.7451 57.6615 18.352 57.99 18.9706 58.2842C19.5894 58.5876 20.2328 58.8625 20.8814 59.1289C21.5315 59.3922 22.19 59.6423 22.8552 59.873C23.5178 60.1139 24.1912 60.3176 24.8656 60.5137L24.8716 60.5154C25.236 60.6214 25.4455 61.0028 25.3396 61.3671C25.2477 61.6829 24.9489 61.8821 24.6339 61.8608C23.8832 61.8106 23.1455 61.693 22.4101 61.566C21.677 61.4278 20.9504 61.2611 20.2301 61.0637C19.5086 60.8687 18.796 60.6392 18.0832 60.379C17.3724 60.1071 16.6671 59.8186 15.9388 59.4042C15.3708 59.0811 15.1723 58.3587 15.4954 57.7905C15.5233 57.7414 15.5543 57.695 15.5879 57.6514L15.6418 57.5828C16.197 56.8736 16.7722 56.2124 17.3633 55.5783C17.9545 54.945 18.5514 54.3297 19.1566 53.7306C19.7585 53.1281 20.3664 52.5397 20.971 51.9539L22.7827 50.213C23.3323 49.685 24.2059 49.7024 24.734 50.252C25.2509 50.7899 25.2452 51.6379 24.7298 52.1689L24.723 52.1765Z" fill="#E4897B"/>
<path opacity="0.2" d="M34.7346 53.3613L40.7637 54.5058L40.4822 55.295L34.9127 53.8373L34.7852 53.7768L34.7346 53.3613Z" fill="black"/>
<path d="M34.2393 55.2596C34.2393 55.2596 31.9639 56.2118 31.6966 56.192C31.4292 56.1721 30.2568 55.991 30.2514 55.8985C30.2461 55.8059 30.5089 54.0675 30.5089 54.0675L32.5336 53.4343C32.5336 53.4343 33.7119 53.4014 34.2588 53.7722L34.2393 55.2596Z" fill="#E4897B"/>
<path d="M41.3404 56.6214C40.7008 56.5152 40.0614 56.4074 39.4231 56.2918C38.7843 56.1811 38.1472 56.0569 37.5093 55.9398L35.5966 55.5797C35.2781 55.5185 34.9606 55.45 34.6428 55.3832L34.1677 55.2726L33.9302 55.2174L33.8113 55.1898C33.771 55.1856 33.7329 55.1665 33.7117 55.0338C33.6481 54.6331 33.7149 54.2421 33.881 53.9035C33.9401 53.7828 33.982 53.7758 34.022 53.7834L34.1436 53.7916L34.3868 53.8084L34.8735 53.8419C35.1968 53.8709 35.5205 53.8987 35.843 53.9333L37.7772 54.1493C38.4214 54.2244 39.0669 54.2921 39.7101 54.3734C40.3543 54.4498 40.9972 54.5341 41.6398 54.6198C42.1938 54.6938 42.5829 55.2031 42.509 55.7571C42.4348 56.3111 41.9257 56.7003 41.3717 56.6263C41.3628 56.6249 41.3492 56.6228 41.3404 56.6214Z" fill="#E4897B"/>
<path d="M44.3843 43.1349V42.9631H36.8155C36.7812 42.8773 36.6979 42.8164 36.5998 42.8164C36.4714 42.8164 36.3672 42.9206 36.3672 43.049C36.3672 43.1774 36.4714 43.2816 36.5998 43.2816C36.6979 43.2816 36.7812 43.2207 36.8155 43.1349H44.3843Z" fill="#407BFF"/>
<path d="M70.5787 52.9849C76.4448 47.1187 76.4448 37.6078 70.5787 31.7417C64.7125 25.8755 55.2016 25.8755 49.3354 31.7417C43.4693 37.6078 43.4693 47.1187 49.3354 52.9849C55.2016 58.8511 64.7125 58.8511 70.5787 52.9849Z" fill="#407BFF"/>
<path opacity="0.7" d="M70.5787 52.9849C76.4448 47.1187 76.4448 37.6078 70.5787 31.7417C64.7125 25.8755 55.2016 25.8755 49.3354 31.7417C43.4693 37.6078 43.4693 47.1187 49.3354 52.9849C55.2016 58.8511 64.7125 58.8511 70.5787 52.9849Z" fill="white"/>
<path d="M52.8777 54.8898L53.9817 49.5139C56.7353 49.6305 60.6339 50.0933 61.0858 49.5139C61.6417 48.9264 61.6301 47.5333 61.6617 46.2019L62.4297 45.3378C62.5228 44.8995 62.4422 44.501 61.9977 44.1858C62.5499 44.0927 63.0073 43.8864 63.2458 43.4178L62.6698 41.6898C63.5762 41.6096 64.4953 41.5428 64.9259 40.9698C65.2006 40.3761 63.4097 37.0753 62.2378 34.5858C62.6255 34.1942 62.9659 33.9197 62.9578 32.9057L62.7179 30.0257C62.4976 29.0317 62.0557 28.3666 61.3739 28.0576C54.758 27.7277 48.962 30.4636 46.3444 37.93C44.625 44.6855 46.8378 51.164 52.8777 54.8898Z" fill="#407BFF"/>
<path d="M66.0711 42.5471C65.7047 42.5471 65.3726 42.516 65.0889 42.4733L65.1485 42.0781C65.9756 42.2038 67.2343 42.2209 68.5428 41.596C70.5301 40.6471 70.5623 38.9021 70.5627 38.8281L70.9622 38.8287C70.9622 38.9126 70.9366 40.8957 68.7148 41.9565C67.7659 42.4099 66.8422 42.5471 66.0711 42.5471Z" fill="#407BFF"/>
<path d="M65.4186 41.7129L64.2815 42.0809L65.1686 42.8817L65.4186 41.7129Z" fill="#407BFF"/>
<path d="M68.5326 48.1876C68.6211 48.5431 68.6712 48.8728 68.6982 49.1586L68.3002 49.1961C68.2224 48.3632 67.9352 47.1374 67.013 46.0186C65.6124 44.3192 63.9111 44.7093 63.8394 44.7268L63.7435 44.3389C63.8248 44.3187 65.7555 43.8647 67.3214 45.7647C67.9902 46.576 68.3464 47.4393 68.5326 48.1876Z" fill="#407BFF"/>
<path d="M67.8815 49.022L68.513 50.0366L69.076 48.9824L67.8815 49.022Z" fill="#407BFF"/>
<path d="M44.3843 42.3368C44.3843 42.271 44.3847 42.2053 44.3856 42.1396C44.3896 41.8139 44.4038 41.4906 44.4277 41.1699" stroke="#407BFF" stroke-miterlimit="10"/>
<path d="M44.4393 43.6528C44.4104 43.308 44.3928 42.9601 44.3867 42.6094" stroke="#407BFF" stroke-miterlimit="10"/>
<path d="M45.9582 49.1561C45.1869 47.5792 44.6745 45.8536 44.4763 44.0352" stroke="#407BFF" stroke-miterlimit="10"/>
<path d="M47.0208 50.9991C46.8107 50.6863 46.6116 50.3654 46.4241 50.0371" stroke="#407BFF" stroke-miterlimit="10"/>
<path d="M48.1789 52.5152C47.9009 52.1938 47.6358 51.8611 47.3842 51.5176" stroke="#407BFF" stroke-miterlimit="10"/>
<path d="M52.679 56.1027C51.1632 55.2981 49.7954 54.2502 48.6279 53.0117" stroke="#407BFF" stroke-miterlimit="10"/>
<path d="M54.2369 56.8214C53.9538 56.7092 53.6748 56.589 53.4001 56.4609" stroke="#407BFF" stroke-miterlimit="10"/>
<path d="M55.8059 57.3492C55.4357 57.2467 55.0708 57.1308 54.7122 57.002" stroke="#407BFF" stroke-miterlimit="10"/>
<path d="M61.7957 57.8034C61.1927 57.8746 60.5794 57.9113 59.9575 57.9113C58.7468 57.9113 57.5679 57.7723 56.4359 57.5098" stroke="#407BFF" stroke-miterlimit="10"/>
<path d="M63.7129 57.4531C63.3345 57.5471 62.9504 57.6274 62.5617 57.6931" stroke="#407BFF" stroke-miterlimit="10"/>
<path d="M65.3756 56.9375C65.0212 57.0694 64.6605 57.1888 64.2946 57.2952" stroke="#407BFF" stroke-miterlimit="10"/>
<path d="M71.3839 52.9082C69.8615 54.5526 67.9895 55.8689 65.8873 56.7376" stroke="#407BFF" stroke-miterlimit="10"/>
<path d="M72.5015 51.5566C72.2791 51.8584 72.0461 52.1519 71.8031 52.4365" stroke="#407BFF" stroke-miterlimit="10"/>
<path d="M73.586 49.8691C73.382 50.237 73.1634 50.5958 72.9312 50.9446" stroke="#407BFF" stroke-miterlimit="10"/>
<path d="M75.4126 44.2637C75.2041 45.9462 74.7263 47.5464 74.0236 49.0197" stroke="#407BFF" stroke-miterlimit="10"/>
<path d="M75.5311 42.3379C75.5311 42.7044 75.5184 43.068 75.4934 43.4281" stroke="#407BFF" stroke-miterlimit="10"/>
<path d="M75.383 40.1855C75.4378 40.5808 75.4777 40.9808 75.5022 41.3849" stroke="#407BFF" stroke-miterlimit="10"/>
<path d="M72.6883 33.377C73.8035 34.9568 74.6326 36.7524 75.0991 38.6877" stroke="#407BFF" stroke-miterlimit="10"/>
<path d="M71.3835 31.7656C71.6763 32.0817 71.9561 32.4102 72.2222 32.7498" stroke="#407BFF" stroke-miterlimit="10"/>
<path d="M69.9198 30.375C70.2177 30.6236 70.5064 30.883 70.785 31.1528" stroke="#407BFF" stroke-miterlimit="10"/>
<path d="M63.8123 27.2461C65.7925 27.7521 67.622 28.6388 69.218 29.823" stroke="#407BFF" stroke-miterlimit="10"/>
<path d="M62.2161 26.9277C62.5703 26.9794 62.9206 27.0431 63.2667 27.1182" stroke="#407BFF" stroke-miterlimit="10"/>
<path d="M60.5193 26.7734C60.9498 26.7887 61.3761 26.8216 61.7973 26.8715" stroke="#407BFF" stroke-miterlimit="10"/>
<path d="M55.0092 27.5694C56.5165 27.063 58.126 26.7813 59.7978 26.7644C59.851 26.7639 59.9043 26.7637 59.9577 26.7637" stroke="#407BFF" stroke-miterlimit="10"/>
<path d="M53.4222 28.2021C53.7271 28.0606 54.0373 27.9286 54.3523 27.8066" stroke="#407BFF" stroke-miterlimit="10"/>
<path d="M52.0453 28.9271C52.295 28.7792 52.5493 28.638 52.8076 28.5039" stroke="#407BFF" stroke-miterlimit="10"/>
<path d="M47.4773 33.0312C48.5537 31.5912 49.8732 30.3429 51.3741 29.3477" stroke="#407BFF" stroke-miterlimit="10"/>
<path d="M46.6961 34.1798C46.8131 33.9903 46.9342 33.8033 47.0589 33.6191" stroke="#407BFF" stroke-miterlimit="10"/>
<path d="M46.1914 35.0599C46.267 34.9175 46.3446 34.7766 46.4245 34.6367" stroke="#407BFF" stroke-miterlimit="10"/>
<path d="M44.509 40.3611C44.7091 38.7882 45.1448 37.2877 45.7792 35.8965" stroke="#407BFF" stroke-miterlimit="10"/>
<path d="M56.0977 68.9631V68.0195H57.7486V68.9631C57.7486 69.217 57.8559 69.4591 58.0439 69.6297C58.232 69.8003 58.3392 70.0424 58.3392 70.2963V75.7185C58.3392 75.9819 58.1256 76.1958 57.8619 76.1958H55.9844C55.7209 76.1958 55.5071 75.9821 55.5071 75.7185V70.2963C55.5071 70.0424 55.6144 69.8003 55.8024 69.6297C55.9906 69.4591 56.0977 69.217 56.0977 68.9631Z" fill="#407BFF"/>
<path opacity="0.2" d="M56.0977 68.9631V68.0195H57.7486V68.9631C57.7486 69.217 57.8559 69.4591 58.0439 69.6297C58.232 69.8003 58.3392 70.0424 58.3392 70.2963V75.7185C58.3392 75.9819 58.1256 76.1958 57.8619 76.1958H55.9844C55.7209 76.1958 55.5071 75.9821 55.5071 75.7185V70.2963C55.5071 70.0424 55.6144 69.8003 55.8024 69.6297C55.9906 69.4591 56.0977 69.217 56.0977 68.9631Z" fill="black"/>
<path opacity="0.5" d="M55.5073 71.5977V70.2944C55.5073 70.0405 55.6144 69.7983 55.8024 69.6278C55.9906 69.4572 56.0977 69.215 56.0977 68.9611V68.0176H57.7486V68.9611C57.7486 69.215 57.8557 69.4572 58.0439 69.6278C58.232 69.7983 58.3392 70.0405 58.3392 70.2944V71.5977H55.5073Z" fill="white"/>
<path opacity="0.6" d="M58.3392 73.4941V75.7172C58.3392 75.9807 58.1256 76.1945 57.8619 76.1945H55.9844C55.7207 76.1945 55.5071 75.9809 55.5071 75.7172V73.4941H58.3392Z" fill="white"/>
<path d="M56.0462 68.5015H57.8005C57.854 68.5015 57.8974 68.458 57.8974 68.4045V67.8567C57.8974 67.8032 57.854 67.7598 57.8005 67.7598H56.0462C55.9927 67.7598 55.9492 67.8032 55.9492 67.8567V68.4045C55.9491 68.4579 55.9925 68.5015 56.0462 68.5015Z" fill="#407BFF"/>
<path d="M53.4187 66.8205V65.877H55.0695V66.8205C55.0695 67.0744 55.1768 67.3166 55.3649 67.4871C55.5529 67.6577 55.6602 67.8998 55.6602 68.1538V75.7193C55.6602 75.9828 55.4466 76.1966 55.1829 76.1966H53.3054C53.0419 76.1966 52.8281 75.983 52.8281 75.7193V68.1538C52.8281 67.8998 52.9353 67.6577 53.1234 67.4871C53.3114 67.3166 53.4187 67.0744 53.4187 66.8205Z" fill="#407BFF"/>
<path opacity="0.6" d="M52.8281 70.5287V68.1538C52.8281 67.8998 52.9353 67.6577 53.1234 67.4871C53.3114 67.3166 53.4187 67.0744 53.4187 66.8205V65.877H55.0695V66.8205C55.0695 67.0744 55.1768 67.3166 55.3649 67.4871C55.5529 67.6577 55.6602 67.8998 55.6602 68.1538V70.5287H52.8281Z" fill="white"/>
<path opacity="0.6" d="M55.6602 73.4961V75.7192C55.6602 75.9827 55.4466 76.1965 55.1829 76.1965H53.3054C53.0417 76.1965 52.8281 75.9829 52.8281 75.7192V73.4961H55.6602Z" fill="white"/>
<path d="M53.367 66.3589H55.1211C55.1746 66.3589 55.218 66.3155 55.218 66.2619V65.7142C55.218 65.6606 55.1746 65.6172 55.1211 65.6172H53.3668C53.3133 65.6172 53.2698 65.6606 53.2698 65.7142V66.2619C53.27 66.3155 53.3134 66.3589 53.367 66.3589Z" fill="#407BFF"/>
<path d="M61.4871 73.7344H51.7253C51.0663 73.7344 50.5319 74.2687 50.5319 74.9278V75.4631C50.5319 76.1221 51.0663 76.6565 51.7253 76.6565H63.5437C64.2028 76.6565 64.7371 76.1221 64.7371 75.4631C64.7371 74.804 64.2028 74.2696 63.5437 74.2696H61.6617V73.909C61.6617 73.8126 61.5835 73.7344 61.4871 73.7344Z" fill="#407BFF"/>
<path opacity="0.5" d="M53.9613 73.7344H51.7253C51.0663 73.7344 50.5319 74.2687 50.5319 74.9278V75.4631C50.5319 76.1221 51.0663 76.6565 51.7253 76.6565H56.0179C56.677 76.6565 57.2113 76.1221 57.2113 75.4631C57.2113 74.804 56.677 74.2696 56.0179 74.2696H54.1359V73.909C54.1359 73.8126 54.0579 73.7344 53.9613 73.7344Z" fill="white"/>
<path opacity="0.2" d="M54.1359 74.2701L52.8606 74.2333L52.2231 74.2176C52.1156 74.2162 52.014 74.2094 51.8983 74.2152C51.7857 74.2252 51.6746 74.253 51.57 74.2982C51.1456 74.4763 50.8832 74.968 50.9702 75.4282C51.0429 75.8902 51.4602 76.2753 51.9377 76.3011C52.8005 76.3241 53.6415 76.3165 54.4945 76.3241L55.7697 76.3303C55.8766 76.3281 55.9757 76.3388 56.1095 76.3202C56.2343 76.3005 56.3557 76.253 56.4589 76.1796C56.6672 76.0356 56.8061 75.7929 56.8185 75.5378C56.8348 75.2839 56.7257 75.0254 56.5338 74.8596C56.4392 74.7755 56.3252 74.713 56.2028 74.68C56.0795 74.6438 55.9476 74.6488 55.8499 74.6495L54.5746 74.6557C53.7245 74.6624 52.8744 74.6585 52.0242 74.6754C51.9084 74.6653 51.7437 74.7211 51.6611 74.8317C51.571 74.9398 51.5421 75.0929 51.5844 75.2252C51.6256 75.3584 51.7358 75.4652 51.8689 75.5016C51.9371 75.5215 52.0061 75.5167 52.053 75.5161L52.2126 75.5137L53.4877 75.4941C54.3378 75.4709 55.188 75.4573 56.0381 75.4258C55.188 75.3941 54.3378 75.3805 53.4877 75.3575L52.2126 75.3378C52.1138 75.3327 51.9804 75.3428 51.9211 75.3235C51.8488 75.3012 51.7908 75.2401 51.7713 75.1689C51.729 75.0195 51.8529 74.8655 52.0242 74.8898C52.8742 74.9067 53.7243 74.9029 54.5746 74.9095L55.8499 74.9157C55.964 74.9161 56.0477 74.9143 56.1296 74.9395C56.2124 74.9623 56.2891 75.0057 56.3526 75.0635C56.4821 75.1778 56.5522 75.3511 56.5404 75.5222C56.5344 75.6935 56.4426 75.8575 56.3022 75.9572C56.2328 76.0081 56.1509 76.0405 56.0665 76.0547C55.9899 76.0683 55.8751 76.0624 55.7698 76.0646L54.4947 76.0709L51.9509 76.088C51.5693 76.0803 51.2155 75.7783 51.143 75.3958C51.0585 75.0144 51.265 74.5902 51.6276 74.4213C51.7161 74.3777 51.812 74.3485 51.9108 74.3347C52.0072 74.3249 52.1184 74.3257 52.2234 74.3222L52.861 74.3065L54.1359 74.2701Z" fill="black"/>
<path opacity="0.2" d="M61.6617 74.2702H54.1359L61.6617 73.9922V74.2702Z" fill="black"/>
</svg>
