<svg id="Layer_1" data-name="Layer 1" xmlns="http://www.w3.org/2000/svg" viewBox="0 0 384.54 384.54"><defs><style>.cls-1{fill:#e0e0df;}.cls-2{fill:#f0f0f1;}.cls-3{fill:#c6c5c5;}.cls-4{fill:#060606;}.cls-5{fill:#fff;}.cls-6{fill:#ef4478;}.cls-7{fill:none;stroke:#231f20;stroke-linecap:round;stroke-miterlimit:10;stroke-width:9px;}</style></defs><circle class="cls-1" cx="192.27" cy="192.27" r="192.27"/><path class="cls-2" d="M105.76,421a193.61,193.61,0,0,0,2.48,30.85A152.81,152.81,0,1,0,309.3,229c-3.73-.22-7.48-.34-11.27-.34C191.84,228.68,105.76,314.76,105.76,421Z" transform="translate(-105.76 -228.68)"/><circle class="cls-3" cx="222.14" cy="58.37" r="24.13"/><circle class="cls-3" cx="319.04" cy="133.05" r="34.47"/><circle class="cls-3" cx="64.74" cy="191.26" r="33.7"/><circle class="cls-3" cx="196.48" cy="201.22" r="30.64"/><circle class="cls-3" cx="57.84" cy="262.5" r="9.96"/><circle class="cls-3" cx="138.65" cy="259.05" r="11.11"/><circle class="cls-3" cx="294.53" cy="283.95" r="22.21"/><circle class="cls-3" cx="319.04" cy="208.12" r="9.19"/><circle class="cls-3" cx="142.48" cy="342.54" r="17.23"/><circle class="cls-3" cx="208.74" cy="344.46" r="10.72"/><circle class="cls-3" cx="183.46" cy="121.56" r="11.49"/><path class="cls-4" d="M244.63,350.61a37.15,37.15,0,1,1-54.22,33" transform="translate(-105.76 -228.68)"/><path class="cls-5" d="M224.68,362.75,209.56,372a9.32,9.32,0,1,0,15.12-9.2Z" transform="translate(-105.76 -228.68)"/><path class="cls-4" d="M351.43,350.61a37.15,37.15,0,1,0,54.22,33" transform="translate(-105.76 -228.68)"/><path class="cls-5" d="M371.38,362.75,386.5,372a9.31,9.31,0,1,1-15.12-9.2Z" transform="translate(-105.76 -228.68)"/><ellipse class="cls-5" cx="199.13" cy="308.11" rx="52.09" ry="26.81" transform="translate(-233.14 -87.83) rotate(-30)"/><ellipse class="cls-6" cx="193.67" cy="437.56" rx="16.85" ry="30.64" transform="translate(-389.81 236.32) rotate(-69.41)"/><ellipse class="cls-6" cx="402.39" cy="437.56" rx="30.64" ry="16.85" transform="translate(-233.93 -59.23) rotate(-20.59)"/><line class="cls-7" x1="155.89" y1="235.69" x2="191.12" y2="205.05"/><line class="cls-7" x1="228.65" y1="237.99" x2="193.42" y2="207.35"/></svg>