<svg width="63" height="63" viewBox="0 0 63 63" fill="none" xmlns="http://www.w3.org/2000/svg">
<path d="M53.0931 53.6867C65.1685 41.5941 65.1685 21.9882 53.0931 9.89561C41.0177 -2.19697 21.4396 -2.19697 9.36418 9.8956C-2.71124 21.9882 -2.71124 41.5941 9.36418 53.6867C21.4396 65.7793 41.0177 65.7793 53.0931 53.6867Z" fill="#67C6E3"/>
<path d="M34.489 37.5703H29.0453V47.7049H34.489V37.5703Z" fill="#4F3422"/>
<path fill-rule="evenodd" clip-rule="evenodd" d="M15.4876 13.9619H48.0613C49.1677 13.9619 50.0528 14.8631 50.0528 15.9563V36.8904C50.0528 37.9984 49.1529 38.8848 48.0613 38.8848H15.4876C14.3812 38.8848 13.496 37.9837 13.496 36.8904V15.9563C13.496 14.8631 14.3812 13.9619 15.4876 13.9619Z" fill="white"/>
<path d="M41.703 49.9058H22.4656C21.3592 49.9058 20.474 49.0047 20.474 47.9114C20.474 46.8182 21.3739 45.917 22.4656 45.917H41.703C42.8094 45.917 43.6945 46.8182 43.6945 47.9114C43.6945 49.0047 42.8094 49.9058 41.703 49.9058Z" fill="#4F3422"/>
<path d="M21.6837 33.3596C21.1674 33.3596 20.6658 33.1676 20.2675 32.7687C19.4856 31.9857 19.4856 30.7299 20.2675 29.9469L27.6732 22.5306C28.4551 21.7476 29.7091 21.7476 30.491 22.5306L34.1201 26.1649L40.2867 19.9896C41.0685 19.2066 42.3225 19.2066 43.1044 19.9896C43.8863 20.7726 43.8863 22.0283 43.1044 22.8113L35.5216 30.4049C34.7397 31.1879 33.4857 31.1879 32.7039 30.4049L29.0895 26.7854L23.0999 32.7834C22.7164 33.1676 22.2 33.3596 21.6837 33.3596Z" fill="#4F3422"/>
</svg>
