<svg width="108" height="108" viewBox="0 0 108 108" fill="none" xmlns="http://www.w3.org/2000/svg">
<rect width="108" height="108" rx="54" fill="#FAF9FF"/>
<rect width="108" height="108" rx="54" fill="#FAF9FF"/>
<rect width="108" height="108" rx="54" fill="#FAF9FF"/>
<rect x="14" y="14" width="80" height="80" rx="40" fill="#7F56D9"/>
<path d="M54 42C47.388 42 42 47.388 42 54C42 60.6119 47.388 65.9999 54 65.9999C60.612 65.9999 66 60.6119 66 54C66 47.388 60.612 42 54 42ZM59.736 51.24L52.932 58.044C52.764 58.212 52.536 58.308 52.296 58.308C52.056 58.308 51.828 58.212 51.66 58.044L48.264 54.648C47.916 54.3 47.916 53.724 48.264 53.376C48.612 53.028 49.188 53.028 49.536 53.376L52.296 56.136L58.464 49.968C58.812 49.62 59.388 49.62 59.736 49.968C60.084 50.316 60.084 50.88 59.736 51.24Z" fill="white"/>
</svg>
