<svg width="59" height="48" viewBox="0 0 59 48" fill="none" xmlns="http://www.w3.org/2000/svg">
<path d="M51.5347 24.7801C48.6218 26.4619 44.8348 26.1577 42.2179 23.7791C42.0359 23.6113 41.8282 23.4582 41.6226 23.3381C40.7578 22.8139 39.7375 22.6694 38.7539 22.9131C37.7704 23.1569 36.9479 23.7682 36.4251 24.633L36.2508 24.9212C36.1183 25.1342 35.9857 25.3472 35.833 25.5548C34.4606 27.456 32.4332 28.6948 30.1159 29.0774C27.804 29.4398 25.4765 28.89 23.5878 27.5069L22.6397 26.809C22.467 26.6869 22.289 26.585 22.1109 26.4831C21.1694 26.0031 20.1 25.9212 19.1022 26.2584C18.0971 26.5828 17.2934 27.2856 16.8149 28.2272C16.6137 28.6163 16.385 28.9872 16.1414 29.3325C14.8962 31.0409 13.0658 32.1488 10.9825 32.4646C8.89917 32.7803 6.81901 32.2754 5.11033 31.0272L2.04573 28.7877C1.16015 28.1389 0.96527 26.8867 1.61244 26.0013C2.25961 25.1159 3.51067 24.9224 4.39626 25.5711L7.46086 27.8107C8.29873 28.4357 9.33242 28.6919 10.3603 28.5249C11.3956 28.3707 12.3007 27.8141 12.9243 26.9764C13.0461 26.8037 13.1605 26.6183 13.2547 26.4274C14.2042 24.5315 15.8446 23.1239 17.8548 22.475C19.8705 21.806 22.0167 21.9828 23.9124 22.9353C24.274 23.119 24.6449 23.3483 24.9902 23.5925L25.9511 24.283C26.9818 25.0356 28.2427 25.3312 29.5065 25.1303C30.7704 24.9295 31.8725 24.242 32.6233 23.2114C32.696 23.1013 32.7814 22.9837 32.8541 22.8735L33.0283 22.5853C34.0975 20.808 35.7861 19.543 37.8117 19.0388C39.8246 18.542 41.9257 18.8472 43.7031 19.9193C44.1418 20.1777 44.5571 20.4839 44.9286 20.8323C46.5451 22.3044 49.0504 22.1885 50.5195 20.5727C50.6614 20.4055 50.8033 20.2382 50.9305 20.0454L52.8211 17.0944C53.4131 16.1726 54.6528 15.9004 55.5747 16.494C56.4967 17.0876 56.783 18.3212 56.1781 19.2504L54.2875 22.2014C54.046 22.5796 53.7769 22.9397 53.4729 23.2688C52.8682 23.8738 52.2246 24.3818 51.5347 24.7801Z" fill="#FFCE5C"/>
</svg>
