<svg xmlns="http://www.w3.org/2000/svg" viewBox="0 0 566.13 566.13"><defs><style>.cls-1{isolation:isolate;}.cls-2{fill:#115f93;}.cls-3{fill:#1572a7;}.cls-4{fill:#0a456d;}.cls-5{fill:#fff;}.cls-6{fill:#ef4478;}.cls-7{fill:none;stroke:#000;stroke-linecap:round;stroke-miterlimit:10;stroke-width:9px;}.cls-8{fill:#19b9dd;mix-blend-mode:overlay;}</style></defs><g class="cls-1"><g id="Layer_1" data-name="Layer 1"><circle class="cls-2" cx="283.07" cy="283.07" r="283.07"/><path class="cls-3" d="M247.82,142C115.44,165.69,15,281.42,15,420.61A281.79,281.79,0,0,0,47.75,552.92a228.71,228.71,0,0,0,121.94,35c126.91,0,229.78-102.88,229.78-229.79C399.47,258.67,336.26,174,247.82,142Z" transform="translate(-14.96 -137.88)"/><path class="cls-4" d="M99,219.5c74,17.86,129,12.19,166.47,3.07,27-6.59,43.23-14.58,78.89-21.45A424.34,424.34,0,0,1,469.22,196c5.63,4.18,11.55,8.93,17.62,14.3,6.6,5.85,12.46,11.61,17.62,17.11-34-8.2-85.52-16-145.54-5.62-43.47,7.54-61.37,19.45-99.57,27.58-39.24,8.34-97.83,12.25-176.43-12.52Q91,228.19,99,219.5Z" transform="translate(-14.96 -137.88)"/><path class="cls-4" d="M569.56,340c-90.94-19-162.46-15.86-211.15-9.44-68.45,9-103.85,26.2-178.72,29.61a557.38,557.38,0,0,1-154.47-14.8l-3.06,12c30.33,12.85,77.92,29,137.1,31.4,78.52,3.19,121.19-20.09,198.13-32.68,49.4-8.08,122.71-13.36,217,4.59Q572,350.36,569.56,340Z" transform="translate(-14.96 -137.88)"/><path class="cls-4" d="M35.43,526.65a515.58,515.58,0,0,0,145.28,20.43c76.32-.36,112.33-18,186.89-24.51,44-3.86,108.47-4.48,189.2,13.27a102.55,102.55,0,0,0,5.87-12.76,100.87,100.87,0,0,0,3.83-12.51c-88.31-19-158.16-16.47-206-10.47C281,510,238.11,532.49,158.24,527.67c-57.06-3.44-102.94-19-132.76-31.66a170.08,170.08,0,0,0,4.85,17.37C32,518.17,33.68,522.6,35.43,526.65Z" transform="translate(-14.96 -137.88)"/><path class="cls-4" d="M222.58,693.63c13.32-1.57,33.68-4.42,58.22-9.7,37-8,51.71-14.69,76.08-19.92,21.51-4.61,53-8.59,93.7-4.08,4.54-2.82,9.37-6.1,14.34-9.92,3.7-2.85,7.09-5.7,10.17-8.46-59.52-11-104.78-6.45-135.57,0-27.39,5.73-47.28,13.79-90.38,21.44a642.69,642.69,0,0,1-81.71,9.19,264.1,264.1,0,0,0,55.15,21.45Z" transform="translate(-14.96 -137.88)"/><circle cx="175.67" cy="268.51" r="60.51"/><circle class="cls-5" cx="157.28" cy="250.13" r="16.09"/><circle class="cls-5" cx="203.24" cy="293.79" r="9.96"/><circle class="cls-5" cx="182.94" cy="312.56" r="5.74"/><circle cx="395.5" cy="268.51" r="60.51"/><circle class="cls-5" cx="377.11" cy="250.13" r="16.09"/><circle class="cls-5" cx="423.07" cy="293.79" r="9.96"/><circle class="cls-5" cx="402.77" cy="312.56" r="5.74"/><path d="M258.2,501.3h88.85c-7.93-21.23-26.86-35.08-46.3-34.55-27.76.75-42.55,30.45-42.55,32.34C258.2,499.13,258.21,501.3,258.2,501.3Z" transform="translate(-14.96 -137.88)"/><ellipse class="cls-6" cx="114.97" cy="483.76" rx="25.28" ry="43.66" transform="translate(-396.28 376.57) rotate(-80.17)"/><ellipse class="cls-6" cx="474.97" cy="483.76" rx="43.66" ry="25.28" transform="translate(-90.58 -49.7) rotate(-9.83)"/><ellipse class="cls-6" cx="114.97" cy="481.84" rx="25.28" ry="43.66" transform="translate(-394.39 374.98) rotate(-80.17)"/><path class="cls-7" d="M146,318.78a84.56,84.56,0,0,0,52.08-3.07c27.12-10.74,39.65-32.27,42.9-38.3" transform="translate(-14.96 -137.88)"/><path class="cls-7" d="M450.07,318.78A84.56,84.56,0,0,1,398,315.71c-27.12-10.74-39.65-32.27-42.9-38.3" transform="translate(-14.96 -137.88)"/><ellipse class="cls-8" cx="145.24" cy="247.55" rx="67.76" ry="38.4" transform="translate(-147.47 37.32) rotate(-45)"/></g></g></svg>